  0
SECTION
  2
HEADER
  9
$ACADVER
  1
AC1012
  9
$DWGCODEPAGE
  3
ansi_1252
  9
$INSBASE
 10
0.0
 20
0.0
 30
0.0
  9
$EXTMIN
 10
0.0
 20
0.0
 30
0.0
  9
$EXTMAX
 10
0.594
 20
0.42
 30
0.0
  9
$LIMMIN
 10
0.0
 20
0.0
  9
$LIMMAX
 10
0.594
 20
0.42
  9
$ORTHOMODE
 70
     0
  9
$REGENMODE
 70
     1
  9
$FILLMODE
 70
     1
  9
$QTEXTMODE
 70
     0
  9
$MIRRTEXT
 70
     1
  9
$DRAGMODE
 70
     2
  9
$LTSCALE
 40
1.0
  9
$OSMODE
 70
    37
  9
$ATTMODE
 70
     1
  9
$TEXTSIZE
 40
0.003175
  9
$TRACEWID
 40
1.0
  9
$TEXTSTYLE
  7
STANDARD
  9
$CLAYER
  8
0
  9
$CELTYPE
  6
BYLAYER
  9
$CECOLOR
 62
   256
  9
$CELTSCALE
 40
1.0
  9
$DELOBJ
 70
     1
  9
$DISPSILH
 70
     0
  9
$DIMSCALE
 40
1.0
  9
$DIMASZ
 40
0.003302
  9
$DIMEXO
 40
0.00127
  9
$DIMDLI
 40
3.75
  9
$DIMRND
 40
0.0
  9
$DIMDLE
 40
0.0
  9
$DIMEXE
 40
0.003175
  9
$DIMTP
 40
0.0
  9
$DIMTM
 40
0.0
  9
$DIMTXT
 40
0.003175
  9
$DIMCEN
 40
2.5
  9
$DIMTSZ
 40
0.0
  9
$DIMTOL
 70
     0
  9
$DIMLIM
 70
     0
  9
$DIMTIH
 70
     1
  9
$DIMTOH
 70
     1
  9
$DIMSE1
 70
     0
  9
$DIMSE2
 70
     0
  9
$DIMTAD
 70
     0
  9
$DIMZIN
 70
     0
  9
$DIMBLK
  1

  9
$DIMASO
 70
     1
  9
$DIMSHO
 70
     1
  9
$DIMPOST
  1

  9
$DIMAPOST
  1

  9
$DIMALT
 70
     0
  9
$DIMALTD
 70
     3
  9
$DIMALTF
 40
39.3700787402
  9
$DIMLFAC
 40
1.0
  9
$DIMTOFL
 70
     1
  9
$DIMTVP
 40
0.0
  9
$DIMTIX
 70
     0
  9
$DIMSOXD
 70
     0
  9
$DIMSAH
 70
     0
  9
$DIMBLK1
  1

  9
$DIMBLK2
  1

  9
$DIMSTYLE
  2
ISO-25
  9
$DIMCLRD
 70
     0
  9
$DIMCLRE
 70
     0
  9
$DIMCLRT
 70
     0
  9
$DIMTFAC
 40
1.0
  9
$DIMGAP
 40
0.001524
  9
$DIMJUST
 70
     0
  9
$DIMSD1
 70
     0
  9
$DIMSD2
 70
     0
  9
$DIMTOLJ
 70
     0
  9
$DIMTZIN
 70
     0
  9
$DIMALTZ
 70
     0
  9
$DIMALTTZ
 70
     0
  9
$DIMFIT
 70
     3
  9
$DIMUPT
 70
     0
  9
$DIMUNIT
 70
     2
  9
$DIMDEC
 70
     3
  9
$DIMTDEC
 70
     3
  9
$DIMALTU
 70
     2
  9
$DIMALTTD
 70
     3
  9
$DIMTXSTY
  7
STANDARD
  9
$DIMAUNIT
 70
     0
  9
$LUNITS
 70
     2
  9
$LUPREC
 70
     2
  9
$SKETCHINC
 40
1.0
  9
$FILLETRAD
 40
10.0
  9
$AUNITS
 70
     0
  9
$AUPREC
 70
     2
  9
$MENU
  1
.
  9
$ELEVATION
 40
0.0
  9
$PELEVATION
 40
0.0
  9
$THICKNESS
 40
0.0
  9
$LIMCHECK
 70
     0
  9
$CHAMFERA
 40
10.0
  9
$CHAMFERB
 40
10.0
  9
$CHAMFERC
 40
20.0
  9
$CHAMFERD
 40
0.0
  9
$SKPOLY
 70
     0
  9
$TDCREATE
 40
2457028.572332627
  9
$TDUPDATE
 40
2457028.572333808
  9
$TDINDWG
 40
0.0000000116
  9
$TDUSRTIMER
 40
0.0000000116
  9
$USRTIMER
 70
     1
  9
$ANGBASE
 50
0.0
  9
$ANGDIR
 70
     0
  9
$PDMODE
 70
     0
  9
$PDSIZE
 40
-1.0
  9
$PLINEWID
 40
0.0
  9
$COORDS
 70
     1
  9
$SPLFRAME
 70
     0
  9
$SPLINETYPE
 70
     6
  9
$SPLINESEGS
 70
     8
  9
$ATTDIA
 70
     0
  9
$ATTREQ
 70
     1
  9
$HANDLING
 70
     1
  9
$HANDSEED
  5
2AA
  9
$SURFTAB1
 70
     6
  9
$SURFTAB2
 70
     6
  9
$SURFTYPE
 70
     6
  9
$SURFU
 70
     6
  9
$SURFV
 70
     6
  9
$UCSNAME
  2

  9
$UCSORG
 10
0.0
 20
0.0
 30
0.0
  9
$UCSXDIR
 10
1.0
 20
0.0
 30
0.0
  9
$UCSYDIR
 10
0.0
 20
1.0
 30
0.0
  9
$PUCSNAME
  2

  9
$PUCSORG
 10
0.0
 20
0.0
 30
0.0
  9
$PUCSXDIR
 10
1.0
 20
0.0
 30
0.0
  9
$PUCSYDIR
 10
0.0
 20
1.0
 30
0.0
  9
$USERI1
 70
     0
  9
$USERI2
 70
     0
  9
$USERI3
 70
     0
  9
$USERI4
 70
     0
  9
$USERI5
 70
     0
  9
$USERR1
 40
0.0
  9
$USERR2
 40
0.0
  9
$USERR3
 40
0.0
  9
$USERR4
 40
0.0
  9
$USERR5
 40
0.0
  9
$WORLDVIEW
 70
     1
  9
$SHADEDGE
 70
     3
  9
$SHADEDIF
 70
    70
  9
$TILEMODE
 70
     1
  9
$MAXACTVP
 70
    64
  9
$PINSBASE
 10
0.0
 20
0.0
 30
0.0
  9
$PLIMCHECK
 70
     0
  9
$PEXTMIN
 10
1.0000000000E+20
 20
1.0000000000E+20
 30
1.0000000000E+20
  9
$PEXTMAX
 10
-1.0000000000E+20
 20
-1.0000000000E+20
 30
-1.0000000000E+20
  9
$PLIMMIN
 10
0.0
 20
0.0
  9
$PLIMMAX
 10
420.0
 20
297.0
  9
$UNITMODE
 70
     0
  9
$VISRETAIN
 70
     1
  9
$PLINEGEN
 70
     0
  9
$PSLTSCALE
 70
     1
  9
$TREEDEPTH
 70
  3020
  9
$PICKSTYLE
 70
     1
  9
$CMLSTYLE
  2
STANDARD
  9
$CMLJUST
 70
     0
  9
$CMLSCALE
 40
20.0
  9
$SAVEIMAGES
 70
     1
  0
ENDSEC
  0
SECTION
  2
CLASSES
  0
CLASS
  1
ACDBDICTIONARYWDFLT
  2
AcDbDictionaryWithDefault
  3
ObjectDBX Classes
 90
    32768
280
     0
281
     0
  0
CLASS
  1
VISUALSTYLE
  2
AcDbVisualStyle
  3
ObjectDBX Classes
 90
     4095
280
     0
281
     0
  0
CLASS
  1
MATERIAL
  2
AcDbMaterial
  3
ObjectDBX Classes
 90
     1153
280
     0
281
     0
  0
CLASS
  1
XRECORD
  2
AcDbXrecord
  3
AutoCAD 2000
 90
    32768
280
     0
281
     0
  0
ENDSEC
  0
SECTION
  2
TABLES
  0
TABLE
  2
VPORT
  5
8
330
0
100
AcDbSymbolTable
 70
     1
  0
VPORT
  5
29
330
8
100
AcDbSymbolTableRecord
100
AcDbViewportTableRecord
  2
*ACTIVE
 70
     0
 10
0.0
 20
0.0
 11
1.0
 21
1.0
 12
0.297
 22
0.21
 13
0.0
 23
0.0
 14
10.0
 24
10.0
 15
10.0
 25
10.0
 16
0.0
 26
0.0
 36
1.0
 17
0.0
 27
0.0
 37
0.0
 40
0.42
 41
1.4142857143
 42
50.0
 43
0.0
 44
0.0
 50
0.0
 51
0.0
 71
     0
 72
  2000
 73
     1
 74
     3
 75
     0
 76
     0
 77
     0
 78
     0
  0
ENDTAB
  0
TABLE
  2
LTYPE
  5
5
330
0
100
AcDbSymbolTable
 70
     6
  0
LTYPE
  5
14
330
5
100
AcDbSymbolTableRecord
100
AcDbLinetypeTableRecord
  2
BYBLOCK
 70
     0
  3

 72
    65
 73
     0
 40
0.0
  0
LTYPE
  5
15
330
5
100
AcDbSymbolTableRecord
100
AcDbLinetypeTableRecord
  2
BYLAYER
 70
     0
  3

 72
    65
 73
     0
 40
0.0
  0
LTYPE
  5
16
330
5
100
AcDbSymbolTableRecord
100
AcDbLinetypeTableRecord
  2
CONTINUOUS
 70
     0
  3
Solid line
 72
    65
 73
     0
 40
0.0
  0
LTYPE
  5
3F
330
5
100
AcDbSymbolTableRecord
100
AcDbLinetypeTableRecord
  2
HIDDEN
 70
     0
  3
Hidden __ __ __ __ __ __ __ __ __ __ __ __ __ __
 72
    65
 73
     2
 40
0.001905
 49
0.00127
 74
     0
 49
-0.000635
 74
     0
  0
LTYPE
  5
40
330
5
100
AcDbSymbolTableRecord
100
AcDbLinetypeTableRecord
  2
PHANTOM
 70
     0
  3
Phantom ______  __  __  ______  __  __  ______
 72
    65
 73
     6
 40
0.0127
 49
0.00635
 74
     0
 49
-0.00127
 74
     0
 49
0.00127
 74
     0
 49
-0.00127
 74
     0
 49
0.00127
 74
     0
 49
-0.00127
 74
     0
  0
LTYPE
  5
41
330
5
100
AcDbSymbolTableRecord
100
AcDbLinetypeTableRecord
  2
CENTER
 70
     0
  3
Center ____ _ ____ _ ____ _ ____ _ ____ _ ____
 72
    65
 73
     4
 40
0.01016
 49
0.00635
 74
     0
 49
-0.00127
 74
     0
 49
0.00127
 74
     0
 49
-0.00127
 74
     0
  0
LTYPE
  5
42
330
5
100
AcDbSymbolTableRecord
100
AcDbLinetypeTableRecord
  2
CENTERX2
 70
     0
  3
Center (2x) ________  __  ________  __  _____
 72
    65
 73
     4
 40
0.02032
 49
0.0127
 74
     0
 49
-0.00254
 74
     0
 49
0.00254
 74
     0
 49
-0.00254
 74
     0
  0
LTYPE
  5
43
330
5
100
AcDbSymbolTableRecord
100
AcDbLinetypeTableRecord
  2
DOT2
 70
     0
  3
Dot (.5x) ........................................
 72
    65
 73
     2
 40
0.000635
 49
0.0
 74
     0
 49
-0.000635
 74
     0
  0
ENDTAB
  0
TABLE
  2
LAYER
  5
2
330
0
100
AcDbSymbolTable
 70
     2
  0
LAYER
  5
10
330
2
100
AcDbSymbolTableRecord
100
AcDbLayerTableRecord
  2
0
 70
     0
 62
     7
  6
CONTINUOUS
  0
LAYER
  5
44
330
2
100
AcDbSymbolTableRecord
100
AcDbLayerTableRecord
  2
FORMAT
 70
     0
 62
     7
  6
CONTINUOUS
  0
ENDTAB
  0
TABLE
  2
STYLE
  5
3
330
0
100
AcDbSymbolTable
 70
     2
  0
STYLE
  5
11
330
3
100
AcDbSymbolTableRecord
100
AcDbTextStyleTableRecord
  2
STANDARD
 70
     0
 40
0.0
 41
1.0
 50
0.0
 71
     0
 42
0.003175
  3
txt
  4

  0
STYLE
  5
2A7
330
3
100
AcDbSymbolTableRecord
100
AcDbTextStyleTableRecord
  2
SLDTEXTSTYLE0
 70
     0
 40
0.0
 41
0.7
 50
0.0
 71
     0
 42
0.2
  3
TXT
  4

  0
ENDTAB
  0
TABLE
  2
VIEW
  5
6
330
0
100
AcDbSymbolTable
 70
     0
  0
ENDTAB
  0
TABLE
  2
UCS
  5
7
330
0
100
AcDbSymbolTable
 70
     0
  0
ENDTAB
  0
TABLE
  2
APPID
  5
9
330
0
100
AcDbSymbolTable
 70
     1
  0
APPID
  5
12
330
9
100
AcDbSymbolTableRecord
100
AcDbRegAppTableRecord
  2
ACAD
 70
     0
  0
ENDTAB
  0
TABLE
  2
DIMSTYLE
  5
A
330
0
100
AcDbSymbolTable
 70
     1
  0
DIMSTYLE
105
27
330
A
100
AcDbSymbolTableRecord
100
AcDbDimStyleTableRecord
  2
ISO-25
 70
     0
  3

  4

  5

  6

  7

 40
1.0
 41
2.5
 42
0.625
 43
3.75
 44
1.25
 45
0.0
 46
0.0
 47
0.0
 48
0.0
140
2.5
141
2.5
142
0.0
143
0.0393700787
144
1.0
145
0.0
146
1.0
147
0.625
 71
     0
 72
     0
 73
     0
 74
     0
 75
     0
 76
     0
 77
     1
 78
     8
170
     0
171
     3
172
     1
173
     0
174
     0
175
     0
176
     0
177
     0
178
     0
270
     2
271
     2
272
     2
273
     2
274
     3
340
11
275
     0
280
     0
281
     0
282
     0
283
     0
284
     8
285
     0
286
     0
287
     3
288
     0
  0
ENDTAB
  0
TABLE
  2
BLOCK_RECORD
  5
1
330
0
100
AcDbSymbolTable
 70
     1
  0
BLOCK_RECORD
  5
1F
330
1
100
AcDbSymbolTableRecord
100
AcDbBlockTableRecord
  2
*MODEL_SPACE
  0
BLOCK_RECORD
  5
1B
330
1
100
AcDbSymbolTableRecord
100
AcDbBlockTableRecord
  2
*PAPER_SPACE
  0
BLOCK_RECORD
  5
23
330
1
100
AcDbSymbolTableRecord
100
AcDbBlockTableRecord
  2
*PAPER_SPACE0
  0
ENDTAB
  0
ENDSEC
  0
SECTION
  2
BLOCKS
  0
BLOCK
  5
20
330
1F
100
AcDbEntity
  8
0
100
AcDbBlockBegin
  2
*MODEL_SPACE
 70
     0
 10
0.0
 20
0.0
 30
0.0
  3
*MODEL_SPACE
  1

  0
ENDBLK
  5
21
330
1F
100
AcDbEntity
  8
0
100
AcDbBlockEnd
  0
BLOCK
  5
1C
330
1B
100
AcDbEntity
 67
     1
  8
0
100
AcDbBlockBegin
  2
*PAPER_SPACE
 70
     0
 10
0.0
 20
0.0
 30
0.0
  3
*PAPER_SPACE
  1

  0
ENDBLK
  5
1D
330
1B
100
AcDbEntity
 67
     1
  8
0
100
AcDbBlockEnd
  0
BLOCK
  5
24
330
23
100
AcDbEntity
  8
0
100
AcDbBlockBegin
  2
*PAPER_SPACE0
 70
     0
 10
0.0
 20
0.0
 30
0.0
  3
*PAPER_SPACE0
  1

  0
ENDBLK
  5
25
330
23
100
AcDbEntity
  8
0
100
AcDbBlockEnd
  0
ENDSEC
  0
SECTION
  2
ENTITIES
  0
CIRCLE
  5
45
330
1F
100
AcDbEntity
  8
0
  6
CONTINUOUS
 62
     7
100
AcDbCircle
 10
0.1858959988
 20
0.2358716197
 30
0.0
 40
0.00202
  0
CIRCLE
  5
46
330
1F
100
AcDbEntity
  8
0
  6
CONTINUOUS
 62
     7
100
AcDbCircle
 10
0.1647293321
 20
0.2177715797
 30
0.0
 40
0.00202
  0
CIRCLE
  5
47
330
1F
100
AcDbEntity
  8
0
  6
CONTINUOUS
 62
     7
100
AcDbCircle
 10
0.1223959988
 20
0.2177715797
 30
0.0
 40
0.00202
  0
ARC
  5
48
330
1F
100
AcDbEntity
  8
0
  6
CONTINUOUS
 62
     7
100
AcDbCircle
 10
0.0104959988
 20
0.4050705997
 30
0.0
 40
0.00635
100
AcDbArc
 50
90.0
 51
180.0
  0
LINE
  5
49
330
1F
100
AcDbEntity
  8
0
  6
CONTINUOUS
 62
     7
100
AcDbLine
 10
0.2977960001
 20
0.4114206027
 30
0.0
 11
0.0104959987
 21
0.4114206027
 31
0.0
  0
ARC
  5
4A
330
1F
100
AcDbEntity
  8
0
  6
CONTINUOUS
 62
     7
100
AcDbCircle
 10
0.2977959988
 20
0.4050705997
 30
0.0
 40
0.00635
100
AcDbArc
 50
0.0
 51
90.0
  0
LINE
  5
4B
330
1F
100
AcDbEntity
  8
0
  6
CONTINUOUS
 62
     7
100
AcDbLine
 10
0.3041460107
 20
0.2177705996
 30
0.0
 11
0.3041460107
 21
0.4050706069
 31
0.0
  0
ARC
  5
4C
330
1F
100
AcDbEntity
  8
0
  6
CONTINUOUS
 62
     7
100
AcDbCircle
 10
0.2977959988
 20
0.2177705997
 30
0.0
 40
0.00635
100
AcDbArc
 50
270.0
 51
0.0
  0
LINE
  5
4D
330
1F
100
AcDbEntity
  8
0
  6
CONTINUOUS
 62
     7
100
AcDbLine
 10
0.0104959987
 20
0.2114205997
 30
0.0
 11
0.2977960001
 21
0.2114205997
 31
0.0
  0
ARC
  5
4E
330
1F
100
AcDbEntity
  8
0
  6
CONTINUOUS
 62
     7
100
AcDbCircle
 10
0.0104959988
 20
0.2177705997
 30
0.0
 40
0.00635
100
AcDbArc
 50
180.0
 51
270.0
  0
LINE
  5
4F
330
1F
100
AcDbEntity
  8
0
  6
CONTINUOUS
 62
     7
100
AcDbLine
 10
0.0041459988
 20
0.4050706069
 30
0.0
 11
0.0041459988
 21
0.2177705996
 31
0.0
  0
CIRCLE
  5
50
330
1F
100
AcDbEntity
  8
0
  6
CONTINUOUS
 62
     7
100
AcDbCircle
 10
0.0104959988
 20
0.3860205997
 30
0.0
 40
0.00142
  0
CIRCLE
  5
51
330
1F
100
AcDbEntity
  8
0
  6
CONTINUOUS
 62
     7
100
AcDbCircle
 10
0.0104959988
 20
0.2614204997
 30
0.0
 40
0.00142
  0
CIRCLE
  5
52
330
1F
100
AcDbEntity
  8
0
  6
CONTINUOUS
 62
     7
100
AcDbCircle
 10
0.2977959988
 20
0.2614204997
 30
0.0
 40
0.00142
  0
CIRCLE
  5
53
330
1F
100
AcDbEntity
  8
0
  6
CONTINUOUS
 62
     7
100
AcDbCircle
 10
0.2977959988
 20
0.3860205997
 30
0.0
 40
0.00142
  0
CIRCLE
  5
54
330
1F
100
AcDbEntity
  8
0
  6
CONTINUOUS
 62
     7
100
AcDbCircle
 10
0.0104959988
 20
0.4050705997
 30
0.0
 40
0.00117
  0
CIRCLE
  5
55
330
1F
100
AcDbEntity
  8
0
  6
CONTINUOUS
 62
     7
100
AcDbCircle
 10
0.0823209988
 20
0.4050705997
 30
0.0
 40
0.00117
  0
CIRCLE
  5
56
330
1F
100
AcDbEntity
  8
0
  6
CONTINUOUS
 62
     7
100
AcDbCircle
 10
0.2259709988
 20
0.4050705997
 30
0.0
 40
0.00117
  0
CIRCLE
  5
57
330
1F
100
AcDbEntity
  8
0
  6
CONTINUOUS
 62
     7
100
AcDbCircle
 10
0.2977959988
 20
0.4050705997
 30
0.0
 40
0.0011699999999999
  0
CIRCLE
  5
58
330
1F
100
AcDbEntity
  8
0
  6
CONTINUOUS
 62
     7
100
AcDbCircle
 10
0.2977959988
 20
0.3050703997
 30
0.0
 40
0.0011699999999999
  0
CIRCLE
  5
59
330
1F
100
AcDbEntity
  8
0
  6
CONTINUOUS
 62
     7
100
AcDbCircle
 10
0.2977959988
 20
0.2177705997
 30
0.0
 40
0.0011699999999999
  0
CIRCLE
  5
5A
330
1F
100
AcDbEntity
  8
0
  6
CONTINUOUS
 62
     7
100
AcDbCircle
 10
0.2215959988
 20
0.2177705997
 30
0.0
 40
0.00117
  0
CIRCLE
  5
5B
330
1F
100
AcDbEntity
  8
0
  6
CONTINUOUS
 62
     7
100
AcDbCircle
 10
0.0866959988
 20
0.2177705997
 30
0.0
 40
0.00117
  0
CIRCLE
  5
5C
330
1F
100
AcDbEntity
  8
0
  6
CONTINUOUS
 62
     7
100
AcDbCircle
 10
0.0104959988
 20
0.2177705997
 30
0.0
 40
0.00117
  0
CIRCLE
  5
5D
330
1F
100
AcDbEntity
  8
0
  6
CONTINUOUS
 62
     7
100
AcDbCircle
 10
0.0104959988
 20
0.3050703997
 30
0.0
 40
0.00117
  0
CIRCLE
  5
5E
330
1F
100
AcDbEntity
  8
0
  6
CONTINUOUS
 62
     7
100
AcDbCircle
 10
0.1223959988
 20
0.2358716197
 30
0.0
 40
0.00202
  0
CIRCLE
  5
5F
330
1F
100
AcDbEntity
  8
0
  6
CONTINUOUS
 62
     7
100
AcDbCircle
 10
0.1435626655
 20
0.2177715797
 30
0.0
 40
0.00202
  0
CIRCLE
  5
60
330
1F
100
AcDbEntity
  8
0
  6
CONTINUOUS
 62
     7
100
AcDbCircle
 10
0.1858959988
 20
0.2177715797
 30
0.0
 40
0.00202
  0
CIRCLE
  5
61
330
1F
100
AcDbEntity
  8
0
  6
CONTINUOUS
 62
     7
100
AcDbCircle
 10
0.1223959988
 20
0.2268215997
 30
0.0
 40
0.00142
  0
CIRCLE
  5
62
330
1F
100
AcDbEntity
  8
0
  6
CONTINUOUS
 62
     7
100
AcDbCircle
 10
0.1541459988
 20
0.2177715797
 30
0.0
 40
0.00142
  0
CIRCLE
  5
63
330
1F
100
AcDbEntity
  8
0
  6
CONTINUOUS
 62
     7
100
AcDbCircle
 10
0.1858959988
 20
0.2268215997
 30
0.0
 40
0.00142
  0
CIRCLE
  5
64
330
1F
100
AcDbEntity
  8
0
  6
CONTINUOUS
 62
     7
100
AcDbCircle
 10
0.1541459988
 20
0.3681716197
 30
0.0
 40
0.00142
  0
CIRCLE
  5
65
330
1F
100
AcDbEntity
  8
0
  6
CONTINUOUS
 62
     7
100
AcDbCircle
 10
0.1871415667
 20
0.3491216197
 30
0.0
 40
0.00142
  0
CIRCLE
  5
66
330
1F
100
AcDbEntity
  8
0
  6
CONTINUOUS
 62
     7
100
AcDbCircle
 10
0.1871415667
 20
0.3110216197
 30
0.0
 40
0.00142
  0
CIRCLE
  5
67
330
1F
100
AcDbEntity
  8
0
  6
CONTINUOUS
 62
     7
100
AcDbCircle
 10
0.1541459988
 20
0.2919716197
 30
0.0
 40
0.00142
  0
CIRCLE
  5
68
330
1F
100
AcDbEntity
  8
0
  6
CONTINUOUS
 62
     7
100
AcDbCircle
 10
0.1211504309
 20
0.3110216197
 30
0.0
 40
0.00142
  0
CIRCLE
  5
69
330
1F
100
AcDbEntity
  8
0
  6
CONTINUOUS
 62
     7
100
AcDbCircle
 10
0.1211504309
 20
0.3491216197
 30
0.0
 40
0.00142
  0
CIRCLE
  5
6A
330
1F
100
AcDbEntity
  8
0
  6
CONTINUOUS
 62
     7
100
AcDbCircle
 10
0.1096959988
 20
0.2422216197
 30
0.0
 40
0.00142
  0
CIRCLE
  5
6B
330
1F
100
AcDbEntity
  8
0
  6
CONTINUOUS
 62
     7
100
AcDbCircle
 10
0.1096959988
 20
0.2177705997
 30
0.0
 40
0.00142
  0
CIRCLE
  5
6C
330
1F
100
AcDbEntity
  8
0
  6
CONTINUOUS
 62
     7
100
AcDbCircle
 10
0.1985959988
 20
0.2177705997
 30
0.0
 40
0.00142
  0
CIRCLE
  5
6D
330
1F
100
AcDbEntity
  8
0
  6
CONTINUOUS
 62
     7
100
AcDbCircle
 10
0.1985959988
 20
0.2422216197
 30
0.0
 40
0.00142
  0
CIRCLE
  5
6E
330
1F
100
AcDbEntity
  8
0
  6
CONTINUOUS
 62
     7
100
AcDbCircle
 10
0.1922459988
 20
0.3300716197
 30
0.0
 40
0.00492
  0
CIRCLE
  5
6F
330
1F
100
AcDbEntity
  8
0
  6
CONTINUOUS
 62
     7
100
AcDbCircle
 10
0.1731959988
 20
0.2970760518
 30
0.0
 40
0.00492
  0
CIRCLE
  5
70
330
1F
100
AcDbEntity
  8
0
  6
CONTINUOUS
 62
     7
100
AcDbCircle
 10
0.1350959988
 20
0.2970760518
 30
0.0
 40
0.00492
  0
CIRCLE
  5
71
330
1F
100
AcDbEntity
  8
0
  6
CONTINUOUS
 62
     7
100
AcDbCircle
 10
0.1160459988
 20
0.3300716197
 30
0.0
 40
0.00492
  0
CIRCLE
  5
72
330
1F
100
AcDbEntity
  8
0
  6
CONTINUOUS
 62
     7
100
AcDbCircle
 10
0.1350959988
 20
0.3630671876
 30
0.0
 40
0.00492
  0
CIRCLE
  5
73
330
1F
100
AcDbEntity
  8
0
  6
CONTINUOUS
 62
     7
100
AcDbCircle
 10
0.1731959988
 20
0.3630671876
 30
0.0
 40
0.00492
  0
LINE
  5
74
330
1F
100
AcDbEntity
  8
0
  6
CONTINUOUS
 62
     7
100
AcDbLine
 10
0.1589459966
 20
0.3328428979
 30
0.0
 11
0.1541460048
 21
0.3356141786
 31
0.0
  0
LINE
  5
75
330
1F
100
AcDbEntity
  8
0
  6
CONTINUOUS
 62
     7
100
AcDbLine
 10
0.1541460048
 20
0.3356141786
 30
0.0
 11
0.149345998
 21
0.3328428979
 31
0.0
  0
LINE
  5
76
330
1F
100
AcDbEntity
  8
0
  6
CONTINUOUS
 62
     7
100
AcDbLine
 10
0.149345998
 20
0.3328428979
 30
0.0
 11
0.149345998
 21
0.3273003365
 31
0.0
  0
LINE
  5
77
330
1F
100
AcDbEntity
  8
0
  6
CONTINUOUS
 62
     7
100
AcDbLine
 10
0.149345998
 20
0.3273003365
 30
0.0
 11
0.1541460048
 21
0.3245290558
 31
0.0
  0
LINE
  5
78
330
1F
100
AcDbEntity
  8
0
  6
CONTINUOUS
 62
     7
100
AcDbLine
 10
0.1541460048
 20
0.3245290558
 30
0.0
 11
0.1589459966
 21
0.3273003365
 31
0.0
  0
LINE
  5
79
330
1F
100
AcDbEntity
  8
0
  6
CONTINUOUS
 62
     7
100
AcDbLine
 10
0.1589459966
 20
0.3273003365
 30
0.0
 11
0.1589459966
 21
0.3328428979
 31
0.0
  0
CIRCLE
  5
7A
330
1F
100
AcDbEntity
  8
0
  6
CONTINUOUS
 62
     7
100
AcDbCircle
 10
0.1880798815
 20
0.0305952277
 30
0.0
 40
0.00257
  0
CIRCLE
  5
7B
330
1F
100
AcDbEntity
  8
0
  6
CONTINUOUS
 62
     7
100
AcDbCircle
 10
0.1669132148
 20
0.0124951877
 30
0.0
 40
0.00257
  0
CIRCLE
  5
7C
330
1F
100
AcDbEntity
  8
0
  6
CONTINUOUS
 62
     7
100
AcDbCircle
 10
0.1245798815
 20
0.0124951877
 30
0.0
 40
0.00257
  0
ARC
  5
7D
330
1F
100
AcDbEntity
  8
0
  6
CONTINUOUS
 62
     7
100
AcDbCircle
 10
0.0126798815
 20
0.1997942077
 30
0.0
 40
0.00635
100
AcDbArc
 50
90.0
 51
180.0
  0
LINE
  5
7E
330
1F
100
AcDbEntity
  8
0
  6
CONTINUOUS
 62
     7
100
AcDbLine
 10
0.2999798828
 20
0.2061442107
 30
0.0
 11
0.0126798814
 21
0.2061442107
 31
0.0
  0
ARC
  5
7F
330
1F
100
AcDbEntity
  8
0
  6
CONTINUOUS
 62
     7
100
AcDbCircle
 10
0.2999798815
 20
0.1997942077
 30
0.0
 40
0.00635
100
AcDbArc
 50
0.0
 51
90.0
  0
LINE
  5
80
330
1F
100
AcDbEntity
  8
0
  6
CONTINUOUS
 62
     7
100
AcDbLine
 10
0.3063298934
 20
0.0124942077
 30
0.0
 11
0.3063298934
 21
0.199794215
 31
0.0
  0
ARC
  5
81
330
1F
100
AcDbEntity
  8
0
  6
CONTINUOUS
 62
     7
100
AcDbCircle
 10
0.2999798815
 20
0.0124942077
 30
0.0
 40
0.00635
100
AcDbArc
 50
270.0
 51
0.0
  0
LINE
  5
82
330
1F
100
AcDbEntity
  8
0
  6
CONTINUOUS
 62
     7
100
AcDbLine
 10
0.0126798814
 20
0.0061442077
 30
0.0
 11
0.2999798828
 21
0.0061442077
 31
0.0
  0
ARC
  5
83
330
1F
100
AcDbEntity
  8
0
  6
CONTINUOUS
 62
     7
100
AcDbCircle
 10
0.0126798815
 20
0.0124942077
 30
0.0
 40
0.00635
100
AcDbArc
 50
180.0
 51
270.0
  0
LINE
  5
84
330
1F
100
AcDbEntity
  8
0
  6
CONTINUOUS
 62
     7
100
AcDbLine
 10
0.0063298815
 20
0.199794215
 30
0.0
 11
0.0063298815
 21
0.0124942077
 31
0.0
  0
CIRCLE
  5
85
330
1F
100
AcDbEntity
  8
0
  6
CONTINUOUS
 62
     7
100
AcDbCircle
 10
0.1563298815
 20
0.1247952277
 30
0.0
 40
0.00392
  0
CIRCLE
  5
86
330
1F
100
AcDbEntity
  8
0
  6
CONTINUOUS
 62
     7
100
AcDbCircle
 10
0.0126798815
 20
0.1807442077
 30
0.0
 40
0.00142
  0
CIRCLE
  5
87
330
1F
100
AcDbEntity
  8
0
  6
CONTINUOUS
 62
     7
100
AcDbCircle
 10
0.0126798815
 20
0.0561441077
 30
0.0
 40
0.00142
  0
CIRCLE
  5
88
330
1F
100
AcDbEntity
  8
0
  6
CONTINUOUS
 62
     7
100
AcDbCircle
 10
0.2999798815
 20
0.0561441077
 30
0.0
 40
0.00142
  0
CIRCLE
  5
89
330
1F
100
AcDbEntity
  8
0
  6
CONTINUOUS
 62
     7
100
AcDbCircle
 10
0.2999798815
 20
0.1807442077
 30
0.0
 40
0.00142
  0
CIRCLE
  5
8A
330
1F
100
AcDbEntity
  8
0
  6
CONTINUOUS
 62
     7
100
AcDbCircle
 10
0.0126798815
 20
0.1997942077
 30
0.0
 40
0.00152
  0
CIRCLE
  5
8B
330
1F
100
AcDbEntity
  8
0
  6
CONTINUOUS
 62
     7
100
AcDbCircle
 10
0.0845048815
 20
0.1997942077
 30
0.0
 40
0.00152
  0
CIRCLE
  5
8C
330
1F
100
AcDbEntity
  8
0
  6
CONTINUOUS
 62
     7
100
AcDbCircle
 10
0.2281548815
 20
0.1997942077
 30
0.0
 40
0.00152
  0
CIRCLE
  5
8D
330
1F
100
AcDbEntity
  8
0
  6
CONTINUOUS
 62
     7
100
AcDbCircle
 10
0.2999798815
 20
0.1997942077
 30
0.0
 40
0.00152
  0
CIRCLE
  5
8E
330
1F
100
AcDbEntity
  8
0
  6
CONTINUOUS
 62
     7
100
AcDbCircle
 10
0.2999798815
 20
0.0997940077
 30
0.0
 40
0.00152
  0
CIRCLE
  5
8F
330
1F
100
AcDbEntity
  8
0
  6
CONTINUOUS
 62
     7
100
AcDbCircle
 10
0.2999798815
 20
0.0124942077
 30
0.0
 40
0.00152
  0
CIRCLE
  5
90
330
1F
100
AcDbEntity
  8
0
  6
CONTINUOUS
 62
     7
100
AcDbCircle
 10
0.2237798815
 20
0.0124942077
 30
0.0
 40
0.00152
  0
CIRCLE
  5
91
330
1F
100
AcDbEntity
  8
0
  6
CONTINUOUS
 62
     7
100
AcDbCircle
 10
0.0888798815
 20
0.0124942077
 30
0.0
 40
0.00152
  0
CIRCLE
  5
92
330
1F
100
AcDbEntity
  8
0
  6
CONTINUOUS
 62
     7
100
AcDbCircle
 10
0.0126798815
 20
0.0124942077
 30
0.0
 40
0.00152
  0
CIRCLE
  5
93
330
1F
100
AcDbEntity
  8
0
  6
CONTINUOUS
 62
     7
100
AcDbCircle
 10
0.0126798815
 20
0.0997940077
 30
0.0
 40
0.00152
  0
CIRCLE
  5
94
330
1F
100
AcDbEntity
  8
0
  6
CONTINUOUS
 62
     7
100
AcDbCircle
 10
0.1245798815
 20
0.0305952277
 30
0.0
 40
0.00257
  0
CIRCLE
  5
95
330
1F
100
AcDbEntity
  8
0
  6
CONTINUOUS
 62
     7
100
AcDbCircle
 10
0.1457465482
 20
0.0124951877
 30
0.0
 40
0.00257
  0
CIRCLE
  5
96
330
1F
100
AcDbEntity
  8
0
  6
CONTINUOUS
 62
     7
100
AcDbCircle
 10
0.1880798815
 20
0.0124951877
 30
0.0
 40
0.00257
  0
CIRCLE
  5
97
330
1F
100
AcDbEntity
  8
0
  6
CONTINUOUS
 62
     7
100
AcDbCircle
 10
0.1245798815
 20
0.0215452077
 30
0.0
 40
0.00142
  0
CIRCLE
  5
98
330
1F
100
AcDbEntity
  8
0
  6
CONTINUOUS
 62
     7
100
AcDbCircle
 10
0.1563298815
 20
0.0124951877
 30
0.0
 40
0.00142
  0
CIRCLE
  5
99
330
1F
100
AcDbEntity
  8
0
  6
CONTINUOUS
 62
     7
100
AcDbCircle
 10
0.1880798815
 20
0.0215452077
 30
0.0
 40
0.00142
  0
CIRCLE
  5
9A
330
1F
100
AcDbEntity
  8
0
  6
CONTINUOUS
 62
     7
100
AcDbCircle
 10
0.1563298815
 20
0.1628952277
 30
0.0
 40
0.00142
  0
CIRCLE
  5
9B
330
1F
100
AcDbEntity
  8
0
  6
CONTINUOUS
 62
     7
100
AcDbCircle
 10
0.1893254494
 20
0.1438452277
 30
0.0
 40
0.00142
  0
CIRCLE
  5
9C
330
1F
100
AcDbEntity
  8
0
  6
CONTINUOUS
 62
     7
100
AcDbCircle
 10
0.1893254494
 20
0.1057452277
 30
0.0
 40
0.00142
  0
CIRCLE
  5
9D
330
1F
100
AcDbEntity
  8
0
  6
CONTINUOUS
 62
     7
100
AcDbCircle
 10
0.1563298815
 20
0.0866952277
 30
0.0
 40
0.00142
  0
CIRCLE
  5
9E
330
1F
100
AcDbEntity
  8
0
  6
CONTINUOUS
 62
     7
100
AcDbCircle
 10
0.1233343136
 20
0.1057452277
 30
0.0
 40
0.00142
  0
CIRCLE
  5
9F
330
1F
100
AcDbEntity
  8
0
  6
CONTINUOUS
 62
     7
100
AcDbCircle
 10
0.1233343136
 20
0.1438452277
 30
0.0
 40
0.00142
  0
CIRCLE
  5
A0
330
1F
100
AcDbEntity
  8
0
  6
CONTINUOUS
 62
     7
100
AcDbCircle
 10
0.1118798815
 20
0.0369452277
 30
0.0
 40
0.00142
  0
CIRCLE
  5
A1
330
1F
100
AcDbEntity
  8
0
  6
CONTINUOUS
 62
     7
100
AcDbCircle
 10
0.1118798815
 20
0.0124942077
 30
0.0
 40
0.00142
  0
CIRCLE
  5
A2
330
1F
100
AcDbEntity
  8
0
  6
CONTINUOUS
 62
     7
100
AcDbCircle
 10
0.2007798815
 20
0.0124942077
 30
0.0
 40
0.00142
  0
CIRCLE
  5
A3
330
1F
100
AcDbEntity
  8
0
  6
CONTINUOUS
 62
     7
100
AcDbCircle
 10
0.2007798815
 20
0.0369452277
 30
0.0
 40
0.00142
  0
CIRCLE
  5
A4
330
1F
100
AcDbEntity
  8
0
  6
CONTINUOUS
 62
     7
100
AcDbCircle
 10
0.1944298815
 20
0.1247952277
 30
0.0
 40
0.00152
  0
CIRCLE
  5
A5
330
1F
100
AcDbEntity
  8
0
  6
CONTINUOUS
 62
     7
100
AcDbCircle
 10
0.1753798815
 20
0.0917996598
 30
0.0
 40
0.00152
  0
CIRCLE
  5
A6
330
1F
100
AcDbEntity
  8
0
  6
CONTINUOUS
 62
     7
100
AcDbCircle
 10
0.1372798815
 20
0.0917996598
 30
0.0
 40
0.00152
  0
CIRCLE
  5
A7
330
1F
100
AcDbEntity
  8
0
  6
CONTINUOUS
 62
     7
100
AcDbCircle
 10
0.1182298815
 20
0.1247952277
 30
0.0
 40
0.00152
  0
CIRCLE
  5
A8
330
1F
100
AcDbEntity
  8
0
  6
CONTINUOUS
 62
     7
100
AcDbCircle
 10
0.1372798815
 20
0.1577907956
 30
0.0
 40
0.00152
  0
CIRCLE
  5
A9
330
1F
100
AcDbEntity
  8
0
  6
CONTINUOUS
 62
     7
100
AcDbCircle
 10
0.1753798815
 20
0.1577907956
 30
0.0
 40
0.00152
  0
CIRCLE
  5
AA
330
1F
100
AcDbEntity
  8
0
  6
CONTINUOUS
 62
     7
100
AcDbCircle
 10
0.3987476531
 20
0.2740535473
 30
0.0
 40
0.00257
  0
CIRCLE
  5
AB
330
1F
100
AcDbEntity
  8
0
  6
CONTINUOUS
 62
     7
100
AcDbCircle
 10
0.3775809864
 20
0.2559535073
 30
0.0
 40
0.00257
  0
CIRCLE
  5
AC
330
1F
100
AcDbEntity
  8
0
  6
CONTINUOUS
 62
     7
100
AcDbCircle
 10
0.3352476531
 20
0.2559535073
 30
0.0
 40
0.00257
  0
ARC
  5
AD
330
1F
100
AcDbEntity
  8
0
  6
CONTINUOUS
 62
     7
100
AcDbCircle
 10
0.3161976531
 20
0.2804035473
 30
0.0
 40
0.00635
100
AcDbArc
 50
90.0
 51
180.0
  0
LINE
  5
AE
330
1F
100
AcDbEntity
  8
0
  6
CONTINUOUS
 62
     7
100
AcDbLine
 10
0.316197656
 20
0.2867535487
 30
0.0
 11
0.3352476506
 21
0.2867535487
 31
0.0
  0
ARC
  5
AF
330
1F
100
AcDbEntity
  8
0
  6
CONTINUOUS
 62
     7
100
AcDbCircle
 10
0.3352476531
 20
0.2931035473
 30
0.0
 40
0.00635
100
AcDbArc
 50
270.0
 51
0.0
  0
LINE
  5
B0
330
1F
100
AcDbEntity
  8
0
  6
CONTINUOUS
 62
     7
100
AcDbLine
 10
0.3415976538
 20
0.2931035482
 30
0.0
 11
0.3415976538
 21
0.3216997073
 31
0.0
  0
ARC
  5
B1
330
1F
100
AcDbEntity
  8
0
  6
CONTINUOUS
 62
     7
100
AcDbCircle
 10
0.3352476531
 20
0.3216997075
 30
0.0
 40
0.00635
100
AcDbArc
 50
0.0
 51
55.7057758969
  0
ARC
  5
B2
330
1F
100
AcDbEntity
  8
0
  6
CONTINUOUS
 62
     7
100
AcDbCircle
 10
0.3669976531
 20
0.3682535473
 30
0.0
 40
0.05
100
AcDbArc
 50
304.2942241031
 51
235.7057758969
  0
ARC
  5
B3
330
1F
100
AcDbEntity
  8
0
  6
CONTINUOUS
 62
     7
100
AcDbCircle
 10
0.3987476531
 20
0.3216997075
 30
0.0
 40
0.00635
100
AcDbArc
 50
124.2942241031
 51
180.0
  0
LINE
  5
B4
330
1F
100
AcDbEntity
  8
0
  6
CONTINUOUS
 62
     7
100
AcDbLine
 10
0.3923976569
 20
0.3216997073
 30
0.0
 11
0.3923976569
 21
0.2931035482
 31
0.0
  0
ARC
  5
B5
330
1F
100
AcDbEntity
  8
0
  6
CONTINUOUS
 62
     7
100
AcDbCircle
 10
0.3987476531
 20
0.2931035473
 30
0.0
 40
0.00635
100
AcDbArc
 50
180.0
 51
270.0
  0
LINE
  5
B6
330
1F
100
AcDbEntity
  8
0
  6
CONTINUOUS
 62
     7
100
AcDbLine
 10
0.3987476526
 20
0.2867535487
 30
0.0
 11
0.4177976547
 21
0.2867535487
 31
0.0
  0
ARC
  5
B7
330
1F
100
AcDbEntity
  8
0
  6
CONTINUOUS
 62
     7
100
AcDbCircle
 10
0.4177976531
 20
0.2804035473
 30
0.0
 40
0.00635
100
AcDbArc
 50
0.0
 51
90.0
  0
LINE
  5
B8
330
1F
100
AcDbEntity
  8
0
  6
CONTINUOUS
 62
     7
100
AcDbLine
 10
0.4241476505
 20
0.2804035474
 30
0.0
 11
0.4241476505
 21
0.2559525473
 31
0.0
  0
ARC
  5
B9
330
1F
100
AcDbEntity
  8
0
  6
CONTINUOUS
 62
     7
100
AcDbCircle
 10
0.4177976531
 20
0.2559525473
 30
0.0
 40
0.00635
100
AcDbArc
 50
270.0
 51
0.0
  0
LINE
  5
BA
330
1F
100
AcDbEntity
  8
0
  6
CONTINUOUS
 62
     7
100
AcDbLine
 10
0.316197656
 20
0.2496025473
 30
0.0
 11
0.4177976547
 21
0.2496025473
 31
0.0
  0
ARC
  5
BB
330
1F
100
AcDbEntity
  8
0
  6
CONTINUOUS
 62
     7
100
AcDbCircle
 10
0.3161976531
 20
0.2559525473
 30
0.0
 40
0.00635
100
AcDbArc
 50
180.0
 51
270.0
  0
LINE
  5
BC
330
1F
100
AcDbEntity
  8
0
  6
CONTINUOUS
 62
     7
100
AcDbLine
 10
0.3098476528
 20
0.2559525473
 30
0.0
 11
0.3098476528
 21
0.2804035474
 31
0.0
  0
CIRCLE
  5
BD
330
1F
100
AcDbEntity
  8
0
  6
CONTINUOUS
 62
     7
100
AcDbCircle
 10
0.3669976531
 20
0.3682535473
 30
0.0
 40
0.00392
  0
CIRCLE
  5
BE
330
1F
100
AcDbEntity
  8
0
  6
CONTINUOUS
 62
     7
100
AcDbCircle
 10
0.3352476531
 20
0.2740535473
 30
0.0
 40
0.00257
  0
CIRCLE
  5
BF
330
1F
100
AcDbEntity
  8
0
  6
CONTINUOUS
 62
     7
100
AcDbCircle
 10
0.3564143198
 20
0.2559535073
 30
0.0
 40
0.00257
  0
CIRCLE
  5
C0
330
1F
100
AcDbEntity
  8
0
  6
CONTINUOUS
 62
     7
100
AcDbCircle
 10
0.3987476531
 20
0.2559535073
 30
0.0
 40
0.00257
  0
CIRCLE
  5
C1
330
1F
100
AcDbEntity
  8
0
  6
CONTINUOUS
 62
     7
100
AcDbCircle
 10
0.3352476531
 20
0.2650035273
 30
0.0
 40
0.00142
  0
CIRCLE
  5
C2
330
1F
100
AcDbEntity
  8
0
  6
CONTINUOUS
 62
     7
100
AcDbCircle
 10
0.3669976531
 20
0.2559535073
 30
0.0
 40
0.00142
  0
CIRCLE
  5
C3
330
1F
100
AcDbEntity
  8
0
  6
CONTINUOUS
 62
     7
100
AcDbCircle
 10
0.3987476531
 20
0.2650035273
 30
0.0
 40
0.00142
  0
CIRCLE
  5
C4
330
1F
100
AcDbEntity
  8
0
  6
CONTINUOUS
 62
     7
100
AcDbCircle
 10
0.3669976531
 20
0.4063535473
 30
0.0
 40
0.00142
  0
CIRCLE
  5
C5
330
1F
100
AcDbEntity
  8
0
  6
CONTINUOUS
 62
     7
100
AcDbCircle
 10
0.399993221
 20
0.3873035473
 30
0.0
 40
0.00142
  0
CIRCLE
  5
C6
330
1F
100
AcDbEntity
  8
0
  6
CONTINUOUS
 62
     7
100
AcDbCircle
 10
0.399993221
 20
0.3492035473
 30
0.0
 40
0.00142
  0
CIRCLE
  5
C7
330
1F
100
AcDbEntity
  8
0
  6
CONTINUOUS
 62
     7
100
AcDbCircle
 10
0.3669976531
 20
0.3301535473
 30
0.0
 40
0.00142
  0
CIRCLE
  5
C8
330
1F
100
AcDbEntity
  8
0
  6
CONTINUOUS
 62
     7
100
AcDbCircle
 10
0.3340020852
 20
0.3492035473
 30
0.0
 40
0.00142
  0
CIRCLE
  5
C9
330
1F
100
AcDbEntity
  8
0
  6
CONTINUOUS
 62
     7
100
AcDbCircle
 10
0.3340020852
 20
0.3873035473
 30
0.0
 40
0.00142
  0
CIRCLE
  5
CA
330
1F
100
AcDbEntity
  8
0
  6
CONTINUOUS
 62
     7
100
AcDbCircle
 10
0.3225476531
 20
0.2804035473
 30
0.0
 40
0.00142
  0
CIRCLE
  5
CB
330
1F
100
AcDbEntity
  8
0
  6
CONTINUOUS
 62
     7
100
AcDbCircle
 10
0.3225476531
 20
0.2559525473
 30
0.0
 40
0.00142
  0
CIRCLE
  5
CC
330
1F
100
AcDbEntity
  8
0
  6
CONTINUOUS
 62
     7
100
AcDbCircle
 10
0.4114476531
 20
0.2559525473
 30
0.0
 40
0.00142
  0
CIRCLE
  5
CD
330
1F
100
AcDbEntity
  8
0
  6
CONTINUOUS
 62
     7
100
AcDbCircle
 10
0.4114476531
 20
0.2804035473
 30
0.0
 40
0.00142
  0
CIRCLE
  5
CE
330
1F
100
AcDbEntity
  8
0
  6
CONTINUOUS
 62
     7
100
AcDbCircle
 10
0.4050976531
 20
0.3682535473
 30
0.0
 40
0.00152
  0
CIRCLE
  5
CF
330
1F
100
AcDbEntity
  8
0
  6
CONTINUOUS
 62
     7
100
AcDbCircle
 10
0.3860476531
 20
0.3352579794
 30
0.0
 40
0.00152
  0
CIRCLE
  5
D0
330
1F
100
AcDbEntity
  8
0
  6
CONTINUOUS
 62
     7
100
AcDbCircle
 10
0.3479476531
 20
0.3352579794
 30
0.0
 40
0.00152
  0
CIRCLE
  5
D1
330
1F
100
AcDbEntity
  8
0
  6
CONTINUOUS
 62
     7
100
AcDbCircle
 10
0.3288976531
 20
0.3682535473
 30
0.0
 40
0.00152
  0
CIRCLE
  5
D2
330
1F
100
AcDbEntity
  8
0
  6
CONTINUOUS
 62
     7
100
AcDbCircle
 10
0.3479476531
 20
0.4012491152
 30
0.0
 40
0.00152
  0
CIRCLE
  5
D3
330
1F
100
AcDbEntity
  8
0
  6
CONTINUOUS
 62
     7
100
AcDbCircle
 10
0.3860476531
 20
0.4012491152
 30
0.0
 40
0.00152
  0
CIRCLE
  5
D4
330
1F
100
AcDbEntity
  8
0
  6
CONTINUOUS
 62
     7
100
AcDbCircle
 10
0.5533604718
 20
0.2724411395
 30
0.0
 40
0.00257
  0
CIRCLE
  5
D5
330
1F
100
AcDbEntity
  8
0
  6
CONTINUOUS
 62
     7
100
AcDbCircle
 10
0.5321938051
 20
0.2543410995
 30
0.0
 40
0.00257
  0
CIRCLE
  5
D6
330
1F
100
AcDbEntity
  8
0
  6
CONTINUOUS
 62
     7
100
AcDbCircle
 10
0.4898604718
 20
0.2543410995
 30
0.0
 40
0.00257
  0
ARC
  5
D7
330
1F
100
AcDbEntity
  8
0
  6
CONTINUOUS
 62
     7
100
AcDbCircle
 10
0.4708104718
 20
0.2787911395
 30
0.0
 40
0.00635
100
AcDbArc
 50
90.0
 51
180.0
  0
LINE
  5
D8
330
1F
100
AcDbEntity
  8
0
  6
CONTINUOUS
 62
     7
100
AcDbLine
 10
0.4708104746
 20
0.2851411409
 30
0.0
 11
0.4898604693
 21
0.2851411409
 31
0.0
  0
ARC
  5
D9
330
1F
100
AcDbEntity
  8
0
  6
CONTINUOUS
 62
     7
100
AcDbCircle
 10
0.4898604718
 20
0.2914911395
 30
0.0
 40
0.00635
100
AcDbArc
 50
270.0
 51
0.0
  0
LINE
  5
DA
330
1F
100
AcDbEntity
  8
0
  6
CONTINUOUS
 62
     7
100
AcDbLine
 10
0.4962104724
 20
0.2914911403
 30
0.0
 11
0.4962104724
 21
0.3200872994
 31
0.0
  0
ARC
  5
DB
330
1F
100
AcDbEntity
  8
0
  6
CONTINUOUS
 62
     7
100
AcDbCircle
 10
0.4898604718
 20
0.3200872997
 30
0.0
 40
0.00635
100
AcDbArc
 50
0.0
 51
55.7057758969
  0
ARC
  5
DC
330
1F
100
AcDbEntity
  8
0
  6
CONTINUOUS
 62
     7
100
AcDbCircle
 10
0.5216104718
 20
0.3666411395
 30
0.0
 40
0.05
100
AcDbArc
 50
304.2942241031
 51
235.7057758969
  0
ARC
  5
DD
330
1F
100
AcDbEntity
  8
0
  6
CONTINUOUS
 62
     7
100
AcDbCircle
 10
0.5533604718
 20
0.3200872997
 30
0.0
 40
0.00635
100
AcDbArc
 50
124.2942241031
 51
180.0
  0
LINE
  5
DE
330
1F
100
AcDbEntity
  8
0
  6
CONTINUOUS
 62
     7
100
AcDbLine
 10
0.5470104755
 20
0.3200872994
 30
0.0
 11
0.5470104755
 21
0.2914911403
 31
0.0
  0
ARC
  5
DF
330
1F
100
AcDbEntity
  8
0
  6
CONTINUOUS
 62
     7
100
AcDbCircle
 10
0.5533604718
 20
0.2914911395
 30
0.0
 40
0.00635
100
AcDbArc
 50
180.0
 51
270.0
  0
LINE
  5
E0
330
1F
100
AcDbEntity
  8
0
  6
CONTINUOUS
 62
     7
100
AcDbLine
 10
0.5533604713
 20
0.2851411409
 30
0.0
 11
0.5724104734
 21
0.2851411409
 31
0.0
  0
ARC
  5
E1
330
1F
100
AcDbEntity
  8
0
  6
CONTINUOUS
 62
     7
100
AcDbCircle
 10
0.5724104718
 20
0.2787911395
 30
0.0
 40
0.0063500000000001
100
AcDbArc
 50
0.0
 51
90.0
  0
LINE
  5
E2
330
1F
100
AcDbEntity
  8
0
  6
CONTINUOUS
 62
     7
100
AcDbLine
 10
0.5787604691
 20
0.2787911395
 30
0.0
 11
0.5787604691
 21
0.2543401394
 31
0.0
  0
ARC
  5
E3
330
1F
100
AcDbEntity
  8
0
  6
CONTINUOUS
 62
     7
100
AcDbCircle
 10
0.5724104718
 20
0.2543401395
 30
0.0
 40
0.0063500000000001
100
AcDbArc
 50
270.0
 51
0.0
  0
LINE
  5
E4
330
1F
100
AcDbEntity
  8
0
  6
CONTINUOUS
 62
     7
100
AcDbLine
 10
0.4708104746
 20
0.2479901395
 30
0.0
 11
0.5724104734
 21
0.2479901395
 31
0.0
  0
ARC
  5
E5
330
1F
100
AcDbEntity
  8
0
  6
CONTINUOUS
 62
     7
100
AcDbCircle
 10
0.4708104718
 20
0.2543401395
 30
0.0
 40
0.00635
100
AcDbArc
 50
180.0
 51
270.0
  0
LINE
  5
E6
330
1F
100
AcDbEntity
  8
0
  6
CONTINUOUS
 62
     7
100
AcDbLine
 10
0.4644604714
 20
0.2543401394
 30
0.0
 11
0.4644604714
 21
0.2787911395
 31
0.0
  0
CIRCLE
  5
E7
330
1F
100
AcDbEntity
  8
0
  6
CONTINUOUS
 62
     7
100
AcDbCircle
 10
0.5216104718
 20
0.3666411395
 30
0.0
 40
0.00392
  0
CIRCLE
  5
E8
330
1F
100
AcDbEntity
  8
0
  6
CONTINUOUS
 62
     7
100
AcDbCircle
 10
0.4898604718
 20
0.2724411395
 30
0.0
 40
0.00257
  0
CIRCLE
  5
E9
330
1F
100
AcDbEntity
  8
0
  6
CONTINUOUS
 62
     7
100
AcDbCircle
 10
0.5110271384
 20
0.2543410995
 30
0.0
 40
0.00257
  0
CIRCLE
  5
EA
330
1F
100
AcDbEntity
  8
0
  6
CONTINUOUS
 62
     7
100
AcDbCircle
 10
0.5533604718
 20
0.2543410995
 30
0.0
 40
0.00257
  0
CIRCLE
  5
EB
330
1F
100
AcDbEntity
  8
0
  6
CONTINUOUS
 62
     7
100
AcDbCircle
 10
0.4898604718
 20
0.2633911195
 30
0.0
 40
0.00142
  0
CIRCLE
  5
EC
330
1F
100
AcDbEntity
  8
0
  6
CONTINUOUS
 62
     7
100
AcDbCircle
 10
0.5216104718
 20
0.2543410995
 30
0.0
 40
0.00142
  0
CIRCLE
  5
ED
330
1F
100
AcDbEntity
  8
0
  6
CONTINUOUS
 62
     7
100
AcDbCircle
 10
0.5533604718
 20
0.2633911195
 30
0.0
 40
0.00142
  0
CIRCLE
  5
EE
330
1F
100
AcDbEntity
  8
0
  6
CONTINUOUS
 62
     7
100
AcDbCircle
 10
0.5216104718
 20
0.4047411395
 30
0.0
 40
0.00142
  0
CIRCLE
  5
EF
330
1F
100
AcDbEntity
  8
0
  6
CONTINUOUS
 62
     7
100
AcDbCircle
 10
0.5546060396
 20
0.3856911395
 30
0.0
 40
0.00142
  0
CIRCLE
  5
F0
330
1F
100
AcDbEntity
  8
0
  6
CONTINUOUS
 62
     7
100
AcDbCircle
 10
0.5546060396
 20
0.3475911395
 30
0.0
 40
0.00142
  0
CIRCLE
  5
F1
330
1F
100
AcDbEntity
  8
0
  6
CONTINUOUS
 62
     7
100
AcDbCircle
 10
0.5216104718
 20
0.3285411395
 30
0.0
 40
0.00142
  0
CIRCLE
  5
F2
330
1F
100
AcDbEntity
  8
0
  6
CONTINUOUS
 62
     7
100
AcDbCircle
 10
0.4886149039
 20
0.3475911395
 30
0.0
 40
0.00142
  0
CIRCLE
  5
F3
330
1F
100
AcDbEntity
  8
0
  6
CONTINUOUS
 62
     7
100
AcDbCircle
 10
0.4886149039
 20
0.3856911395
 30
0.0
 40
0.00142
  0
CIRCLE
  5
F4
330
1F
100
AcDbEntity
  8
0
  6
CONTINUOUS
 62
     7
100
AcDbCircle
 10
0.4771604718
 20
0.2787911395
 30
0.0
 40
0.00142
  0
CIRCLE
  5
F5
330
1F
100
AcDbEntity
  8
0
  6
CONTINUOUS
 62
     7
100
AcDbCircle
 10
0.4771604718
 20
0.2543401395
 30
0.0
 40
0.00142
  0
CIRCLE
  5
F6
330
1F
100
AcDbEntity
  8
0
  6
CONTINUOUS
 62
     7
100
AcDbCircle
 10
0.5660604718
 20
0.2543401395
 30
0.0
 40
0.00142
  0
CIRCLE
  5
F7
330
1F
100
AcDbEntity
  8
0
  6
CONTINUOUS
 62
     7
100
AcDbCircle
 10
0.5660604718
 20
0.2787911395
 30
0.0
 40
0.00142
  0
CIRCLE
  5
F8
330
1F
100
AcDbEntity
  8
0
  6
CONTINUOUS
 62
     7
100
AcDbCircle
 10
0.5597104718
 20
0.3666411395
 30
0.0
 40
0.00152
  0
CIRCLE
  5
F9
330
1F
100
AcDbEntity
  8
0
  6
CONTINUOUS
 62
     7
100
AcDbCircle
 10
0.5406604718
 20
0.3336455716
 30
0.0
 40
0.00152
  0
CIRCLE
  5
FA
330
1F
100
AcDbEntity
  8
0
  6
CONTINUOUS
 62
     7
100
AcDbCircle
 10
0.5025604718
 20
0.3336455716
 30
0.0
 40
0.00152
  0
CIRCLE
  5
FB
330
1F
100
AcDbEntity
  8
0
  6
CONTINUOUS
 62
     7
100
AcDbCircle
 10
0.4835104718
 20
0.3666411395
 30
0.0
 40
0.00152
  0
CIRCLE
  5
FC
330
1F
100
AcDbEntity
  8
0
  6
CONTINUOUS
 62
     7
100
AcDbCircle
 10
0.5025604718
 20
0.3996367073
 30
0.0
 40
0.00152
  0
CIRCLE
  5
FD
330
1F
100
AcDbEntity
  8
0
  6
CONTINUOUS
 62
     7
100
AcDbCircle
 10
0.5406604718
 20
0.3996367073
 30
0.0
 40
0.00152
  0
CIRCLE
  5
FE
330
1F
100
AcDbEntity
  8
0
  6
CONTINUOUS
 62
     7
100
AcDbCircle
 10
0.328378382
 20
0.2138945724
 30
0.0
 40
0.00142
  0
CIRCLE
  5
FF
330
1F
100
AcDbEntity
  8
0
  6
CONTINUOUS
 62
     7
100
AcDbCircle
 10
0.3613739499
 20
0.1567445724
 30
0.0
 40
0.00142
  0
CIRCLE
  5
100
330
1F
100
AcDbEntity
  8
0
  6
CONTINUOUS
 62
     7
100
AcDbCircle
 10
0.3943695178
 20
0.2138945724
 30
0.0
 40
0.00142
  0
CIRCLE
  5
101
330
1F
100
AcDbEntity
  8
0
  6
CONTINUOUS
 62
     7
100
AcDbCircle
 10
0.3804239499
 20
0.2278401403
 30
0.0
 40
0.00117
  0
CIRCLE
  5
102
330
1F
100
AcDbEntity
  8
0
  6
CONTINUOUS
 62
     7
100
AcDbCircle
 10
0.3232739499
 20
0.1948445724
 30
0.0
 40
0.00117
  0
CIRCLE
  5
103
330
1F
100
AcDbEntity
  8
0
  6
CONTINUOUS
 62
     7
100
AcDbCircle
 10
0.3804239499
 20
0.1618490045
 30
0.0
 40
0.00117
  0
CIRCLE
  5
104
330
1F
100
AcDbEntity
  8
0
  6
CONTINUOUS
 62
     7
100
AcDbCircle
 10
0.3994739499
 20
0.1948445724
 30
0.0
 40
0.00117
  0
CIRCLE
  5
105
330
1F
100
AcDbEntity
  8
0
  6
CONTINUOUS
 62
     7
100
AcDbCircle
 10
0.3613739499
 20
0.1948445724
 30
0.0
 40
0.05008
  0
CIRCLE
  5
106
330
1F
100
AcDbEntity
  8
0
  6
CONTINUOUS
 62
     7
100
AcDbCircle
 10
0.3613739499
 20
0.2329445724
 30
0.0
 40
0.00142
  0
CIRCLE
  5
107
330
1F
100
AcDbEntity
  8
0
  6
CONTINUOUS
 62
     7
100
AcDbCircle
 10
0.3423239499
 20
0.1618490045
 30
0.0
 40
0.00117
  0
CIRCLE
  5
108
330
1F
100
AcDbEntity
  8
0
  6
CONTINUOUS
 62
     7
100
AcDbCircle
 10
0.3423239499
 20
0.2278401403
 30
0.0
 40
0.00117
  0
CIRCLE
  5
109
330
1F
100
AcDbEntity
  8
0
  6
CONTINUOUS
 62
     7
100
AcDbCircle
 10
0.3613739499
 20
0.1948445724
 30
0.0
 40
0.00392
  0
CIRCLE
  5
10A
330
1F
100
AcDbEntity
  8
0
  6
CONTINUOUS
 62
     7
100
AcDbCircle
 10
0.3943695178
 20
0.1757945724
 30
0.0
 40
0.00142
  0
CIRCLE
  5
10B
330
1F
100
AcDbEntity
  8
0
  6
CONTINUOUS
 62
     7
100
AcDbCircle
 10
0.328378382
 20
0.1757945724
 30
0.0
 40
0.00142
  0
CIRCLE
  5
10C
330
1F
100
AcDbEntity
  8
0
  6
CONTINUOUS
 62
     7
100
AcDbCircle
 10
0.5632629496
 20
0.1390088783
 30
0.0
 40
0.00257
  0
CIRCLE
  5
10D
330
1F
100
AcDbEntity
  8
0
  6
CONTINUOUS
 62
     7
100
AcDbCircle
 10
0.5420962829
 20
0.1209088783
 30
0.0
 40
0.00257
  0
CIRCLE
  5
10E
330
1F
100
AcDbEntity
  8
0
  6
CONTINUOUS
 62
     7
100
AcDbCircle
 10
0.4997629496
 20
0.1209088783
 30
0.0
 40
0.00257
  0
ARC
  5
10F
330
1F
100
AcDbEntity
  8
0
  6
CONTINUOUS
 62
     7
100
AcDbCircle
 10
0.5632629496
 20
0.1363786222
 30
0.0
 40
0.00635
100
AcDbArc
 50
0.0
 51
45.0
  0
LINE
  5
110
330
1F
100
AcDbEntity
  8
0
  6
CONTINUOUS
 62
     7
100
AcDbLine
 10
0.5696129505
 20
0.1209088782
 30
0.0
 11
0.5696129505
 21
0.1363786226
 31
0.0
  0
ARC
  5
111
330
1F
100
AcDbEntity
  8
0
  6
CONTINUOUS
 62
     7
100
AcDbCircle
 10
0.5632629496
 20
0.1209088783
 30
0.0
 40
0.00635
100
AcDbArc
 50
270.0
 51
0.0
  0
LINE
  5
112
330
1F
100
AcDbEntity
  8
0
  6
CONTINUOUS
 62
     7
100
AcDbLine
 10
0.4997629495
 20
0.1145588783
 30
0.0
 11
0.5632629473
 21
0.1145588783
 31
0.0
  0
ARC
  5
113
330
1F
100
AcDbEntity
  8
0
  6
CONTINUOUS
 62
     7
100
AcDbCircle
 10
0.4997629496
 20
0.1209088783
 30
0.0
 40
0.00635
100
AcDbArc
 50
180.0
 51
270.0
  0
LINE
  5
114
330
1F
100
AcDbEntity
  8
0
  6
CONTINUOUS
 62
     7
100
AcDbLine
 10
0.4934129496
 20
0.1363786226
 30
0.0
 11
0.4934129496
 21
0.1209088782
 31
0.0
  0
ARC
  5
115
330
1F
100
AcDbEntity
  8
0
  6
CONTINUOUS
 62
     7
100
AcDbCircle
 10
0.4997629496
 20
0.1363786222
 30
0.0
 40
0.00635
100
AcDbArc
 50
135.0
 51
180.0
  0
LINE
  5
116
330
1F
100
AcDbEntity
  8
0
  6
CONTINUOUS
 62
     7
100
AcDbLine
 10
0.4952728215
 20
0.1408687504
 30
0.0
 11
0.4963155777
 21
0.1419115057
 31
0.0
  0
ARC
  5
117
330
1F
100
AcDbEntity
  8
0
  6
CONTINUOUS
 62
     7
100
AcDbCircle
 10
0.5008057057
 20
0.1374213783
 30
0.0
 40
0.00635
100
AcDbArc
 50
90.0
 51
135.0
  0
LINE
  5
118
330
1F
100
AcDbEntity
  8
0
  6
CONTINUOUS
 62
     7
100
AcDbLine
 10
0.5008057057
 20
0.1437713792
 30
0.0
 11
0.5028041084
 21
0.1437713792
 31
0.0
  0
ARC
  5
119
330
1F
100
AcDbEntity
  8
0
  6
CONTINUOUS
 62
     7
100
AcDbCircle
 10
0.5028041086
 20
0.1374213783
 30
0.0
 40
0.00635
100
AcDbArc
 50
59.6658185772
 51
90.0
  0
LINE
  5
11A
330
1F
100
AcDbEntity
  8
0
  6
CONTINUOUS
 62
     7
100
AcDbLine
 10
0.5060111288
 20
0.1429020287
 30
0.0
 11
0.5239373096
 21
0.1324124625
 31
0.0
  0
LINE
  5
11B
330
1F
100
AcDbEntity
  8
0
  6
CONTINUOUS
 62
     7
100
AcDbLine
 10
0.5390885886
 20
0.1324124625
 30
0.0
 11
0.5570147712
 21
0.1429020287
 31
0.0
  0
ARC
  5
11C
330
1F
100
AcDbEntity
  8
0
  6
CONTINUOUS
 62
     7
100
AcDbCircle
 10
0.5602217905
 20
0.1374213783
 30
0.0
 40
0.00635
100
AcDbArc
 50
90.0
 51
120.3341814228
  0
LINE
  5
11D
330
1F
100
AcDbEntity
  8
0
  6
CONTINUOUS
 62
     7
100
AcDbLine
 10
0.5602217917
 20
0.1437713792
 30
0.0
 11
0.5622201939
 21
0.1437713792
 31
0.0
  0
ARC
  5
11E
330
1F
100
AcDbEntity
  8
0
  6
CONTINUOUS
 62
     7
100
AcDbCircle
 10
0.5622201934
 20
0.1374213783
 30
0.0
 40
0.00635
100
AcDbArc
 50
45.0
 51
90.0
  0
LINE
  5
11F
330
1F
100
AcDbEntity
  8
0
  6
CONTINUOUS
 62
     7
100
AcDbLine
 10
0.5667103235
 20
0.1419115057
 30
0.0
 11
0.567753077
 21
0.1408687504
 31
0.0
  0
CIRCLE
  5
120
330
1F
100
AcDbEntity
  8
0
  6
CONTINUOUS
 62
     7
100
AcDbCircle
 10
0.5124629496
 20
0.1317088783
 30
0.0
 40
0.00157
  0
CIRCLE
  5
121
330
1F
100
AcDbEntity
  8
0
  6
CONTINUOUS
 62
     7
100
AcDbCircle
 10
0.5505629496
 20
0.1317088783
 30
0.0
 40
0.00157
  0
CIRCLE
  5
122
330
1F
100
AcDbEntity
  8
0
  6
CONTINUOUS
 62
     7
100
AcDbCircle
 10
0.4997629496
 20
0.1390088783
 30
0.0
 40
0.00257
  0
CIRCLE
  5
123
330
1F
100
AcDbEntity
  8
0
  6
CONTINUOUS
 62
     7
100
AcDbCircle
 10
0.5209296162
 20
0.1209088783
 30
0.0
 40
0.00257
  0
CIRCLE
  5
124
330
1F
100
AcDbEntity
  8
0
  6
CONTINUOUS
 62
     7
100
AcDbCircle
 10
0.5632629496
 20
0.1209088783
 30
0.0
 40
0.00257
  0
CIRCLE
  5
125
330
1F
100
AcDbEntity
  8
0
  6
CONTINUOUS
 62
     7
100
AcDbCircle
 10
0.4997629496
 20
0.1299588783
 30
0.0
 40
0.00142
  0
CIRCLE
  5
126
330
1F
100
AcDbEntity
  8
0
  6
CONTINUOUS
 62
     7
100
AcDbCircle
 10
0.5315129496
 20
0.1209088783
 30
0.0
 40
0.00142
  0
CIRCLE
  5
127
330
1F
100
AcDbEntity
  8
0
  6
CONTINUOUS
 62
     7
100
AcDbCircle
 10
0.5632629496
 20
0.1299588783
 30
0.0
 40
0.00142
  0
ARC
  5
128
330
1F
100
AcDbEntity
  8
0
  6
CONTINUOUS
 62
     7
100
AcDbCircle
 10
0.5315129496
 20
0.1453588783
 30
0.0
 40
0.015
100
AcDbArc
 50
239.6658185772
 51
300.3341814228
  0
CIRCLE
  5
129
330
1F
100
AcDbEntity
  8
0
  6
CONTINUOUS
 62
     7
100
AcDbCircle
 10
0.5638198165
 20
0.1730181986
 30
0.0
 40
0.00257
  0
CIRCLE
  5
12A
330
1F
100
AcDbEntity
  8
0
  6
CONTINUOUS
 62
     7
100
AcDbCircle
 10
0.5426531498
 20
0.1549181986
 30
0.0
 40
0.00257
  0
CIRCLE
  5
12B
330
1F
100
AcDbEntity
  8
0
  6
CONTINUOUS
 62
     7
100
AcDbCircle
 10
0.5003198165
 20
0.1549181986
 30
0.0
 40
0.00257
  0
ARC
  5
12C
330
1F
100
AcDbEntity
  8
0
  6
CONTINUOUS
 62
     7
100
AcDbCircle
 10
0.5638198165
 20
0.1703879425
 30
0.0
 40
0.00635
100
AcDbArc
 50
0.0
 51
45.0
  0
LINE
  5
12D
330
1F
100
AcDbEntity
  8
0
  6
CONTINUOUS
 62
     7
100
AcDbLine
 10
0.5701698174
 20
0.1549181985
 30
0.0
 11
0.5701698174
 21
0.1703879429
 31
0.0
  0
ARC
  5
12E
330
1F
100
AcDbEntity
  8
0
  6
CONTINUOUS
 62
     7
100
AcDbCircle
 10
0.5638198165
 20
0.1549181986
 30
0.0
 40
0.00635
100
AcDbArc
 50
270.0
 51
0.0
  0
LINE
  5
12F
330
1F
100
AcDbEntity
  8
0
  6
CONTINUOUS
 62
     7
100
AcDbLine
 10
0.5003198164
 20
0.1485681986
 30
0.0
 11
0.5638198142
 21
0.1485681986
 31
0.0
  0
ARC
  5
130
330
1F
100
AcDbEntity
  8
0
  6
CONTINUOUS
 62
     7
100
AcDbCircle
 10
0.5003198165
 20
0.1549181986
 30
0.0
 40
0.00635
100
AcDbArc
 50
180.0
 51
270.0
  0
LINE
  5
131
330
1F
100
AcDbEntity
  8
0
  6
CONTINUOUS
 62
     7
100
AcDbLine
 10
0.4939698165
 20
0.1703879429
 30
0.0
 11
0.4939698165
 21
0.1549181985
 31
0.0
  0
ARC
  5
132
330
1F
100
AcDbEntity
  8
0
  6
CONTINUOUS
 62
     7
100
AcDbCircle
 10
0.5003198165
 20
0.1703879425
 30
0.0
 40
0.00635
100
AcDbArc
 50
135.0
 51
180.0
  0
LINE
  5
133
330
1F
100
AcDbEntity
  8
0
  6
CONTINUOUS
 62
     7
100
AcDbLine
 10
0.4958296884
 20
0.1748780706
 30
0.0
 11
0.4968724446
 21
0.175920826
 31
0.0
  0
ARC
  5
134
330
1F
100
AcDbEntity
  8
0
  6
CONTINUOUS
 62
     7
100
AcDbCircle
 10
0.5013625726
 20
0.1714306986
 30
0.0
 40
0.00635
100
AcDbArc
 50
90.0
 51
135.0
  0
LINE
  5
135
330
1F
100
AcDbEntity
  8
0
  6
CONTINUOUS
 62
     7
100
AcDbLine
 10
0.5013625726
 20
0.1777806995
 30
0.0
 11
0.5033609753
 21
0.1777806995
 31
0.0
  0
ARC
  5
136
330
1F
100
AcDbEntity
  8
0
  6
CONTINUOUS
 62
     7
100
AcDbCircle
 10
0.5033609756
 20
0.1714306986
 30
0.0
 40
0.00635
100
AcDbArc
 50
59.6658185772
 51
90.0
  0
LINE
  5
137
330
1F
100
AcDbEntity
  8
0
  6
CONTINUOUS
 62
     7
100
AcDbLine
 10
0.5065679958
 20
0.176911349
 30
0.0
 11
0.5244941765
 21
0.1664217827
 31
0.0
  0
LINE
  5
138
330
1F
100
AcDbEntity
  8
0
  6
CONTINUOUS
 62
     7
100
AcDbLine
 10
0.5396454555
 20
0.1664217827
 30
0.0
 11
0.5575716381
 21
0.176911349
 31
0.0
  0
ARC
  5
139
330
1F
100
AcDbEntity
  8
0
  6
CONTINUOUS
 62
     7
100
AcDbCircle
 10
0.5607786574
 20
0.1714306986
 30
0.0
 40
0.00635
100
AcDbArc
 50
90.0
 51
120.3341814228
  0
LINE
  5
13A
330
1F
100
AcDbEntity
  8
0
  6
CONTINUOUS
 62
     7
100
AcDbLine
 10
0.5607786586
 20
0.1777806995
 30
0.0
 11
0.5627770608
 21
0.1777806995
 31
0.0
  0
ARC
  5
13B
330
1F
100
AcDbEntity
  8
0
  6
CONTINUOUS
 62
     7
100
AcDbCircle
 10
0.5627770604
 20
0.1714306986
 30
0.0
 40
0.00635
100
AcDbArc
 50
45.0
 51
90.0
  0
LINE
  5
13C
330
1F
100
AcDbEntity
  8
0
  6
CONTINUOUS
 62
     7
100
AcDbLine
 10
0.5672671904
 20
0.175920826
 30
0.0
 11
0.5683099439
 21
0.1748780706
 31
0.0
  0
CIRCLE
  5
13D
330
1F
100
AcDbEntity
  8
0
  6
CONTINUOUS
 62
     7
100
AcDbCircle
 10
0.5130198165
 20
0.1657181986
 30
0.0
 40
0.00157
  0
CIRCLE
  5
13E
330
1F
100
AcDbEntity
  8
0
  6
CONTINUOUS
 62
     7
100
AcDbCircle
 10
0.5511198165
 20
0.1657181986
 30
0.0
 40
0.00157
  0
CIRCLE
  5
13F
330
1F
100
AcDbEntity
  8
0
  6
CONTINUOUS
 62
     7
100
AcDbCircle
 10
0.5003198165
 20
0.1730181986
 30
0.0
 40
0.00257
  0
CIRCLE
  5
140
330
1F
100
AcDbEntity
  8
0
  6
CONTINUOUS
 62
     7
100
AcDbCircle
 10
0.5214864831
 20
0.1549181986
 30
0.0
 40
0.00257
  0
CIRCLE
  5
141
330
1F
100
AcDbEntity
  8
0
  6
CONTINUOUS
 62
     7
100
AcDbCircle
 10
0.5638198165
 20
0.1549181986
 30
0.0
 40
0.00257
  0
CIRCLE
  5
142
330
1F
100
AcDbEntity
  8
0
  6
CONTINUOUS
 62
     7
100
AcDbCircle
 10
0.5003198165
 20
0.1639681986
 30
0.0
 40
0.00142
  0
CIRCLE
  5
143
330
1F
100
AcDbEntity
  8
0
  6
CONTINUOUS
 62
     7
100
AcDbCircle
 10
0.5320698165
 20
0.1549181986
 30
0.0
 40
0.00142
  0
CIRCLE
  5
144
330
1F
100
AcDbEntity
  8
0
  6
CONTINUOUS
 62
     7
100
AcDbCircle
 10
0.5638198165
 20
0.1639681986
 30
0.0
 40
0.00142
  0
ARC
  5
145
330
1F
100
AcDbEntity
  8
0
  6
CONTINUOUS
 62
     7
100
AcDbCircle
 10
0.5320698165
 20
0.1793681986
 30
0.0
 40
0.015
100
AcDbArc
 50
239.6658185772
 51
300.3341814228
  0
CIRCLE
  5
146
330
1F
100
AcDbEntity
  8
0
  6
CONTINUOUS
 62
     7
100
AcDbCircle
 10
0.4837932368
 20
0.2042908733
 30
0.0
 40
0.00257
  0
CIRCLE
  5
147
330
1F
100
AcDbEntity
  8
0
  6
CONTINUOUS
 62
     7
100
AcDbCircle
 10
0.4626265701
 20
0.1861908733
 30
0.0
 40
0.00257
  0
CIRCLE
  5
148
330
1F
100
AcDbEntity
  8
0
  6
CONTINUOUS
 62
     7
100
AcDbCircle
 10
0.4202932368
 20
0.1861908733
 30
0.0
 40
0.00257
  0
ARC
  5
149
330
1F
100
AcDbEntity
  8
0
  6
CONTINUOUS
 62
     7
100
AcDbCircle
 10
0.4837932368
 20
0.2016606172
 30
0.0
 40
0.00635
100
AcDbArc
 50
0.0
 51
45.0
  0
LINE
  5
14A
330
1F
100
AcDbEntity
  8
0
  6
CONTINUOUS
 62
     7
100
AcDbLine
 10
0.4901432377
 20
0.1861908732
 30
0.0
 11
0.4901432377
 21
0.2016606176
 31
0.0
  0
ARC
  5
14B
330
1F
100
AcDbEntity
  8
0
  6
CONTINUOUS
 62
     7
100
AcDbCircle
 10
0.4837932368
 20
0.1861908733
 30
0.0
 40
0.00635
100
AcDbArc
 50
270.0
 51
0.0
  0
LINE
  5
14C
330
1F
100
AcDbEntity
  8
0
  6
CONTINUOUS
 62
     7
100
AcDbLine
 10
0.4202932367
 20
0.1798408733
 30
0.0
 11
0.4837932345
 21
0.1798408733
 31
0.0
  0
ARC
  5
14D
330
1F
100
AcDbEntity
  8
0
  6
CONTINUOUS
 62
     7
100
AcDbCircle
 10
0.4202932368
 20
0.1861908733
 30
0.0
 40
0.00635
100
AcDbArc
 50
180.0
 51
270.0
  0
LINE
  5
14E
330
1F
100
AcDbEntity
  8
0
  6
CONTINUOUS
 62
     7
100
AcDbLine
 10
0.4139432368
 20
0.2016606176
 30
0.0
 11
0.4139432368
 21
0.1861908732
 31
0.0
  0
ARC
  5
14F
330
1F
100
AcDbEntity
  8
0
  6
CONTINUOUS
 62
     7
100
AcDbCircle
 10
0.4202932368
 20
0.2016606172
 30
0.0
 40
0.00635
100
AcDbArc
 50
135.0
 51
180.0
  0
LINE
  5
150
330
1F
100
AcDbEntity
  8
0
  6
CONTINUOUS
 62
     7
100
AcDbLine
 10
0.4158031087
 20
0.2061507453
 30
0.0
 11
0.4168458649
 21
0.2071935007
 31
0.0
  0
ARC
  5
151
330
1F
100
AcDbEntity
  8
0
  6
CONTINUOUS
 62
     7
100
AcDbCircle
 10
0.4213359929
 20
0.2027033733
 30
0.0
 40
0.00635
100
AcDbArc
 50
90.0
 51
135.0
  0
LINE
  5
152
330
1F
100
AcDbEntity
  8
0
  6
CONTINUOUS
 62
     7
100
AcDbLine
 10
0.421335993
 20
0.2090533742
 30
0.0
 11
0.4233343956
 21
0.2090533742
 31
0.0
  0
ARC
  5
153
330
1F
100
AcDbEntity
  8
0
  6
CONTINUOUS
 62
     7
100
AcDbCircle
 10
0.4233343959
 20
0.2027033733
 30
0.0
 40
0.00635
100
AcDbArc
 50
59.6658185772
 51
90.0
  0
LINE
  5
154
330
1F
100
AcDbEntity
  8
0
  6
CONTINUOUS
 62
     7
100
AcDbLine
 10
0.4265414161
 20
0.2081840237
 30
0.0
 11
0.4444675968
 21
0.1976944574
 31
0.0
  0
LINE
  5
155
330
1F
100
AcDbEntity
  8
0
  6
CONTINUOUS
 62
     7
100
AcDbLine
 10
0.4596188759
 20
0.1976944574
 30
0.0
 11
0.4775450584
 21
0.2081840237
 31
0.0
  0
ARC
  5
156
330
1F
100
AcDbEntity
  8
0
  6
CONTINUOUS
 62
     7
100
AcDbCircle
 10
0.4807520777
 20
0.2027033733
 30
0.0
 40
0.00635
100
AcDbArc
 50
90.0
 51
120.3341814228
  0
LINE
  5
157
330
1F
100
AcDbEntity
  8
0
  6
CONTINUOUS
 62
     7
100
AcDbLine
 10
0.4807520789
 20
0.2090533742
 30
0.0
 11
0.4827504811
 21
0.2090533742
 31
0.0
  0
ARC
  5
158
330
1F
100
AcDbEntity
  8
0
  6
CONTINUOUS
 62
     7
100
AcDbCircle
 10
0.4827504807
 20
0.2027033733
 30
0.0
 40
0.00635
100
AcDbArc
 50
45.0
 51
90.0
  0
LINE
  5
159
330
1F
100
AcDbEntity
  8
0
  6
CONTINUOUS
 62
     7
100
AcDbLine
 10
0.4872406107
 20
0.2071935007
 30
0.0
 11
0.4882833642
 21
0.2061507453
 31
0.0
  0
CIRCLE
  5
15A
330
1F
100
AcDbEntity
  8
0
  6
CONTINUOUS
 62
     7
100
AcDbCircle
 10
0.4329932368
 20
0.1969908733
 30
0.0
 40
0.00157
  0
CIRCLE
  5
15B
330
1F
100
AcDbEntity
  8
0
  6
CONTINUOUS
 62
     7
100
AcDbCircle
 10
0.4710932368
 20
0.1969908733
 30
0.0
 40
0.00157
  0
CIRCLE
  5
15C
330
1F
100
AcDbEntity
  8
0
  6
CONTINUOUS
 62
     7
100
AcDbCircle
 10
0.4202932368
 20
0.2042908733
 30
0.0
 40
0.00257
  0
CIRCLE
  5
15D
330
1F
100
AcDbEntity
  8
0
  6
CONTINUOUS
 62
     7
100
AcDbCircle
 10
0.4414599035
 20
0.1861908733
 30
0.0
 40
0.00257
  0
CIRCLE
  5
15E
330
1F
100
AcDbEntity
  8
0
  6
CONTINUOUS
 62
     7
100
AcDbCircle
 10
0.4837932368
 20
0.1861908733
 30
0.0
 40
0.00257
  0
CIRCLE
  5
15F
330
1F
100
AcDbEntity
  8
0
  6
CONTINUOUS
 62
     7
100
AcDbCircle
 10
0.4202932368
 20
0.1952408733
 30
0.0
 40
0.00142
  0
CIRCLE
  5
160
330
1F
100
AcDbEntity
  8
0
  6
CONTINUOUS
 62
     7
100
AcDbCircle
 10
0.4520432368
 20
0.1861908733
 30
0.0
 40
0.00142
  0
CIRCLE
  5
161
330
1F
100
AcDbEntity
  8
0
  6
CONTINUOUS
 62
     7
100
AcDbCircle
 10
0.4837932368
 20
0.1952408733
 30
0.0
 40
0.00142
  0
ARC
  5
162
330
1F
100
AcDbEntity
  8
0
  6
CONTINUOUS
 62
     7
100
AcDbCircle
 10
0.4520432368
 20
0.2106408733
 30
0.0
 40
0.015
100
AcDbArc
 50
239.6658185772
 51
300.3341814228
  0
CIRCLE
  5
163
330
1F
100
AcDbEntity
  8
0
  6
CONTINUOUS
 62
     7
100
AcDbCircle
 10
0.4836635745
 20
0.2388179631
 30
0.0
 40
0.00257
  0
CIRCLE
  5
164
330
1F
100
AcDbEntity
  8
0
  6
CONTINUOUS
 62
     7
100
AcDbCircle
 10
0.4624969078
 20
0.2207179631
 30
0.0
 40
0.00257
  0
CIRCLE
  5
165
330
1F
100
AcDbEntity
  8
0
  6
CONTINUOUS
 62
     7
100
AcDbCircle
 10
0.4201635745
 20
0.2207179631
 30
0.0
 40
0.00257
  0
ARC
  5
166
330
1F
100
AcDbEntity
  8
0
  6
CONTINUOUS
 62
     7
100
AcDbCircle
 10
0.4836635745
 20
0.236187707
 30
0.0
 40
0.00635
100
AcDbArc
 50
0.0
 51
45.0
  0
LINE
  5
167
330
1F
100
AcDbEntity
  8
0
  6
CONTINUOUS
 62
     7
100
AcDbLine
 10
0.4900135754
 20
0.220717963
 30
0.0
 11
0.4900135754
 21
0.2361877074
 31
0.0
  0
ARC
  5
168
330
1F
100
AcDbEntity
  8
0
  6
CONTINUOUS
 62
     7
100
AcDbCircle
 10
0.4836635745
 20
0.2207179631
 30
0.0
 40
0.00635
100
AcDbArc
 50
270.0
 51
0.0
  0
LINE
  5
169
330
1F
100
AcDbEntity
  8
0
  6
CONTINUOUS
 62
     7
100
AcDbLine
 10
0.4201635744
 20
0.2143679631
 30
0.0
 11
0.4836635722
 21
0.2143679631
 31
0.0
  0
ARC
  5
16A
330
1F
100
AcDbEntity
  8
0
  6
CONTINUOUS
 62
     7
100
AcDbCircle
 10
0.4201635745
 20
0.2207179631
 30
0.0
 40
0.00635
100
AcDbArc
 50
180.0
 51
270.0
  0
LINE
  5
16B
330
1F
100
AcDbEntity
  8
0
  6
CONTINUOUS
 62
     7
100
AcDbLine
 10
0.4138135745
 20
0.2361877074
 30
0.0
 11
0.4138135745
 21
0.220717963
 31
0.0
  0
ARC
  5
16C
330
1F
100
AcDbEntity
  8
0
  6
CONTINUOUS
 62
     7
100
AcDbCircle
 10
0.4201635745
 20
0.236187707
 30
0.0
 40
0.00635
100
AcDbArc
 50
135.0
 51
180.0
  0
LINE
  5
16D
330
1F
100
AcDbEntity
  8
0
  6
CONTINUOUS
 62
     7
100
AcDbLine
 10
0.4156734464
 20
0.2406778352
 30
0.0
 11
0.4167162026
 21
0.2417205905
 31
0.0
  0
ARC
  5
16E
330
1F
100
AcDbEntity
  8
0
  6
CONTINUOUS
 62
     7
100
AcDbCircle
 10
0.4212063306
 20
0.2372304631
 30
0.0
 40
0.00635
100
AcDbArc
 50
90.0
 51
135.0
  0
LINE
  5
16F
330
1F
100
AcDbEntity
  8
0
  6
CONTINUOUS
 62
     7
100
AcDbLine
 10
0.4212063306
 20
0.243580464
 30
0.0
 11
0.4232047333
 21
0.243580464
 31
0.0
  0
ARC
  5
170
330
1F
100
AcDbEntity
  8
0
  6
CONTINUOUS
 62
     7
100
AcDbCircle
 10
0.4232047335
 20
0.2372304631
 30
0.0
 40
0.00635
100
AcDbArc
 50
59.6658185772
 51
90.0
  0
LINE
  5
171
330
1F
100
AcDbEntity
  8
0
  6
CONTINUOUS
 62
     7
100
AcDbLine
 10
0.4264117537
 20
0.2427111135
 30
0.0
 11
0.4443379345
 21
0.2322215473
 31
0.0
  0
LINE
  5
172
330
1F
100
AcDbEntity
  8
0
  6
CONTINUOUS
 62
     7
100
AcDbLine
 10
0.4594892135
 20
0.2322215473
 30
0.0
 11
0.4774153961
 21
0.2427111135
 31
0.0
  0
ARC
  5
173
330
1F
100
AcDbEntity
  8
0
  6
CONTINUOUS
 62
     7
100
AcDbCircle
 10
0.4806224154
 20
0.2372304631
 30
0.0
 40
0.00635
100
AcDbArc
 50
90.0
 51
120.3341814228
  0
LINE
  5
174
330
1F
100
AcDbEntity
  8
0
  6
CONTINUOUS
 62
     7
100
AcDbLine
 10
0.4806224166
 20
0.243580464
 30
0.0
 11
0.4826208188
 21
0.243580464
 31
0.0
  0
ARC
  5
175
330
1F
100
AcDbEntity
  8
0
  6
CONTINUOUS
 62
     7
100
AcDbCircle
 10
0.4826208183
 20
0.2372304631
 30
0.0
 40
0.00635
100
AcDbArc
 50
45.0
 51
90.0
  0
LINE
  5
176
330
1F
100
AcDbEntity
  8
0
  6
CONTINUOUS
 62
     7
100
AcDbLine
 10
0.4871109484
 20
0.2417205905
 30
0.0
 11
0.4881537019
 21
0.2406778352
 31
0.0
  0
CIRCLE
  5
177
330
1F
100
AcDbEntity
  8
0
  6
CONTINUOUS
 62
     7
100
AcDbCircle
 10
0.4328635745
 20
0.2315179631
 30
0.0
 40
0.00157
  0
CIRCLE
  5
178
330
1F
100
AcDbEntity
  8
0
  6
CONTINUOUS
 62
     7
100
AcDbCircle
 10
0.4709635745
 20
0.2315179631
 30
0.0
 40
0.00157
  0
CIRCLE
  5
179
330
1F
100
AcDbEntity
  8
0
  6
CONTINUOUS
 62
     7
100
AcDbCircle
 10
0.4201635745
 20
0.2388179631
 30
0.0
 40
0.00257
  0
CIRCLE
  5
17A
330
1F
100
AcDbEntity
  8
0
  6
CONTINUOUS
 62
     7
100
AcDbCircle
 10
0.4413302411
 20
0.2207179631
 30
0.0
 40
0.00257
  0
CIRCLE
  5
17B
330
1F
100
AcDbEntity
  8
0
  6
CONTINUOUS
 62
     7
100
AcDbCircle
 10
0.4836635745
 20
0.2207179631
 30
0.0
 40
0.00257
  0
CIRCLE
  5
17C
330
1F
100
AcDbEntity
  8
0
  6
CONTINUOUS
 62
     7
100
AcDbCircle
 10
0.4201635745
 20
0.2297679631
 30
0.0
 40
0.00142
  0
CIRCLE
  5
17D
330
1F
100
AcDbEntity
  8
0
  6
CONTINUOUS
 62
     7
100
AcDbCircle
 10
0.4519135745
 20
0.2207179631
 30
0.0
 40
0.00142
  0
CIRCLE
  5
17E
330
1F
100
AcDbEntity
  8
0
  6
CONTINUOUS
 62
     7
100
AcDbCircle
 10
0.4836635745
 20
0.2297679631
 30
0.0
 40
0.00142
  0
ARC
  5
17F
330
1F
100
AcDbEntity
  8
0
  6
CONTINUOUS
 62
     7
100
AcDbCircle
 10
0.4519135745
 20
0.2451679631
 30
0.0
 40
0.015
100
AcDbArc
 50
239.6658185772
 51
300.3341814228
  0
CIRCLE
  5
180
330
1F
100
AcDbEntity
  8
0
  6
CONTINUOUS
 62
     7
100
AcDbCircle
 10
0.5642223149
 20
0.2058916616
 30
0.0
 40
0.00257
  0
CIRCLE
  5
181
330
1F
100
AcDbEntity
  8
0
  6
CONTINUOUS
 62
     7
100
AcDbCircle
 10
0.5430556482
 20
0.1877916616
 30
0.0
 40
0.00257
  0
CIRCLE
  5
182
330
1F
100
AcDbEntity
  8
0
  6
CONTINUOUS
 62
     7
100
AcDbCircle
 10
0.5007223149
 20
0.1877916616
 30
0.0
 40
0.00257
  0
ARC
  5
183
330
1F
100
AcDbEntity
  8
0
  6
CONTINUOUS
 62
     7
100
AcDbCircle
 10
0.5642223149
 20
0.2032614055
 30
0.0
 40
0.00635
100
AcDbArc
 50
0.0
 51
45.0
  0
LINE
  5
184
330
1F
100
AcDbEntity
  8
0
  6
CONTINUOUS
 62
     7
100
AcDbLine
 10
0.5705723158
 20
0.1877916615
 30
0.0
 11
0.5705723158
 21
0.2032614058
 31
0.0
  0
ARC
  5
185
330
1F
100
AcDbEntity
  8
0
  6
CONTINUOUS
 62
     7
100
AcDbCircle
 10
0.5642223149
 20
0.1877916616
 30
0.0
 40
0.00635
100
AcDbArc
 50
270.0
 51
0.0
  0
LINE
  5
186
330
1F
100
AcDbEntity
  8
0
  6
CONTINUOUS
 62
     7
100
AcDbLine
 10
0.5007223148
 20
0.1814416616
 30
0.0
 11
0.5642223126
 21
0.1814416616
 31
0.0
  0
ARC
  5
187
330
1F
100
AcDbEntity
  8
0
  6
CONTINUOUS
 62
     7
100
AcDbCircle
 10
0.5007223149
 20
0.1877916616
 30
0.0
 40
0.00635
100
AcDbArc
 50
180.0
 51
270.0
  0
LINE
  5
188
330
1F
100
AcDbEntity
  8
0
  6
CONTINUOUS
 62
     7
100
AcDbLine
 10
0.4943723149
 20
0.2032614058
 30
0.0
 11
0.4943723149
 21
0.1877916615
 31
0.0
  0
ARC
  5
189
330
1F
100
AcDbEntity
  8
0
  6
CONTINUOUS
 62
     7
100
AcDbCircle
 10
0.5007223149
 20
0.2032614055
 30
0.0
 40
0.00635
100
AcDbArc
 50
135.0
 51
180.0
  0
LINE
  5
18A
330
1F
100
AcDbEntity
  8
0
  6
CONTINUOUS
 62
     7
100
AcDbLine
 10
0.4962321868
 20
0.2077515336
 30
0.0
 11
0.497274943
 21
0.208794289
 31
0.0
  0
ARC
  5
18B
330
1F
100
AcDbEntity
  8
0
  6
CONTINUOUS
 62
     7
100
AcDbCircle
 10
0.501765071
 20
0.2043041616
 30
0.0
 40
0.00635
100
AcDbArc
 50
90.0
 51
135.0
  0
LINE
  5
18C
330
1F
100
AcDbEntity
  8
0
  6
CONTINUOUS
 62
     7
100
AcDbLine
 10
0.501765071
 20
0.2106541625
 30
0.0
 11
0.5037634737
 21
0.2106541625
 31
0.0
  0
ARC
  5
18D
330
1F
100
AcDbEntity
  8
0
  6
CONTINUOUS
 62
     7
100
AcDbCircle
 10
0.503763474
 20
0.2043041616
 30
0.0
 40
0.00635
100
AcDbArc
 50
59.6658185772
 51
90.0
  0
LINE
  5
18E
330
1F
100
AcDbEntity
  8
0
  6
CONTINUOUS
 62
     7
100
AcDbLine
 10
0.5069704941
 20
0.209784812
 30
0.0
 11
0.5248966749
 21
0.1992952457
 31
0.0
  0
LINE
  5
18F
330
1F
100
AcDbEntity
  8
0
  6
CONTINUOUS
 62
     7
100
AcDbLine
 10
0.5400479539
 20
0.1992952457
 30
0.0
 11
0.5579741365
 21
0.209784812
 31
0.0
  0
ARC
  5
190
330
1F
100
AcDbEntity
  8
0
  6
CONTINUOUS
 62
     7
100
AcDbCircle
 10
0.5611811558
 20
0.2043041616
 30
0.0
 40
0.00635
100
AcDbArc
 50
90.0
 51
120.3341814228
  0
LINE
  5
191
330
1F
100
AcDbEntity
  8
0
  6
CONTINUOUS
 62
     7
100
AcDbLine
 10
0.561181157
 20
0.2106541625
 30
0.0
 11
0.5631795592
 21
0.2106541625
 31
0.0
  0
ARC
  5
192
330
1F
100
AcDbEntity
  8
0
  6
CONTINUOUS
 62
     7
100
AcDbCircle
 10
0.5631795587
 20
0.2043041616
 30
0.0
 40
0.00635
100
AcDbArc
 50
45.0
 51
90.0
  0
LINE
  5
193
330
1F
100
AcDbEntity
  8
0
  6
CONTINUOUS
 62
     7
100
AcDbLine
 10
0.5676696888
 20
0.208794289
 30
0.0
 11
0.5687124423
 21
0.2077515336
 31
0.0
  0
CIRCLE
  5
194
330
1F
100
AcDbEntity
  8
0
  6
CONTINUOUS
 62
     7
100
AcDbCircle
 10
0.5134223149
 20
0.1985916616
 30
0.0
 40
0.00157
  0
CIRCLE
  5
195
330
1F
100
AcDbEntity
  8
0
  6
CONTINUOUS
 62
     7
100
AcDbCircle
 10
0.5515223149
 20
0.1985916616
 30
0.0
 40
0.00157
  0
CIRCLE
  5
196
330
1F
100
AcDbEntity
  8
0
  6
CONTINUOUS
 62
     7
100
AcDbCircle
 10
0.5007223149
 20
0.2058916616
 30
0.0
 40
0.00257
  0
CIRCLE
  5
197
330
1F
100
AcDbEntity
  8
0
  6
CONTINUOUS
 62
     7
100
AcDbCircle
 10
0.5218889815
 20
0.1877916616
 30
0.0
 40
0.00257
  0
CIRCLE
  5
198
330
1F
100
AcDbEntity
  8
0
  6
CONTINUOUS
 62
     7
100
AcDbCircle
 10
0.5642223149
 20
0.1877916616
 30
0.0
 40
0.00257
  0
CIRCLE
  5
199
330
1F
100
AcDbEntity
  8
0
  6
CONTINUOUS
 62
     7
100
AcDbCircle
 10
0.5007223149
 20
0.1968416616
 30
0.0
 40
0.00142
  0
CIRCLE
  5
19A
330
1F
100
AcDbEntity
  8
0
  6
CONTINUOUS
 62
     7
100
AcDbCircle
 10
0.5324723149
 20
0.1877916616
 30
0.0
 40
0.00142
  0
CIRCLE
  5
19B
330
1F
100
AcDbEntity
  8
0
  6
CONTINUOUS
 62
     7
100
AcDbCircle
 10
0.5642223149
 20
0.1968416616
 30
0.0
 40
0.00142
  0
ARC
  5
19C
330
1F
100
AcDbEntity
  8
0
  6
CONTINUOUS
 62
     7
100
AcDbCircle
 10
0.5324723149
 20
0.2122416616
 30
0.0
 40
0.015
100
AcDbArc
 50
239.6658185772
 51
300.3341814228
  0
CIRCLE
  5
19D
330
1F
100
AcDbEntity
  8
0
  6
CONTINUOUS
 62
     7
100
AcDbCircle
 10
0.564858375
 20
0.2389034242
 30
0.0
 40
0.00257
  0
CIRCLE
  5
19E
330
1F
100
AcDbEntity
  8
0
  6
CONTINUOUS
 62
     7
100
AcDbCircle
 10
0.5436917083
 20
0.2208034242
 30
0.0
 40
0.00257
  0
CIRCLE
  5
19F
330
1F
100
AcDbEntity
  8
0
  6
CONTINUOUS
 62
     7
100
AcDbCircle
 10
0.501358375
 20
0.2208034242
 30
0.0
 40
0.00257
  0
ARC
  5
1A0
330
1F
100
AcDbEntity
  8
0
  6
CONTINUOUS
 62
     7
100
AcDbCircle
 10
0.564858375
 20
0.2362731681
 30
0.0
 40
0.00635
100
AcDbArc
 50
0.0
 51
45.0
  0
LINE
  5
1A1
330
1F
100
AcDbEntity
  8
0
  6
CONTINUOUS
 62
     7
100
AcDbLine
 10
0.5712083759
 20
0.2208034241
 30
0.0
 11
0.5712083759
 21
0.2362731685
 31
0.0
  0
ARC
  5
1A2
330
1F
100
AcDbEntity
  8
0
  6
CONTINUOUS
 62
     7
100
AcDbCircle
 10
0.564858375
 20
0.2208034242
 30
0.0
 40
0.00635
100
AcDbArc
 50
270.0
 51
0.0
  0
LINE
  5
1A3
330
1F
100
AcDbEntity
  8
0
  6
CONTINUOUS
 62
     7
100
AcDbLine
 10
0.5013583749
 20
0.2144534242
 30
0.0
 11
0.5648583728
 21
0.2144534242
 31
0.0
  0
ARC
  5
1A4
330
1F
100
AcDbEntity
  8
0
  6
CONTINUOUS
 62
     7
100
AcDbCircle
 10
0.501358375
 20
0.2208034242
 30
0.0
 40
0.0063500000000001
100
AcDbArc
 50
180.0
 51
270.0
  0
LINE
  5
1A5
330
1F
100
AcDbEntity
  8
0
  6
CONTINUOUS
 62
     7
100
AcDbLine
 10
0.495008375
 20
0.2362731685
 30
0.0
 11
0.495008375
 21
0.2208034241
 31
0.0
  0
ARC
  5
1A6
330
1F
100
AcDbEntity
  8
0
  6
CONTINUOUS
 62
     7
100
AcDbCircle
 10
0.501358375
 20
0.2362731681
 30
0.0
 40
0.0063500000000001
100
AcDbArc
 50
135.0
 51
180.0
  0
LINE
  5
1A7
330
1F
100
AcDbEntity
  8
0
  6
CONTINUOUS
 62
     7
100
AcDbLine
 10
0.4968682469
 20
0.2407632962
 30
0.0
 11
0.4979110031
 21
0.2418060516
 31
0.0
  0
ARC
  5
1A8
330
1F
100
AcDbEntity
  8
0
  6
CONTINUOUS
 62
     7
100
AcDbCircle
 10
0.5024011311
 20
0.2373159242
 30
0.0
 40
0.00635
100
AcDbArc
 50
90.0
 51
135.0
  0
LINE
  5
1A9
330
1F
100
AcDbEntity
  8
0
  6
CONTINUOUS
 62
     7
100
AcDbLine
 10
0.5024011312
 20
0.2436659251
 30
0.0
 11
0.5043995338
 21
0.2436659251
 31
0.0
  0
ARC
  5
1AA
330
1F
100
AcDbEntity
  8
0
  6
CONTINUOUS
 62
     7
100
AcDbCircle
 10
0.5043995341
 20
0.2373159242
 30
0.0
 40
0.00635
100
AcDbArc
 50
59.6658185772
 51
90.0
  0
LINE
  5
1AB
330
1F
100
AcDbEntity
  8
0
  6
CONTINUOUS
 62
     7
100
AcDbLine
 10
0.5076065543
 20
0.2427965746
 30
0.0
 11
0.525532735
 21
0.2323070083
 31
0.0
  0
LINE
  5
1AC
330
1F
100
AcDbEntity
  8
0
  6
CONTINUOUS
 62
     7
100
AcDbLine
 10
0.5406840141
 20
0.2323070083
 30
0.0
 11
0.5586101967
 21
0.2427965746
 31
0.0
  0
ARC
  5
1AD
330
1F
100
AcDbEntity
  8
0
  6
CONTINUOUS
 62
     7
100
AcDbCircle
 10
0.5618172159
 20
0.2373159242
 30
0.0
 40
0.00635
100
AcDbArc
 50
90.0
 51
120.3341814228
  0
LINE
  5
1AE
330
1F
100
AcDbEntity
  8
0
  6
CONTINUOUS
 62
     7
100
AcDbLine
 10
0.5618172171
 20
0.2436659251
 30
0.0
 11
0.5638156193
 21
0.2436659251
 31
0.0
  0
ARC
  5
1AF
330
1F
100
AcDbEntity
  8
0
  6
CONTINUOUS
 62
     7
100
AcDbCircle
 10
0.5638156189
 20
0.2373159242
 30
0.0
 40
0.00635
100
AcDbArc
 50
45.0
 51
90.0
  0
LINE
  5
1B0
330
1F
100
AcDbEntity
  8
0
  6
CONTINUOUS
 62
     7
100
AcDbLine
 10
0.5683057489
 20
0.2418060516
 30
0.0
 11
0.5693485024
 21
0.2407632962
 31
0.0
  0
CIRCLE
  5
1B1
330
1F
100
AcDbEntity
  8
0
  6
CONTINUOUS
 62
     7
100
AcDbCircle
 10
0.514058375
 20
0.2316034242
 30
0.0
 40
0.00157
  0
CIRCLE
  5
1B2
330
1F
100
AcDbEntity
  8
0
  6
CONTINUOUS
 62
     7
100
AcDbCircle
 10
0.552158375
 20
0.2316034242
 30
0.0
 40
0.00157
  0
CIRCLE
  5
1B3
330
1F
100
AcDbEntity
  8
0
  6
CONTINUOUS
 62
     7
100
AcDbCircle
 10
0.501358375
 20
0.2389034242
 30
0.0
 40
0.00257
  0
CIRCLE
  5
1B4
330
1F
100
AcDbEntity
  8
0
  6
CONTINUOUS
 62
     7
100
AcDbCircle
 10
0.5225250417
 20
0.2208034242
 30
0.0
 40
0.00257
  0
CIRCLE
  5
1B5
330
1F
100
AcDbEntity
  8
0
  6
CONTINUOUS
 62
     7
100
AcDbCircle
 10
0.564858375
 20
0.2208034242
 30
0.0
 40
0.00257
  0
CIRCLE
  5
1B6
330
1F
100
AcDbEntity
  8
0
  6
CONTINUOUS
 62
     7
100
AcDbCircle
 10
0.501358375
 20
0.2298534242
 30
0.0
 40
0.00142
  0
CIRCLE
  5
1B7
330
1F
100
AcDbEntity
  8
0
  6
CONTINUOUS
 62
     7
100
AcDbCircle
 10
0.533108375
 20
0.2208034242
 30
0.0
 40
0.00142
  0
CIRCLE
  5
1B8
330
1F
100
AcDbEntity
  8
0
  6
CONTINUOUS
 62
     7
100
AcDbCircle
 10
0.564858375
 20
0.2298534242
 30
0.0
 40
0.00142
  0
ARC
  5
1B9
330
1F
100
AcDbEntity
  8
0
  6
CONTINUOUS
 62
     7
100
AcDbCircle
 10
0.533108375
 20
0.2452534242
 30
0.0
 40
0.015
100
AcDbArc
 50
239.6658185772
 51
300.3341814228
  0
CIRCLE
  5
1BA
330
1F
100
AcDbEntity
  8
0
  6
CONTINUOUS
 62
     7
100
AcDbCircle
 10
0.3657078174
 20
0.0957085489
 30
0.0
 40
0.00792
  0
ARC
  5
1BB
330
1F
100
AcDbEntity
  8
0
  6
CONTINUOUS
 62
     7
100
AcDbCircle
 10
0.3339578174
 20
0.104688805
 30
0.0
 40
0.00635
100
AcDbArc
 50
315.0
 51
0.0
  0
LINE
  5
1BC
330
1F
100
AcDbEntity
  8
0
  6
CONTINUOUS
 62
     7
100
AcDbLine
 10
0.3403078172
 20
0.1046888043
 30
0.0
 11
0.3403078172
 21
0.1093585488
 31
0.0
  0
ARC
  5
1BD
330
1F
100
AcDbEntity
  8
0
  6
CONTINUOUS
 62
     7
100
AcDbCircle
 10
0.3466578174
 20
0.1093585489
 30
0.0
 40
0.00635
100
AcDbArc
 50
90.0
 51
180.0
  0
LINE
  5
1BE
330
1F
100
AcDbEntity
  8
0
  6
CONTINUOUS
 62
     7
100
AcDbLine
 10
0.3847578162
 20
0.1157085483
 30
0.0
 11
0.3466578176
 21
0.1157085483
 31
0.0
  0
ARC
  5
1BF
330
1F
100
AcDbEntity
  8
0
  6
CONTINUOUS
 62
     7
100
AcDbCircle
 10
0.3847578174
 20
0.1093585489
 30
0.0
 40
0.00635
100
AcDbArc
 50
0.0
 51
90.0
  0
LINE
  5
1C0
330
1F
100
AcDbEntity
  8
0
  6
CONTINUOUS
 62
     7
100
AcDbLine
 10
0.3911078194
 20
0.1093585488
 30
0.0
 11
0.3911078194
 21
0.1046888043
 31
0.0
  0
ARC
  5
1C1
330
1F
100
AcDbEntity
  8
0
  6
CONTINUOUS
 62
     7
100
AcDbCircle
 10
0.3974578174
 20
0.104688805
 30
0.0
 40
0.00635
100
AcDbArc
 50
180.0
 51
225.0
  0
LINE
  5
1C2
330
1F
100
AcDbEntity
  8
0
  6
CONTINUOUS
 62
     7
100
AcDbLine
 10
0.3929676929
 20
0.1001986784
 30
0.0
 11
0.4019479448
 21
0.0912184209
 31
0.0
  0
ARC
  5
1C3
330
1F
100
AcDbEntity
  8
0
  6
CONTINUOUS
 62
     7
100
AcDbCircle
 10
0.3974578174
 20
0.0867282928
 30
0.0
 40
0.00635
100
AcDbArc
 50
0.0
 51
45.0
  0
LINE
  5
1C4
330
1F
100
AcDbEntity
  8
0
  6
CONTINUOUS
 62
     7
100
AcDbLine
 10
0.4038078183
 20
0.0712585488
 30
0.0
 11
0.4038078183
 21
0.0867282931
 31
0.0
  0
ARC
  5
1C5
330
1F
100
AcDbEntity
  8
0
  6
CONTINUOUS
 62
     7
100
AcDbCircle
 10
0.3974578174
 20
0.0712585489
 30
0.0
 40
0.00635
100
AcDbArc
 50
270.0
 51
0.0
  0
LINE
  5
1C6
330
1F
100
AcDbEntity
  8
0
  6
CONTINUOUS
 62
     7
100
AcDbLine
 10
0.3339578173
 20
0.0649085489
 30
0.0
 11
0.3974578151
 21
0.0649085489
 31
0.0
  0
ARC
  5
1C7
330
1F
100
AcDbEntity
  8
0
  6
CONTINUOUS
 62
     7
100
AcDbCircle
 10
0.3339578174
 20
0.0712585489
 30
0.0
 40
0.00635
100
AcDbArc
 50
180.0
 51
270.0
  0
LINE
  5
1C8
330
1F
100
AcDbEntity
  8
0
  6
CONTINUOUS
 62
     7
100
AcDbLine
 10
0.3276078174
 20
0.0867282931
 30
0.0
 11
0.3276078174
 21
0.0712585488
 31
0.0
  0
ARC
  5
1C9
330
1F
100
AcDbEntity
  8
0
  6
CONTINUOUS
 62
     7
100
AcDbCircle
 10
0.3339578174
 20
0.0867282928
 30
0.0
 40
0.00635
100
AcDbArc
 50
135.0
 51
180.0
  0
LINE
  5
1CA
330
1F
100
AcDbEntity
  8
0
  6
CONTINUOUS
 62
     7
100
AcDbLine
 10
0.3294676893
 20
0.0912184209
 30
0.0
 11
0.3384479455
 21
0.1001986784
 31
0.0
  0
CIRCLE
  5
1CB
330
1F
100
AcDbEntity
  8
0
  6
CONTINUOUS
 62
     7
100
AcDbCircle
 10
0.3434828174
 20
0.0957085489
 30
0.0
 40
0.00122
  0
CIRCLE
  5
1CC
330
1F
100
AcDbEntity
  8
0
  6
CONTINUOUS
 62
     7
100
AcDbCircle
 10
0.3879328174
 20
0.0957085489
 30
0.0
 40
0.00122
  0
CIRCLE
  5
1CD
330
1F
100
AcDbEntity
  8
0
  6
CONTINUOUS
 62
     7
100
AcDbCircle
 10
0.3847578174
 20
0.1093585489
 30
0.0
 40
0.00117
  0
CIRCLE
  5
1CE
330
1F
100
AcDbEntity
  8
0
  6
CONTINUOUS
 62
     7
100
AcDbCircle
 10
0.3466578174
 20
0.1093585489
 30
0.0
 40
0.00117
  0
CIRCLE
  5
1CF
330
1F
100
AcDbEntity
  8
0
  6
CONTINUOUS
 62
     7
100
AcDbCircle
 10
0.3466578174
 20
0.0820585489
 30
0.0
 40
0.00117
  0
CIRCLE
  5
1D0
330
1F
100
AcDbEntity
  8
0
  6
CONTINUOUS
 62
     7
100
AcDbCircle
 10
0.3847578174
 20
0.0820585489
 30
0.0
 40
0.00117
  0
CIRCLE
  5
1D1
330
1F
100
AcDbEntity
  8
0
  6
CONTINUOUS
 62
     7
100
AcDbCircle
 10
0.3974578174
 20
0.0893585889
 30
0.0
 40
0.00257
  0
CIRCLE
  5
1D2
330
1F
100
AcDbEntity
  8
0
  6
CONTINUOUS
 62
     7
100
AcDbCircle
 10
0.3974578174
 20
0.0712585489
 30
0.0
 40
0.00257
  0
CIRCLE
  5
1D3
330
1F
100
AcDbEntity
  8
0
  6
CONTINUOUS
 62
     7
100
AcDbCircle
 10
0.3762911507
 20
0.0712585489
 30
0.0
 40
0.00257
  0
CIRCLE
  5
1D4
330
1F
100
AcDbEntity
  8
0
  6
CONTINUOUS
 62
     7
100
AcDbCircle
 10
0.355124484
 20
0.0712585489
 30
0.0
 40
0.00257
  0
CIRCLE
  5
1D5
330
1F
100
AcDbEntity
  8
0
  6
CONTINUOUS
 62
     7
100
AcDbCircle
 10
0.3339578174
 20
0.0712585489
 30
0.0
 40
0.00257
  0
CIRCLE
  5
1D6
330
1F
100
AcDbEntity
  8
0
  6
CONTINUOUS
 62
     7
100
AcDbCircle
 10
0.3339578174
 20
0.0893585889
 30
0.0
 40
0.00257
  0
CIRCLE
  5
1D7
330
1F
100
AcDbEntity
  8
0
  6
CONTINUOUS
 62
     7
100
AcDbCircle
 10
0.3974578174
 20
0.0803085689
 30
0.0
 40
0.00142
  0
CIRCLE
  5
1D8
330
1F
100
AcDbEntity
  8
0
  6
CONTINUOUS
 62
     7
100
AcDbCircle
 10
0.3657078174
 20
0.0712585489
 30
0.0
 40
0.00142
  0
CIRCLE
  5
1D9
330
1F
100
AcDbEntity
  8
0
  6
CONTINUOUS
 62
     7
100
AcDbCircle
 10
0.3339578174
 20
0.0803085689
 30
0.0
 40
0.00142
  0
CIRCLE
  5
1DA
330
1F
100
AcDbEntity
  8
0
  6
CONTINUOUS
 62
     7
100
AcDbCircle
 10
0.4493108057
 20
0.1545092482
 30
0.0
 40
0.01092
  0
ARC
  5
1DB
330
1F
100
AcDbEntity
  8
0
  6
CONTINUOUS
 62
     7
100
AcDbCircle
 10
0.4175608057
 20
0.1634895043
 30
0.0
 40
0.00635
100
AcDbArc
 50
315.0
 51
0.0
  0
LINE
  5
1DC
330
1F
100
AcDbEntity
  8
0
  6
CONTINUOUS
 62
     7
100
AcDbLine
 10
0.4239108055
 20
0.1634895036
 30
0.0
 11
0.4239108055
 21
0.1681592481
 31
0.0
  0
ARC
  5
1DD
330
1F
100
AcDbEntity
  8
0
  6
CONTINUOUS
 62
     7
100
AcDbCircle
 10
0.4302608057
 20
0.1681592482
 30
0.0
 40
0.00635
100
AcDbArc
 50
90.0
 51
180.0
  0
LINE
  5
1DE
330
1F
100
AcDbEntity
  8
0
  6
CONTINUOUS
 62
     7
100
AcDbLine
 10
0.4683608045
 20
0.1745092475
 30
0.0
 11
0.4302608059
 21
0.1745092475
 31
0.0
  0
ARC
  5
1DF
330
1F
100
AcDbEntity
  8
0
  6
CONTINUOUS
 62
     7
100
AcDbCircle
 10
0.4683608057
 20
0.1681592482
 30
0.0
 40
0.00635
100
AcDbArc
 50
0.0
 51
90.0
  0
LINE
  5
1E0
330
1F
100
AcDbEntity
  8
0
  6
CONTINUOUS
 62
     7
100
AcDbLine
 10
0.4747108077
 20
0.1681592481
 30
0.0
 11
0.4747108077
 21
0.1634895036
 31
0.0
  0
ARC
  5
1E1
330
1F
100
AcDbEntity
  8
0
  6
CONTINUOUS
 62
     7
100
AcDbCircle
 10
0.4810608057
 20
0.1634895043
 30
0.0
 40
0.00635
100
AcDbArc
 50
180.0
 51
225.0
  0
LINE
  5
1E2
330
1F
100
AcDbEntity
  8
0
  6
CONTINUOUS
 62
     7
100
AcDbLine
 10
0.4765706812
 20
0.1589993776
 30
0.0
 11
0.4855509331
 21
0.1500191202
 31
0.0
  0
ARC
  5
1E3
330
1F
100
AcDbEntity
  8
0
  6
CONTINUOUS
 62
     7
100
AcDbCircle
 10
0.4810608057
 20
0.145528992
 30
0.0
 40
0.00635
100
AcDbArc
 50
0.0
 51
45.0
  0
LINE
  5
1E4
330
1F
100
AcDbEntity
  8
0
  6
CONTINUOUS
 62
     7
100
AcDbLine
 10
0.4874108066
 20
0.1300592481
 30
0.0
 11
0.4874108066
 21
0.1455289924
 31
0.0
  0
ARC
  5
1E5
330
1F
100
AcDbEntity
  8
0
  6
CONTINUOUS
 62
     7
100
AcDbCircle
 10
0.4810608057
 20
0.1300592482
 30
0.0
 40
0.00635
100
AcDbArc
 50
270.0
 51
0.0
  0
LINE
  5
1E6
330
1F
100
AcDbEntity
  8
0
  6
CONTINUOUS
 62
     7
100
AcDbLine
 10
0.4175608056
 20
0.1237092482
 30
0.0
 11
0.4810608034
 21
0.1237092482
 31
0.0
  0
ARC
  5
1E7
330
1F
100
AcDbEntity
  8
0
  6
CONTINUOUS
 62
     7
100
AcDbCircle
 10
0.4175608057
 20
0.1300592482
 30
0.0
 40
0.00635
100
AcDbArc
 50
180.0
 51
270.0
  0
LINE
  5
1E8
330
1F
100
AcDbEntity
  8
0
  6
CONTINUOUS
 62
     7
100
AcDbLine
 10
0.4112108057
 20
0.1455289924
 30
0.0
 11
0.4112108057
 21
0.1300592481
 31
0.0
  0
ARC
  5
1E9
330
1F
100
AcDbEntity
  8
0
  6
CONTINUOUS
 62
     7
100
AcDbCircle
 10
0.4175608057
 20
0.145528992
 30
0.0
 40
0.00635
100
AcDbArc
 50
135.0
 51
180.0
  0
LINE
  5
1EA
330
1F
100
AcDbEntity
  8
0
  6
CONTINUOUS
 62
     7
100
AcDbLine
 10
0.4130706776
 20
0.1500191202
 30
0.0
 11
0.4220509338
 21
0.1589993776
 31
0.0
  0
CIRCLE
  5
1EB
330
1F
100
AcDbEntity
  8
0
  6
CONTINUOUS
 62
     7
100
AcDbCircle
 10
0.4270858057
 20
0.1545092482
 30
0.0
 40
0.00142
  0
CIRCLE
  5
1EC
330
1F
100
AcDbEntity
  8
0
  6
CONTINUOUS
 62
     7
100
AcDbCircle
 10
0.4715358057
 20
0.1545092482
 30
0.0
 40
0.00142
  0
CIRCLE
  5
1ED
330
1F
100
AcDbEntity
  8
0
  6
CONTINUOUS
 62
     7
100
AcDbCircle
 10
0.4683608057
 20
0.1681592482
 30
0.0
 40
0.00117
  0
CIRCLE
  5
1EE
330
1F
100
AcDbEntity
  8
0
  6
CONTINUOUS
 62
     7
100
AcDbCircle
 10
0.4302608057
 20
0.1681592482
 30
0.0
 40
0.00117
  0
CIRCLE
  5
1EF
330
1F
100
AcDbEntity
  8
0
  6
CONTINUOUS
 62
     7
100
AcDbCircle
 10
0.4302608057
 20
0.1408592482
 30
0.0
 40
0.00117
  0
CIRCLE
  5
1F0
330
1F
100
AcDbEntity
  8
0
  6
CONTINUOUS
 62
     7
100
AcDbCircle
 10
0.4683608057
 20
0.1408592482
 30
0.0
 40
0.00117
  0
CIRCLE
  5
1F1
330
1F
100
AcDbEntity
  8
0
  6
CONTINUOUS
 62
     7
100
AcDbCircle
 10
0.4810608057
 20
0.1481592882
 30
0.0
 40
0.00257
  0
CIRCLE
  5
1F2
330
1F
100
AcDbEntity
  8
0
  6
CONTINUOUS
 62
     7
100
AcDbCircle
 10
0.4810608057
 20
0.1300592482
 30
0.0
 40
0.00257
  0
CIRCLE
  5
1F3
330
1F
100
AcDbEntity
  8
0
  6
CONTINUOUS
 62
     7
100
AcDbCircle
 10
0.459894139
 20
0.1300592482
 30
0.0
 40
0.00257
  0
CIRCLE
  5
1F4
330
1F
100
AcDbEntity
  8
0
  6
CONTINUOUS
 62
     7
100
AcDbCircle
 10
0.4387274723
 20
0.1300592482
 30
0.0
 40
0.00257
  0
CIRCLE
  5
1F5
330
1F
100
AcDbEntity
  8
0
  6
CONTINUOUS
 62
     7
100
AcDbCircle
 10
0.4175608057
 20
0.1300592482
 30
0.0
 40
0.00257
  0
CIRCLE
  5
1F6
330
1F
100
AcDbEntity
  8
0
  6
CONTINUOUS
 62
     7
100
AcDbCircle
 10
0.4175608057
 20
0.1481592882
 30
0.0
 40
0.00257
  0
CIRCLE
  5
1F7
330
1F
100
AcDbEntity
  8
0
  6
CONTINUOUS
 62
     7
100
AcDbCircle
 10
0.4810608057
 20
0.1391092682
 30
0.0
 40
0.00142
  0
CIRCLE
  5
1F8
330
1F
100
AcDbEntity
  8
0
  6
CONTINUOUS
 62
     7
100
AcDbCircle
 10
0.4493108057
 20
0.1300592482
 30
0.0
 40
0.00142
  0
CIRCLE
  5
1F9
330
1F
100
AcDbEntity
  8
0
  6
CONTINUOUS
 62
     7
100
AcDbCircle
 10
0.4175608057
 20
0.1391092682
 30
0.0
 40
0.00142
  0
CIRCLE
  5
1FA
330
1F
100
AcDbEntity
  8
0
  6
CONTINUOUS
 62
     7
100
AcDbCircle
 10
0.4485876017
 20
0.0965833622
 30
0.0
 40
0.01092
  0
ARC
  5
1FB
330
1F
100
AcDbEntity
  8
0
  6
CONTINUOUS
 62
     7
100
AcDbCircle
 10
0.4168376017
 20
0.1055636183
 30
0.0
 40
0.00635
100
AcDbArc
 50
315.0
 51
0.0
  0
LINE
  5
1FC
330
1F
100
AcDbEntity
  8
0
  6
CONTINUOUS
 62
     7
100
AcDbLine
 10
0.4231876016
 20
0.1055636176
 30
0.0
 11
0.4231876016
 21
0.1102333621
 31
0.0
  0
ARC
  5
1FD
330
1F
100
AcDbEntity
  8
0
  6
CONTINUOUS
 62
     7
100
AcDbCircle
 10
0.4295376017
 20
0.1102333622
 30
0.0
 40
0.00635
100
AcDbArc
 50
90.0
 51
180.0
  0
LINE
  5
1FE
330
1F
100
AcDbEntity
  8
0
  6
CONTINUOUS
 62
     7
100
AcDbLine
 10
0.4676376006
 20
0.1165833616
 30
0.0
 11
0.429537602
 21
0.1165833616
 31
0.0
  0
ARC
  5
1FF
330
1F
100
AcDbEntity
  8
0
  6
CONTINUOUS
 62
     7
100
AcDbCircle
 10
0.4676376017
 20
0.1102333622
 30
0.0
 40
0.00635
100
AcDbArc
 50
0.0
 51
90.0
  0
LINE
  5
200
330
1F
100
AcDbEntity
  8
0
  6
CONTINUOUS
 62
     7
100
AcDbLine
 10
0.4739876037
 20
0.1102333621
 30
0.0
 11
0.4739876037
 21
0.1055636176
 31
0.0
  0
ARC
  5
201
330
1F
100
AcDbEntity
  8
0
  6
CONTINUOUS
 62
     7
100
AcDbCircle
 10
0.4803376017
 20
0.1055636183
 30
0.0
 40
0.00635
100
AcDbArc
 50
180.0
 51
225.0
  0
LINE
  5
202
330
1F
100
AcDbEntity
  8
0
  6
CONTINUOUS
 62
     7
100
AcDbLine
 10
0.4758474773
 20
0.1010734917
 30
0.0
 11
0.4848277291
 21
0.0920932343
 31
0.0
  0
ARC
  5
203
330
1F
100
AcDbEntity
  8
0
  6
CONTINUOUS
 62
     7
100
AcDbCircle
 10
0.4803376017
 20
0.0876031061
 30
0.0
 40
0.00635
100
AcDbArc
 50
0.0
 51
45.0
  0
LINE
  5
204
330
1F
100
AcDbEntity
  8
0
  6
CONTINUOUS
 62
     7
100
AcDbLine
 10
0.4866876027
 20
0.0721333621
 30
0.0
 11
0.4866876027
 21
0.0876031065
 31
0.0
  0
ARC
  5
205
330
1F
100
AcDbEntity
  8
0
  6
CONTINUOUS
 62
     7
100
AcDbCircle
 10
0.4803376017
 20
0.0721333622
 30
0.0
 40
0.00635
100
AcDbArc
 50
270.0
 51
0.0
  0
LINE
  5
206
330
1F
100
AcDbEntity
  8
0
  6
CONTINUOUS
 62
     7
100
AcDbLine
 10
0.4168376016
 20
0.0657833622
 30
0.0
 11
0.4803375995
 21
0.0657833622
 31
0.0
  0
ARC
  5
207
330
1F
100
AcDbEntity
  8
0
  6
CONTINUOUS
 62
     7
100
AcDbCircle
 10
0.4168376017
 20
0.0721333622
 30
0.0
 40
0.00635
100
AcDbArc
 50
180.0
 51
270.0
  0
LINE
  5
208
330
1F
100
AcDbEntity
  8
0
  6
CONTINUOUS
 62
     7
100
AcDbLine
 10
0.4104876017
 20
0.0876031065
 30
0.0
 11
0.4104876017
 21
0.0721333621
 31
0.0
  0
ARC
  5
209
330
1F
100
AcDbEntity
  8
0
  6
CONTINUOUS
 62
     7
100
AcDbCircle
 10
0.4168376017
 20
0.0876031061
 30
0.0
 40
0.00635
100
AcDbArc
 50
135.0
 51
180.0
  0
LINE
  5
20A
330
1F
100
AcDbEntity
  8
0
  6
CONTINUOUS
 62
     7
100
AcDbLine
 10
0.4123474736
 20
0.0920932343
 30
0.0
 11
0.4213277299
 21
0.1010734917
 31
0.0
  0
CIRCLE
  5
20B
330
1F
100
AcDbEntity
  8
0
  6
CONTINUOUS
 62
     7
100
AcDbCircle
 10
0.4263626017
 20
0.0965833622
 30
0.0
 40
0.00142
  0
CIRCLE
  5
20C
330
1F
100
AcDbEntity
  8
0
  6
CONTINUOUS
 62
     7
100
AcDbCircle
 10
0.4708126017
 20
0.0965833622
 30
0.0
 40
0.00142
  0
CIRCLE
  5
20D
330
1F
100
AcDbEntity
  8
0
  6
CONTINUOUS
 62
     7
100
AcDbCircle
 10
0.4676376017
 20
0.1102333622
 30
0.0
 40
0.00117
  0
CIRCLE
  5
20E
330
1F
100
AcDbEntity
  8
0
  6
CONTINUOUS
 62
     7
100
AcDbCircle
 10
0.4295376017
 20
0.1102333622
 30
0.0
 40
0.00117
  0
CIRCLE
  5
20F
330
1F
100
AcDbEntity
  8
0
  6
CONTINUOUS
 62
     7
100
AcDbCircle
 10
0.4295376017
 20
0.0829333622
 30
0.0
 40
0.00117
  0
CIRCLE
  5
210
330
1F
100
AcDbEntity
  8
0
  6
CONTINUOUS
 62
     7
100
AcDbCircle
 10
0.4676376017
 20
0.0829333622
 30
0.0
 40
0.00117
  0
CIRCLE
  5
211
330
1F
100
AcDbEntity
  8
0
  6
CONTINUOUS
 62
     7
100
AcDbCircle
 10
0.4803376017
 20
0.0902334022
 30
0.0
 40
0.00257
  0
CIRCLE
  5
212
330
1F
100
AcDbEntity
  8
0
  6
CONTINUOUS
 62
     7
100
AcDbCircle
 10
0.4803376017
 20
0.0721333622
 30
0.0
 40
0.00257
  0
CIRCLE
  5
213
330
1F
100
AcDbEntity
  8
0
  6
CONTINUOUS
 62
     7
100
AcDbCircle
 10
0.4591709351
 20
0.0721333622
 30
0.0
 40
0.00257
  0
CIRCLE
  5
214
330
1F
100
AcDbEntity
  8
0
  6
CONTINUOUS
 62
     7
100
AcDbCircle
 10
0.4380042684
 20
0.0721333622
 30
0.0
 40
0.00257
  0
CIRCLE
  5
215
330
1F
100
AcDbEntity
  8
0
  6
CONTINUOUS
 62
     7
100
AcDbCircle
 10
0.4168376017
 20
0.0721333622
 30
0.0
 40
0.00257
  0
CIRCLE
  5
216
330
1F
100
AcDbEntity
  8
0
  6
CONTINUOUS
 62
     7
100
AcDbCircle
 10
0.4168376017
 20
0.0902334022
 30
0.0
 40
0.00257
  0
CIRCLE
  5
217
330
1F
100
AcDbEntity
  8
0
  6
CONTINUOUS
 62
     7
100
AcDbCircle
 10
0.4803376017
 20
0.0811833822
 30
0.0
 40
0.00142
  0
CIRCLE
  5
218
330
1F
100
AcDbEntity
  8
0
  6
CONTINUOUS
 62
     7
100
AcDbCircle
 10
0.4485876017
 20
0.0721333622
 30
0.0
 40
0.00142
  0
CIRCLE
  5
219
330
1F
100
AcDbEntity
  8
0
  6
CONTINUOUS
 62
     7
100
AcDbCircle
 10
0.4168376017
 20
0.0811833822
 30
0.0
 40
0.00142
  0
CIRCLE
  5
21A
330
1F
100
AcDbEntity
  8
0
  6
CONTINUOUS
 62
     7
100
AcDbCircle
 10
0.463251638
 20
0.33690273
 30
0.0
 40
0.00172
  0
CIRCLE
  5
21B
330
1F
100
AcDbEntity
  8
0
  6
CONTINUOUS
 62
     7
100
AcDbCircle
 10
0.463251638
 20
0.30960273
 30
0.0
 40
0.00172
  0
CIRCLE
  5
21C
330
1F
100
AcDbEntity
  8
0
  6
CONTINUOUS
 62
     7
100
AcDbCircle
 10
0.425151638
 20
0.30960273
 30
0.0
 40
0.00172
  0
CIRCLE
  5
21D
330
1F
100
AcDbEntity
  8
0
  6
CONTINUOUS
 62
     7
100
AcDbCircle
 10
0.425151638
 20
0.33690273
 30
0.0
 40
0.00172
  0
ARC
  5
21E
330
1F
100
AcDbEntity
  8
0
  6
CONTINUOUS
 62
     7
100
AcDbCircle
 10
0.425151638
 20
0.3126024659
 30
0.0
 40
0.00643
100
AcDbArc
 50
0.0
 51
29.2082016019
  0
LINE
  5
21F
330
1F
100
AcDbEntity
  8
0
  6
CONTINUOUS
 62
     7
100
AcDbLine
 10
0.4315816385
 20
0.3126024659
 30
0.0
 11
0.4315816385
 21
0.3096027299
 31
0.0
  0
ARC
  5
220
330
1F
100
AcDbEntity
  8
0
  6
CONTINUOUS
 62
     7
100
AcDbCircle
 10
0.425151638
 20
0.30960273
 30
0.0
 40
0.00643
100
AcDbArc
 50
270.0
 51
0.0
  0
ARC
  5
221
330
1F
100
AcDbEntity
  8
0
  6
CONTINUOUS
 62
     7
100
AcDbCircle
 10
0.425151638
 20
0.30960273
 30
0.0
 40
0.00643
100
AcDbArc
 50
180.0
 51
270.0
  0
ARC
  5
222
330
1F
100
AcDbEntity
  8
0
  6
CONTINUOUS
 62
     7
100
AcDbCircle
 10
0.425151638
 20
0.33690273
 30
0.0
 40
0.00643
100
AcDbArc
 50
90.0
 51
180.0
  0
ARC
  5
223
330
1F
100
AcDbEntity
  8
0
  6
CONTINUOUS
 62
     7
100
AcDbCircle
 10
0.463251638
 20
0.33690273
 30
0.0
 40
0.00643
100
AcDbArc
 50
0.0
 51
90.0
  0
ARC
  5
224
330
1F
100
AcDbEntity
  8
0
  6
CONTINUOUS
 62
     7
100
AcDbCircle
 10
0.463251638
 20
0.30960273
 30
0.0
 40
0.00643
100
AcDbArc
 50
270.0
 51
0.0
  0
ARC
  5
225
330
1F
100
AcDbEntity
  8
0
  6
CONTINUOUS
 62
     7
100
AcDbCircle
 10
0.463251638
 20
0.30960273
 30
0.0
 40
0.00643
100
AcDbArc
 50
180.0
 51
270.0
  0
LINE
  5
226
330
1F
100
AcDbEntity
  8
0
  6
CONTINUOUS
 62
     7
100
AcDbLine
 10
0.4568216379
 20
0.3096027299
 30
0.0
 11
0.4568216379
 21
0.3126024659
 31
0.0
  0
ARC
  5
227
330
1F
100
AcDbEntity
  8
0
  6
CONTINUOUS
 62
     7
100
AcDbCircle
 10
0.463251638
 20
0.3126024659
 30
0.0
 40
0.00643
100
AcDbArc
 50
150.7917983981
 51
180.0
  0
ARC
  5
228
330
1F
100
AcDbEntity
  8
0
  6
CONTINUOUS
 62
     7
100
AcDbCircle
 10
0.444201638
 20
0.32325273
 30
0.0
 40
0.015395
100
AcDbArc
 50
330.7917983981
 51
209.2082016019
  0
CIRCLE
  5
229
330
1F
100
AcDbEntity
  8
0
  6
CONTINUOUS
 62
     7
100
AcDbCircle
 10
0.466426638
 20
0.32325273
 30
0.0
 40
0.00142
  0
CIRCLE
  5
22A
330
1F
100
AcDbEntity
  8
0
  6
CONTINUOUS
 62
     7
100
AcDbCircle
 10
0.421976638
 20
0.32325273
 30
0.0
 40
0.00142
  0
LINE
  5
22B
330
1F
100
AcDbEntity
  8
0
  6
CONTINUOUS
 62
     7
100
AcDbLine
 10
0.463251638
 20
0.3433327302
 30
0.0
 11
0.425151638
 21
0.3433327302
 31
0.0
  0
LINE
  5
22C
330
1F
100
AcDbEntity
  8
0
  6
CONTINUOUS
 62
     7
100
AcDbLine
 10
0.469681638
 20
0.3096027299
 30
0.0
 11
0.469681638
 21
0.3369027301
 31
0.0
  0
LINE
  5
22D
330
1F
100
AcDbEntity
  8
0
  6
CONTINUOUS
 62
     7
100
AcDbLine
 10
0.418721638
 20
0.3369027301
 30
0.0
 11
0.418721638
 21
0.3096027299
 31
0.0
  0
CIRCLE
  5
22E
330
1F
100
AcDbEntity
  8
0
  6
CONTINUOUS
 62
     7
100
AcDbCircle
 10
0.5481691032
 20
0.0979724256
 30
0.0
 40
0.0017200000000001
  0
CIRCLE
  5
22F
330
1F
100
AcDbEntity
  8
0
  6
CONTINUOUS
 62
     7
100
AcDbCircle
 10
0.5481691032
 20
0.0706724256
 30
0.0
 40
0.0017200000000001
  0
CIRCLE
  5
230
330
1F
100
AcDbEntity
  8
0
  6
CONTINUOUS
 62
     7
100
AcDbCircle
 10
0.5100691032
 20
0.0706724256
 30
0.0
 40
0.0017200000000001
  0
CIRCLE
  5
231
330
1F
100
AcDbEntity
  8
0
  6
CONTINUOUS
 62
     7
100
AcDbCircle
 10
0.5100691032
 20
0.0979724256
 30
0.0
 40
0.0017200000000001
  0
ARC
  5
232
330
1F
100
AcDbEntity
  8
0
  6
CONTINUOUS
 62
     7
100
AcDbCircle
 10
0.5100691032
 20
0.0736721615
 30
0.0
 40
0.0064300000000001
100
AcDbArc
 50
0.0
 51
29.2082016019
  0
LINE
  5
233
330
1F
100
AcDbEntity
  8
0
  6
CONTINUOUS
 62
     7
100
AcDbLine
 10
0.5164991036
 20
0.0736721615
 30
0.0
 11
0.5164991036
 21
0.0706724255
 31
0.0
  0
ARC
  5
234
330
1F
100
AcDbEntity
  8
0
  6
CONTINUOUS
 62
     7
100
AcDbCircle
 10
0.5100691032
 20
0.0706724256
 30
0.0
 40
0.00643
100
AcDbArc
 50
270.0
 51
0.0
  0
ARC
  5
235
330
1F
100
AcDbEntity
  8
0
  6
CONTINUOUS
 62
     7
100
AcDbCircle
 10
0.5100691032
 20
0.0706724256
 30
0.0
 40
0.00643
100
AcDbArc
 50
180.0
 51
270.0
  0
ARC
  5
236
330
1F
100
AcDbEntity
  8
0
  6
CONTINUOUS
 62
     7
100
AcDbCircle
 10
0.5100691032
 20
0.0979724256
 30
0.0
 40
0.00643
100
AcDbArc
 50
90.0
 51
180.0
  0
ARC
  5
237
330
1F
100
AcDbEntity
  8
0
  6
CONTINUOUS
 62
     7
100
AcDbCircle
 10
0.5481691032
 20
0.0979724256
 30
0.0
 40
0.00643
100
AcDbArc
 50
0.0
 51
90.0
  0
ARC
  5
238
330
1F
100
AcDbEntity
  8
0
  6
CONTINUOUS
 62
     7
100
AcDbCircle
 10
0.5481691032
 20
0.0706724256
 30
0.0
 40
0.00643
100
AcDbArc
 50
270.0
 51
0.0
  0
ARC
  5
239
330
1F
100
AcDbEntity
  8
0
  6
CONTINUOUS
 62
     7
100
AcDbCircle
 10
0.5481691032
 20
0.0706724256
 30
0.0
 40
0.00643
100
AcDbArc
 50
180.0
 51
270.0
  0
LINE
  5
23A
330
1F
100
AcDbEntity
  8
0
  6
CONTINUOUS
 62
     7
100
AcDbLine
 10
0.541739103
 20
0.0706724255
 30
0.0
 11
0.541739103
 21
0.0736721615
 31
0.0
  0
ARC
  5
23B
330
1F
100
AcDbEntity
  8
0
  6
CONTINUOUS
 62
     7
100
AcDbCircle
 10
0.5481691032
 20
0.0736721615
 30
0.0
 40
0.0064300000000001
100
AcDbArc
 50
150.7917983981
 51
180.0
  0
ARC
  5
23C
330
1F
100
AcDbEntity
  8
0
  6
CONTINUOUS
 62
     7
100
AcDbCircle
 10
0.5291191032
 20
0.0843224256
 30
0.0
 40
0.015395
100
AcDbArc
 50
330.7917983981
 51
209.2082016019
  0
CIRCLE
  5
23D
330
1F
100
AcDbEntity
  8
0
  6
CONTINUOUS
 62
     7
100
AcDbCircle
 10
0.5513441032
 20
0.0843224256
 30
0.0
 40
0.00142
  0
CIRCLE
  5
23E
330
1F
100
AcDbEntity
  8
0
  6
CONTINUOUS
 62
     7
100
AcDbCircle
 10
0.5068941032
 20
0.0843224256
 30
0.0
 40
0.00142
  0
LINE
  5
23F
330
1F
100
AcDbEntity
  8
0
  6
CONTINUOUS
 62
     7
100
AcDbLine
 10
0.5481691031
 20
0.1044024257
 30
0.0
 11
0.5100691031
 21
0.1044024257
 31
0.0
  0
LINE
  5
240
330
1F
100
AcDbEntity
  8
0
  6
CONTINUOUS
 62
     7
100
AcDbLine
 10
0.5545991032
 20
0.0706724255
 30
0.0
 11
0.5545991032
 21
0.0979724257
 31
0.0
  0
LINE
  5
241
330
1F
100
AcDbEntity
  8
0
  6
CONTINUOUS
 62
     7
100
AcDbLine
 10
0.5036391032
 20
0.0979724257
 30
0.0
 11
0.5036391032
 21
0.0706724255
 31
0.0
  0
CIRCLE
  5
242
330
1F
100
AcDbEntity
  8
0
  6
CONTINUOUS
 62
     7
100
AcDbCircle
 10
0.3599812362
 20
0.0497269608
 30
0.0
 40
0.00172
  0
CIRCLE
  5
243
330
1F
100
AcDbEntity
  8
0
  6
CONTINUOUS
 62
     7
100
AcDbCircle
 10
0.3599812362
 20
0.0224269608
 30
0.0
 40
0.00172
  0
CIRCLE
  5
244
330
1F
100
AcDbEntity
  8
0
  6
CONTINUOUS
 62
     7
100
AcDbCircle
 10
0.3218812362
 20
0.0224269608
 30
0.0
 40
0.00172
  0
CIRCLE
  5
245
330
1F
100
AcDbEntity
  8
0
  6
CONTINUOUS
 62
     7
100
AcDbCircle
 10
0.3218812362
 20
0.0497269608
 30
0.0
 40
0.00172
  0
ARC
  5
246
330
1F
100
AcDbEntity
  8
0
  6
CONTINUOUS
 62
     7
100
AcDbCircle
 10
0.3218812362
 20
0.0254266967
 30
0.0
 40
0.00643
100
AcDbArc
 50
0.0
 51
29.2082016019
  0
LINE
  5
247
330
1F
100
AcDbEntity
  8
0
  6
CONTINUOUS
 62
     7
100
AcDbLine
 10
0.3283112366
 20
0.0254266967
 30
0.0
 11
0.3283112366
 21
0.0224269607
 31
0.0
  0
ARC
  5
248
330
1F
100
AcDbEntity
  8
0
  6
CONTINUOUS
 62
     7
100
AcDbCircle
 10
0.3218812362
 20
0.0224269608
 30
0.0
 40
0.00643
100
AcDbArc
 50
270.0
 51
0.0
  0
ARC
  5
249
330
1F
100
AcDbEntity
  8
0
  6
CONTINUOUS
 62
     7
100
AcDbCircle
 10
0.3218812362
 20
0.0224269608
 30
0.0
 40
0.00643
100
AcDbArc
 50
180.0
 51
270.0
  0
ARC
  5
24A
330
1F
100
AcDbEntity
  8
0
  6
CONTINUOUS
 62
     7
100
AcDbCircle
 10
0.3218812362
 20
0.0497269608
 30
0.0
 40
0.00643
100
AcDbArc
 50
90.0
 51
180.0
  0
ARC
  5
24B
330
1F
100
AcDbEntity
  8
0
  6
CONTINUOUS
 62
     7
100
AcDbCircle
 10
0.3599812362
 20
0.0497269608
 30
0.0
 40
0.00643
100
AcDbArc
 50
0.0
 51
90.0
  0
ARC
  5
24C
330
1F
100
AcDbEntity
  8
0
  6
CONTINUOUS
 62
     7
100
AcDbCircle
 10
0.3599812362
 20
0.0224269608
 30
0.0
 40
0.00643
100
AcDbArc
 50
270.0
 51
0.0
  0
ARC
  5
24D
330
1F
100
AcDbEntity
  8
0
  6
CONTINUOUS
 62
     7
100
AcDbCircle
 10
0.3599812362
 20
0.0224269608
 30
0.0
 40
0.00643
100
AcDbArc
 50
180.0
 51
270.0
  0
LINE
  5
24E
330
1F
100
AcDbEntity
  8
0
  6
CONTINUOUS
 62
     7
100
AcDbLine
 10
0.353551236
 20
0.0224269607
 30
0.0
 11
0.353551236
 21
0.0254266967
 31
0.0
  0
ARC
  5
24F
330
1F
100
AcDbEntity
  8
0
  6
CONTINUOUS
 62
     7
100
AcDbCircle
 10
0.3599812362
 20
0.0254266967
 30
0.0
 40
0.00643
100
AcDbArc
 50
150.7917983981
 51
180.0
  0
ARC
  5
250
330
1F
100
AcDbEntity
  8
0
  6
CONTINUOUS
 62
     7
100
AcDbCircle
 10
0.3409312362
 20
0.0360769608
 30
0.0
 40
0.015395
100
AcDbArc
 50
330.7917983981
 51
209.2082016019
  0
CIRCLE
  5
251
330
1F
100
AcDbEntity
  8
0
  6
CONTINUOUS
 62
     7
100
AcDbCircle
 10
0.3631562362
 20
0.0360769608
 30
0.0
 40
0.00142
  0
CIRCLE
  5
252
330
1F
100
AcDbEntity
  8
0
  6
CONTINUOUS
 62
     7
100
AcDbCircle
 10
0.3187062362
 20
0.0360769608
 30
0.0
 40
0.00142
  0
LINE
  5
253
330
1F
100
AcDbEntity
  8
0
  6
CONTINUOUS
 62
     7
100
AcDbLine
 10
0.3599812361
 20
0.056156961
 30
0.0
 11
0.3218812361
 21
0.056156961
 31
0.0
  0
LINE
  5
254
330
1F
100
AcDbEntity
  8
0
  6
CONTINUOUS
 62
     7
100
AcDbLine
 10
0.3664112361
 20
0.0224269607
 30
0.0
 11
0.3664112361
 21
0.0497269609
 31
0.0
  0
LINE
  5
255
330
1F
100
AcDbEntity
  8
0
  6
CONTINUOUS
 62
     7
100
AcDbLine
 10
0.3154512362
 20
0.0497269609
 30
0.0
 11
0.3154512362
 21
0.0224269607
 31
0.0
  0
CIRCLE
  5
256
330
1F
100
AcDbEntity
  8
0
  6
CONTINUOUS
 62
     7
100
AcDbCircle
 10
0.5501390525
 20
0.050488967
 30
0.0
 40
0.0017200000000001
  0
CIRCLE
  5
257
330
1F
100
AcDbEntity
  8
0
  6
CONTINUOUS
 62
     7
100
AcDbCircle
 10
0.5501390525
 20
0.023188967
 30
0.0
 40
0.0017200000000001
  0
CIRCLE
  5
258
330
1F
100
AcDbEntity
  8
0
  6
CONTINUOUS
 62
     7
100
AcDbCircle
 10
0.5120390525
 20
0.023188967
 30
0.0
 40
0.0017200000000001
  0
CIRCLE
  5
259
330
1F
100
AcDbEntity
  8
0
  6
CONTINUOUS
 62
     7
100
AcDbCircle
 10
0.5120390525
 20
0.050488967
 30
0.0
 40
0.0017200000000001
  0
ARC
  5
25A
330
1F
100
AcDbEntity
  8
0
  6
CONTINUOUS
 62
     7
100
AcDbCircle
 10
0.5120390525
 20
0.0261887029
 30
0.0
 40
0.00643
100
AcDbArc
 50
0.0
 51
29.2082016019
  0
LINE
  5
25B
330
1F
100
AcDbEntity
  8
0
  6
CONTINUOUS
 62
     7
100
AcDbLine
 10
0.5184690529
 20
0.0261887029
 30
0.0
 11
0.5184690529
 21
0.0231889669
 31
0.0
  0
ARC
  5
25C
330
1F
100
AcDbEntity
  8
0
  6
CONTINUOUS
 62
     7
100
AcDbCircle
 10
0.5120390525
 20
0.023188967
 30
0.0
 40
0.00643
100
AcDbArc
 50
270.0
 51
0.0
  0
ARC
  5
25D
330
1F
100
AcDbEntity
  8
0
  6
CONTINUOUS
 62
     7
100
AcDbCircle
 10
0.5120390525
 20
0.023188967
 30
0.0
 40
0.00643
100
AcDbArc
 50
180.0
 51
270.0
  0
ARC
  5
25E
330
1F
100
AcDbEntity
  8
0
  6
CONTINUOUS
 62
     7
100
AcDbCircle
 10
0.5120390525
 20
0.050488967
 30
0.0
 40
0.00643
100
AcDbArc
 50
90.0
 51
180.0
  0
ARC
  5
25F
330
1F
100
AcDbEntity
  8
0
  6
CONTINUOUS
 62
     7
100
AcDbCircle
 10
0.5501390525
 20
0.050488967
 30
0.0
 40
0.00643
100
AcDbArc
 50
0.0
 51
90.0
  0
ARC
  5
260
330
1F
100
AcDbEntity
  8
0
  6
CONTINUOUS
 62
     7
100
AcDbCircle
 10
0.5501390525
 20
0.023188967
 30
0.0
 40
0.00643
100
AcDbArc
 50
270.0
 51
0.0
  0
ARC
  5
261
330
1F
100
AcDbEntity
  8
0
  6
CONTINUOUS
 62
     7
100
AcDbCircle
 10
0.5501390525
 20
0.023188967
 30
0.0
 40
0.00643
100
AcDbArc
 50
180.0
 51
270.0
  0
LINE
  5
262
330
1F
100
AcDbEntity
  8
0
  6
CONTINUOUS
 62
     7
100
AcDbLine
 10
0.5437090524
 20
0.0231889669
 30
0.0
 11
0.5437090524
 21
0.0261887029
 31
0.0
  0
ARC
  5
263
330
1F
100
AcDbEntity
  8
0
  6
CONTINUOUS
 62
     7
100
AcDbCircle
 10
0.5501390525
 20
0.0261887029
 30
0.0
 40
0.00643
100
AcDbArc
 50
150.7917983981
 51
180.0
  0
ARC
  5
264
330
1F
100
AcDbEntity
  8
0
  6
CONTINUOUS
 62
     7
100
AcDbCircle
 10
0.5310890525
 20
0.036838967
 30
0.0
 40
0.015395
100
AcDbArc
 50
330.7917983981
 51
209.2082016019
  0
CIRCLE
  5
265
330
1F
100
AcDbEntity
  8
0
  6
CONTINUOUS
 62
     7
100
AcDbCircle
 10
0.5533140525
 20
0.036838967
 30
0.0
 40
0.00142
  0
CIRCLE
  5
266
330
1F
100
AcDbEntity
  8
0
  6
CONTINUOUS
 62
     7
100
AcDbCircle
 10
0.5088640525
 20
0.036838967
 30
0.0
 40
0.00142
  0
LINE
  5
267
330
1F
100
AcDbEntity
  8
0
  6
CONTINUOUS
 62
     7
100
AcDbLine
 10
0.5501390524
 20
0.0569189671
 30
0.0
 11
0.5120390524
 21
0.0569189671
 31
0.0
  0
LINE
  5
268
330
1F
100
AcDbEntity
  8
0
  6
CONTINUOUS
 62
     7
100
AcDbLine
 10
0.5565690525
 20
0.0231889669
 30
0.0
 11
0.5565690525
 21
0.0504889671
 31
0.0
  0
LINE
  5
269
330
1F
100
AcDbEntity
  8
0
  6
CONTINUOUS
 62
     7
100
AcDbLine
 10
0.5056090525
 20
0.0504889671
 30
0.0
 11
0.5056090525
 21
0.0231889669
 31
0.0
  0
CIRCLE
  5
26A
330
1F
100
AcDbEntity
  8
0
  6
CONTINUOUS
 62
     7
100
AcDbCircle
 10
0.4235568681
 20
0.0491295879
 30
0.0
 40
0.00172
  0
CIRCLE
  5
26B
330
1F
100
AcDbEntity
  8
0
  6
CONTINUOUS
 62
     7
100
AcDbCircle
 10
0.4235568681
 20
0.0218295879
 30
0.0
 40
0.00172
  0
CIRCLE
  5
26C
330
1F
100
AcDbEntity
  8
0
  6
CONTINUOUS
 62
     7
100
AcDbCircle
 10
0.3854568681
 20
0.0218295879
 30
0.0
 40
0.00172
  0
CIRCLE
  5
26D
330
1F
100
AcDbEntity
  8
0
  6
CONTINUOUS
 62
     7
100
AcDbCircle
 10
0.3854568681
 20
0.0491295879
 30
0.0
 40
0.00172
  0
ARC
  5
26E
330
1F
100
AcDbEntity
  8
0
  6
CONTINUOUS
 62
     7
100
AcDbCircle
 10
0.3854568681
 20
0.0248293239
 30
0.0
 40
0.00643
100
AcDbArc
 50
0.0
 51
29.2082016019
  0
LINE
  5
26F
330
1F
100
AcDbEntity
  8
0
  6
CONTINUOUS
 62
     7
100
AcDbLine
 10
0.3918868686
 20
0.0248293238
 30
0.0
 11
0.3918868686
 21
0.0218295878
 31
0.0
  0
ARC
  5
270
330
1F
100
AcDbEntity
  8
0
  6
CONTINUOUS
 62
     7
100
AcDbCircle
 10
0.3854568681
 20
0.0218295879
 30
0.0
 40
0.00643
100
AcDbArc
 50
270.0
 51
0.0
  0
ARC
  5
271
330
1F
100
AcDbEntity
  8
0
  6
CONTINUOUS
 62
     7
100
AcDbCircle
 10
0.3854568681
 20
0.0218295879
 30
0.0
 40
0.00643
100
AcDbArc
 50
180.0
 51
270.0
  0
ARC
  5
272
330
1F
100
AcDbEntity
  8
0
  6
CONTINUOUS
 62
     7
100
AcDbCircle
 10
0.3854568681
 20
0.0491295879
 30
0.0
 40
0.00643
100
AcDbArc
 50
90.0
 51
180.0
  0
ARC
  5
273
330
1F
100
AcDbEntity
  8
0
  6
CONTINUOUS
 62
     7
100
AcDbCircle
 10
0.4235568681
 20
0.0491295879
 30
0.0
 40
0.00643
100
AcDbArc
 50
0.0
 51
90.0
  0
ARC
  5
274
330
1F
100
AcDbEntity
  8
0
  6
CONTINUOUS
 62
     7
100
AcDbCircle
 10
0.4235568681
 20
0.0218295879
 30
0.0
 40
0.00643
100
AcDbArc
 50
270.0
 51
0.0
  0
ARC
  5
275
330
1F
100
AcDbEntity
  8
0
  6
CONTINUOUS
 62
     7
100
AcDbCircle
 10
0.4235568681
 20
0.0218295879
 30
0.0
 40
0.00643
100
AcDbArc
 50
180.0
 51
270.0
  0
LINE
  5
276
330
1F
100
AcDbEntity
  8
0
  6
CONTINUOUS
 62
     7
100
AcDbLine
 10
0.417126868
 20
0.0218295878
 30
0.0
 11
0.417126868
 21
0.0248293238
 31
0.0
  0
ARC
  5
277
330
1F
100
AcDbEntity
  8
0
  6
CONTINUOUS
 62
     7
100
AcDbCircle
 10
0.4235568681
 20
0.0248293239
 30
0.0
 40
0.00643
100
AcDbArc
 50
150.7917983981
 51
180.0
  0
ARC
  5
278
330
1F
100
AcDbEntity
  8
0
  6
CONTINUOUS
 62
     7
100
AcDbCircle
 10
0.4045068681
 20
0.0354795879
 30
0.0
 40
0.015395
100
AcDbArc
 50
330.7917983981
 51
209.2082016019
  0
CIRCLE
  5
279
330
1F
100
AcDbEntity
  8
0
  6
CONTINUOUS
 62
     7
100
AcDbCircle
 10
0.4267318681
 20
0.0354795879
 30
0.0
 40
0.00142
  0
CIRCLE
  5
27A
330
1F
100
AcDbEntity
  8
0
  6
CONTINUOUS
 62
     7
100
AcDbCircle
 10
0.3822818681
 20
0.0354795879
 30
0.0
 40
0.00142
  0
LINE
  5
27B
330
1F
100
AcDbEntity
  8
0
  6
CONTINUOUS
 62
     7
100
AcDbLine
 10
0.4235568681
 20
0.0555595881
 30
0.0
 11
0.385456868
 21
0.0555595881
 31
0.0
  0
LINE
  5
27C
330
1F
100
AcDbEntity
  8
0
  6
CONTINUOUS
 62
     7
100
AcDbLine
 10
0.4299868681
 20
0.0218295878
 30
0.0
 11
0.4299868681
 21
0.049129588
 31
0.0
  0
LINE
  5
27D
330
1F
100
AcDbEntity
  8
0
  6
CONTINUOUS
 62
     7
100
AcDbLine
 10
0.3790268681
 20
0.049129588
 30
0.0
 11
0.3790268681
 21
0.0218295878
 31
0.0
  0
CIRCLE
  5
27E
330
1F
100
AcDbEntity
  8
0
  6
CONTINUOUS
 62
     7
100
AcDbCircle
 10
0.4857015439
 20
0.0498450334
 30
0.0
 40
0.00172
  0
CIRCLE
  5
27F
330
1F
100
AcDbEntity
  8
0
  6
CONTINUOUS
 62
     7
100
AcDbCircle
 10
0.4857015439
 20
0.0225450334
 30
0.0
 40
0.00172
  0
CIRCLE
  5
280
330
1F
100
AcDbEntity
  8
0
  6
CONTINUOUS
 62
     7
100
AcDbCircle
 10
0.4476015439
 20
0.0225450334
 30
0.0
 40
0.00172
  0
CIRCLE
  5
281
330
1F
100
AcDbEntity
  8
0
  6
CONTINUOUS
 62
     7
100
AcDbCircle
 10
0.4476015439
 20
0.0498450334
 30
0.0
 40
0.00172
  0
ARC
  5
282
330
1F
100
AcDbEntity
  8
0
  6
CONTINUOUS
 62
     7
100
AcDbCircle
 10
0.4476015439
 20
0.0255447694
 30
0.0
 40
0.00643
100
AcDbArc
 50
0.0
 51
29.2082016019
  0
LINE
  5
283
330
1F
100
AcDbEntity
  8
0
  6
CONTINUOUS
 62
     7
100
AcDbLine
 10
0.4540315444
 20
0.0255447693
 30
0.0
 11
0.4540315444
 21
0.0225450333
 31
0.0
  0
ARC
  5
284
330
1F
100
AcDbEntity
  8
0
  6
CONTINUOUS
 62
     7
100
AcDbCircle
 10
0.4476015439
 20
0.0225450334
 30
0.0
 40
0.00643
100
AcDbArc
 50
270.0
 51
0.0
  0
ARC
  5
285
330
1F
100
AcDbEntity
  8
0
  6
CONTINUOUS
 62
     7
100
AcDbCircle
 10
0.4476015439
 20
0.0225450334
 30
0.0
 40
0.00643
100
AcDbArc
 50
180.0
 51
270.0
  0
ARC
  5
286
330
1F
100
AcDbEntity
  8
0
  6
CONTINUOUS
 62
     7
100
AcDbCircle
 10
0.4476015439
 20
0.0498450334
 30
0.0
 40
0.00643
100
AcDbArc
 50
90.0
 51
180.0
  0
ARC
  5
287
330
1F
100
AcDbEntity
  8
0
  6
CONTINUOUS
 62
     7
100
AcDbCircle
 10
0.4857015439
 20
0.0498450334
 30
0.0
 40
0.00643
100
AcDbArc
 50
0.0
 51
90.0
  0
ARC
  5
288
330
1F
100
AcDbEntity
  8
0
  6
CONTINUOUS
 62
     7
100
AcDbCircle
 10
0.4857015439
 20
0.0225450334
 30
0.0
 40
0.00643
100
AcDbArc
 50
270.0
 51
0.0
  0
ARC
  5
289
330
1F
100
AcDbEntity
  8
0
  6
CONTINUOUS
 62
     7
100
AcDbCircle
 10
0.4857015439
 20
0.0225450334
 30
0.0
 40
0.00643
100
AcDbArc
 50
180.0
 51
270.0
  0
LINE
  5
28A
330
1F
100
AcDbEntity
  8
0
  6
CONTINUOUS
 62
     7
100
AcDbLine
 10
0.4792715438
 20
0.0225450333
 30
0.0
 11
0.4792715438
 21
0.0255447693
 31
0.0
  0
ARC
  5
28B
330
1F
100
AcDbEntity
  8
0
  6
CONTINUOUS
 62
     7
100
AcDbCircle
 10
0.4857015439
 20
0.0255447694
 30
0.0
 40
0.00643
100
AcDbArc
 50
150.7917983981
 51
180.0
  0
ARC
  5
28C
330
1F
100
AcDbEntity
  8
0
  6
CONTINUOUS
 62
     7
100
AcDbCircle
 10
0.4666515439
 20
0.0361950334
 30
0.0
 40
0.015395
100
AcDbArc
 50
330.7917983981
 51
209.2082016019
  0
CIRCLE
  5
28D
330
1F
100
AcDbEntity
  8
0
  6
CONTINUOUS
 62
     7
100
AcDbCircle
 10
0.4888765439
 20
0.0361950334
 30
0.0
 40
0.00142
  0
CIRCLE
  5
28E
330
1F
100
AcDbEntity
  8
0
  6
CONTINUOUS
 62
     7
100
AcDbCircle
 10
0.4444265439
 20
0.0361950334
 30
0.0
 40
0.00142
  0
LINE
  5
28F
330
1F
100
AcDbEntity
  8
0
  6
CONTINUOUS
 62
     7
100
AcDbLine
 10
0.4857015439
 20
0.0562750336
 30
0.0
 11
0.4476015439
 21
0.0562750336
 31
0.0
  0
LINE
  5
290
330
1F
100
AcDbEntity
  8
0
  6
CONTINUOUS
 62
     7
100
AcDbLine
 10
0.4921315439
 20
0.0225450333
 30
0.0
 11
0.4921315439
 21
0.0498450335
 31
0.0
  0
LINE
  5
291
330
1F
100
AcDbEntity
  8
0
  6
CONTINUOUS
 62
     7
100
AcDbLine
 10
0.4411715439
 20
0.0498450335
 30
0.0
 11
0.4411715439
 21
0.0225450333
 31
0.0
  0
CIRCLE
  5
292
330
1F
100
AcDbEntity
  8
0
  6
CONTINUOUS
 62
     7
100
AcDbCircle
 10
0.4444792365
 20
0.3893162172
 30
0.0
 40
0.0079
  0
ARC
  5
293
330
1F
100
AcDbEntity
  8
0
  6
CONTINUOUS
 62
     7
100
AcDbCircle
 10
0.4254292365
 20
0.4029662172
 30
0.0
 40
0.00645
100
AcDbArc
 50
90.0
 51
180.0
  0
LINE
  5
294
330
1F
100
AcDbEntity
  8
0
  6
CONTINUOUS
 62
     7
100
AcDbLine
 10
0.4635292368
 20
0.4094162165
 30
0.0
 11
0.4254292363
 21
0.4094162165
 31
0.0
  0
ARC
  5
295
330
1F
100
AcDbEntity
  8
0
  6
CONTINUOUS
 62
     7
100
AcDbCircle
 10
0.4635292365
 20
0.4029662172
 30
0.0
 40
0.00645
100
AcDbArc
 50
0.0
 51
90.0
  0
LINE
  5
296
330
1F
100
AcDbEntity
  8
0
  6
CONTINUOUS
 62
     7
100
AcDbLine
 10
0.469979236
 20
0.3756662171
 30
0.0
 11
0.469979236
 21
0.4029662172
 31
0.0
  0
ARC
  5
297
330
1F
100
AcDbEntity
  8
0
  6
CONTINUOUS
 62
     7
100
AcDbCircle
 10
0.4635292365
 20
0.3756662172
 30
0.0
 40
0.00645
100
AcDbArc
 50
270.0
 51
0.0
  0
LINE
  5
298
330
1F
100
AcDbEntity
  8
0
  6
CONTINUOUS
 62
     7
100
AcDbLine
 10
0.4254292363
 20
0.3692162178
 30
0.0
 11
0.4635292368
 21
0.3692162178
 31
0.0
  0
ARC
  5
299
330
1F
100
AcDbEntity
  8
0
  6
CONTINUOUS
 62
     7
100
AcDbCircle
 10
0.4254292365
 20
0.3756662172
 30
0.0
 40
0.00645
100
AcDbArc
 50
180.0
 51
270.0
  0
LINE
  5
29A
330
1F
100
AcDbEntity
  8
0
  6
CONTINUOUS
 62
     7
100
AcDbLine
 10
0.418979237
 20
0.4029662172
 30
0.0
 11
0.418979237
 21
0.3756662171
 31
0.0
  0
CIRCLE
  5
29B
330
1F
100
AcDbEntity
  8
0
  6
CONTINUOUS
 62
     7
100
AcDbCircle
 10
0.4667042365
 20
0.3893162172
 30
0.0
 40
0.0014
  0
CIRCLE
  5
29C
330
1F
100
AcDbEntity
  8
0
  6
CONTINUOUS
 62
     7
100
AcDbCircle
 10
0.4222542365
 20
0.3893162172
 30
0.0
 40
0.0014
  0
CIRCLE
  5
29D
330
1F
100
AcDbEntity
  8
0
  6
CONTINUOUS
 62
     7
100
AcDbCircle
 10
0.4254292365
 20
0.4029662172
 30
0.0
 40
0.0017
  0
CIRCLE
  5
29E
330
1F
100
AcDbEntity
  8
0
  6
CONTINUOUS
 62
     7
100
AcDbCircle
 10
0.4254292365
 20
0.3756662172
 30
0.0
 40
0.0017
  0
CIRCLE
  5
29F
330
1F
100
AcDbEntity
  8
0
  6
CONTINUOUS
 62
     7
100
AcDbCircle
 10
0.4635292365
 20
0.3756662172
 30
0.0
 40
0.0017
  0
CIRCLE
  5
2A0
330
1F
100
AcDbEntity
  8
0
  6
CONTINUOUS
 62
     7
100
AcDbCircle
 10
0.4635292365
 20
0.4029662172
 30
0.0
 40
0.0017
  0
CIRCLE
  5
2A1
330
1F
100
AcDbEntity
  8
0
  6
CONTINUOUS
 62
     7
100
AcDbCircle
 10
0.4554792365
 20
0.3893162172
 30
0.0
 40
0.0017
  0
CIRCLE
  5
2A2
330
1F
100
AcDbEntity
  8
0
  6
CONTINUOUS
 62
     7
100
AcDbCircle
 10
0.4499792365
 20
0.3797899377
 30
0.0
 40
0.0017
  0
CIRCLE
  5
2A3
330
1F
100
AcDbEntity
  8
0
  6
CONTINUOUS
 62
     7
100
AcDbCircle
 10
0.4389792365
 20
0.3797899377
 30
0.0
 40
0.0017
  0
CIRCLE
  5
2A4
330
1F
100
AcDbEntity
  8
0
  6
CONTINUOUS
 62
     7
100
AcDbCircle
 10
0.4334792365
 20
0.3893162172
 30
0.0
 40
0.0017
  0
CIRCLE
  5
2A5
330
1F
100
AcDbEntity
  8
0
  6
CONTINUOUS
 62
     7
100
AcDbCircle
 10
0.4389792365
 20
0.3988424966
 30
0.0
 40
0.0017
  0
CIRCLE
  5
2A6
330
1F
100
AcDbEntity
  8
0
  6
CONTINUOUS
 62
     7
100
AcDbCircle
 10
0.4499792365
 20
0.3988424966
 30
0.0
 40
0.0017
  0
MTEXT
  5
2A8
330
1F
100
AcDbEntity
  8
0
  6
CONTINUOUS
 62
     7
100
AcDbMText
 10
0.0
 20
0.0202653662
 30
0.0
 40
0.007266
 41
0.0
 71
     1
 72
     1
  1
SolidWorks Student Edition.
  7
SLDTEXTSTYLE0
  0
MTEXT
  5
2A9
330
1F
100
AcDbEntity
  8
0
  6
CONTINUOUS
 62
     7
100
AcDbMText
 10
0.0
 20
0.0093663662
 30
0.0
 40
0.007266
 41
0.0
 71
     1
 72
     1
  1
For Academic Use Only.
  7
SLDTEXTSTYLE0
  0
ENDSEC
  0
SECTION
  2
OBJECTS
  0
DICTIONARY
  5
C
330
0
100
AcDbDictionary
  3
ACAD_GROUP
350
D
  3
ACAD_MLINESTYLE
350
17
1001
ACAD
1000
TREAT_AS_HARD
1070
     0
  0
DICTIONARY
  5
D
102
{ACAD_REACTORS
330
C
102
}
330
C
100
AcDbDictionary
1001
ACAD
1000
TREAT_AS_HARD
1070
     0
  0
DICTIONARY
  5
17
102
{ACAD_REACTORS
330
C
102
}
330
C
100
AcDbDictionary
  3
STANDARD
350
18
1001
ACAD
1000
TREAT_AS_HARD
1070
     0
  0
MLINESTYLE
  5
18
102
{ACAD_REACTORS
330
17
102
}
330
17
100
AcDbMlineStyle
  2
Standard
 70
     0
  3

 62
   256
 51
90.0
 52
90.0
 71
     2
 49
0.5
 62
   256
  6
BYLAYER
 49
-0.5
 62
   256
  6
BYLAYER
  0
ENDSEC
  0
EOF
