  0
SECTION
  2
HEADER
  9
$ACADVER
  1
AC1012
  9
$DWGCODEPAGE
  3
ansi_1252
  9
$INSBASE
 10
0.0
 20
0.0
 30
0.0
  9
$EXTMIN
 10
0.0
 20
0.0
 30
0.0
  9
$EXTMAX
 10
0.594
 20
0.42
 30
0.0
  9
$LIMMIN
 10
0.0
 20
0.0
  9
$LIMMAX
 10
0.594
 20
0.42
  9
$ORTHOMODE
 70
     0
  9
$REGENMODE
 70
     1
  9
$FILLMODE
 70
     1
  9
$QTEXTMODE
 70
     0
  9
$MIRRTEXT
 70
     1
  9
$DRAGMODE
 70
     2
  9
$LTSCALE
 40
1.0
  9
$OSMODE
 70
    37
  9
$ATTMODE
 70
     1
  9
$TEXTSIZE
 40
0.003175
  9
$TRACEWID
 40
1.0
  9
$TEXTSTYLE
  7
STANDARD
  9
$CLAYER
  8
0
  9
$CELTYPE
  6
BYLAYER
  9
$CECOLOR
 62
   256
  9
$CELTSCALE
 40
1.0
  9
$DELOBJ
 70
     1
  9
$DISPSILH
 70
     0
  9
$DIMSCALE
 40
1.0
  9
$DIMASZ
 40
0.003302
  9
$DIMEXO
 40
0.00127
  9
$DIMDLI
 40
3.75
  9
$DIMRND
 40
0.0
  9
$DIMDLE
 40
0.0
  9
$DIMEXE
 40
0.003175
  9
$DIMTP
 40
0.0
  9
$DIMTM
 40
0.0
  9
$DIMTXT
 40
0.003175
  9
$DIMCEN
 40
2.5
  9
$DIMTSZ
 40
0.0
  9
$DIMTOL
 70
     0
  9
$DIMLIM
 70
     0
  9
$DIMTIH
 70
     1
  9
$DIMTOH
 70
     1
  9
$DIMSE1
 70
     0
  9
$DIMSE2
 70
     0
  9
$DIMTAD
 70
     0
  9
$DIMZIN
 70
     0
  9
$DIMBLK
  1

  9
$DIMASO
 70
     1
  9
$DIMSHO
 70
     1
  9
$DIMPOST
  1

  9
$DIMAPOST
  1

  9
$DIMALT
 70
     0
  9
$DIMALTD
 70
     3
  9
$DIMALTF
 40
39.3700787402
  9
$DIMLFAC
 40
1.0
  9
$DIMTOFL
 70
     1
  9
$DIMTVP
 40
0.0
  9
$DIMTIX
 70
     0
  9
$DIMSOXD
 70
     0
  9
$DIMSAH
 70
     0
  9
$DIMBLK1
  1

  9
$DIMBLK2
  1

  9
$DIMSTYLE
  2
ISO-25
  9
$DIMCLRD
 70
     0
  9
$DIMCLRE
 70
     0
  9
$DIMCLRT
 70
     0
  9
$DIMTFAC
 40
1.0
  9
$DIMGAP
 40
0.001524
  9
$DIMJUST
 70
     0
  9
$DIMSD1
 70
     0
  9
$DIMSD2
 70
     0
  9
$DIMTOLJ
 70
     0
  9
$DIMTZIN
 70
     0
  9
$DIMALTZ
 70
     0
  9
$DIMALTTZ
 70
     0
  9
$DIMFIT
 70
     3
  9
$DIMUPT
 70
     0
  9
$DIMUNIT
 70
     2
  9
$DIMDEC
 70
     3
  9
$DIMTDEC
 70
     3
  9
$DIMALTU
 70
     2
  9
$DIMALTTD
 70
     3
  9
$DIMTXSTY
  7
STANDARD
  9
$DIMAUNIT
 70
     0
  9
$LUNITS
 70
     2
  9
$LUPREC
 70
     2
  9
$SKETCHINC
 40
1.0
  9
$FILLETRAD
 40
10.0
  9
$AUNITS
 70
     0
  9
$AUPREC
 70
     2
  9
$MENU
  1
.
  9
$ELEVATION
 40
0.0
  9
$PELEVATION
 40
0.0
  9
$THICKNESS
 40
0.0
  9
$LIMCHECK
 70
     0
  9
$CHAMFERA
 40
10.0
  9
$CHAMFERB
 40
10.0
  9
$CHAMFERC
 40
20.0
  9
$CHAMFERD
 40
0.0
  9
$SKPOLY
 70
     0
  9
$TDCREATE
 40
2457028.57452485
  9
$TDUPDATE
 40
2457028.574526262
  9
$TDINDWG
 40
0.0000000116
  9
$TDUSRTIMER
 40
0.0000000116
  9
$USRTIMER
 70
     1
  9
$ANGBASE
 50
0.0
  9
$ANGDIR
 70
     0
  9
$PDMODE
 70
     0
  9
$PDSIZE
 40
-1.0
  9
$PLINEWID
 40
0.0
  9
$COORDS
 70
     1
  9
$SPLFRAME
 70
     0
  9
$SPLINETYPE
 70
     6
  9
$SPLINESEGS
 70
     8
  9
$ATTDIA
 70
     0
  9
$ATTREQ
 70
     1
  9
$HANDLING
 70
     1
  9
$HANDSEED
  5
33B
  9
$SURFTAB1
 70
     6
  9
$SURFTAB2
 70
     6
  9
$SURFTYPE
 70
     6
  9
$SURFU
 70
     6
  9
$SURFV
 70
     6
  9
$UCSNAME
  2

  9
$UCSORG
 10
0.0
 20
0.0
 30
0.0
  9
$UCSXDIR
 10
1.0
 20
0.0
 30
0.0
  9
$UCSYDIR
 10
0.0
 20
1.0
 30
0.0
  9
$PUCSNAME
  2

  9
$PUCSORG
 10
0.0
 20
0.0
 30
0.0
  9
$PUCSXDIR
 10
1.0
 20
0.0
 30
0.0
  9
$PUCSYDIR
 10
0.0
 20
1.0
 30
0.0
  9
$USERI1
 70
     0
  9
$USERI2
 70
     0
  9
$USERI3
 70
     0
  9
$USERI4
 70
     0
  9
$USERI5
 70
     0
  9
$USERR1
 40
0.0
  9
$USERR2
 40
0.0
  9
$USERR3
 40
0.0
  9
$USERR4
 40
0.0
  9
$USERR5
 40
0.0
  9
$WORLDVIEW
 70
     1
  9
$SHADEDGE
 70
     3
  9
$SHADEDIF
 70
    70
  9
$TILEMODE
 70
     1
  9
$MAXACTVP
 70
    64
  9
$PINSBASE
 10
0.0
 20
0.0
 30
0.0
  9
$PLIMCHECK
 70
     0
  9
$PEXTMIN
 10
1.0000000000E+20
 20
1.0000000000E+20
 30
1.0000000000E+20
  9
$PEXTMAX
 10
-1.0000000000E+20
 20
-1.0000000000E+20
 30
-1.0000000000E+20
  9
$PLIMMIN
 10
0.0
 20
0.0
  9
$PLIMMAX
 10
420.0
 20
297.0
  9
$UNITMODE
 70
     0
  9
$VISRETAIN
 70
     1
  9
$PLINEGEN
 70
     0
  9
$PSLTSCALE
 70
     1
  9
$TREEDEPTH
 70
  3020
  9
$PICKSTYLE
 70
     1
  9
$CMLSTYLE
  2
STANDARD
  9
$CMLJUST
 70
     0
  9
$CMLSCALE
 40
20.0
  9
$SAVEIMAGES
 70
     1
  0
ENDSEC
  0
SECTION
  2
CLASSES
  0
CLASS
  1
ACDBDICTIONARYWDFLT
  2
AcDbDictionaryWithDefault
  3
ObjectDBX Classes
 90
    32768
280
     0
281
     0
  0
CLASS
  1
VISUALSTYLE
  2
AcDbVisualStyle
  3
ObjectDBX Classes
 90
     4095
280
     0
281
     0
  0
CLASS
  1
MATERIAL
  2
AcDbMaterial
  3
ObjectDBX Classes
 90
     1153
280
     0
281
     0
  0
CLASS
  1
XRECORD
  2
AcDbXrecord
  3
AutoCAD 2000
 90
    32768
280
     0
281
     0
  0
ENDSEC
  0
SECTION
  2
TABLES
  0
TABLE
  2
VPORT
  5
8
330
0
100
AcDbSymbolTable
 70
     1
  0
VPORT
  5
29
330
8
100
AcDbSymbolTableRecord
100
AcDbViewportTableRecord
  2
*ACTIVE
 70
     0
 10
0.0
 20
0.0
 11
1.0
 21
1.0
 12
0.297
 22
0.21
 13
0.0
 23
0.0
 14
10.0
 24
10.0
 15
10.0
 25
10.0
 16
0.0
 26
0.0
 36
1.0
 17
0.0
 27
0.0
 37
0.0
 40
0.42
 41
1.4142857143
 42
50.0
 43
0.0
 44
0.0
 50
0.0
 51
0.0
 71
     0
 72
  2000
 73
     1
 74
     3
 75
     0
 76
     0
 77
     0
 78
     0
  0
ENDTAB
  0
TABLE
  2
LTYPE
  5
5
330
0
100
AcDbSymbolTable
 70
     6
  0
LTYPE
  5
14
330
5
100
AcDbSymbolTableRecord
100
AcDbLinetypeTableRecord
  2
BYBLOCK
 70
     0
  3

 72
    65
 73
     0
 40
0.0
  0
LTYPE
  5
15
330
5
100
AcDbSymbolTableRecord
100
AcDbLinetypeTableRecord
  2
BYLAYER
 70
     0
  3

 72
    65
 73
     0
 40
0.0
  0
LTYPE
  5
16
330
5
100
AcDbSymbolTableRecord
100
AcDbLinetypeTableRecord
  2
CONTINUOUS
 70
     0
  3
Solid line
 72
    65
 73
     0
 40
0.0
  0
LTYPE
  5
3F
330
5
100
AcDbSymbolTableRecord
100
AcDbLinetypeTableRecord
  2
HIDDEN
 70
     0
  3
Hidden __ __ __ __ __ __ __ __ __ __ __ __ __ __
 72
    65
 73
     2
 40
0.001905
 49
0.00127
 74
     0
 49
-0.000635
 74
     0
  0
LTYPE
  5
40
330
5
100
AcDbSymbolTableRecord
100
AcDbLinetypeTableRecord
  2
PHANTOM
 70
     0
  3
Phantom ______  __  __  ______  __  __  ______
 72
    65
 73
     6
 40
0.0127
 49
0.00635
 74
     0
 49
-0.00127
 74
     0
 49
0.00127
 74
     0
 49
-0.00127
 74
     0
 49
0.00127
 74
     0
 49
-0.00127
 74
     0
  0
LTYPE
  5
41
330
5
100
AcDbSymbolTableRecord
100
AcDbLinetypeTableRecord
  2
CENTER
 70
     0
  3
Center ____ _ ____ _ ____ _ ____ _ ____ _ ____
 72
    65
 73
     4
 40
0.01016
 49
0.00635
 74
     0
 49
-0.00127
 74
     0
 49
0.00127
 74
     0
 49
-0.00127
 74
     0
  0
LTYPE
  5
42
330
5
100
AcDbSymbolTableRecord
100
AcDbLinetypeTableRecord
  2
CENTERX2
 70
     0
  3
Center (2x) ________  __  ________  __  _____
 72
    65
 73
     4
 40
0.02032
 49
0.0127
 74
     0
 49
-0.00254
 74
     0
 49
0.00254
 74
     0
 49
-0.00254
 74
     0
  0
LTYPE
  5
43
330
5
100
AcDbSymbolTableRecord
100
AcDbLinetypeTableRecord
  2
DOT2
 70
     0
  3
Dot (.5x) ........................................
 72
    65
 73
     2
 40
0.000635
 49
0.0
 74
     0
 49
-0.000635
 74
     0
  0
ENDTAB
  0
TABLE
  2
LAYER
  5
2
330
0
100
AcDbSymbolTable
 70
     2
  0
LAYER
  5
10
330
2
100
AcDbSymbolTableRecord
100
AcDbLayerTableRecord
  2
0
 70
     0
 62
     7
  6
CONTINUOUS
  0
LAYER
  5
44
330
2
100
AcDbSymbolTableRecord
100
AcDbLayerTableRecord
  2
FORMAT
 70
     0
 62
     7
  6
CONTINUOUS
  0
ENDTAB
  0
TABLE
  2
STYLE
  5
3
330
0
100
AcDbSymbolTable
 70
     2
  0
STYLE
  5
11
330
3
100
AcDbSymbolTableRecord
100
AcDbTextStyleTableRecord
  2
STANDARD
 70
     0
 40
0.0
 41
1.0
 50
0.0
 71
     0
 42
0.003175
  3
txt
  4

  0
STYLE
  5
338
330
3
100
AcDbSymbolTableRecord
100
AcDbTextStyleTableRecord
  2
SLDTEXTSTYLE0
 70
     0
 40
0.0
 41
0.7
 50
0.0
 71
     0
 42
0.2
  3
TXT
  4

  0
ENDTAB
  0
TABLE
  2
VIEW
  5
6
330
0
100
AcDbSymbolTable
 70
     0
  0
ENDTAB
  0
TABLE
  2
UCS
  5
7
330
0
100
AcDbSymbolTable
 70
     0
  0
ENDTAB
  0
TABLE
  2
APPID
  5
9
330
0
100
AcDbSymbolTable
 70
     1
  0
APPID
  5
12
330
9
100
AcDbSymbolTableRecord
100
AcDbRegAppTableRecord
  2
ACAD
 70
     0
  0
ENDTAB
  0
TABLE
  2
DIMSTYLE
  5
A
330
0
100
AcDbSymbolTable
 70
     1
  0
DIMSTYLE
105
27
330
A
100
AcDbSymbolTableRecord
100
AcDbDimStyleTableRecord
  2
ISO-25
 70
     0
  3

  4

  5

  6

  7

 40
1.0
 41
2.5
 42
0.625
 43
3.75
 44
1.25
 45
0.0
 46
0.0
 47
0.0
 48
0.0
140
2.5
141
2.5
142
0.0
143
0.0393700787
144
1.0
145
0.0
146
1.0
147
0.625
 71
     0
 72
     0
 73
     0
 74
     0
 75
     0
 76
     0
 77
     1
 78
     8
170
     0
171
     3
172
     1
173
     0
174
     0
175
     0
176
     0
177
     0
178
     0
270
     2
271
     2
272
     2
273
     2
274
     3
340
11
275
     0
280
     0
281
     0
282
     0
283
     0
284
     8
285
     0
286
     0
287
     3
288
     0
  0
ENDTAB
  0
TABLE
  2
BLOCK_RECORD
  5
1
330
0
100
AcDbSymbolTable
 70
     1
  0
BLOCK_RECORD
  5
1F
330
1
100
AcDbSymbolTableRecord
100
AcDbBlockTableRecord
  2
*MODEL_SPACE
  0
BLOCK_RECORD
  5
1B
330
1
100
AcDbSymbolTableRecord
100
AcDbBlockTableRecord
  2
*PAPER_SPACE
  0
BLOCK_RECORD
  5
23
330
1
100
AcDbSymbolTableRecord
100
AcDbBlockTableRecord
  2
*PAPER_SPACE0
  0
ENDTAB
  0
ENDSEC
  0
SECTION
  2
BLOCKS
  0
BLOCK
  5
20
330
1F
100
AcDbEntity
  8
0
100
AcDbBlockBegin
  2
*MODEL_SPACE
 70
     0
 10
0.0
 20
0.0
 30
0.0
  3
*MODEL_SPACE
  1

  0
ENDBLK
  5
21
330
1F
100
AcDbEntity
  8
0
100
AcDbBlockEnd
  0
BLOCK
  5
1C
330
1B
100
AcDbEntity
 67
     1
  8
0
100
AcDbBlockBegin
  2
*PAPER_SPACE
 70
     0
 10
0.0
 20
0.0
 30
0.0
  3
*PAPER_SPACE
  1

  0
ENDBLK
  5
1D
330
1B
100
AcDbEntity
 67
     1
  8
0
100
AcDbBlockEnd
  0
BLOCK
  5
24
330
23
100
AcDbEntity
  8
0
100
AcDbBlockBegin
  2
*PAPER_SPACE0
 70
     0
 10
0.0
 20
0.0
 30
0.0
  3
*PAPER_SPACE0
  1

  0
ENDBLK
  5
25
330
23
100
AcDbEntity
  8
0
100
AcDbBlockEnd
  0
ENDSEC
  0
SECTION
  2
ENTITIES
  0
CIRCLE
  5
45
330
1F
100
AcDbEntity
  8
0
  6
CONTINUOUS
 62
     7
100
AcDbCircle
 10
0.1404320543
 20
0.2745328465
 30
0.0
 40
0.00167
  0
CIRCLE
  5
46
330
1F
100
AcDbEntity
  8
0
  6
CONTINUOUS
 62
     7
100
AcDbCircle
 10
0.0873990457
 20
0.4025658551
 30
0.0
 40
0.00167
  0
CIRCLE
  5
47
330
1F
100
AcDbEntity
  8
0
  6
CONTINUOUS
 62
     7
100
AcDbCircle
 10
0.0123990457
 20
0.3275658551
 30
0.0
 40
0.00167
  0
CIRCLE
  5
48
330
1F
100
AcDbEntity
  8
0
  6
CONTINUOUS
 62
     7
100
AcDbCircle
 10
0.0980056474
 20
0.3381724568
 30
0.0
 40
0.00142
  0
CIRCLE
  5
49
330
1F
100
AcDbEntity
  8
0
  6
CONTINUOUS
 62
     7
100
AcDbCircle
 10
0.076792444
 20
0.3169592534
 30
0.0
 40
0.00142
  0
CIRCLE
  5
4A
330
1F
100
AcDbEntity
  8
0
  6
CONTINUOUS
 62
     7
100
AcDbCircle
 10
0.0980056474
 20
0.3169592534
 30
0.0
 40
0.00142
  0
CIRCLE
  5
4B
330
1F
100
AcDbEntity
  8
0
  6
CONTINUOUS
 62
     7
100
AcDbCircle
 10
0.0873990457
 20
0.3275658551
 30
0.0
 40
0.08258
  0
CIRCLE
  5
4C
330
1F
100
AcDbEntity
  8
0
  6
CONTINUOUS
 62
     7
100
AcDbCircle
 10
0.0873990457
 20
0.3275658551
 30
0.0
 40
0.01092
  0
CIRCLE
  5
4D
330
1F
100
AcDbEntity
  8
0
  6
CONTINUOUS
 62
     7
100
AcDbCircle
 10
0.0873990457
 20
0.2525658551
 30
0.0
 40
0.00167
  0
CIRCLE
  5
4E
330
1F
100
AcDbEntity
  8
0
  6
CONTINUOUS
 62
     7
100
AcDbCircle
 10
0.076792444
 20
0.3381724568
 30
0.0
 40
0.00142
  0
CIRCLE
  5
4F
330
1F
100
AcDbEntity
  8
0
  6
CONTINUOUS
 62
     7
100
AcDbCircle
 10
0.0343660371
 20
0.2745328465
 30
0.0
 40
0.00167
  0
CIRCLE
  5
50
330
1F
100
AcDbEntity
  8
0
  6
CONTINUOUS
 62
     7
100
AcDbCircle
 10
0.0343660371
 20
0.3805988637
 30
0.0
 40
0.00167
  0
CIRCLE
  5
51
330
1F
100
AcDbEntity
  8
0
  6
CONTINUOUS
 62
     7
100
AcDbCircle
 10
0.1623990457
 20
0.3275658551
 30
0.0
 40
0.00167
  0
LINE
  5
52
330
1F
100
AcDbEntity
  8
0
  6
CONTINUOUS
 62
     7
100
AcDbLine
 10
0.064819046
 20
0.3625626515
 30
0.0
 11
0.064819046
 21
0.379469062
 31
0.0
  0
ARC
  5
53
330
1F
100
AcDbEntity
  8
0
  6
CONTINUOUS
 62
     7
100
AcDbCircle
 10
0.0648990457
 20
0.3804658551
 30
0.0
 40
0.001
100
AcDbArc
 50
265.4114342642
 51
184.5885657358
  0
LINE
  5
54
330
1F
100
AcDbEntity
  8
0
  6
CONTINUOUS
 62
     7
100
AcDbLine
 10
0.0639022502
 20
0.3803858559
 30
0.0
 11
0.0508958388
 21
0.3803858559
 31
0.0
  0
ARC
  5
55
330
1F
100
AcDbEntity
  8
0
  6
CONTINUOUS
 62
     7
100
AcDbCircle
 10
0.0498990457
 20
0.3804658551
 30
0.0
 40
0.001
100
AcDbArc
 50
355.4114342642
 51
274.5885657358
  0
LINE
  5
56
330
1F
100
AcDbEntity
  8
0
  6
CONTINUOUS
 62
     7
100
AcDbLine
 10
0.0499790448
 20
0.379469062
 30
0.0
 11
0.0499790448
 21
0.3625626515
 31
0.0
  0
ARC
  5
57
330
1F
100
AcDbEntity
  8
0
  6
CONTINUOUS
 62
     7
100
AcDbCircle
 10
0.0498990457
 20
0.3615658551
 30
0.0
 40
0.001
100
AcDbArc
 50
85.4114342642
 51
4.5885657358
  0
LINE
  5
58
330
1F
100
AcDbEntity
  8
0
  6
CONTINUOUS
 62
     7
100
AcDbLine
 10
0.0508958388
 20
0.3616458539
 30
0.0
 11
0.0639022502
 21
0.3616458539
 31
0.0
  0
ARC
  5
59
330
1F
100
AcDbEntity
  8
0
  6
CONTINUOUS
 62
     7
100
AcDbCircle
 10
0.0648990457
 20
0.3615658551
 30
0.0
 40
0.001
100
AcDbArc
 50
175.4114342642
 51
94.5885657358
  0
LINE
  5
5A
330
1F
100
AcDbEntity
  8
0
  6
CONTINUOUS
 62
     7
100
AcDbLine
 10
0.0948190458
 20
0.3625626515
 30
0.0
 11
0.0948190458
 21
0.379469062
 31
0.0
  0
ARC
  5
5B
330
1F
100
AcDbEntity
  8
0
  6
CONTINUOUS
 62
     7
100
AcDbCircle
 10
0.0948990457
 20
0.3804658551
 30
0.0
 40
0.001
100
AcDbArc
 50
265.4114342642
 51
184.5885657358
  0
LINE
  5
5C
330
1F
100
AcDbEntity
  8
0
  6
CONTINUOUS
 62
     7
100
AcDbLine
 10
0.093902251
 20
0.3803858559
 30
0.0
 11
0.0808958404
 21
0.3803858559
 31
0.0
  0
ARC
  5
5D
330
1F
100
AcDbEntity
  8
0
  6
CONTINUOUS
 62
     7
100
AcDbCircle
 10
0.0798990457
 20
0.3804658551
 30
0.0
 40
0.001
100
AcDbArc
 50
355.4114342642
 51
274.5885657358
  0
LINE
  5
5E
330
1F
100
AcDbEntity
  8
0
  6
CONTINUOUS
 62
     7
100
AcDbLine
 10
0.0799790455
 20
0.379469062
 30
0.0
 11
0.0799790455
 21
0.3625626515
 31
0.0
  0
ARC
  5
5F
330
1F
100
AcDbEntity
  8
0
  6
CONTINUOUS
 62
     7
100
AcDbCircle
 10
0.0798990457
 20
0.3615658551
 30
0.0
 40
0.001
100
AcDbArc
 50
85.4114342642
 51
4.5885657358
  0
LINE
  5
60
330
1F
100
AcDbEntity
  8
0
  6
CONTINUOUS
 62
     7
100
AcDbLine
 10
0.0808958404
 20
0.3616458539
 30
0.0
 11
0.093902251
 21
0.3616458539
 31
0.0
  0
ARC
  5
61
330
1F
100
AcDbEntity
  8
0
  6
CONTINUOUS
 62
     7
100
AcDbCircle
 10
0.0948990457
 20
0.3615658551
 30
0.0
 40
0.001
100
AcDbArc
 50
175.4114342642
 51
94.5885657358
  0
LINE
  5
62
330
1F
100
AcDbEntity
  8
0
  6
CONTINUOUS
 62
     7
100
AcDbLine
 10
0.1248190466
 20
0.3625626515
 30
0.0
 11
0.1248190466
 21
0.379469062
 31
0.0
  0
ARC
  5
63
330
1F
100
AcDbEntity
  8
0
  6
CONTINUOUS
 62
     7
100
AcDbCircle
 10
0.1248990457
 20
0.3804658551
 30
0.0
 40
0.001
100
AcDbArc
 50
265.4114342642
 51
184.5885657358
  0
LINE
  5
64
330
1F
100
AcDbEntity
  8
0
  6
CONTINUOUS
 62
     7
100
AcDbLine
 10
0.1239022526
 20
0.3803858559
 30
0.0
 11
0.1108958411
 21
0.3803858559
 31
0.0
  0
ARC
  5
65
330
1F
100
AcDbEntity
  8
0
  6
CONTINUOUS
 62
     7
100
AcDbCircle
 10
0.1098990457
 20
0.3804658551
 30
0.0
 40
0.001
100
AcDbArc
 50
355.4114342642
 51
274.5885657358
  0
LINE
  5
66
330
1F
100
AcDbEntity
  8
0
  6
CONTINUOUS
 62
     7
100
AcDbLine
 10
0.1099790453
 20
0.379469062
 30
0.0
 11
0.1099790453
 21
0.3625626515
 31
0.0
  0
ARC
  5
67
330
1F
100
AcDbEntity
  8
0
  6
CONTINUOUS
 62
     7
100
AcDbCircle
 10
0.1098990457
 20
0.3615658551
 30
0.0
 40
0.001
100
AcDbArc
 50
85.4114342642
 51
4.5885657358
  0
LINE
  5
68
330
1F
100
AcDbEntity
  8
0
  6
CONTINUOUS
 62
     7
100
AcDbLine
 10
0.1108958411
 20
0.3616458539
 30
0.0
 11
0.1239022526
 21
0.3616458539
 31
0.0
  0
ARC
  5
69
330
1F
100
AcDbEntity
  8
0
  6
CONTINUOUS
 62
     7
100
AcDbCircle
 10
0.1248990457
 20
0.3615658551
 30
0.0
 40
0.001
100
AcDbArc
 50
175.4114342642
 51
94.5885657358
  0
LINE
  5
6A
330
1F
100
AcDbEntity
  8
0
  6
CONTINUOUS
 62
     7
100
AcDbLine
 10
0.064819046
 20
0.2756626483
 30
0.0
 11
0.064819046
 21
0.2925690587
 31
0.0
  0
ARC
  5
6B
330
1F
100
AcDbEntity
  8
0
  6
CONTINUOUS
 62
     7
100
AcDbCircle
 10
0.0648990457
 20
0.2935658551
 30
0.0
 40
0.001
100
AcDbArc
 50
265.4114342642
 51
184.5885657358
  0
LINE
  5
6C
330
1F
100
AcDbEntity
  8
0
  6
CONTINUOUS
 62
     7
100
AcDbLine
 10
0.0639022502
 20
0.2934858564
 30
0.0
 11
0.0508958388
 21
0.2934858564
 31
0.0
  0
ARC
  5
6D
330
1F
100
AcDbEntity
  8
0
  6
CONTINUOUS
 62
     7
100
AcDbCircle
 10
0.0498990457
 20
0.2935658551
 30
0.0
 40
0.001
100
AcDbArc
 50
355.4114342642
 51
274.5885657358
  0
LINE
  5
6E
330
1F
100
AcDbEntity
  8
0
  6
CONTINUOUS
 62
     7
100
AcDbLine
 10
0.0499790448
 20
0.2925690587
 30
0.0
 11
0.0499790448
 21
0.2756626483
 31
0.0
  0
ARC
  5
6F
330
1F
100
AcDbEntity
  8
0
  6
CONTINUOUS
 62
     7
100
AcDbCircle
 10
0.0498990457
 20
0.2746658551
 30
0.0
 40
0.001
100
AcDbArc
 50
85.4114342642
 51
4.5885657358
  0
LINE
  5
70
330
1F
100
AcDbEntity
  8
0
  6
CONTINUOUS
 62
     7
100
AcDbLine
 10
0.0508958388
 20
0.2747458543
 30
0.0
 11
0.0639022502
 21
0.2747458543
 31
0.0
  0
ARC
  5
71
330
1F
100
AcDbEntity
  8
0
  6
CONTINUOUS
 62
     7
100
AcDbCircle
 10
0.0648990457
 20
0.2746658551
 30
0.0
 40
0.001
100
AcDbArc
 50
175.4114342642
 51
94.5885657358
  0
LINE
  5
72
330
1F
100
AcDbEntity
  8
0
  6
CONTINUOUS
 62
     7
100
AcDbLine
 10
0.0948190458
 20
0.2756626483
 30
0.0
 11
0.0948190458
 21
0.2925690587
 31
0.0
  0
ARC
  5
73
330
1F
100
AcDbEntity
  8
0
  6
CONTINUOUS
 62
     7
100
AcDbCircle
 10
0.0948990457
 20
0.2935658551
 30
0.0
 40
0.001
100
AcDbArc
 50
265.4114342642
 51
184.5885657358
  0
LINE
  5
74
330
1F
100
AcDbEntity
  8
0
  6
CONTINUOUS
 62
     7
100
AcDbLine
 10
0.093902251
 20
0.2934858564
 30
0.0
 11
0.0808958404
 21
0.2934858564
 31
0.0
  0
ARC
  5
75
330
1F
100
AcDbEntity
  8
0
  6
CONTINUOUS
 62
     7
100
AcDbCircle
 10
0.0798990457
 20
0.2935658551
 30
0.0
 40
0.001
100
AcDbArc
 50
355.4114342642
 51
274.5885657358
  0
LINE
  5
76
330
1F
100
AcDbEntity
  8
0
  6
CONTINUOUS
 62
     7
100
AcDbLine
 10
0.0799790455
 20
0.2925690587
 30
0.0
 11
0.0799790455
 21
0.2756626483
 31
0.0
  0
ARC
  5
77
330
1F
100
AcDbEntity
  8
0
  6
CONTINUOUS
 62
     7
100
AcDbCircle
 10
0.0798990457
 20
0.2746658551
 30
0.0
 40
0.001
100
AcDbArc
 50
85.4114342642
 51
4.5885657358
  0
LINE
  5
78
330
1F
100
AcDbEntity
  8
0
  6
CONTINUOUS
 62
     7
100
AcDbLine
 10
0.0808958404
 20
0.2747458543
 30
0.0
 11
0.093902251
 21
0.2747458543
 31
0.0
  0
ARC
  5
79
330
1F
100
AcDbEntity
  8
0
  6
CONTINUOUS
 62
     7
100
AcDbCircle
 10
0.0948990457
 20
0.2746658551
 30
0.0
 40
0.001
100
AcDbArc
 50
175.4114342642
 51
94.5885657358
  0
LINE
  5
7A
330
1F
100
AcDbEntity
  8
0
  6
CONTINUOUS
 62
     7
100
AcDbLine
 10
0.1248190466
 20
0.2756626483
 30
0.0
 11
0.1248190466
 21
0.2925690587
 31
0.0
  0
ARC
  5
7B
330
1F
100
AcDbEntity
  8
0
  6
CONTINUOUS
 62
     7
100
AcDbCircle
 10
0.1248990457
 20
0.2935658551
 30
0.0
 40
0.001
100
AcDbArc
 50
265.4114342642
 51
184.5885657358
  0
LINE
  5
7C
330
1F
100
AcDbEntity
  8
0
  6
CONTINUOUS
 62
     7
100
AcDbLine
 10
0.1239022526
 20
0.2934858564
 30
0.0
 11
0.1108958411
 21
0.2934858564
 31
0.0
  0
ARC
  5
7D
330
1F
100
AcDbEntity
  8
0
  6
CONTINUOUS
 62
     7
100
AcDbCircle
 10
0.1098990457
 20
0.2935658551
 30
0.0
 40
0.001
100
AcDbArc
 50
355.4114342642
 51
274.5885657358
  0
LINE
  5
7E
330
1F
100
AcDbEntity
  8
0
  6
CONTINUOUS
 62
     7
100
AcDbLine
 10
0.1099790453
 20
0.2925690587
 30
0.0
 11
0.1099790453
 21
0.2756626483
 31
0.0
  0
ARC
  5
7F
330
1F
100
AcDbEntity
  8
0
  6
CONTINUOUS
 62
     7
100
AcDbCircle
 10
0.1098990457
 20
0.2746658551
 30
0.0
 40
0.001
100
AcDbArc
 50
85.4114342642
 51
4.5885657358
  0
LINE
  5
80
330
1F
100
AcDbEntity
  8
0
  6
CONTINUOUS
 62
     7
100
AcDbLine
 10
0.1108958411
 20
0.2747458543
 30
0.0
 11
0.1239022526
 21
0.2747458543
 31
0.0
  0
ARC
  5
81
330
1F
100
AcDbEntity
  8
0
  6
CONTINUOUS
 62
     7
100
AcDbCircle
 10
0.1248990457
 20
0.2746658551
 30
0.0
 40
0.001
100
AcDbArc
 50
175.4114342642
 51
94.5885657358
  0
ARC
  5
82
330
1F
100
AcDbEntity
  8
0
  6
CONTINUOUS
 62
     7
100
AcDbCircle
 10
0.2648099541
 20
0.3290324534
 30
0.0
 40
0.08158
100
AcDbArc
 50
51.1039457261
 51
78.8960542739
  0
ARC
  5
83
330
1F
100
AcDbEntity
  8
0
  6
CONTINUOUS
 62
     7
100
AcDbCircle
 10
0.3070717803
 20
0.4196632321
 30
0.0
 40
0.02858
100
AcDbArc
 50
201.7229650288
 51
288.2770349712
  0
CIRCLE
  5
84
330
1F
100
AcDbEntity
  8
0
  6
CONTINUOUS
 62
     7
100
AcDbCircle
 10
0.2117769455
 20
0.2759994448
 30
0.0
 40
0.00167
  0
CIRCLE
  5
85
330
1F
100
AcDbEntity
  8
0
  6
CONTINUOUS
 62
     7
100
AcDbCircle
 10
0.2648099541
 20
0.4040324534
 30
0.0
 40
0.00167
  0
CIRCLE
  5
86
330
1F
100
AcDbEntity
  8
0
  6
CONTINUOUS
 62
     7
100
AcDbCircle
 10
0.3398099541
 20
0.3290324534
 30
0.0
 40
0.00167
  0
CIRCLE
  5
87
330
1F
100
AcDbEntity
  8
0
  6
CONTINUOUS
 62
     7
100
AcDbCircle
 10
0.2542033524
 20
0.3396390551
 30
0.0
 40
0.00142
  0
CIRCLE
  5
88
330
1F
100
AcDbEntity
  8
0
  6
CONTINUOUS
 62
     7
100
AcDbCircle
 10
0.2754165558
 20
0.3184258517
 30
0.0
 40
0.00142
  0
CIRCLE
  5
89
330
1F
100
AcDbEntity
  8
0
  6
CONTINUOUS
 62
     7
100
AcDbCircle
 10
0.2542033524
 20
0.3184258517
 30
0.0
 40
0.00142
  0
ARC
  5
8A
330
1F
100
AcDbEntity
  8
0
  6
CONTINUOUS
 62
     7
100
AcDbCircle
 10
0.2664500761
 20
0.3905105796
 30
0.0
 40
0.02008
100
AcDbArc
 50
35.6655656926
 51
88.4718177215
  0
ARC
  5
8B
330
1F
100
AcDbEntity
  8
0
  6
CONTINUOUS
 62
     7
100
AcDbCircle
 10
0.3070717803
 20
0.4196632321
 30
0.0
 40
0.02992
100
AcDbArc
 50
215.6655656926
 51
274.3344343074
  0
ARC
  5
8C
330
1F
100
AcDbEntity
  8
0
  6
CONTINUOUS
 62
     7
100
AcDbCircle
 10
0.310850681
 20
0.3698062375
 30
0.0
 40
0.02008
100
AcDbArc
 50
41.5281822785
 51
94.3344343074
  0
ARC
  5
8D
330
1F
100
AcDbEntity
  8
0
  6
CONTINUOUS
 62
     7
100
AcDbCircle
 10
0.2648099541
 20
0.3290324534
 30
0.0
 40
0.08158
100
AcDbArc
 50
88.4718177215
 51
41.5281822785
  0
CIRCLE
  5
8E
330
1F
100
AcDbEntity
  8
0
  6
CONTINUOUS
 62
     7
100
AcDbCircle
 10
0.2648099541
 20
0.3290324534
 30
0.0
 40
0.00792
  0
CIRCLE
  5
8F
330
1F
100
AcDbEntity
  8
0
  6
CONTINUOUS
 62
     7
100
AcDbCircle
 10
0.2648099541
 20
0.2540324534
 30
0.0
 40
0.00167
  0
CIRCLE
  5
90
330
1F
100
AcDbEntity
  8
0
  6
CONTINUOUS
 62
     7
100
AcDbCircle
 10
0.2754165558
 20
0.3396390551
 30
0.0
 40
0.00142
  0
CIRCLE
  5
91
330
1F
100
AcDbEntity
  8
0
  6
CONTINUOUS
 62
     7
100
AcDbCircle
 10
0.3178429627
 20
0.2759994448
 30
0.0
 40
0.00167
  0
CIRCLE
  5
92
330
1F
100
AcDbEntity
  8
0
  6
CONTINUOUS
 62
     7
100
AcDbCircle
 10
0.3178429627
 20
0.382065462
 30
0.0
 40
0.00167
  0
CIRCLE
  5
93
330
1F
100
AcDbEntity
  8
0
  6
CONTINUOUS
 62
     7
100
AcDbCircle
 10
0.1898099541
 20
0.3290324534
 30
0.0
 40
0.00167
  0
LINE
  5
94
330
1F
100
AcDbEntity
  8
0
  6
CONTINUOUS
 62
     7
100
AcDbLine
 10
0.2197299555
 20
0.3531124542
 30
0.0
 11
0.2197299555
 21
0.3479524541
 31
0.0
  0
LINE
  5
95
330
1F
100
AcDbEntity
  8
0
  6
CONTINUOUS
 62
     7
100
AcDbLine
 10
0.2232299551
 20
0.3531124542
 30
0.0
 11
0.2197299555
 21
0.3531124542
 31
0.0
  0
LINE
  5
96
330
1F
100
AcDbEntity
  8
0
  6
CONTINUOUS
 62
     7
100
AcDbLine
 10
0.2232299551
 20
0.358952454
 30
0.0
 11
0.2232299551
 21
0.3531124542
 31
0.0
  0
LINE
  5
97
330
1F
100
AcDbEntity
  8
0
  6
CONTINUOUS
 62
     7
100
AcDbLine
 10
0.2197299555
 20
0.358952454
 30
0.0
 11
0.2232299551
 21
0.358952454
 31
0.0
  0
LINE
  5
98
330
1F
100
AcDbEntity
  8
0
  6
CONTINUOUS
 62
     7
100
AcDbLine
 10
0.2197299555
 20
0.3739524546
 30
0.0
 11
0.2197299555
 21
0.358952454
 31
0.0
  0
LINE
  5
99
330
1F
100
AcDbEntity
  8
0
  6
CONTINUOUS
 62
     7
100
AcDbLine
 10
0.1998899534
 20
0.3739524546
 30
0.0
 11
0.2197299555
 21
0.3739524546
 31
0.0
  0
LINE
  5
9A
330
1F
100
AcDbEntity
  8
0
  6
CONTINUOUS
 62
     7
100
AcDbLine
 10
0.1998899534
 20
0.358952454
 30
0.0
 11
0.1998899534
 21
0.3739524546
 31
0.0
  0
LINE
  5
9B
330
1F
100
AcDbEntity
  8
0
  6
CONTINUOUS
 62
     7
100
AcDbLine
 10
0.1963899538
 20
0.358952454
 30
0.0
 11
0.1998899534
 21
0.358952454
 31
0.0
  0
LINE
  5
9C
330
1F
100
AcDbEntity
  8
0
  6
CONTINUOUS
 62
     7
100
AcDbLine
 10
0.1963899538
 20
0.3531124542
 30
0.0
 11
0.1963899538
 21
0.358952454
 31
0.0
  0
LINE
  5
9D
330
1F
100
AcDbEntity
  8
0
  6
CONTINUOUS
 62
     7
100
AcDbLine
 10
0.1998899534
 20
0.3531124542
 30
0.0
 11
0.1963899538
 21
0.3531124542
 31
0.0
  0
LINE
  5
9E
330
1F
100
AcDbEntity
  8
0
  6
CONTINUOUS
 62
     7
100
AcDbLine
 10
0.1998899534
 20
0.3131124533
 30
0.0
 11
0.1998899534
 21
0.3531124542
 31
0.0
  0
LINE
  5
9F
330
1F
100
AcDbEntity
  8
0
  6
CONTINUOUS
 62
     7
100
AcDbLine
 10
0.2282299541
 20
0.3131124533
 30
0.0
 11
0.1998899534
 21
0.3131124533
 31
0.0
  0
LINE
  5
A0
330
1F
100
AcDbEntity
  8
0
  6
CONTINUOUS
 62
     7
100
AcDbLine
 10
0.2282299541
 20
0.3479524541
 30
0.0
 11
0.2282299541
 21
0.3131124533
 31
0.0
  0
LINE
  5
A1
330
1F
100
AcDbEntity
  8
0
  6
CONTINUOUS
 62
     7
100
AcDbLine
 10
0.2197299555
 20
0.3479524541
 30
0.0
 11
0.2282299541
 21
0.3479524541
 31
0.0
  0
ARC
  5
A2
330
1F
100
AcDbEntity
  8
0
  6
CONTINUOUS
 62
     7
100
AcDbCircle
 10
0.3023099541
 20
0.2950324534
 30
0.0
 40
0.001
100
AcDbArc
 50
265.4114342642
 51
184.5885657358
  0
LINE
  5
A3
330
1F
100
AcDbEntity
  8
0
  6
CONTINUOUS
 62
     7
100
AcDbLine
 10
0.2883067496
 20
0.2949524547
 30
0.0
 11
0.3013131611
 21
0.2949524547
 31
0.0
  0
ARC
  5
A4
330
1F
100
AcDbEntity
  8
0
  6
CONTINUOUS
 62
     7
100
AcDbCircle
 10
0.2873099541
 20
0.2950324534
 30
0.0
 40
0.001
100
AcDbArc
 50
355.4114342642
 51
274.5885657358
  0
LINE
  5
A5
330
1F
100
AcDbEntity
  8
0
  6
CONTINUOUS
 62
     7
100
AcDbLine
 10
0.2873899538
 20
0.2771292466
 30
0.0
 11
0.2873899538
 21
0.294035657
 31
0.0
  0
ARC
  5
A6
330
1F
100
AcDbEntity
  8
0
  6
CONTINUOUS
 62
     7
100
AcDbCircle
 10
0.2873099541
 20
0.2761324534
 30
0.0
 40
0.001
100
AcDbArc
 50
85.4114342642
 51
4.5885657358
  0
LINE
  5
A7
330
1F
100
AcDbEntity
  8
0
  6
CONTINUOUS
 62
     7
100
AcDbLine
 10
0.3013131611
 20
0.2762124526
 30
0.0
 11
0.2883067496
 21
0.2762124526
 31
0.0
  0
ARC
  5
A8
330
1F
100
AcDbEntity
  8
0
  6
CONTINUOUS
 62
     7
100
AcDbCircle
 10
0.3023099541
 20
0.2761324534
 30
0.0
 40
0.001
100
AcDbArc
 50
175.4114342642
 51
94.5885657358
  0
LINE
  5
A9
330
1F
100
AcDbEntity
  8
0
  6
CONTINUOUS
 62
     7
100
AcDbLine
 10
0.302229955
 20
0.294035657
 30
0.0
 11
0.302229955
 21
0.2771292466
 31
0.0
  0
ARC
  5
AA
330
1F
100
AcDbEntity
  8
0
  6
CONTINUOUS
 62
     7
100
AcDbCircle
 10
0.3023099541
 20
0.3819324534
 30
0.0
 40
0.001
100
AcDbArc
 50
265.4114342642
 51
184.5885657358
  0
LINE
  5
AB
330
1F
100
AcDbEntity
  8
0
  6
CONTINUOUS
 62
     7
100
AcDbLine
 10
0.2883067496
 20
0.3818524542
 30
0.0
 11
0.3013131611
 21
0.3818524542
 31
0.0
  0
ARC
  5
AC
330
1F
100
AcDbEntity
  8
0
  6
CONTINUOUS
 62
     7
100
AcDbCircle
 10
0.2873099541
 20
0.3819324534
 30
0.0
 40
0.001
100
AcDbArc
 50
355.4114342642
 51
274.5885657358
  0
LINE
  5
AD
330
1F
100
AcDbEntity
  8
0
  6
CONTINUOUS
 62
     7
100
AcDbLine
 10
0.2873899538
 20
0.3640292498
 30
0.0
 11
0.2873899538
 21
0.3809356603
 31
0.0
  0
ARC
  5
AE
330
1F
100
AcDbEntity
  8
0
  6
CONTINUOUS
 62
     7
100
AcDbCircle
 10
0.2873099541
 20
0.3630324534
 30
0.0
 40
0.001
100
AcDbArc
 50
85.4114342642
 51
4.5885657358
  0
LINE
  5
AF
330
1F
100
AcDbEntity
  8
0
  6
CONTINUOUS
 62
     7
100
AcDbLine
 10
0.3013131611
 20
0.3631124522
 30
0.0
 11
0.2883067496
 21
0.3631124522
 31
0.0
  0
ARC
  5
B0
330
1F
100
AcDbEntity
  8
0
  6
CONTINUOUS
 62
     7
100
AcDbCircle
 10
0.3023099541
 20
0.3630324534
 30
0.0
 40
0.001
100
AcDbArc
 50
175.4114342642
 51
94.5885657358
  0
LINE
  5
B1
330
1F
100
AcDbEntity
  8
0
  6
CONTINUOUS
 62
     7
100
AcDbLine
 10
0.302229955
 20
0.3809356603
 30
0.0
 11
0.302229955
 21
0.3640292498
 31
0.0
  0
ARC
  5
B2
330
1F
100
AcDbEntity
  8
0
  6
CONTINUOUS
 62
     7
100
AcDbCircle
 10
0.2723099541
 20
0.2950324534
 30
0.0
 40
0.001
100
AcDbArc
 50
265.4114342642
 51
184.5885657358
  0
LINE
  5
B3
330
1F
100
AcDbEntity
  8
0
  6
CONTINUOUS
 62
     7
100
AcDbLine
 10
0.2583067488
 20
0.2949524547
 30
0.0
 11
0.2713131594
 21
0.2949524547
 31
0.0
  0
ARC
  5
B4
330
1F
100
AcDbEntity
  8
0
  6
CONTINUOUS
 62
     7
100
AcDbCircle
 10
0.2573099541
 20
0.2950324534
 30
0.0
 40
0.001
100
AcDbArc
 50
355.4114342642
 51
274.5885657358
  0
LINE
  5
B5
330
1F
100
AcDbEntity
  8
0
  6
CONTINUOUS
 62
     7
100
AcDbLine
 10
0.257389954
 20
0.2771292466
 30
0.0
 11
0.257389954
 21
0.294035657
 31
0.0
  0
ARC
  5
B6
330
1F
100
AcDbEntity
  8
0
  6
CONTINUOUS
 62
     7
100
AcDbCircle
 10
0.2573099541
 20
0.2761324534
 30
0.0
 40
0.001
100
AcDbArc
 50
85.4114342642
 51
4.5885657358
  0
LINE
  5
B7
330
1F
100
AcDbEntity
  8
0
  6
CONTINUOUS
 62
     7
100
AcDbLine
 10
0.2713131594
 20
0.2762124526
 30
0.0
 11
0.2583067488
 21
0.2762124526
 31
0.0
  0
ARC
  5
B8
330
1F
100
AcDbEntity
  8
0
  6
CONTINUOUS
 62
     7
100
AcDbCircle
 10
0.2723099541
 20
0.2761324534
 30
0.0
 40
0.001
100
AcDbArc
 50
175.4114342642
 51
94.5885657358
  0
LINE
  5
B9
330
1F
100
AcDbEntity
  8
0
  6
CONTINUOUS
 62
     7
100
AcDbLine
 10
0.2722299543
 20
0.294035657
 30
0.0
 11
0.2722299543
 21
0.2771292466
 31
0.0
  0
ARC
  5
BA
330
1F
100
AcDbEntity
  8
0
  6
CONTINUOUS
 62
     7
100
AcDbCircle
 10
0.2423099541
 20
0.2950324534
 30
0.0
 40
0.001
100
AcDbArc
 50
265.4114342642
 51
184.5885657358
  0
LINE
  5
BB
330
1F
100
AcDbEntity
  8
0
  6
CONTINUOUS
 62
     7
100
AcDbLine
 10
0.2283067472
 20
0.2949524547
 30
0.0
 11
0.2413131587
 21
0.2949524547
 31
0.0
  0
ARC
  5
BC
330
1F
100
AcDbEntity
  8
0
  6
CONTINUOUS
 62
     7
100
AcDbCircle
 10
0.2273099541
 20
0.2950324534
 30
0.0
 40
0.001
100
AcDbArc
 50
355.4114342642
 51
274.5885657358
  0
LINE
  5
BD
330
1F
100
AcDbEntity
  8
0
  6
CONTINUOUS
 62
     7
100
AcDbLine
 10
0.2273899532
 20
0.2771292466
 30
0.0
 11
0.2273899532
 21
0.294035657
 31
0.0
  0
ARC
  5
BE
330
1F
100
AcDbEntity
  8
0
  6
CONTINUOUS
 62
     7
100
AcDbCircle
 10
0.2273099541
 20
0.2761324534
 30
0.0
 40
0.001
100
AcDbArc
 50
85.4114342642
 51
4.5885657358
  0
LINE
  5
BF
330
1F
100
AcDbEntity
  8
0
  6
CONTINUOUS
 62
     7
100
AcDbLine
 10
0.2413131587
 20
0.2762124526
 30
0.0
 11
0.2283067472
 21
0.2762124526
 31
0.0
  0
ARC
  5
C0
330
1F
100
AcDbEntity
  8
0
  6
CONTINUOUS
 62
     7
100
AcDbCircle
 10
0.2423099541
 20
0.2761324534
 30
0.0
 40
0.001
100
AcDbArc
 50
175.4114342642
 51
94.5885657358
  0
ARC
  5
C1
330
1F
100
AcDbEntity
  8
0
  6
CONTINUOUS
 62
     7
100
AcDbCircle
 10
0.2423099541
 20
0.3819324534
 30
0.0
 40
0.001
100
AcDbArc
 50
265.4114342642
 51
184.5885657358
  0
LINE
  5
C2
330
1F
100
AcDbEntity
  8
0
  6
CONTINUOUS
 62
     7
100
AcDbLine
 10
0.2282264709
 20
0.3818524542
 30
0.0
 11
0.2413131587
 21
0.3818524542
 31
0.0
  0
ARC
  5
C3
330
1F
100
AcDbEntity
  8
0
  6
CONTINUOUS
 62
     7
100
AcDbCircle
 10
0.2273099541
 20
0.3819324534
 30
0.0
 40
0.00092
100
AcDbArc
 50
355.0114580244
 51
274.9885419756
  0
LINE
  5
C4
330
1F
100
AcDbEntity
  8
0
  6
CONTINUOUS
 62
     7
100
AcDbLine
 10
0.2273899532
 20
0.3640292498
 30
0.0
 11
0.2273899532
 21
0.3810159366
 31
0.0
  0
ARC
  5
C5
330
1F
100
AcDbEntity
  8
0
  6
CONTINUOUS
 62
     7
100
AcDbCircle
 10
0.2273099541
 20
0.3630324534
 30
0.0
 40
0.001
100
AcDbArc
 50
85.4114342642
 51
4.5885657358
  0
LINE
  5
C6
330
1F
100
AcDbEntity
  8
0
  6
CONTINUOUS
 62
     7
100
AcDbLine
 10
0.2413131587
 20
0.3631124522
 30
0.0
 11
0.2283067472
 21
0.3631124522
 31
0.0
  0
ARC
  5
C7
330
1F
100
AcDbEntity
  8
0
  6
CONTINUOUS
 62
     7
100
AcDbCircle
 10
0.2423099541
 20
0.3630324534
 30
0.0
 40
0.001
100
AcDbArc
 50
175.4114342642
 51
94.5885657358
  0
LINE
  5
C8
330
1F
100
AcDbEntity
  8
0
  6
CONTINUOUS
 62
     7
100
AcDbLine
 10
0.2422299545
 20
0.3809356603
 30
0.0
 11
0.2422299545
 21
0.3640292498
 31
0.0
  0
ARC
  5
C9
330
1F
100
AcDbEntity
  8
0
  6
CONTINUOUS
 62
     7
100
AcDbCircle
 10
0.2723099541
 20
0.3819324534
 30
0.0
 40
0.001
100
AcDbArc
 50
265.4114342642
 51
184.5885657358
  0
LINE
  5
CA
330
1F
100
AcDbEntity
  8
0
  6
CONTINUOUS
 62
     7
100
AcDbLine
 10
0.2583067488
 20
0.3818524542
 30
0.0
 11
0.2713131594
 21
0.3818524542
 31
0.0
  0
ARC
  5
CB
330
1F
100
AcDbEntity
  8
0
  6
CONTINUOUS
 62
     7
100
AcDbCircle
 10
0.2573099541
 20
0.3819324534
 30
0.0
 40
0.001
100
AcDbArc
 50
355.4114342642
 51
274.5885657358
  0
LINE
  5
CC
330
1F
100
AcDbEntity
  8
0
  6
CONTINUOUS
 62
     7
100
AcDbLine
 10
0.257389954
 20
0.3640292498
 30
0.0
 11
0.257389954
 21
0.3809356603
 31
0.0
  0
ARC
  5
CD
330
1F
100
AcDbEntity
  8
0
  6
CONTINUOUS
 62
     7
100
AcDbCircle
 10
0.2573099541
 20
0.3630324534
 30
0.0
 40
0.001
100
AcDbArc
 50
85.4114342642
 51
4.5885657358
  0
LINE
  5
CE
330
1F
100
AcDbEntity
  8
0
  6
CONTINUOUS
 62
     7
100
AcDbLine
 10
0.2713131594
 20
0.3631124522
 30
0.0
 11
0.2583067488
 21
0.3631124522
 31
0.0
  0
ARC
  5
CF
330
1F
100
AcDbEntity
  8
0
  6
CONTINUOUS
 62
     7
100
AcDbCircle
 10
0.2723099541
 20
0.3630324534
 30
0.0
 40
0.001
100
AcDbArc
 50
175.4114342642
 51
94.5885657358
  0
LINE
  5
D0
330
1F
100
AcDbEntity
  8
0
  6
CONTINUOUS
 62
     7
100
AcDbLine
 10
0.2722299543
 20
0.3809356603
 30
0.0
 11
0.2722299543
 21
0.3640292498
 31
0.0
  0
LINE
  5
D1
330
1F
100
AcDbEntity
  8
0
  6
CONTINUOUS
 62
     7
100
AcDbLine
 10
0.2422299545
 20
0.294035657
 30
0.0
 11
0.2422299545
 21
0.2771292466
 31
0.0
  0
ARC
  5
D2
330
1F
100
AcDbEntity
  8
0
  6
CONTINUOUS
 62
     7
100
AcDbCircle
 10
0.2648099541
 20
0.3290324534
 30
0.0
 40
0.08158
100
AcDbArc
 50
78.8960542739
 51
88.4718177215
  0
ARC
  5
D3
330
1F
100
AcDbEntity
  8
0
  6
CONTINUOUS
 62
     7
100
AcDbCircle
 10
0.2648099541
 20
0.3290324534
 30
0.0
 40
0.08158
100
AcDbArc
 50
41.5281822785
 51
51.1039457261
  0
LINE
  5
D4
330
1F
100
AcDbEntity
  8
0
  6
CONTINUOUS
 62
     7
100
AcDbLine
 10
0.1117878234
 20
0.0936056413
 30
0.0
 11
0.1247942349
 21
0.0936056413
 31
0.0
  0
ARC
  5
D5
330
1F
100
AcDbEntity
  8
0
  6
CONTINUOUS
 62
     7
100
AcDbCircle
 10
0.1257910279
 20
0.0935256421
 30
0.0
 40
0.001
100
AcDbArc
 50
175.4114342642
 51
94.5885657358
  0
LINE
  5
D6
330
1F
100
AcDbEntity
  8
0
  6
CONTINUOUS
 62
     7
100
AcDbLine
 10
0.1257110288
 20
0.0945224352
 30
0.0
 11
0.1257110288
 21
0.1114288457
 31
0.0
  0
ARC
  5
D7
330
1F
100
AcDbEntity
  8
0
  6
CONTINUOUS
 62
     7
100
AcDbCircle
 10
0.1257910279
 20
0.1124256421
 30
0.0
 40
0.001
100
AcDbArc
 50
265.4114342642
 51
184.5885657358
  0
LINE
  5
D8
330
1F
100
AcDbEntity
  8
0
  6
CONTINUOUS
 62
     7
100
AcDbLine
 10
0.1247942349
 20
0.1123456433
 30
0.0
 11
0.1117878234
 21
0.1123456433
 31
0.0
  0
ARC
  5
D9
330
1F
100
AcDbEntity
  8
0
  6
CONTINUOUS
 62
     7
100
AcDbCircle
 10
0.1107910279
 20
0.1124256421
 30
0.0
 40
0.001
100
AcDbArc
 50
355.4114342642
 51
274.5885657358
  0
LINE
  5
DA
330
1F
100
AcDbEntity
  8
0
  6
CONTINUOUS
 62
     7
100
AcDbLine
 10
0.1108710276
 20
0.1114288457
 30
0.0
 11
0.1108710276
 21
0.0945224352
 31
0.0
  0
ARC
  5
DB
330
1F
100
AcDbEntity
  8
0
  6
CONTINUOUS
 62
     7
100
AcDbCircle
 10
0.1107910279
 20
0.0935256421
 30
0.0
 40
0.001
100
AcDbArc
 50
85.4114342642
 51
4.5885657358
  0
LINE
  5
DC
330
1F
100
AcDbEntity
  8
0
  6
CONTINUOUS
 62
     7
100
AcDbLine
 10
0.0947942332
 20
0.1123456433
 30
0.0
 11
0.0817878226
 21
0.1123456433
 31
0.0
  0
ARC
  5
DD
330
1F
100
AcDbEntity
  8
0
  6
CONTINUOUS
 62
     7
100
AcDbCircle
 10
0.0807910279
 20
0.1124256421
 30
0.0
 40
0.001
100
AcDbArc
 50
355.4114342642
 51
274.5885657358
  0
LINE
  5
DE
330
1F
100
AcDbEntity
  8
0
  6
CONTINUOUS
 62
     7
100
AcDbLine
 10
0.0808710278
 20
0.1114288457
 30
0.0
 11
0.0808710278
 21
0.0945224352
 31
0.0
  0
ARC
  5
DF
330
1F
100
AcDbEntity
  8
0
  6
CONTINUOUS
 62
     7
100
AcDbCircle
 10
0.0807910279
 20
0.0935256421
 30
0.0
 40
0.001
100
AcDbArc
 50
85.4114342642
 51
4.5885657358
  0
LINE
  5
E0
330
1F
100
AcDbEntity
  8
0
  6
CONTINUOUS
 62
     7
100
AcDbLine
 10
0.0817878226
 20
0.0936056413
 30
0.0
 11
0.0947942332
 21
0.0936056413
 31
0.0
  0
ARC
  5
E1
330
1F
100
AcDbEntity
  8
0
  6
CONTINUOUS
 62
     7
100
AcDbCircle
 10
0.0957910279
 20
0.0935256421
 30
0.0
 40
0.001
100
AcDbArc
 50
175.4114342642
 51
94.5885657358
  0
LINE
  5
E2
330
1F
100
AcDbEntity
  8
0
  6
CONTINUOUS
 62
     7
100
AcDbLine
 10
0.0957110281
 20
0.0945224352
 30
0.0
 11
0.0957110281
 21
0.1114288457
 31
0.0
  0
ARC
  5
E3
330
1F
100
AcDbEntity
  8
0
  6
CONTINUOUS
 62
     7
100
AcDbCircle
 10
0.0957910279
 20
0.1124256421
 30
0.0
 40
0.001
100
AcDbArc
 50
265.4114342642
 51
184.5885657358
  0
LINE
  5
E4
330
1F
100
AcDbEntity
  8
0
  6
CONTINUOUS
 62
     7
100
AcDbLine
 10
0.051787821
 20
0.0936056413
 30
0.0
 11
0.0647942325
 21
0.0936056413
 31
0.0
  0
ARC
  5
E5
330
1F
100
AcDbEntity
  8
0
  6
CONTINUOUS
 62
     7
100
AcDbCircle
 10
0.0657910279
 20
0.0935256421
 30
0.0
 40
0.001
100
AcDbArc
 50
175.4114342642
 51
94.5885657358
  0
LINE
  5
E6
330
1F
100
AcDbEntity
  8
0
  6
CONTINUOUS
 62
     7
100
AcDbLine
 10
0.0657110283
 20
0.0945224352
 30
0.0
 11
0.0657110283
 21
0.1114288457
 31
0.0
  0
ARC
  5
E7
330
1F
100
AcDbEntity
  8
0
  6
CONTINUOUS
 62
     7
100
AcDbCircle
 10
0.0657910279
 20
0.1124256421
 30
0.0
 40
0.001
100
AcDbArc
 50
265.4114342642
 51
184.5885657358
  0
LINE
  5
E8
330
1F
100
AcDbEntity
  8
0
  6
CONTINUOUS
 62
     7
100
AcDbLine
 10
0.0647942325
 20
0.1123456433
 30
0.0
 11
0.051787821
 21
0.1123456433
 31
0.0
  0
ARC
  5
E9
330
1F
100
AcDbEntity
  8
0
  6
CONTINUOUS
 62
     7
100
AcDbCircle
 10
0.0507910279
 20
0.1124256421
 30
0.0
 40
0.001
100
AcDbArc
 50
355.4114342642
 51
274.5885657358
  0
LINE
  5
EA
330
1F
100
AcDbEntity
  8
0
  6
CONTINUOUS
 62
     7
100
AcDbLine
 10
0.050871027
 20
0.1114288457
 30
0.0
 11
0.050871027
 21
0.0945224352
 31
0.0
  0
ARC
  5
EB
330
1F
100
AcDbEntity
  8
0
  6
CONTINUOUS
 62
     7
100
AcDbCircle
 10
0.0507910279
 20
0.0935256421
 30
0.0
 40
0.001
100
AcDbArc
 50
85.4114342642
 51
4.5885657358
  0
LINE
  5
EC
330
1F
100
AcDbEntity
  8
0
  6
CONTINUOUS
 62
     7
100
AcDbLine
 10
0.1247942349
 20
0.1992456429
 30
0.0
 11
0.1117878234
 21
0.1992456429
 31
0.0
  0
ARC
  5
ED
330
1F
100
AcDbEntity
  8
0
  6
CONTINUOUS
 62
     7
100
AcDbCircle
 10
0.1107910279
 20
0.1993256421
 30
0.0
 40
0.001
100
AcDbArc
 50
355.4114342642
 51
274.5885657358
  0
LINE
  5
EE
330
1F
100
AcDbEntity
  8
0
  6
CONTINUOUS
 62
     7
100
AcDbLine
 10
0.1108710276
 20
0.1983288489
 30
0.0
 11
0.1108710276
 21
0.1814224385
 31
0.0
  0
ARC
  5
EF
330
1F
100
AcDbEntity
  8
0
  6
CONTINUOUS
 62
     7
100
AcDbCircle
 10
0.1107910279
 20
0.1804256421
 30
0.0
 40
0.001
100
AcDbArc
 50
85.4114342642
 51
4.5885657358
  0
LINE
  5
F0
330
1F
100
AcDbEntity
  8
0
  6
CONTINUOUS
 62
     7
100
AcDbLine
 10
0.1117878234
 20
0.1805056408
 30
0.0
 11
0.1247942349
 21
0.1805056408
 31
0.0
  0
ARC
  5
F1
330
1F
100
AcDbEntity
  8
0
  6
CONTINUOUS
 62
     7
100
AcDbCircle
 10
0.1257910279
 20
0.1804256421
 30
0.0
 40
0.001
100
AcDbArc
 50
175.4114342642
 51
94.5885657358
  0
LINE
  5
F2
330
1F
100
AcDbEntity
  8
0
  6
CONTINUOUS
 62
     7
100
AcDbLine
 10
0.1257110288
 20
0.1814224385
 30
0.0
 11
0.1257110288
 21
0.1983288489
 31
0.0
  0
ARC
  5
F3
330
1F
100
AcDbEntity
  8
0
  6
CONTINUOUS
 62
     7
100
AcDbCircle
 10
0.1257910279
 20
0.1993256421
 30
0.0
 40
0.001
100
AcDbArc
 50
265.4114342642
 51
184.5885657358
  0
LINE
  5
F4
330
1F
100
AcDbEntity
  8
0
  6
CONTINUOUS
 62
     7
100
AcDbLine
 10
0.0957110281
 20
0.1814224385
 30
0.0
 11
0.0957110281
 21
0.1983288489
 31
0.0
  0
ARC
  5
F5
330
1F
100
AcDbEntity
  8
0
  6
CONTINUOUS
 62
     7
100
AcDbCircle
 10
0.0957910279
 20
0.1993256421
 30
0.0
 40
0.001
100
AcDbArc
 50
265.4114342642
 51
184.5885657358
  0
LINE
  5
F6
330
1F
100
AcDbEntity
  8
0
  6
CONTINUOUS
 62
     7
100
AcDbLine
 10
0.0947942332
 20
0.1992456429
 30
0.0
 11
0.0817878226
 21
0.1992456429
 31
0.0
  0
ARC
  5
F7
330
1F
100
AcDbEntity
  8
0
  6
CONTINUOUS
 62
     7
100
AcDbCircle
 10
0.0807910279
 20
0.1993256421
 30
0.0
 40
0.001
100
AcDbArc
 50
355.4114342642
 51
274.5885657358
  0
LINE
  5
F8
330
1F
100
AcDbEntity
  8
0
  6
CONTINUOUS
 62
     7
100
AcDbLine
 10
0.0808710278
 20
0.1983288489
 30
0.0
 11
0.0808710278
 21
0.1814224385
 31
0.0
  0
ARC
  5
F9
330
1F
100
AcDbEntity
  8
0
  6
CONTINUOUS
 62
     7
100
AcDbCircle
 10
0.0807910279
 20
0.1804256421
 30
0.0
 40
0.001
100
AcDbArc
 50
85.4114342642
 51
4.5885657358
  0
LINE
  5
FA
330
1F
100
AcDbEntity
  8
0
  6
CONTINUOUS
 62
     7
100
AcDbLine
 10
0.0817878226
 20
0.1805056408
 30
0.0
 11
0.0947942332
 21
0.1805056408
 31
0.0
  0
ARC
  5
FB
330
1F
100
AcDbEntity
  8
0
  6
CONTINUOUS
 62
     7
100
AcDbCircle
 10
0.0957910279
 20
0.1804256421
 30
0.0
 40
0.001
100
AcDbArc
 50
175.4114342642
 51
94.5885657358
  0
LINE
  5
FC
330
1F
100
AcDbEntity
  8
0
  6
CONTINUOUS
 62
     7
100
AcDbLine
 10
0.0657110283
 20
0.1814224385
 30
0.0
 11
0.0657110283
 21
0.1983288489
 31
0.0
  0
ARC
  5
FD
330
1F
100
AcDbEntity
  8
0
  6
CONTINUOUS
 62
     7
100
AcDbCircle
 10
0.0657910279
 20
0.1993256421
 30
0.0
 40
0.001
100
AcDbArc
 50
265.4114342642
 51
184.5885657358
  0
LINE
  5
FE
330
1F
100
AcDbEntity
  8
0
  6
CONTINUOUS
 62
     7
100
AcDbLine
 10
0.0647942325
 20
0.1992456429
 30
0.0
 11
0.051787821
 21
0.1992456429
 31
0.0
  0
ARC
  5
FF
330
1F
100
AcDbEntity
  8
0
  6
CONTINUOUS
 62
     7
100
AcDbCircle
 10
0.0507910279
 20
0.1993256421
 30
0.0
 40
0.001
100
AcDbArc
 50
355.4114342642
 51
274.5885657358
  0
LINE
  5
100
330
1F
100
AcDbEntity
  8
0
  6
CONTINUOUS
 62
     7
100
AcDbLine
 10
0.050871027
 20
0.1983288489
 30
0.0
 11
0.050871027
 21
0.1814224385
 31
0.0
  0
ARC
  5
101
330
1F
100
AcDbEntity
  8
0
  6
CONTINUOUS
 62
     7
100
AcDbCircle
 10
0.0507910279
 20
0.1804256421
 30
0.0
 40
0.001
100
AcDbArc
 50
85.4114342642
 51
4.5885657358
  0
LINE
  5
102
330
1F
100
AcDbEntity
  8
0
  6
CONTINUOUS
 62
     7
100
AcDbLine
 10
0.051787821
 20
0.1805056408
 30
0.0
 11
0.0647942325
 21
0.1805056408
 31
0.0
  0
ARC
  5
103
330
1F
100
AcDbEntity
  8
0
  6
CONTINUOUS
 62
     7
100
AcDbCircle
 10
0.0657910279
 20
0.1804256421
 30
0.0
 40
0.001
100
AcDbArc
 50
175.4114342642
 51
94.5885657358
  0
CIRCLE
  5
104
330
1F
100
AcDbEntity
  8
0
  6
CONTINUOUS
 62
     7
100
AcDbCircle
 10
0.0352580193
 20
0.1994586507
 30
0.0
 40
0.00167
  0
CIRCLE
  5
105
330
1F
100
AcDbEntity
  8
0
  6
CONTINUOUS
 62
     7
100
AcDbCircle
 10
0.0352580193
 20
0.0933926335
 30
0.0
 40
0.00167
  0
CIRCLE
  5
106
330
1F
100
AcDbEntity
  8
0
  6
CONTINUOUS
 62
     7
100
AcDbCircle
 10
0.0776844262
 20
0.1570322438
 30
0.0
 40
0.00142
  0
CIRCLE
  5
107
330
1F
100
AcDbEntity
  8
0
  6
CONTINUOUS
 62
     7
100
AcDbCircle
 10
0.0882910279
 20
0.0714256421
 30
0.0
 40
0.00167
  0
CIRCLE
  5
108
330
1F
100
AcDbEntity
  8
0
  6
CONTINUOUS
 62
     7
100
AcDbCircle
 10
0.0882910279
 20
0.1464256421
 30
0.0
 40
0.00792
  0
CIRCLE
  5
109
330
1F
100
AcDbEntity
  8
0
  6
CONTINUOUS
 62
     7
100
AcDbCircle
 10
0.0988976296
 20
0.1358190404
 30
0.0
 40
0.00142
  0
CIRCLE
  5
10A
330
1F
100
AcDbEntity
  8
0
  6
CONTINUOUS
 62
     7
100
AcDbCircle
 10
0.0776844262
 20
0.1358190404
 30
0.0
 40
0.00142
  0
CIRCLE
  5
10B
330
1F
100
AcDbEntity
  8
0
  6
CONTINUOUS
 62
     7
100
AcDbCircle
 10
0.0988976296
 20
0.1570322438
 30
0.0
 40
0.00142
  0
CIRCLE
  5
10C
330
1F
100
AcDbEntity
  8
0
  6
CONTINUOUS
 62
     7
100
AcDbCircle
 10
0.0132910279
 20
0.1464256421
 30
0.0
 40
0.00167
  0
CIRCLE
  5
10D
330
1F
100
AcDbEntity
  8
0
  6
CONTINUOUS
 62
     7
100
AcDbCircle
 10
0.0882910279
 20
0.2214256421
 30
0.0
 40
0.00167
  0
ARC
  5
10E
330
1F
100
AcDbEntity
  8
0
  6
CONTINUOUS
 62
     7
100
AcDbCircle
 10
0.0882910279
 20
0.1464256421
 30
0.0
 40
0.08158
100
AcDbArc
 50
49.8702501021
 51
270.0
  0
LINE
  5
10F
330
1F
100
AcDbEntity
  8
0
  6
CONTINUOUS
 62
     7
100
AcDbLine
 10
0.1408710269
 20
0.2088006362
 30
0.0
 11
0.1408710269
 21
0.1913456432
 31
0.0
  0
LINE
  5
110
330
1F
100
AcDbEntity
  8
0
  6
CONTINUOUS
 62
     7
100
AcDbLine
 10
0.1408710269
 20
0.1913456432
 30
0.0
 11
0.1333710266
 21
0.1913456432
 31
0.0
  0
LINE
  5
111
330
1F
100
AcDbEntity
  8
0
  6
CONTINUOUS
 62
     7
100
AcDbLine
 10
0.1333710266
 20
0.1913456432
 30
0.0
 11
0.1333710266
 21
0.1763456427
 31
0.0
  0
LINE
  5
112
330
1F
100
AcDbEntity
  8
0
  6
CONTINUOUS
 62
     7
100
AcDbLine
 10
0.1333710266
 20
0.1763456427
 30
0.0
 11
0.1298710269
 21
0.1763456427
 31
0.0
  0
LINE
  5
113
330
1F
100
AcDbEntity
  8
0
  6
CONTINUOUS
 62
     7
100
AcDbLine
 10
0.1298710269
 20
0.1763456427
 30
0.0
 11
0.1298710269
 21
0.1705056429
 31
0.0
  0
LINE
  5
114
330
1F
100
AcDbEntity
  8
0
  6
CONTINUOUS
 62
     7
100
AcDbLine
 10
0.1298710269
 20
0.1705056429
 30
0.0
 11
0.1333710266
 21
0.1705056429
 31
0.0
  0
LINE
  5
115
330
1F
100
AcDbEntity
  8
0
  6
CONTINUOUS
 62
     7
100
AcDbLine
 10
0.1333710266
 20
0.1705056429
 30
0.0
 11
0.1333710266
 21
0.1653456427
 31
0.0
  0
LINE
  5
116
330
1F
100
AcDbEntity
  8
0
  6
CONTINUOUS
 62
     7
100
AcDbLine
 10
0.1333710266
 20
0.1653456427
 30
0.0
 11
0.124871028
 21
0.1653456427
 31
0.0
  0
LINE
  5
117
330
1F
100
AcDbEntity
  8
0
  6
CONTINUOUS
 62
     7
100
AcDbLine
 10
0.124871028
 20
0.1653456427
 30
0.0
 11
0.124871028
 21
0.1305056419
 31
0.0
  0
LINE
  5
118
330
1F
100
AcDbEntity
  8
0
  6
CONTINUOUS
 62
     7
100
AcDbLine
 10
0.124871028
 20
0.1305056419
 30
0.0
 11
0.1353710269
 21
0.1305056419
 31
0.0
  0
LINE
  5
119
330
1F
100
AcDbEntity
  8
0
  6
CONTINUOUS
 62
     7
100
AcDbLine
 10
0.1353710269
 20
0.1305056419
 30
0.0
 11
0.1353710269
 21
0.1119256429
 31
0.0
  0
ARC
  5
11A
330
1F
100
AcDbEntity
  8
0
  6
CONTINUOUS
 62
     7
100
AcDbCircle
 10
0.0882910279
 20
0.1119256421
 30
0.0
 40
0.04708
100
AcDbArc
 50
270.0
 51
0.0
  0
CIRCLE
  5
11B
330
1F
100
AcDbEntity
  8
0
  6
CONTINUOUS
 62
     7
100
AcDbCircle
 10
0.1413240365
 20
0.0933926335
 30
0.0
 40
0.00167
  0
CIRCLE
  5
11C
330
1F
100
AcDbEntity
  8
0
  6
CONTINUOUS
 62
     7
100
AcDbCircle
 10
0.1632910279
 20
0.1464256421
 30
0.0
 40
0.00167
  0
LINE
  5
11D
330
1F
100
AcDbEntity
  8
0
  6
CONTINUOUS
 62
     7
100
AcDbLine
 10
0.1382110281
 20
0.1305056419
 30
0.0
 11
0.1532110286
 21
0.1305056419
 31
0.0
  0
LINE
  5
11E
330
1F
100
AcDbEntity
  8
0
  6
CONTINUOUS
 62
     7
100
AcDbLine
 10
0.1532110286
 20
0.1305056419
 30
0.0
 11
0.1532110286
 21
0.1705056429
 31
0.0
  0
LINE
  5
11F
330
1F
100
AcDbEntity
  8
0
  6
CONTINUOUS
 62
     7
100
AcDbLine
 10
0.1532110286
 20
0.1705056429
 30
0.0
 11
0.1567110283
 21
0.1705056429
 31
0.0
  0
LINE
  5
120
330
1F
100
AcDbEntity
  8
0
  6
CONTINUOUS
 62
     7
100
AcDbLine
 10
0.1567110283
 20
0.1705056429
 30
0.0
 11
0.1567110283
 21
0.1763456427
 31
0.0
  0
LINE
  5
121
330
1F
100
AcDbEntity
  8
0
  6
CONTINUOUS
 62
     7
100
AcDbLine
 10
0.1567110283
 20
0.1763456427
 30
0.0
 11
0.1532110286
 21
0.1763456427
 31
0.0
  0
LINE
  5
122
330
1F
100
AcDbEntity
  8
0
  6
CONTINUOUS
 62
     7
100
AcDbLine
 10
0.1532110286
 20
0.1763456427
 30
0.0
 11
0.1532110286
 21
0.1913456432
 31
0.0
  0
LINE
  5
123
330
1F
100
AcDbEntity
  8
0
  6
CONTINUOUS
 62
     7
100
AcDbLine
 10
0.1457110284
 20
0.1913456432
 30
0.0
 11
0.1457110284
 21
0.2043759674
 31
0.0
  0
ARC
  5
124
330
1F
100
AcDbEntity
  8
0
  6
CONTINUOUS
 62
     7
100
AcDbCircle
 10
0.0882910279
 20
0.1464256421
 30
0.0
 40
0.08158
100
AcDbArc
 50
307.7280762855
 51
45.2633700459
  0
LINE
  5
125
330
1F
100
AcDbEntity
  8
0
  6
CONTINUOUS
 62
     7
100
AcDbLine
 10
0.1382110281
 20
0.0819020793
 30
0.0
 11
0.1382110281
 21
0.1305056419
 31
0.0
  0
LINE
  5
126
330
1F
100
AcDbEntity
  8
0
  6
CONTINUOUS
 62
     7
100
AcDbLine
 10
0.1532110286
 20
0.1913456432
 30
0.0
 11
0.1457110284
 21
0.1913456432
 31
0.0
  0
LINE
  5
127
330
1F
100
AcDbEntity
  8
0
  6
CONTINUOUS
 62
     7
100
AcDbLine
 10
0.1382110281
 20
0.1305056419
 30
0.0
 11
0.1353710269
 21
0.1305056419
 31
0.0
  0
ARC
  5
128
330
1F
100
AcDbEntity
  8
0
  6
CONTINUOUS
 62
     7
100
AcDbCircle
 10
0.0882910279
 20
0.1464256421
 30
0.0
 40
0.08158
100
AcDbArc
 50
270.0
 51
307.7280762855
  0
CIRCLE
  5
129
330
1F
100
AcDbEntity
  8
0
  6
CONTINUOUS
 62
     7
100
AcDbCircle
 10
0.3295033354
 20
0.096374849
 30
0.0
 40
0.00117
  0
CIRCLE
  5
12A
330
1F
100
AcDbEntity
  8
0
  6
CONTINUOUS
 62
     7
100
AcDbCircle
 10
0.2764703269
 20
0.2244078576
 30
0.0
 40
0.00117
  0
CIRCLE
  5
12B
330
1F
100
AcDbEntity
  8
0
  6
CONTINUOUS
 62
     7
100
AcDbCircle
 10
0.2014703269
 20
0.1494078576
 30
0.0
 40
0.00117
  0
CIRCLE
  5
12C
330
1F
100
AcDbEntity
  8
0
  6
CONTINUOUS
 62
     7
100
AcDbCircle
 10
0.2870769286
 20
0.1600144593
 30
0.0
 40
0.00142
  0
CIRCLE
  5
12D
330
1F
100
AcDbEntity
  8
0
  6
CONTINUOUS
 62
     7
100
AcDbCircle
 10
0.2658637251
 20
0.1388012559
 30
0.0
 40
0.00142
  0
CIRCLE
  5
12E
330
1F
100
AcDbEntity
  8
0
  6
CONTINUOUS
 62
     7
100
AcDbCircle
 10
0.2870769286
 20
0.1388012559
 30
0.0
 40
0.00142
  0
CIRCLE
  5
12F
330
1F
100
AcDbEntity
  8
0
  6
CONTINUOUS
 62
     7
100
AcDbCircle
 10
0.2764703269
 20
0.1494078576
 30
0.0
 40
0.08258
  0
CIRCLE
  5
130
330
1F
100
AcDbEntity
  8
0
  6
CONTINUOUS
 62
     7
100
AcDbCircle
 10
0.2764703269
 20
0.1494078576
 30
0.0
 40
0.01092
  0
CIRCLE
  5
131
330
1F
100
AcDbEntity
  8
0
  6
CONTINUOUS
 62
     7
100
AcDbCircle
 10
0.2764703269
 20
0.0744078576
 30
0.0
 40
0.00117
  0
CIRCLE
  5
132
330
1F
100
AcDbEntity
  8
0
  6
CONTINUOUS
 62
     7
100
AcDbCircle
 10
0.2658637251
 20
0.1600144593
 30
0.0
 40
0.00142
  0
CIRCLE
  5
133
330
1F
100
AcDbEntity
  8
0
  6
CONTINUOUS
 62
     7
100
AcDbCircle
 10
0.2234373183
 20
0.096374849
 30
0.0
 40
0.00117
  0
CIRCLE
  5
134
330
1F
100
AcDbEntity
  8
0
  6
CONTINUOUS
 62
     7
100
AcDbCircle
 10
0.2234373183
 20
0.2024408662
 30
0.0
 40
0.00117
  0
CIRCLE
  5
135
330
1F
100
AcDbEntity
  8
0
  6
CONTINUOUS
 62
     7
100
AcDbCircle
 10
0.3514703269
 20
0.1494078576
 30
0.0
 40
0.00117
  0
LINE
  5
136
330
1F
100
AcDbEntity
  8
0
  6
CONTINUOUS
 62
     7
100
AcDbLine
 10
0.3215503255
 20
0.1794878575
 30
0.0
 11
0.3413903276
 21
0.1794878575
 31
0.0
  0
LINE
  5
137
330
1F
100
AcDbEntity
  8
0
  6
CONTINUOUS
 62
     7
100
AcDbLine
 10
0.3413903276
 20
0.1794878575
 30
0.0
 11
0.3413903276
 21
0.1943278588
 31
0.0
  0
LINE
  5
138
330
1F
100
AcDbEntity
  8
0
  6
CONTINUOUS
 62
     7
100
AcDbLine
 10
0.3413903276
 20
0.1943278588
 30
0.0
 11
0.3215503255
 21
0.1943278588
 31
0.0
  0
LINE
  5
139
330
1F
100
AcDbEntity
  8
0
  6
CONTINUOUS
 62
     7
100
AcDbLine
 10
0.3215503255
 20
0.1943278588
 30
0.0
 11
0.3215503255
 21
0.1794878575
 31
0.0
  0
LINE
  5
13A
330
1F
100
AcDbEntity
  8
0
  6
CONTINUOUS
 62
     7
100
AcDbLine
 10
0.3215503255
 20
0.1683278582
 30
0.0
 11
0.3130503269
 21
0.1683278582
 31
0.0
  0
LINE
  5
13B
330
1F
100
AcDbEntity
  8
0
  6
CONTINUOUS
 62
     7
100
AcDbLine
 10
0.3130503269
 20
0.1683278582
 30
0.0
 11
0.3130503269
 21
0.1334878574
 31
0.0
  0
LINE
  5
13C
330
1F
100
AcDbEntity
  8
0
  6
CONTINUOUS
 62
     7
100
AcDbLine
 10
0.3130503269
 20
0.1334878574
 30
0.0
 11
0.3413903276
 21
0.1334878574
 31
0.0
  0
LINE
  5
13D
330
1F
100
AcDbEntity
  8
0
  6
CONTINUOUS
 62
     7
100
AcDbLine
 10
0.3413903276
 20
0.1334878574
 30
0.0
 11
0.3413903276
 21
0.1733278572
 31
0.0
  0
LINE
  5
13E
330
1F
100
AcDbEntity
  8
0
  6
CONTINUOUS
 62
     7
100
AcDbLine
 10
0.3413903276
 20
0.1733278572
 30
0.0
 11
0.3215503255
 21
0.1733278572
 31
0.0
  0
LINE
  5
13F
330
1F
100
AcDbEntity
  8
0
  6
CONTINUOUS
 62
     7
100
AcDbLine
 10
0.3215503255
 20
0.1733278572
 30
0.0
 11
0.3215503255
 21
0.1683278582
 31
0.0
  0
LINE
  5
140
330
1F
100
AcDbEntity
  8
0
  6
CONTINUOUS
 62
     7
100
AcDbLine
 10
0.2538903272
 20
0.184404654
 30
0.0
 11
0.2538903272
 21
0.2004110641
 31
0.0
  0
ARC
  5
141
330
1F
100
AcDbEntity
  8
0
  6
CONTINUOUS
 62
     7
100
AcDbCircle
 10
0.2539703269
 20
0.2014078576
 30
0.0
 40
0.001
100
AcDbArc
 50
265.4114342642
 51
184.5885657358
  0
LINE
  5
142
330
1F
100
AcDbEntity
  8
0
  6
CONTINUOUS
 62
     7
100
AcDbLine
 10
0.2529735314
 20
0.2013278581
 30
0.0
 11
0.2399671199
 21
0.2013278581
 31
0.0
  0
ARC
  5
143
330
1F
100
AcDbEntity
  8
0
  6
CONTINUOUS
 62
     7
100
AcDbCircle
 10
0.2389703269
 20
0.2014078576
 30
0.0
 40
0.001
100
AcDbArc
 50
355.4114342642
 51
274.5885657358
  0
LINE
  5
144
330
1F
100
AcDbEntity
  8
0
  6
CONTINUOUS
 62
     7
100
AcDbLine
 10
0.239050326
 20
0.2004110641
 30
0.0
 11
0.239050326
 21
0.184404654
 31
0.0
  0
ARC
  5
145
330
1F
100
AcDbEntity
  8
0
  6
CONTINUOUS
 62
     7
100
AcDbCircle
 10
0.2389703269
 20
0.1834078576
 30
0.0
 40
0.001
100
AcDbArc
 50
85.4114342642
 51
4.5885657358
  0
LINE
  5
146
330
1F
100
AcDbEntity
  8
0
  6
CONTINUOUS
 62
     7
100
AcDbLine
 10
0.2399671199
 20
0.1834878563
 30
0.0
 11
0.2529735314
 21
0.1834878563
 31
0.0
  0
ARC
  5
147
330
1F
100
AcDbEntity
  8
0
  6
CONTINUOUS
 62
     7
100
AcDbCircle
 10
0.2539703269
 20
0.1834078576
 30
0.0
 40
0.001
100
AcDbArc
 50
175.4114342642
 51
94.5885657358
  0
LINE
  5
148
330
1F
100
AcDbEntity
  8
0
  6
CONTINUOUS
 62
     7
100
AcDbLine
 10
0.283890327
 20
0.184404654
 30
0.0
 11
0.283890327
 21
0.2004110641
 31
0.0
  0
ARC
  5
149
330
1F
100
AcDbEntity
  8
0
  6
CONTINUOUS
 62
     7
100
AcDbCircle
 10
0.2839703269
 20
0.2014078576
 30
0.0
 40
0.001
100
AcDbArc
 50
265.4114342642
 51
184.5885657358
  0
LINE
  5
14A
330
1F
100
AcDbEntity
  8
0
  6
CONTINUOUS
 62
     7
100
AcDbLine
 10
0.2829735321
 20
0.2013278581
 30
0.0
 11
0.2699671216
 21
0.2013278581
 31
0.0
  0
ARC
  5
14B
330
1F
100
AcDbEntity
  8
0
  6
CONTINUOUS
 62
     7
100
AcDbCircle
 10
0.2689703269
 20
0.2014078576
 30
0.0
 40
0.001
100
AcDbArc
 50
355.4114342642
 51
274.5885657358
  0
LINE
  5
14C
330
1F
100
AcDbEntity
  8
0
  6
CONTINUOUS
 62
     7
100
AcDbLine
 10
0.2690503267
 20
0.2004110641
 30
0.0
 11
0.2690503267
 21
0.184404654
 31
0.0
  0
ARC
  5
14D
330
1F
100
AcDbEntity
  8
0
  6
CONTINUOUS
 62
     7
100
AcDbCircle
 10
0.2689703269
 20
0.1834078576
 30
0.0
 40
0.001
100
AcDbArc
 50
85.4114342642
 51
4.5885657358
  0
LINE
  5
14E
330
1F
100
AcDbEntity
  8
0
  6
CONTINUOUS
 62
     7
100
AcDbLine
 10
0.2699671216
 20
0.1834878563
 30
0.0
 11
0.2829735321
 21
0.1834878563
 31
0.0
  0
ARC
  5
14F
330
1F
100
AcDbEntity
  8
0
  6
CONTINUOUS
 62
     7
100
AcDbCircle
 10
0.2839703269
 20
0.1834078576
 30
0.0
 40
0.001
100
AcDbArc
 50
175.4114342642
 51
94.5885657358
  0
LINE
  5
150
330
1F
100
AcDbEntity
  8
0
  6
CONTINUOUS
 62
     7
100
AcDbLine
 10
0.3138903277
 20
0.184404654
 30
0.0
 11
0.3138903277
 21
0.2004110641
 31
0.0
  0
ARC
  5
151
330
1F
100
AcDbEntity
  8
0
  6
CONTINUOUS
 62
     7
100
AcDbCircle
 10
0.3139703269
 20
0.2014078576
 30
0.0
 40
0.001
100
AcDbArc
 50
265.4114342642
 51
184.5885657358
  0
LINE
  5
152
330
1F
100
AcDbEntity
  8
0
  6
CONTINUOUS
 62
     7
100
AcDbLine
 10
0.3129735338
 20
0.2013278581
 30
0.0
 11
0.2999671223
 21
0.2013278581
 31
0.0
  0
ARC
  5
153
330
1F
100
AcDbEntity
  8
0
  6
CONTINUOUS
 62
     7
100
AcDbCircle
 10
0.2989703269
 20
0.2014078576
 30
0.0
 40
0.001
100
AcDbArc
 50
355.4114342642
 51
274.5885657358
  0
LINE
  5
154
330
1F
100
AcDbEntity
  8
0
  6
CONTINUOUS
 62
     7
100
AcDbLine
 10
0.2990503265
 20
0.2004110641
 30
0.0
 11
0.2990503265
 21
0.184404654
 31
0.0
  0
ARC
  5
155
330
1F
100
AcDbEntity
  8
0
  6
CONTINUOUS
 62
     7
100
AcDbCircle
 10
0.2989703269
 20
0.1834078576
 30
0.0
 40
0.001
100
AcDbArc
 50
85.4114342642
 51
4.5885657358
  0
LINE
  5
156
330
1F
100
AcDbEntity
  8
0
  6
CONTINUOUS
 62
     7
100
AcDbLine
 10
0.2999671223
 20
0.1834878563
 30
0.0
 11
0.3129735338
 21
0.1834878563
 31
0.0
  0
ARC
  5
157
330
1F
100
AcDbEntity
  8
0
  6
CONTINUOUS
 62
     7
100
AcDbCircle
 10
0.3139703269
 20
0.1834078576
 30
0.0
 40
0.001
100
AcDbArc
 50
175.4114342642
 51
94.5885657358
  0
LINE
  5
158
330
1F
100
AcDbEntity
  8
0
  6
CONTINUOUS
 62
     7
100
AcDbLine
 10
0.2538903272
 20
0.0984046511
 30
0.0
 11
0.2538903272
 21
0.1144110612
 31
0.0
  0
ARC
  5
159
330
1F
100
AcDbEntity
  8
0
  6
CONTINUOUS
 62
     7
100
AcDbCircle
 10
0.2539703269
 20
0.1154078576
 30
0.0
 40
0.001
100
AcDbArc
 50
265.4114342642
 51
184.5885657358
  0
LINE
  5
15A
330
1F
100
AcDbEntity
  8
0
  6
CONTINUOUS
 62
     7
100
AcDbLine
 10
0.2529735314
 20
0.1153278589
 30
0.0
 11
0.2399671199
 21
0.1153278589
 31
0.0
  0
ARC
  5
15B
330
1F
100
AcDbEntity
  8
0
  6
CONTINUOUS
 62
     7
100
AcDbCircle
 10
0.2389703269
 20
0.1154078576
 30
0.0
 40
0.001
100
AcDbArc
 50
355.4114342642
 51
274.5885657358
  0
LINE
  5
15C
330
1F
100
AcDbEntity
  8
0
  6
CONTINUOUS
 62
     7
100
AcDbLine
 10
0.239050326
 20
0.1144110612
 30
0.0
 11
0.239050326
 21
0.0984046511
 31
0.0
  0
ARC
  5
15D
330
1F
100
AcDbEntity
  8
0
  6
CONTINUOUS
 62
     7
100
AcDbCircle
 10
0.2389703269
 20
0.0974078576
 30
0.0
 40
0.001
100
AcDbArc
 50
85.4114342642
 51
4.5885657358
  0
LINE
  5
15E
330
1F
100
AcDbEntity
  8
0
  6
CONTINUOUS
 62
     7
100
AcDbLine
 10
0.2399671199
 20
0.0974878571
 30
0.0
 11
0.2529735314
 21
0.0974878571
 31
0.0
  0
ARC
  5
15F
330
1F
100
AcDbEntity
  8
0
  6
CONTINUOUS
 62
     7
100
AcDbCircle
 10
0.2539703269
 20
0.0974078576
 30
0.0
 40
0.001
100
AcDbArc
 50
175.4114342642
 51
94.5885657358
  0
LINE
  5
160
330
1F
100
AcDbEntity
  8
0
  6
CONTINUOUS
 62
     7
100
AcDbLine
 10
0.283890327
 20
0.0984046511
 30
0.0
 11
0.283890327
 21
0.1144110612
 31
0.0
  0
ARC
  5
161
330
1F
100
AcDbEntity
  8
0
  6
CONTINUOUS
 62
     7
100
AcDbCircle
 10
0.2839703269
 20
0.1154078576
 30
0.0
 40
0.001
100
AcDbArc
 50
265.4114342642
 51
184.5885657358
  0
LINE
  5
162
330
1F
100
AcDbEntity
  8
0
  6
CONTINUOUS
 62
     7
100
AcDbLine
 10
0.2829735321
 20
0.1153278589
 30
0.0
 11
0.2699671216
 21
0.1153278589
 31
0.0
  0
ARC
  5
163
330
1F
100
AcDbEntity
  8
0
  6
CONTINUOUS
 62
     7
100
AcDbCircle
 10
0.2689703269
 20
0.1154078576
 30
0.0
 40
0.001
100
AcDbArc
 50
355.4114342642
 51
274.5885657358
  0
LINE
  5
164
330
1F
100
AcDbEntity
  8
0
  6
CONTINUOUS
 62
     7
100
AcDbLine
 10
0.2690503267
 20
0.1144110612
 30
0.0
 11
0.2690503267
 21
0.0984046511
 31
0.0
  0
ARC
  5
165
330
1F
100
AcDbEntity
  8
0
  6
CONTINUOUS
 62
     7
100
AcDbCircle
 10
0.2689703269
 20
0.0974078576
 30
0.0
 40
0.001
100
AcDbArc
 50
85.4114342642
 51
4.5885657358
  0
LINE
  5
166
330
1F
100
AcDbEntity
  8
0
  6
CONTINUOUS
 62
     7
100
AcDbLine
 10
0.2699671216
 20
0.0974878571
 30
0.0
 11
0.2829735321
 21
0.0974878571
 31
0.0
  0
ARC
  5
167
330
1F
100
AcDbEntity
  8
0
  6
CONTINUOUS
 62
     7
100
AcDbCircle
 10
0.2839703269
 20
0.0974078576
 30
0.0
 40
0.001
100
AcDbArc
 50
175.4114342642
 51
94.5885657358
  0
LINE
  5
168
330
1F
100
AcDbEntity
  8
0
  6
CONTINUOUS
 62
     7
100
AcDbLine
 10
0.3138903277
 20
0.0984046511
 30
0.0
 11
0.3138903277
 21
0.1144110612
 31
0.0
  0
ARC
  5
169
330
1F
100
AcDbEntity
  8
0
  6
CONTINUOUS
 62
     7
100
AcDbCircle
 10
0.3139703269
 20
0.1154078576
 30
0.0
 40
0.001
100
AcDbArc
 50
265.4114342642
 51
184.5885657358
  0
LINE
  5
16A
330
1F
100
AcDbEntity
  8
0
  6
CONTINUOUS
 62
     7
100
AcDbLine
 10
0.3129735338
 20
0.1153278589
 30
0.0
 11
0.2999671223
 21
0.1153278589
 31
0.0
  0
ARC
  5
16B
330
1F
100
AcDbEntity
  8
0
  6
CONTINUOUS
 62
     7
100
AcDbCircle
 10
0.2989703269
 20
0.1154078576
 30
0.0
 40
0.001
100
AcDbArc
 50
355.4114342642
 51
274.5885657358
  0
LINE
  5
16C
330
1F
100
AcDbEntity
  8
0
  6
CONTINUOUS
 62
     7
100
AcDbLine
 10
0.2990503265
 20
0.1144110612
 30
0.0
 11
0.2990503265
 21
0.0984046511
 31
0.0
  0
ARC
  5
16D
330
1F
100
AcDbEntity
  8
0
  6
CONTINUOUS
 62
     7
100
AcDbCircle
 10
0.2989703269
 20
0.0974078576
 30
0.0
 40
0.001
100
AcDbArc
 50
85.4114342642
 51
4.5885657358
  0
LINE
  5
16E
330
1F
100
AcDbEntity
  8
0
  6
CONTINUOUS
 62
     7
100
AcDbLine
 10
0.2999671223
 20
0.0974878571
 30
0.0
 11
0.3129735338
 21
0.0974878571
 31
0.0
  0
ARC
  5
16F
330
1F
100
AcDbEntity
  8
0
  6
CONTINUOUS
 62
     7
100
AcDbCircle
 10
0.3139703269
 20
0.0974078576
 30
0.0
 40
0.001
100
AcDbArc
 50
175.4114342642
 51
94.5885657358
  0
CIRCLE
  5
170
330
1F
100
AcDbEntity
  8
0
  6
CONTINUOUS
 62
     7
100
AcDbCircle
 10
0.3656371567
 20
0.0949833967
 30
0.0
 40
0.0021
  0
LINE
  5
171
330
1F
100
AcDbEntity
  8
0
  6
CONTINUOUS
 62
     7
100
AcDbLine
 10
0.3526371567
 20
0.1009833968
 30
0.0
 11
0.3521371567
 21
0.1004833967
 31
0.0
  0
LINE
  5
172
330
1F
100
AcDbEntity
  8
0
  6
CONTINUOUS
 62
     7
100
AcDbLine
 10
0.3786371564
 20
0.1009833968
 30
0.0
 11
0.3526371567
 21
0.1009833968
 31
0.0
  0
LINE
  5
173
330
1F
100
AcDbEntity
  8
0
  6
CONTINUOUS
 62
     7
100
AcDbLine
 10
0.3791371574
 20
0.1004833967
 30
0.0
 11
0.3786371564
 21
0.1009833968
 31
0.0
  0
LINE
  5
174
330
1F
100
AcDbEntity
  8
0
  6
CONTINUOUS
 62
     7
100
AcDbLine
 10
0.3791371574
 20
0.0894833967
 30
0.0
 11
0.3791371574
 21
0.1004833967
 31
0.0
  0
LINE
  5
175
330
1F
100
AcDbEntity
  8
0
  6
CONTINUOUS
 62
     7
100
AcDbLine
 10
0.3786371564
 20
0.0889833967
 30
0.0
 11
0.3791371574
 21
0.0894833967
 31
0.0
  0
LINE
  5
176
330
1F
100
AcDbEntity
  8
0
  6
CONTINUOUS
 62
     7
100
AcDbLine
 10
0.3526371567
 20
0.0889833967
 30
0.0
 11
0.3786371564
 21
0.0889833967
 31
0.0
  0
LINE
  5
177
330
1F
100
AcDbEntity
  8
0
  6
CONTINUOUS
 62
     7
100
AcDbLine
 10
0.3521371567
 20
0.0894833967
 30
0.0
 11
0.3526371567
 21
0.0889833967
 31
0.0
  0
LINE
  5
178
330
1F
100
AcDbEntity
  8
0
  6
CONTINUOUS
 62
     7
100
AcDbLine
 10
0.3521371567
 20
0.1004833967
 30
0.0
 11
0.3521371567
 21
0.0894833967
 31
0.0
  0
CIRCLE
  5
179
330
1F
100
AcDbEntity
  8
0
  6
CONTINUOUS
 62
     7
100
AcDbCircle
 10
0.4939453305
 20
0.2900934404
 30
0.0
 40
0.00067
  0
ARC
  5
17A
330
1F
100
AcDbEntity
  8
0
  6
CONTINUOUS
 62
     7
100
AcDbCircle
 10
0.4784453305
 20
0.3000934404
 30
0.0
 40
0.00108
100
AcDbArc
 50
90.0
 51
180.0
  0
LINE
  5
17B
330
1F
100
AcDbEntity
  8
0
  6
CONTINUOUS
 62
     7
100
AcDbLine
 10
0.5039453302
 20
0.3011734403
 30
0.0
 11
0.4784453306
 21
0.3011734403
 31
0.0
  0
ARC
  5
17C
330
1F
100
AcDbEntity
  8
0
  6
CONTINUOUS
 62
     7
100
AcDbCircle
 10
0.5039453305
 20
0.3000934404
 30
0.0
 40
0.00108
100
AcDbArc
 50
0.0
 51
90.0
  0
LINE
  5
17D
330
1F
100
AcDbEntity
  8
0
  6
CONTINUOUS
 62
     7
100
AcDbLine
 10
0.505025331
 20
0.2840934405
 30
0.0
 11
0.505025331
 21
0.3000934413
 31
0.0
  0
ARC
  5
17E
330
1F
100
AcDbEntity
  8
0
  6
CONTINUOUS
 62
     7
100
AcDbCircle
 10
0.5039453305
 20
0.2840934404
 30
0.0
 40
0.00108
100
AcDbArc
 50
270.0
 51
0.0
  0
LINE
  5
17F
330
1F
100
AcDbEntity
  8
0
  6
CONTINUOUS
 62
     7
100
AcDbLine
 10
0.4784453306
 20
0.2830134404
 30
0.0
 11
0.5039453302
 21
0.2830134404
 31
0.0
  0
ARC
  5
180
330
1F
100
AcDbEntity
  8
0
  6
CONTINUOUS
 62
     7
100
AcDbCircle
 10
0.4784453305
 20
0.2840934404
 30
0.0
 40
0.00108
100
AcDbArc
 50
180.0
 51
270.0
  0
LINE
  5
181
330
1F
100
AcDbEntity
  8
0
  6
CONTINUOUS
 62
     7
100
AcDbLine
 10
0.4773653305
 20
0.3000934413
 30
0.0
 11
0.4773653305
 21
0.2840934405
 31
0.0
  0
CIRCLE
  5
182
330
1F
100
AcDbEntity
  8
0
  6
CONTINUOUS
 62
     7
100
AcDbCircle
 10
0.4869453305
 20
0.2950934404
 30
0.0
 40
0.00217
  0
LINE
  5
183
330
1F
100
AcDbEntity
  8
0
  6
CONTINUOUS
 62
     7
100
AcDbLine
 10
0.3582050492
 20
0.2974842314
 30
0.0
 11
0.3561727767
 21
0.3010042312
 31
0.0
  0
LINE
  5
184
330
1F
100
AcDbEntity
  8
0
  6
CONTINUOUS
 62
     7
100
AcDbLine
 10
0.3561727767
 20
0.3010042312
 30
0.0
 11
0.3521082307
 21
0.3010042312
 31
0.0
  0
LINE
  5
185
330
1F
100
AcDbEntity
  8
0
  6
CONTINUOUS
 62
     7
100
AcDbLine
 10
0.3521082307
 20
0.3010042312
 30
0.0
 11
0.3500759577
 21
0.2974842314
 31
0.0
  0
LINE
  5
186
330
1F
100
AcDbEntity
  8
0
  6
CONTINUOUS
 62
     7
100
AcDbLine
 10
0.3500759577
 20
0.2974842314
 30
0.0
 11
0.3521082307
 21
0.2939642316
 31
0.0
  0
LINE
  5
187
330
1F
100
AcDbEntity
  8
0
  6
CONTINUOUS
 62
     7
100
AcDbLine
 10
0.3521082307
 20
0.2939642316
 30
0.0
 11
0.3561727767
 21
0.2939642316
 31
0.0
  0
LINE
  5
188
330
1F
100
AcDbEntity
  8
0
  6
CONTINUOUS
 62
     7
100
AcDbLine
 10
0.3561727767
 20
0.2939642316
 30
0.0
 11
0.3582050492
 21
0.2974842314
 31
0.0
  0
ARC
  5
189
330
1F
100
AcDbEntity
  8
0
  6
CONTINUOUS
 62
     7
100
AcDbCircle
 10
0.3456405035
 20
0.3024842313
 30
0.0
 40
0.00108
100
AcDbArc
 50
90.0
 51
180.0
  0
LINE
  5
18A
330
1F
100
AcDbEntity
  8
0
  6
CONTINUOUS
 62
     7
100
AcDbLine
 10
0.3711405032
 20
0.3035642312
 30
0.0
 11
0.3456405036
 21
0.3035642312
 31
0.0
  0
ARC
  5
18B
330
1F
100
AcDbEntity
  8
0
  6
CONTINUOUS
 62
     7
100
AcDbCircle
 10
0.3711405035
 20
0.3024842313
 30
0.0
 40
0.00108
100
AcDbArc
 50
0.0
 51
90.0
  0
LINE
  5
18C
330
1F
100
AcDbEntity
  8
0
  6
CONTINUOUS
 62
     7
100
AcDbLine
 10
0.372220504
 20
0.2864842314
 30
0.0
 11
0.372220504
 21
0.3024842323
 31
0.0
  0
ARC
  5
18D
330
1F
100
AcDbEntity
  8
0
  6
CONTINUOUS
 62
     7
100
AcDbCircle
 10
0.3711405035
 20
0.2864842313
 30
0.0
 40
0.00108
100
AcDbArc
 50
270.0
 51
0.0
  0
LINE
  5
18E
330
1F
100
AcDbEntity
  8
0
  6
CONTINUOUS
 62
     7
100
AcDbLine
 10
0.3456405036
 20
0.2854042313
 30
0.0
 11
0.3711405032
 21
0.2854042313
 31
0.0
  0
ARC
  5
18F
330
1F
100
AcDbEntity
  8
0
  6
CONTINUOUS
 62
     7
100
AcDbCircle
 10
0.3456405035
 20
0.2864842313
 30
0.0
 40
0.00108
100
AcDbArc
 50
180.0
 51
270.0
  0
LINE
  5
190
330
1F
100
AcDbEntity
  8
0
  6
CONTINUOUS
 62
     7
100
AcDbLine
 10
0.3445605035
 20
0.3024842323
 30
0.0
 11
0.3445605035
 21
0.2864842314
 31
0.0
  0
CIRCLE
  5
191
330
1F
100
AcDbEntity
  8
0
  6
CONTINUOUS
 62
     7
100
AcDbCircle
 10
0.3611405035
 20
0.2924842313
 30
0.0
 40
0.00067
  0
CIRCLE
  5
192
330
1F
100
AcDbEntity
  8
0
  6
CONTINUOUS
 62
     7
100
AcDbCircle
 10
0.4078403877
 20
0.3991624837
 30
0.0
 40
0.00142
  0
CIRCLE
  5
193
330
1F
100
AcDbEntity
  8
0
  6
CONTINUOUS
 62
     7
100
AcDbCircle
 10
0.4467312607
 20
0.3602716108
 30
0.0
 40
0.00142
  0
CIRCLE
  5
194
330
1F
100
AcDbEntity
  8
0
  6
CONTINUOUS
 62
     7
100
AcDbCircle
 10
0.3997858242
 20
0.3797170473
 30
0.0
 40
0.0017200000000001
  0
CIRCLE
  5
195
330
1F
100
AcDbEntity
  8
0
  6
CONTINUOUS
 62
     7
100
AcDbCircle
 10
0.4547858242
 20
0.3797170473
 30
0.0
 40
0.00172
  0
CIRCLE
  5
196
330
1F
100
AcDbEntity
  8
0
  6
CONTINUOUS
 62
     7
100
AcDbCircle
 10
0.397726251
 20
0.3159535913
 30
0.0
 40
0.00142
  0
CIRCLE
  5
197
330
1F
100
AcDbEntity
  8
0
  6
CONTINUOUS
 62
     7
100
AcDbCircle
 10
0.4272858242
 20
0.4072170473
 30
0.0
 40
0.00172
  0
CIRCLE
  5
198
330
1F
100
AcDbEntity
  8
0
  6
CONTINUOUS
 62
     7
100
AcDbCircle
 10
0.3814627951
 20
0.3552170473
 30
0.0
 40
0.00117
  0
CIRCLE
  5
199
330
1F
100
AcDbEntity
  8
0
  6
CONTINUOUS
 62
     7
100
AcDbCircle
 10
0.3814627951
 20
0.3322170473
 30
0.0
 40
0.01092
  0
ARC
  5
19A
330
1F
100
AcDbEntity
  8
0
  6
CONTINUOUS
 62
     7
100
AcDbCircle
 10
0.4347858242
 20
0.3047170473
 30
0.0
 40
0.001
100
AcDbArc
 50
355.4114342642
 51
274.5885657358
  0
LINE
  5
19B
330
1F
100
AcDbEntity
  8
0
  6
CONTINUOUS
 62
     7
100
AcDbLine
 10
0.4348658236
 20
0.2836839111
 30
0.0
 11
0.4348658236
 21
0.3037202524
 31
0.0
  0
LINE
  5
19C
330
1F
100
AcDbEntity
  8
0
  6
CONTINUOUS
 62
     7
100
AcDbLine
 10
0.4338189612
 20
0.2826370468
 30
0.0
 11
0.4348658236
 21
0.2836839111
 31
0.0
  0
LINE
  5
19D
330
1F
100
AcDbEntity
  8
0
  6
CONTINUOUS
 62
     7
100
AcDbLine
 10
0.420752688
 20
0.2826370468
 30
0.0
 11
0.4338189612
 21
0.2826370468
 31
0.0
  0
LINE
  5
19E
330
1F
100
AcDbEntity
  8
0
  6
CONTINUOUS
 62
     7
100
AcDbLine
 10
0.4197058255
 20
0.2836839111
 30
0.0
 11
0.420752688
 21
0.2826370468
 31
0.0
  0
LINE
  5
19F
330
1F
100
AcDbEntity
  8
0
  6
CONTINUOUS
 62
     7
100
AcDbLine
 10
0.4197058255
 20
0.3037202524
 30
0.0
 11
0.4197058255
 21
0.2836839111
 31
0.0
  0
ARC
  5
1A0
330
1F
100
AcDbEntity
  8
0
  6
CONTINUOUS
 62
     7
100
AcDbCircle
 10
0.4197858242
 20
0.3047170473
 30
0.0
 40
0.001
100
AcDbArc
 50
265.4114342642
 51
184.5885657358
  0
ARC
  5
1A1
330
1F
100
AcDbEntity
  8
0
  6
CONTINUOUS
 62
     7
100
AcDbCircle
 10
0.4047858242
 20
0.3047170473
 30
0.0
 40
0.001
100
AcDbArc
 50
355.4114342642
 51
274.5885657358
  0
LINE
  5
1A2
330
1F
100
AcDbEntity
  8
0
  6
CONTINUOUS
 62
     7
100
AcDbLine
 10
0.4048658224
 20
0.2836839111
 30
0.0
 11
0.4048658224
 21
0.3037202524
 31
0.0
  0
LINE
  5
1A3
330
1F
100
AcDbEntity
  8
0
  6
CONTINUOUS
 62
     7
100
AcDbLine
 10
0.40381896
 20
0.2826370468
 30
0.0
 11
0.4048658224
 21
0.2836839111
 31
0.0
  0
LINE
  5
1A4
330
1F
100
AcDbEntity
  8
0
  6
CONTINUOUS
 62
     7
100
AcDbLine
 10
0.3907526905
 20
0.2826370468
 30
0.0
 11
0.40381896
 21
0.2826370468
 31
0.0
  0
LINE
  5
1A5
330
1F
100
AcDbEntity
  8
0
  6
CONTINUOUS
 62
     7
100
AcDbLine
 10
0.3897058243
 20
0.2836839111
 30
0.0
 11
0.3907526905
 21
0.2826370468
 31
0.0
  0
LINE
  5
1A6
330
1F
100
AcDbEntity
  8
0
  6
CONTINUOUS
 62
     7
100
AcDbLine
 10
0.3897058243
 20
0.3037202524
 30
0.0
 11
0.3897058243
 21
0.2836839111
 31
0.0
  0
ARC
  5
1A7
330
1F
100
AcDbEntity
  8
0
  6
CONTINUOUS
 62
     7
100
AcDbCircle
 10
0.3897858242
 20
0.3047170473
 30
0.0
 40
0.001
100
AcDbArc
 50
265.4114342642
 51
184.5885657358
  0
LINE
  5
1A8
330
1F
100
AcDbEntity
  8
0
  6
CONTINUOUS
 62
     7
100
AcDbLine
 10
0.3814627925
 20
0.3046370473
 30
0.0
 11
0.3887890304
 21
0.3046370473
 31
0.0
  0
ARC
  5
1A9
330
1F
100
AcDbEntity
  8
0
  6
CONTINUOUS
 62
     7
100
AcDbCircle
 10
0.3814627951
 20
0.3322170473
 30
0.0
 40
0.02758
100
AcDbArc
 50
92.563077492
 51
270.0
  0
ARC
  5
1AA
330
1F
100
AcDbEntity
  8
0
  6
CONTINUOUS
 62
     7
100
AcDbCircle
 10
0.3797858242
 20
0.3696795321
 30
0.0
 40
0.00992
100
AcDbArc
 50
272.563077492
 51
0.0
  0
LINE
  5
1AB
330
1F
100
AcDbEntity
  8
0
  6
CONTINUOUS
 62
     7
100
AcDbLine
 10
0.3897058243
 20
0.3797170502
 30
0.0
 11
0.3897058243
 21
0.3696795312
 31
0.0
  0
ARC
  5
1AC
330
1F
100
AcDbEntity
  8
0
  6
CONTINUOUS
 62
     7
100
AcDbCircle
 10
0.4272858242
 20
0.3797170473
 30
0.0
 40
0.03758
100
AcDbArc
 50
0.0
 51
180.0
  0
LINE
  5
1AD
330
1F
100
AcDbEntity
  8
0
  6
CONTINUOUS
 62
     7
100
AcDbLine
 10
0.4648658242
 20
0.2836839111
 30
0.0
 11
0.4648658242
 21
0.3797170502
 31
0.0
  0
LINE
  5
1AE
330
1F
100
AcDbEntity
  8
0
  6
CONTINUOUS
 62
     7
100
AcDbLine
 10
0.4638189613
 20
0.2826370468
 30
0.0
 11
0.4648658242
 21
0.2836839111
 31
0.0
  0
LINE
  5
1AF
330
1F
100
AcDbEntity
  8
0
  6
CONTINUOUS
 62
     7
100
AcDbLine
 10
0.4507526873
 20
0.2826370468
 30
0.0
 11
0.4638189613
 21
0.2826370468
 31
0.0
  0
LINE
  5
1B0
330
1F
100
AcDbEntity
  8
0
  6
CONTINUOUS
 62
     7
100
AcDbLine
 10
0.4497058239
 20
0.2836839111
 30
0.0
 11
0.4507526873
 21
0.2826370468
 31
0.0
  0
LINE
  5
1B1
330
1F
100
AcDbEntity
  8
0
  6
CONTINUOUS
 62
     7
100
AcDbLine
 10
0.4497058239
 20
0.3037202524
 30
0.0
 11
0.4497058239
 21
0.2836839111
 31
0.0
  0
ARC
  5
1B2
330
1F
100
AcDbEntity
  8
0
  6
CONTINUOUS
 62
     7
100
AcDbCircle
 10
0.4497858242
 20
0.3047170473
 30
0.0
 40
0.001
100
AcDbArc
 50
265.4114342642
 51
184.5885657358
  0
CIRCLE
  5
1B3
330
1F
100
AcDbEntity
  8
0
  6
CONTINUOUS
 62
     7
100
AcDbCircle
 10
0.4272858242
 20
0.3797170473
 30
0.0
 40
0.01642
  0
CIRCLE
  5
1B4
330
1F
100
AcDbEntity
  8
0
  6
CONTINUOUS
 62
     7
100
AcDbCircle
 10
0.397726251
 20
0.3484805032
 30
0.0
 40
0.00142
  0
CIRCLE
  5
1B5
330
1F
100
AcDbEntity
  8
0
  6
CONTINUOUS
 62
     7
100
AcDbCircle
 10
0.4044627951
 20
0.3322170473
 30
0.0
 40
0.00117
  0
CIRCLE
  5
1B6
330
1F
100
AcDbEntity
  8
0
  6
CONTINUOUS
 62
     7
100
AcDbCircle
 10
0.3814627951
 20
0.3092170473
 30
0.0
 40
0.00117
  0
CIRCLE
  5
1B7
330
1F
100
AcDbEntity
  8
0
  6
CONTINUOUS
 62
     7
100
AcDbCircle
 10
0.4272858242
 20
0.3522170473
 30
0.0
 40
0.00172
  0
CIRCLE
  5
1B8
330
1F
100
AcDbEntity
  8
0
  6
CONTINUOUS
 62
     7
100
AcDbCircle
 10
0.4467312607
 20
0.3991624837
 30
0.0
 40
0.00142
  0
CIRCLE
  5
1B9
330
1F
100
AcDbEntity
  8
0
  6
CONTINUOUS
 62
     7
100
AcDbCircle
 10
0.4078403877
 20
0.3602716108
 30
0.0
 40
0.00142
  0
LINE
  5
1BA
330
1F
100
AcDbEntity
  8
0
  6
CONTINUOUS
 62
     7
100
AcDbLine
 10
0.4357826194
 20
0.3046370473
 30
0.0
 11
0.4487890291
 21
0.3046370473
 31
0.0
  0
LINE
  5
1BB
330
1F
100
AcDbEntity
  8
0
  6
CONTINUOUS
 62
     7
100
AcDbLine
 10
0.4057826201
 20
0.3046370473
 30
0.0
 11
0.4187890279
 21
0.3046370473
 31
0.0
  0
CIRCLE
  5
1BC
330
1F
100
AcDbEntity
  8
0
  6
CONTINUOUS
 62
     7
100
AcDbCircle
 10
0.5348052779
 20
0.3970390745
 30
0.0
 40
0.00142
  0
CIRCLE
  5
1BD
330
1F
100
AcDbEntity
  8
0
  6
CONTINUOUS
 62
     7
100
AcDbCircle
 10
0.5736961508
 20
0.3581482016
 30
0.0
 40
0.00142
  0
CIRCLE
  5
1BE
330
1F
100
AcDbEntity
  8
0
  6
CONTINUOUS
 62
     7
100
AcDbCircle
 10
0.5267507143
 20
0.377593638
 30
0.0
 40
0.0017199999999999
  0
CIRCLE
  5
1BF
330
1F
100
AcDbEntity
  8
0
  6
CONTINUOUS
 62
     7
100
AcDbCircle
 10
0.5817507143
 20
0.377593638
 30
0.0
 40
0.0017200000000001
  0
CIRCLE
  5
1C0
330
1F
100
AcDbEntity
  8
0
  6
CONTINUOUS
 62
     7
100
AcDbCircle
 10
0.5246911412
 20
0.3138301821
 30
0.0
 40
0.00142
  0
CIRCLE
  5
1C1
330
1F
100
AcDbEntity
  8
0
  6
CONTINUOUS
 62
     7
100
AcDbCircle
 10
0.5542507143
 20
0.405093638
 30
0.0
 40
0.0017200000000001
  0
CIRCLE
  5
1C2
330
1F
100
AcDbEntity
  8
0
  6
CONTINUOUS
 62
     7
100
AcDbCircle
 10
0.5084276852
 20
0.353093638
 30
0.0
 40
0.00117
  0
CIRCLE
  5
1C3
330
1F
100
AcDbEntity
  8
0
  6
CONTINUOUS
 62
     7
100
AcDbCircle
 10
0.5084276852
 20
0.330093638
 30
0.0
 40
0.0109199999999999
  0
ARC
  5
1C4
330
1F
100
AcDbEntity
  8
0
  6
CONTINUOUS
 62
     7
100
AcDbCircle
 10
0.5617507143
 20
0.302593638
 30
0.0
 40
0.001
100
AcDbArc
 50
355.4114342642
 51
274.5885657358
  0
LINE
  5
1C5
330
1F
100
AcDbEntity
  8
0
  6
CONTINUOUS
 62
     7
100
AcDbLine
 10
0.5618307138
 20
0.2815605019
 30
0.0
 11
0.5618307138
 21
0.3015968431
 31
0.0
  0
LINE
  5
1C6
330
1F
100
AcDbEntity
  8
0
  6
CONTINUOUS
 62
     7
100
AcDbLine
 10
0.5607838513
 20
0.2805136376
 30
0.0
 11
0.5618307138
 21
0.2815605019
 31
0.0
  0
LINE
  5
1C7
330
1F
100
AcDbEntity
  8
0
  6
CONTINUOUS
 62
     7
100
AcDbLine
 10
0.5477175781
 20
0.2805136376
 30
0.0
 11
0.5607838513
 21
0.2805136376
 31
0.0
  0
LINE
  5
1C8
330
1F
100
AcDbEntity
  8
0
  6
CONTINUOUS
 62
     7
100
AcDbLine
 10
0.5466707157
 20
0.2815605019
 30
0.0
 11
0.5477175781
 21
0.2805136376
 31
0.0
  0
LINE
  5
1C9
330
1F
100
AcDbEntity
  8
0
  6
CONTINUOUS
 62
     7
100
AcDbLine
 10
0.5466707157
 20
0.3015968431
 30
0.0
 11
0.5466707157
 21
0.2815605019
 31
0.0
  0
ARC
  5
1CA
330
1F
100
AcDbEntity
  8
0
  6
CONTINUOUS
 62
     7
100
AcDbCircle
 10
0.5467507143
 20
0.302593638
 30
0.0
 40
0.001
100
AcDbArc
 50
265.4114342642
 51
184.5885657358
  0
ARC
  5
1CB
330
1F
100
AcDbEntity
  8
0
  6
CONTINUOUS
 62
     7
100
AcDbCircle
 10
0.5317507143
 20
0.302593638
 30
0.0
 40
0.001
100
AcDbArc
 50
355.4114342642
 51
274.5885657358
  0
LINE
  5
1CC
330
1F
100
AcDbEntity
  8
0
  6
CONTINUOUS
 62
     7
100
AcDbLine
 10
0.5318307126
 20
0.2815605019
 30
0.0
 11
0.5318307126
 21
0.3015968431
 31
0.0
  0
LINE
  5
1CD
330
1F
100
AcDbEntity
  8
0
  6
CONTINUOUS
 62
     7
100
AcDbLine
 10
0.5307838501
 20
0.2805136376
 30
0.0
 11
0.5318307126
 21
0.2815605019
 31
0.0
  0
LINE
  5
1CE
330
1F
100
AcDbEntity
  8
0
  6
CONTINUOUS
 62
     7
100
AcDbLine
 10
0.5177175807
 20
0.2805136376
 30
0.0
 11
0.5307838501
 21
0.2805136376
 31
0.0
  0
LINE
  5
1CF
330
1F
100
AcDbEntity
  8
0
  6
CONTINUOUS
 62
     7
100
AcDbLine
 10
0.5166707145
 20
0.2815605019
 30
0.0
 11
0.5177175807
 21
0.2805136376
 31
0.0
  0
LINE
  5
1D0
330
1F
100
AcDbEntity
  8
0
  6
CONTINUOUS
 62
     7
100
AcDbLine
 10
0.5166707145
 20
0.3015968431
 30
0.0
 11
0.5166707145
 21
0.2815605019
 31
0.0
  0
ARC
  5
1D1
330
1F
100
AcDbEntity
  8
0
  6
CONTINUOUS
 62
     7
100
AcDbCircle
 10
0.5167507143
 20
0.302593638
 30
0.0
 40
0.001
100
AcDbArc
 50
265.4114342642
 51
184.5885657358
  0
LINE
  5
1D2
330
1F
100
AcDbEntity
  8
0
  6
CONTINUOUS
 62
     7
100
AcDbLine
 10
0.5084276827
 20
0.302513638
 30
0.0
 11
0.5157539205
 21
0.302513638
 31
0.0
  0
ARC
  5
1D3
330
1F
100
AcDbEntity
  8
0
  6
CONTINUOUS
 62
     7
100
AcDbCircle
 10
0.5084276852
 20
0.330093638
 30
0.0
 40
0.02758
100
AcDbArc
 50
92.563077492
 51
270.0
  0
ARC
  5
1D4
330
1F
100
AcDbEntity
  8
0
  6
CONTINUOUS
 62
     7
100
AcDbCircle
 10
0.5067507143
 20
0.3675561229
 30
0.0
 40
0.00992
100
AcDbArc
 50
272.563077492
 51
0.0
  0
LINE
  5
1D5
330
1F
100
AcDbEntity
  8
0
  6
CONTINUOUS
 62
     7
100
AcDbLine
 10
0.5166707145
 20
0.377593641
 30
0.0
 11
0.5166707145
 21
0.367556122
 31
0.0
  0
ARC
  5
1D6
330
1F
100
AcDbEntity
  8
0
  6
CONTINUOUS
 62
     7
100
AcDbCircle
 10
0.5542507143
 20
0.377593638
 30
0.0
 40
0.0375800000000001
100
AcDbArc
 50
0.0
 51
180.0
  0
LINE
  5
1D7
330
1F
100
AcDbEntity
  8
0
  6
CONTINUOUS
 62
     7
100
AcDbLine
 10
0.5918307143
 20
0.2815605019
 30
0.0
 11
0.5918307143
 21
0.377593641
 31
0.0
  0
LINE
  5
1D8
330
1F
100
AcDbEntity
  8
0
  6
CONTINUOUS
 62
     7
100
AcDbLine
 10
0.5907838515
 20
0.2805136376
 30
0.0
 11
0.5918307143
 21
0.2815605019
 31
0.0
  0
LINE
  5
1D9
330
1F
100
AcDbEntity
  8
0
  6
CONTINUOUS
 62
     7
100
AcDbLine
 10
0.5777175775
 20
0.2805136376
 30
0.0
 11
0.5907838515
 21
0.2805136376
 31
0.0
  0
LINE
  5
1DA
330
1F
100
AcDbEntity
  8
0
  6
CONTINUOUS
 62
     7
100
AcDbLine
 10
0.5766707141
 20
0.2815605019
 30
0.0
 11
0.5777175775
 21
0.2805136376
 31
0.0
  0
LINE
  5
1DB
330
1F
100
AcDbEntity
  8
0
  6
CONTINUOUS
 62
     7
100
AcDbLine
 10
0.5766707141
 20
0.3015968431
 30
0.0
 11
0.5766707141
 21
0.2815605019
 31
0.0
  0
ARC
  5
1DC
330
1F
100
AcDbEntity
  8
0
  6
CONTINUOUS
 62
     7
100
AcDbCircle
 10
0.5767507143
 20
0.302593638
 30
0.0
 40
0.001
100
AcDbArc
 50
265.4114342642
 51
184.5885657358
  0
CIRCLE
  5
1DD
330
1F
100
AcDbEntity
  8
0
  6
CONTINUOUS
 62
     7
100
AcDbCircle
 10
0.5542507143
 20
0.377593638
 30
0.0
 40
0.01642
  0
CIRCLE
  5
1DE
330
1F
100
AcDbEntity
  8
0
  6
CONTINUOUS
 62
     7
100
AcDbCircle
 10
0.5246911412
 20
0.346357094
 30
0.0
 40
0.00142
  0
CIRCLE
  5
1DF
330
1F
100
AcDbEntity
  8
0
  6
CONTINUOUS
 62
     7
100
AcDbCircle
 10
0.5314276852
 20
0.330093638
 30
0.0
 40
0.00117
  0
CIRCLE
  5
1E0
330
1F
100
AcDbEntity
  8
0
  6
CONTINUOUS
 62
     7
100
AcDbCircle
 10
0.5084276852
 20
0.307093638
 30
0.0
 40
0.00117
  0
CIRCLE
  5
1E1
330
1F
100
AcDbEntity
  8
0
  6
CONTINUOUS
 62
     7
100
AcDbCircle
 10
0.5542507143
 20
0.350093638
 30
0.0
 40
0.0017200000000001
  0
CIRCLE
  5
1E2
330
1F
100
AcDbEntity
  8
0
  6
CONTINUOUS
 62
     7
100
AcDbCircle
 10
0.5736961508
 20
0.3970390745
 30
0.0
 40
0.00142
  0
CIRCLE
  5
1E3
330
1F
100
AcDbEntity
  8
0
  6
CONTINUOUS
 62
     7
100
AcDbCircle
 10
0.5348052779
 20
0.3581482016
 30
0.0
 40
0.0014200000000001
  0
LINE
  5
1E4
330
1F
100
AcDbEntity
  8
0
  6
CONTINUOUS
 62
     7
100
AcDbLine
 10
0.5627475096
 20
0.302513638
 30
0.0
 11
0.5757539192
 21
0.302513638
 31
0.0
  0
LINE
  5
1E5
330
1F
100
AcDbEntity
  8
0
  6
CONTINUOUS
 62
     7
100
AcDbLine
 10
0.5327475102
 20
0.302513638
 30
0.0
 11
0.545753918
 21
0.302513638
 31
0.0
  0
CIRCLE
  5
1E6
330
1F
100
AcDbEntity
  8
0
  6
CONTINUOUS
 62
     7
100
AcDbCircle
 10
0.4117436903
 20
0.2427372628
 30
0.0
 40
0.00172
  0
CIRCLE
  5
1E7
330
1F
100
AcDbEntity
  8
0
  6
CONTINUOUS
 62
     7
100
AcDbCircle
 10
0.4377436903
 20
0.2427372628
 30
0.0
 40
0.00172
  0
CIRCLE
  5
1E8
330
1F
100
AcDbEntity
  8
0
  6
CONTINUOUS
 62
     7
100
AcDbCircle
 10
0.4441891268
 20
0.2232918264
 30
0.0
 40
0.00142
  0
CIRCLE
  5
1E9
330
1F
100
AcDbEntity
  8
0
  6
CONTINUOUS
 62
     7
100
AcDbCircle
 10
0.4247436903
 20
0.2557372628
 30
0.0
 40
0.00172
  0
CIRCLE
  5
1EA
330
1F
100
AcDbEntity
  8
0
  6
CONTINUOUS
 62
     7
100
AcDbCircle
 10
0.4247436903
 20
0.2152372628
 30
0.0
 40
0.00172
  0
CIRCLE
  5
1EB
330
1F
100
AcDbEntity
  8
0
  6
CONTINUOUS
 62
     7
100
AcDbCircle
 10
0.3972436903
 20
0.2427372628
 30
0.0
 40
0.0017199999999999
  0
CIRCLE
  5
1EC
330
1F
100
AcDbEntity
  8
0
  6
CONTINUOUS
 62
     7
100
AcDbCircle
 10
0.3951841172
 20
0.1789738069
 30
0.0
 40
0.00142
  0
CIRCLE
  5
1ED
330
1F
100
AcDbEntity
  8
0
  6
CONTINUOUS
 62
     7
100
AcDbCircle
 10
0.4247436903
 20
0.2702372628
 30
0.0
 40
0.00172
  0
CIRCLE
  5
1EE
330
1F
100
AcDbEntity
  8
0
  6
CONTINUOUS
 62
     7
100
AcDbCircle
 10
0.3789206612
 20
0.2182372628
 30
0.0
 40
0.00117
  0
CIRCLE
  5
1EF
330
1F
100
AcDbEntity
  8
0
  6
CONTINUOUS
 62
     7
100
AcDbCircle
 10
0.3789206612
 20
0.1952372628
 30
0.0
 40
0.00792
  0
LINE
  5
1F0
330
1F
100
AcDbEntity
  8
0
  6
CONTINUOUS
 62
     7
100
AcDbLine
 10
0.4471636901
 20
0.1467041267
 30
0.0
 11
0.4482105535
 21
0.1456572624
 31
0.0
  0
LINE
  5
1F1
330
1F
100
AcDbEntity
  8
0
  6
CONTINUOUS
 62
     7
100
AcDbLine
 10
0.4471636901
 20
0.1667404679
 30
0.0
 11
0.4471636901
 21
0.1467041267
 31
0.0
  0
ARC
  5
1F2
330
1F
100
AcDbEntity
  8
0
  6
CONTINUOUS
 62
     7
100
AcDbCircle
 10
0.4472436903
 20
0.1677372628
 30
0.0
 40
0.001
100
AcDbArc
 50
265.4114342642
 51
184.5885657358
  0
ARC
  5
1F3
330
1F
100
AcDbEntity
  8
0
  6
CONTINUOUS
 62
     7
100
AcDbCircle
 10
0.4322436903
 20
0.1677372628
 30
0.0
 40
0.001
100
AcDbArc
 50
355.4114342642
 51
274.5885657358
  0
LINE
  5
1F4
330
1F
100
AcDbEntity
  8
0
  6
CONTINUOUS
 62
     7
100
AcDbLine
 10
0.4323236898
 20
0.1467041267
 30
0.0
 11
0.4323236898
 21
0.1667404679
 31
0.0
  0
LINE
  5
1F5
330
1F
100
AcDbEntity
  8
0
  6
CONTINUOUS
 62
     7
100
AcDbLine
 10
0.4312768273
 20
0.1456572624
 30
0.0
 11
0.4323236898
 21
0.1467041267
 31
0.0
  0
LINE
  5
1F6
330
1F
100
AcDbEntity
  8
0
  6
CONTINUOUS
 62
     7
100
AcDbLine
 10
0.4182105541
 20
0.1456572624
 30
0.0
 11
0.4312768273
 21
0.1456572624
 31
0.0
  0
LINE
  5
1F7
330
1F
100
AcDbEntity
  8
0
  6
CONTINUOUS
 62
     7
100
AcDbLine
 10
0.4171636917
 20
0.1467041267
 30
0.0
 11
0.4182105541
 21
0.1456572624
 31
0.0
  0
LINE
  5
1F8
330
1F
100
AcDbEntity
  8
0
  6
CONTINUOUS
 62
     7
100
AcDbLine
 10
0.4171636917
 20
0.1667404679
 30
0.0
 11
0.4171636917
 21
0.1467041267
 31
0.0
  0
ARC
  5
1F9
330
1F
100
AcDbEntity
  8
0
  6
CONTINUOUS
 62
     7
100
AcDbCircle
 10
0.4172436903
 20
0.1677372628
 30
0.0
 40
0.001
100
AcDbArc
 50
265.4114342642
 51
184.5885657358
  0
ARC
  5
1FA
330
1F
100
AcDbEntity
  8
0
  6
CONTINUOUS
 62
     7
100
AcDbCircle
 10
0.4022436903
 20
0.1677372628
 30
0.0
 40
0.001
100
AcDbArc
 50
355.4114342642
 51
274.5885657358
  0
LINE
  5
1FB
330
1F
100
AcDbEntity
  8
0
  6
CONTINUOUS
 62
     7
100
AcDbLine
 10
0.4023236886
 20
0.1467041267
 30
0.0
 11
0.4023236886
 21
0.1667404679
 31
0.0
  0
LINE
  5
1FC
330
1F
100
AcDbEntity
  8
0
  6
CONTINUOUS
 62
     7
100
AcDbLine
 10
0.4012768261
 20
0.1456572624
 30
0.0
 11
0.4023236886
 21
0.1467041267
 31
0.0
  0
LINE
  5
1FD
330
1F
100
AcDbEntity
  8
0
  6
CONTINUOUS
 62
     7
100
AcDbLine
 10
0.3882105567
 20
0.1456572624
 30
0.0
 11
0.4012768261
 21
0.1456572624
 31
0.0
  0
LINE
  5
1FE
330
1F
100
AcDbEntity
  8
0
  6
CONTINUOUS
 62
     7
100
AcDbLine
 10
0.3871636905
 20
0.1467041267
 30
0.0
 11
0.3882105567
 21
0.1456572624
 31
0.0
  0
LINE
  5
1FF
330
1F
100
AcDbEntity
  8
0
  6
CONTINUOUS
 62
     7
100
AcDbLine
 10
0.3871636905
 20
0.1667404679
 30
0.0
 11
0.3871636905
 21
0.1467041267
 31
0.0
  0
ARC
  5
200
330
1F
100
AcDbEntity
  8
0
  6
CONTINUOUS
 62
     7
100
AcDbCircle
 10
0.3872436903
 20
0.1677372628
 30
0.0
 40
0.001
100
AcDbArc
 50
265.4114342642
 51
184.5885657358
  0
LINE
  5
201
330
1F
100
AcDbEntity
  8
0
  6
CONTINUOUS
 62
     7
100
AcDbLine
 10
0.3789206587
 20
0.1676572629
 30
0.0
 11
0.3862468965
 21
0.1676572629
 31
0.0
  0
ARC
  5
202
330
1F
100
AcDbEntity
  8
0
  6
CONTINUOUS
 62
     7
100
AcDbCircle
 10
0.3789206612
 20
0.1952372628
 30
0.0
 40
0.02758
100
AcDbArc
 50
92.563077492
 51
270.0
  0
ARC
  5
203
330
1F
100
AcDbEntity
  8
0
  6
CONTINUOUS
 62
     7
100
AcDbCircle
 10
0.3772436903
 20
0.2326997477
 30
0.0
 40
0.00992
100
AcDbArc
 50
272.563077492
 51
0.0
  0
LINE
  5
204
330
1F
100
AcDbEntity
  8
0
  6
CONTINUOUS
 62
     7
100
AcDbLine
 10
0.3871636905
 20
0.2427372658
 30
0.0
 11
0.3871636905
 21
0.2326997468
 31
0.0
  0
ARC
  5
205
330
1F
100
AcDbEntity
  8
0
  6
CONTINUOUS
 62
     7
100
AcDbCircle
 10
0.4247436903
 20
0.2427372628
 30
0.0
 40
0.03758
100
AcDbArc
 50
0.0
 51
180.0
  0
LINE
  5
206
330
1F
100
AcDbEntity
  8
0
  6
CONTINUOUS
 62
     7
100
AcDbLine
 10
0.4623236903
 20
0.1467041267
 30
0.0
 11
0.4623236903
 21
0.2427372658
 31
0.0
  0
LINE
  5
207
330
1F
100
AcDbEntity
  8
0
  6
CONTINUOUS
 62
     7
100
AcDbLine
 10
0.4612768275
 20
0.1456572624
 30
0.0
 11
0.4623236903
 21
0.1467041267
 31
0.0
  0
LINE
  5
208
330
1F
100
AcDbEntity
  8
0
  6
CONTINUOUS
 62
     7
100
AcDbLine
 10
0.4482105535
 20
0.1456572624
 30
0.0
 11
0.4612768275
 21
0.1456572624
 31
0.0
  0
CIRCLE
  5
209
330
1F
100
AcDbEntity
  8
0
  6
CONTINUOUS
 62
     7
100
AcDbCircle
 10
0.4247436903
 20
0.2427372628
 30
0.0
 40
0.00992
  0
CIRCLE
  5
20A
330
1F
100
AcDbEntity
  8
0
  6
CONTINUOUS
 62
     7
100
AcDbCircle
 10
0.3951841172
 20
0.2115007188
 30
0.0
 40
0.00142
  0
CIRCLE
  5
20B
330
1F
100
AcDbEntity
  8
0
  6
CONTINUOUS
 62
     7
100
AcDbCircle
 10
0.4019206612
 20
0.1952372628
 30
0.0
 40
0.00117
  0
CIRCLE
  5
20C
330
1F
100
AcDbEntity
  8
0
  6
CONTINUOUS
 62
     7
100
AcDbCircle
 10
0.3789206612
 20
0.1722372628
 30
0.0
 40
0.00117
  0
CIRCLE
  5
20D
330
1F
100
AcDbEntity
  8
0
  6
CONTINUOUS
 62
     7
100
AcDbCircle
 10
0.4522436903
 20
0.2427372628
 30
0.0
 40
0.00172
  0
CIRCLE
  5
20E
330
1F
100
AcDbEntity
  8
0
  6
CONTINUOUS
 62
     7
100
AcDbCircle
 10
0.4052982539
 20
0.2621826993
 30
0.0
 40
0.00142
  0
CIRCLE
  5
20F
330
1F
100
AcDbEntity
  8
0
  6
CONTINUOUS
 62
     7
100
AcDbCircle
 10
0.4441891268
 20
0.2621826993
 30
0.0
 40
0.00142
  0
CIRCLE
  5
210
330
1F
100
AcDbEntity
  8
0
  6
CONTINUOUS
 62
     7
100
AcDbCircle
 10
0.4052982539
 20
0.2232918264
 30
0.0
 40
0.00142
  0
CIRCLE
  5
211
330
1F
100
AcDbEntity
  8
0
  6
CONTINUOUS
 62
     7
100
AcDbCircle
 10
0.4247436903
 20
0.2297372628
 30
0.0
 40
0.00172
  0
LINE
  5
212
330
1F
100
AcDbEntity
  8
0
  6
CONTINUOUS
 62
     7
100
AcDbLine
 10
0.4332404856
 20
0.1676572629
 30
0.0
 11
0.4462468952
 21
0.1676572629
 31
0.0
  0
LINE
  5
213
330
1F
100
AcDbEntity
  8
0
  6
CONTINUOUS
 62
     7
100
AcDbLine
 10
0.4032404862
 20
0.1676572629
 30
0.0
 11
0.416246894
 21
0.1676572629
 31
0.0
  0
CIRCLE
  5
214
330
1F
100
AcDbEntity
  8
0
  6
CONTINUOUS
 62
     7
100
AcDbCircle
 10
0.5406218824
 20
0.2389769304
 30
0.0
 40
0.0017200000000001
  0
CIRCLE
  5
215
330
1F
100
AcDbEntity
  8
0
  6
CONTINUOUS
 62
     7
100
AcDbCircle
 10
0.5666218824
 20
0.2389769304
 30
0.0
 40
0.0017199999999999
  0
CIRCLE
  5
216
330
1F
100
AcDbEntity
  8
0
  6
CONTINUOUS
 62
     7
100
AcDbCircle
 10
0.5730673189
 20
0.2195314939
 30
0.0
 40
0.00142
  0
CIRCLE
  5
217
330
1F
100
AcDbEntity
  8
0
  6
CONTINUOUS
 62
     7
100
AcDbCircle
 10
0.5536218824
 20
0.2519769304
 30
0.0
 40
0.0017200000000001
  0
CIRCLE
  5
218
330
1F
100
AcDbEntity
  8
0
  6
CONTINUOUS
 62
     7
100
AcDbCircle
 10
0.5536218824
 20
0.2114769304
 30
0.0
 40
0.0017200000000001
  0
CIRCLE
  5
219
330
1F
100
AcDbEntity
  8
0
  6
CONTINUOUS
 62
     7
100
AcDbCircle
 10
0.5261218824
 20
0.2389769304
 30
0.0
 40
0.0017199999999999
  0
CIRCLE
  5
21A
330
1F
100
AcDbEntity
  8
0
  6
CONTINUOUS
 62
     7
100
AcDbCircle
 10
0.5240623093
 20
0.1752134744
 30
0.0
 40
0.00142
  0
CIRCLE
  5
21B
330
1F
100
AcDbEntity
  8
0
  6
CONTINUOUS
 62
     7
100
AcDbCircle
 10
0.5536218824
 20
0.2664769304
 30
0.0
 40
0.0017200000000001
  0
CIRCLE
  5
21C
330
1F
100
AcDbEntity
  8
0
  6
CONTINUOUS
 62
     7
100
AcDbCircle
 10
0.5077988533
 20
0.2144769304
 30
0.0
 40
0.00117
  0
CIRCLE
  5
21D
330
1F
100
AcDbEntity
  8
0
  6
CONTINUOUS
 62
     7
100
AcDbCircle
 10
0.5077988533
 20
0.1914769304
 30
0.0
 40
0.0079199999999999
  0
LINE
  5
21E
330
1F
100
AcDbEntity
  8
0
  6
CONTINUOUS
 62
     7
100
AcDbLine
 10
0.5760418822
 20
0.1429437942
 30
0.0
 11
0.5770887456
 21
0.1418969299
 31
0.0
  0
LINE
  5
21F
330
1F
100
AcDbEntity
  8
0
  6
CONTINUOUS
 62
     7
100
AcDbLine
 10
0.5760418822
 20
0.1629801355
 30
0.0
 11
0.5760418822
 21
0.1429437942
 31
0.0
  0
ARC
  5
220
330
1F
100
AcDbEntity
  8
0
  6
CONTINUOUS
 62
     7
100
AcDbCircle
 10
0.5761218824
 20
0.1639769304
 30
0.0
 40
0.001
100
AcDbArc
 50
265.4114342642
 51
184.5885657358
  0
ARC
  5
221
330
1F
100
AcDbEntity
  8
0
  6
CONTINUOUS
 62
     7
100
AcDbCircle
 10
0.5611218824
 20
0.1639769304
 30
0.0
 40
0.001
100
AcDbArc
 50
355.4114342642
 51
274.5885657358
  0
LINE
  5
222
330
1F
100
AcDbEntity
  8
0
  6
CONTINUOUS
 62
     7
100
AcDbLine
 10
0.5612018819
 20
0.1429437942
 30
0.0
 11
0.5612018819
 21
0.1629801355
 31
0.0
  0
LINE
  5
223
330
1F
100
AcDbEntity
  8
0
  6
CONTINUOUS
 62
     7
100
AcDbLine
 10
0.5601550194
 20
0.1418969299
 30
0.0
 11
0.5612018819
 21
0.1429437942
 31
0.0
  0
LINE
  5
224
330
1F
100
AcDbEntity
  8
0
  6
CONTINUOUS
 62
     7
100
AcDbLine
 10
0.5470887462
 20
0.1418969299
 30
0.0
 11
0.5601550194
 21
0.1418969299
 31
0.0
  0
LINE
  5
225
330
1F
100
AcDbEntity
  8
0
  6
CONTINUOUS
 62
     7
100
AcDbLine
 10
0.5460418838
 20
0.1429437942
 30
0.0
 11
0.5470887462
 21
0.1418969299
 31
0.0
  0
LINE
  5
226
330
1F
100
AcDbEntity
  8
0
  6
CONTINUOUS
 62
     7
100
AcDbLine
 10
0.5460418838
 20
0.1629801355
 30
0.0
 11
0.5460418838
 21
0.1429437942
 31
0.0
  0
ARC
  5
227
330
1F
100
AcDbEntity
  8
0
  6
CONTINUOUS
 62
     7
100
AcDbCircle
 10
0.5461218824
 20
0.1639769304
 30
0.0
 40
0.001
100
AcDbArc
 50
265.4114342642
 51
184.5885657358
  0
ARC
  5
228
330
1F
100
AcDbEntity
  8
0
  6
CONTINUOUS
 62
     7
100
AcDbCircle
 10
0.5311218824
 20
0.1639769304
 30
0.0
 40
0.001
100
AcDbArc
 50
355.4114342642
 51
274.5885657358
  0
LINE
  5
229
330
1F
100
AcDbEntity
  8
0
  6
CONTINUOUS
 62
     7
100
AcDbLine
 10
0.5312018807
 20
0.1429437942
 30
0.0
 11
0.5312018807
 21
0.1629801355
 31
0.0
  0
LINE
  5
22A
330
1F
100
AcDbEntity
  8
0
  6
CONTINUOUS
 62
     7
100
AcDbLine
 10
0.5301550182
 20
0.1418969299
 30
0.0
 11
0.5312018807
 21
0.1429437942
 31
0.0
  0
LINE
  5
22B
330
1F
100
AcDbEntity
  8
0
  6
CONTINUOUS
 62
     7
100
AcDbLine
 10
0.5170887488
 20
0.1418969299
 30
0.0
 11
0.5301550182
 21
0.1418969299
 31
0.0
  0
LINE
  5
22C
330
1F
100
AcDbEntity
  8
0
  6
CONTINUOUS
 62
     7
100
AcDbLine
 10
0.5160418826
 20
0.1429437942
 30
0.0
 11
0.5170887488
 21
0.1418969299
 31
0.0
  0
LINE
  5
22D
330
1F
100
AcDbEntity
  8
0
  6
CONTINUOUS
 62
     7
100
AcDbLine
 10
0.5160418826
 20
0.1629801355
 30
0.0
 11
0.5160418826
 21
0.1429437942
 31
0.0
  0
ARC
  5
22E
330
1F
100
AcDbEntity
  8
0
  6
CONTINUOUS
 62
     7
100
AcDbCircle
 10
0.5161218824
 20
0.1639769304
 30
0.0
 40
0.001
100
AcDbArc
 50
265.4114342642
 51
184.5885657358
  0
LINE
  5
22F
330
1F
100
AcDbEntity
  8
0
  6
CONTINUOUS
 62
     7
100
AcDbLine
 10
0.5077988508
 20
0.1638969304
 30
0.0
 11
0.5151250886
 21
0.1638969304
 31
0.0
  0
ARC
  5
230
330
1F
100
AcDbEntity
  8
0
  6
CONTINUOUS
 62
     7
100
AcDbCircle
 10
0.5077988533
 20
0.1914769304
 30
0.0
 40
0.02758
100
AcDbArc
 50
92.563077492
 51
270.0
  0
ARC
  5
231
330
1F
100
AcDbEntity
  8
0
  6
CONTINUOUS
 62
     7
100
AcDbCircle
 10
0.5061218824
 20
0.2289394152
 30
0.0
 40
0.00992
100
AcDbArc
 50
272.563077492
 51
0.0
  0
LINE
  5
232
330
1F
100
AcDbEntity
  8
0
  6
CONTINUOUS
 62
     7
100
AcDbLine
 10
0.5160418826
 20
0.2389769334
 30
0.0
 11
0.5160418826
 21
0.2289394143
 31
0.0
  0
ARC
  5
233
330
1F
100
AcDbEntity
  8
0
  6
CONTINUOUS
 62
     7
100
AcDbCircle
 10
0.5536218824
 20
0.2389769304
 30
0.0
 40
0.0375800000000001
100
AcDbArc
 50
0.0
 51
180.0
  0
LINE
  5
234
330
1F
100
AcDbEntity
  8
0
  6
CONTINUOUS
 62
     7
100
AcDbLine
 10
0.5912018824
 20
0.1429437942
 30
0.0
 11
0.5912018824
 21
0.2389769334
 31
0.0
  0
LINE
  5
235
330
1F
100
AcDbEntity
  8
0
  6
CONTINUOUS
 62
     7
100
AcDbLine
 10
0.5901550196
 20
0.1418969299
 30
0.0
 11
0.5912018824
 21
0.1429437942
 31
0.0
  0
LINE
  5
236
330
1F
100
AcDbEntity
  8
0
  6
CONTINUOUS
 62
     7
100
AcDbLine
 10
0.5770887456
 20
0.1418969299
 30
0.0
 11
0.5901550196
 21
0.1418969299
 31
0.0
  0
CIRCLE
  5
237
330
1F
100
AcDbEntity
  8
0
  6
CONTINUOUS
 62
     7
100
AcDbCircle
 10
0.5536218824
 20
0.2389769304
 30
0.0
 40
0.00992
  0
CIRCLE
  5
238
330
1F
100
AcDbEntity
  8
0
  6
CONTINUOUS
 62
     7
100
AcDbCircle
 10
0.5240623093
 20
0.2077403863
 30
0.0
 40
0.00142
  0
CIRCLE
  5
239
330
1F
100
AcDbEntity
  8
0
  6
CONTINUOUS
 62
     7
100
AcDbCircle
 10
0.5307988533
 20
0.1914769304
 30
0.0
 40
0.00117
  0
CIRCLE
  5
23A
330
1F
100
AcDbEntity
  8
0
  6
CONTINUOUS
 62
     7
100
AcDbCircle
 10
0.5077988533
 20
0.1684769304
 30
0.0
 40
0.00117
  0
CIRCLE
  5
23B
330
1F
100
AcDbEntity
  8
0
  6
CONTINUOUS
 62
     7
100
AcDbCircle
 10
0.5811218824
 20
0.2389769304
 30
0.0
 40
0.0017200000000001
  0
CIRCLE
  5
23C
330
1F
100
AcDbEntity
  8
0
  6
CONTINUOUS
 62
     7
100
AcDbCircle
 10
0.534176446
 20
0.2584223669
 30
0.0
 40
0.00142
  0
CIRCLE
  5
23D
330
1F
100
AcDbEntity
  8
0
  6
CONTINUOUS
 62
     7
100
AcDbCircle
 10
0.5730673189
 20
0.2584223669
 30
0.0
 40
0.00142
  0
CIRCLE
  5
23E
330
1F
100
AcDbEntity
  8
0
  6
CONTINUOUS
 62
     7
100
AcDbCircle
 10
0.534176446
 20
0.2195314939
 30
0.0
 40
0.00142
  0
CIRCLE
  5
23F
330
1F
100
AcDbEntity
  8
0
  6
CONTINUOUS
 62
     7
100
AcDbCircle
 10
0.5536218824
 20
0.2259769304
 30
0.0
 40
0.0017200000000001
  0
LINE
  5
240
330
1F
100
AcDbEntity
  8
0
  6
CONTINUOUS
 62
     7
100
AcDbLine
 10
0.5621186777
 20
0.1638969304
 30
0.0
 11
0.5751250873
 21
0.1638969304
 31
0.0
  0
LINE
  5
241
330
1F
100
AcDbEntity
  8
0
  6
CONTINUOUS
 62
     7
100
AcDbLine
 10
0.5321186783
 20
0.1638969304
 30
0.0
 11
0.5451250861
 21
0.1638969304
 31
0.0
  0
CIRCLE
  5
242
330
1F
100
AcDbEntity
  8
0
  6
CONTINUOUS
 62
     7
100
AcDbCircle
 10
0.4372612255
 20
0.1011382343
 30
0.0
 40
0.00117
  0
CIRCLE
  5
243
330
1F
100
AcDbEntity
  8
0
  6
CONTINUOUS
 62
     7
100
AcDbCircle
 10
0.4112612255
 20
0.1011382343
 30
0.0
 40
0.00117
  0
CIRCLE
  5
244
330
1F
100
AcDbEntity
  8
0
  6
CONTINUOUS
 62
     7
100
AcDbCircle
 10
0.443706662
 20
0.0816927978
 30
0.0
 40
0.0014200000000003
  0
CIRCLE
  5
245
330
1F
100
AcDbEntity
  8
0
  6
CONTINUOUS
 62
     7
100
AcDbCircle
 10
0.3784381963
 20
0.0306382343
 30
0.0
 40
0.00117
  0
CIRCLE
  5
246
330
1F
100
AcDbEntity
  8
0
  6
CONTINUOUS
 62
     7
100
AcDbCircle
 10
0.4014381963
 20
0.0536382343
 30
0.0
 40
0.00117
  0
CIRCLE
  5
247
330
1F
100
AcDbEntity
  8
0
  6
CONTINUOUS
 62
     7
100
AcDbCircle
 10
0.404815789
 20
0.1205836707
 30
0.0
 40
0.0014199999999996
  0
CIRCLE
  5
248
330
1F
100
AcDbEntity
  8
0
  6
CONTINUOUS
 62
     7
100
AcDbCircle
 10
0.4242612255
 20
0.0736382343
 30
0.0
 40
0.00117
  0
CIRCLE
  5
249
330
1F
100
AcDbEntity
  8
0
  6
CONTINUOUS
 62
     7
100
AcDbCircle
 10
0.4242612255
 20
0.1286382343
 30
0.0
 40
0.00117
  0
CIRCLE
  5
24A
330
1F
100
AcDbEntity
  8
0
  6
CONTINUOUS
 62
     7
100
AcDbCircle
 10
0.3784381963
 20
0.0766382343
 30
0.0
 40
0.00117
  0
CIRCLE
  5
24B
330
1F
100
AcDbEntity
  8
0
  6
CONTINUOUS
 62
     7
100
AcDbCircle
 10
0.3784381963
 20
0.0536382343
 30
0.0
 40
0.01092
  0
ARC
  5
24C
330
1F
100
AcDbEntity
  8
0
  6
CONTINUOUS
 62
     7
100
AcDbCircle
 10
0.4317612255
 20
0.0261382343
 30
0.0
 40
0.001
100
AcDbArc
 50
355.4114342642
 51
274.5885657358
  0
LINE
  5
24D
330
1F
100
AcDbEntity
  8
0
  6
CONTINUOUS
 62
     7
100
AcDbLine
 10
0.4318412249
 20
0.0051050981
 30
0.0
 11
0.4318412249
 21
0.0251414394
 31
0.0
  0
LINE
  5
24E
330
1F
100
AcDbEntity
  8
0
  6
CONTINUOUS
 62
     7
100
AcDbLine
 10
0.4307943624
 20
0.0040582338
 30
0.0
 11
0.4318412249
 21
0.0051050981
 31
0.0
  0
LINE
  5
24F
330
1F
100
AcDbEntity
  8
0
  6
CONTINUOUS
 62
     7
100
AcDbLine
 10
0.4177280893
 20
0.0040582338
 30
0.0
 11
0.4307943624
 21
0.0040582338
 31
0.0
  0
LINE
  5
250
330
1F
100
AcDbEntity
  8
0
  6
CONTINUOUS
 62
     7
100
AcDbLine
 10
0.4166812268
 20
0.0051050981
 30
0.0
 11
0.4177280893
 21
0.0040582338
 31
0.0
  0
LINE
  5
251
330
1F
100
AcDbEntity
  8
0
  6
CONTINUOUS
 62
     7
100
AcDbLine
 10
0.4166812268
 20
0.0251414394
 30
0.0
 11
0.4166812268
 21
0.0051050981
 31
0.0
  0
ARC
  5
252
330
1F
100
AcDbEntity
  8
0
  6
CONTINUOUS
 62
     7
100
AcDbCircle
 10
0.4167612255
 20
0.0261382343
 30
0.0
 40
0.001
100
AcDbArc
 50
265.4114342642
 51
184.5885657358
  0
ARC
  5
253
330
1F
100
AcDbEntity
  8
0
  6
CONTINUOUS
 62
     7
100
AcDbCircle
 10
0.4017612255
 20
0.0261382343
 30
0.0
 40
0.001
100
AcDbArc
 50
355.4114342642
 51
274.5885657358
  0
LINE
  5
254
330
1F
100
AcDbEntity
  8
0
  6
CONTINUOUS
 62
     7
100
AcDbLine
 10
0.4018412237
 20
0.0051050981
 30
0.0
 11
0.4018412237
 21
0.0251414394
 31
0.0
  0
LINE
  5
255
330
1F
100
AcDbEntity
  8
0
  6
CONTINUOUS
 62
     7
100
AcDbLine
 10
0.4007943612
 20
0.0040582338
 30
0.0
 11
0.4018412237
 21
0.0051050981
 31
0.0
  0
LINE
  5
256
330
1F
100
AcDbEntity
  8
0
  6
CONTINUOUS
 62
     7
100
AcDbLine
 10
0.3878412289
 20
0.0040582338
 30
0.0
 11
0.4007943612
 21
0.0040582338
 31
0.0
  0
LINE
  5
257
330
1F
100
AcDbEntity
  8
0
  6
CONTINUOUS
 62
     7
100
AcDbLine
 10
0.3866812256
 20
0.0052182352
 30
0.0
 11
0.3878412289
 21
0.0040582338
 31
0.0
  0
LINE
  5
258
330
1F
100
AcDbEntity
  8
0
  6
CONTINUOUS
 62
     7
100
AcDbLine
 10
0.3866812256
 20
0.0251414394
 30
0.0
 11
0.3866812256
 21
0.0052182352
 31
0.0
  0
ARC
  5
259
330
1F
100
AcDbEntity
  8
0
  6
CONTINUOUS
 62
     7
100
AcDbCircle
 10
0.3867612255
 20
0.0261382343
 30
0.0
 40
0.001
100
AcDbArc
 50
265.4114342642
 51
180.0
  0
LINE
  5
25A
330
1F
100
AcDbEntity
  8
0
  6
CONTINUOUS
 62
     7
100
AcDbLine
 10
0.3763390523
 20
0.0261382343
 30
0.0
 11
0.3857612279
 21
0.0261382343
 31
0.0
  0
ARC
  5
25B
330
1F
100
AcDbEntity
  8
0
  6
CONTINUOUS
 62
     7
100
AcDbCircle
 10
0.3784381963
 20
0.0536382343
 30
0.0
 40
0.02758
100
AcDbArc
 50
92.563077492
 51
265.634936893
  0
ARC
  5
25C
330
1F
100
AcDbEntity
  8
0
  6
CONTINUOUS
 62
     7
100
AcDbCircle
 10
0.3767612255
 20
0.0911007191
 30
0.0
 40
0.00992
100
AcDbArc
 50
272.563077492
 51
0.0
  0
LINE
  5
25D
330
1F
100
AcDbEntity
  8
0
  6
CONTINUOUS
 62
     7
100
AcDbLine
 10
0.3866812256
 20
0.1011382372
 30
0.0
 11
0.3866812256
 21
0.0911007182
 31
0.0
  0
ARC
  5
25E
330
1F
100
AcDbEntity
  8
0
  6
CONTINUOUS
 62
     7
100
AcDbCircle
 10
0.4242612255
 20
0.1011382343
 30
0.0
 40
0.03758
100
AcDbArc
 50
0.0
 51
180.0
  0
LINE
  5
25F
330
1F
100
AcDbEntity
  8
0
  6
CONTINUOUS
 62
     7
100
AcDbLine
 10
0.4618412255
 20
0.0051050981
 30
0.0
 11
0.4618412255
 21
0.1011382372
 31
0.0
  0
LINE
  5
260
330
1F
100
AcDbEntity
  8
0
  6
CONTINUOUS
 62
     7
100
AcDbLine
 10
0.4607943626
 20
0.0040582338
 30
0.0
 11
0.4618412255
 21
0.0051050981
 31
0.0
  0
LINE
  5
261
330
1F
100
AcDbEntity
  8
0
  6
CONTINUOUS
 62
     7
100
AcDbLine
 10
0.4477280886
 20
0.0040582338
 30
0.0
 11
0.4607943626
 21
0.0040582338
 31
0.0
  0
LINE
  5
262
330
1F
100
AcDbEntity
  8
0
  6
CONTINUOUS
 62
     7
100
AcDbLine
 10
0.4466812252
 20
0.0051050981
 30
0.0
 11
0.4477280886
 21
0.0040582338
 31
0.0
  0
LINE
  5
263
330
1F
100
AcDbEntity
  8
0
  6
CONTINUOUS
 62
     7
100
AcDbLine
 10
0.4466812252
 20
0.0251414394
 30
0.0
 11
0.4466812252
 21
0.0051050981
 31
0.0
  0
ARC
  5
264
330
1F
100
AcDbEntity
  8
0
  6
CONTINUOUS
 62
     7
100
AcDbCircle
 10
0.4467612255
 20
0.0261382343
 30
0.0
 40
0.001
100
AcDbArc
 50
265.4114342642
 51
184.5885657358
  0
CIRCLE
  5
265
330
1F
100
AcDbEntity
  8
0
  6
CONTINUOUS
 62
     7
100
AcDbCircle
 10
0.4242612255
 20
0.1011382343
 30
0.0
 40
0.00992
  0
CIRCLE
  5
266
330
1F
100
AcDbEntity
  8
0
  6
CONTINUOUS
 62
     7
100
AcDbCircle
 10
0.3947016523
 20
0.0699016902
 30
0.0
 40
0.00142
  0
CIRCLE
  5
267
330
1F
100
AcDbEntity
  8
0
  6
CONTINUOUS
 62
     7
100
AcDbCircle
 10
0.4517612255
 20
0.1011382343
 30
0.0
 40
0.00117
  0
CIRCLE
  5
268
330
1F
100
AcDbEntity
  8
0
  6
CONTINUOUS
 62
     7
100
AcDbCircle
 10
0.3967612255
 20
0.1011382343
 30
0.0
 40
0.00117
  0
CIRCLE
  5
269
330
1F
100
AcDbEntity
  8
0
  6
CONTINUOUS
 62
     7
100
AcDbCircle
 10
0.4242612255
 20
0.1141382343
 30
0.0
 40
0.00117
  0
CIRCLE
  5
26A
330
1F
100
AcDbEntity
  8
0
  6
CONTINUOUS
 62
     7
100
AcDbCircle
 10
0.3947016523
 20
0.0373747783
 30
0.0
 40
0.00142
  0
CIRCLE
  5
26B
330
1F
100
AcDbEntity
  8
0
  6
CONTINUOUS
 62
     7
100
AcDbCircle
 10
0.443706662
 20
0.1205836707
 30
0.0
 40
0.0014199999999998
  0
CIRCLE
  5
26C
330
1F
100
AcDbEntity
  8
0
  6
CONTINUOUS
 62
     7
100
AcDbCircle
 10
0.404815789
 20
0.0816927978
 30
0.0
 40
0.0014200000000002
  0
CIRCLE
  5
26D
330
1F
100
AcDbEntity
  8
0
  6
CONTINUOUS
 62
     7
100
AcDbCircle
 10
0.4242612255
 20
0.0881382343
 30
0.0
 40
0.00117
  0
LINE
  5
26E
330
1F
100
AcDbEntity
  8
0
  6
CONTINUOUS
 62
     7
100
AcDbLine
 10
0.4327580207
 20
0.0260582343
 30
0.0
 11
0.4457644303
 21
0.0260582343
 31
0.0
  0
LINE
  5
26F
330
1F
100
AcDbEntity
  8
0
  6
CONTINUOUS
 62
     7
100
AcDbLine
 10
0.4027580214
 20
0.0260582343
 30
0.0
 11
0.4157644291
 21
0.0260582343
 31
0.0
  0
CIRCLE
  5
270
330
1F
100
AcDbEntity
  8
0
  6
CONTINUOUS
 62
     7
100
AcDbCircle
 10
0.5664724812
 20
0.1013971538
 30
0.0
 40
0.00117
  0
CIRCLE
  5
271
330
1F
100
AcDbEntity
  8
0
  6
CONTINUOUS
 62
     7
100
AcDbCircle
 10
0.5404724812
 20
0.1013971538
 30
0.0
 40
0.00117
  0
CIRCLE
  5
272
330
1F
100
AcDbEntity
  8
0
  6
CONTINUOUS
 62
     7
100
AcDbCircle
 10
0.5729179177
 20
0.0819517173
 30
0.0
 40
0.0014200000000004
  0
CIRCLE
  5
273
330
1F
100
AcDbEntity
  8
0
  6
CONTINUOUS
 62
     7
100
AcDbCircle
 10
0.507649452
 20
0.0308971538
 30
0.0
 40
0.00117
  0
CIRCLE
  5
274
330
1F
100
AcDbEntity
  8
0
  6
CONTINUOUS
 62
     7
100
AcDbCircle
 10
0.530649452
 20
0.0538971538
 30
0.0
 40
0.00117
  0
CIRCLE
  5
275
330
1F
100
AcDbEntity
  8
0
  6
CONTINUOUS
 62
     7
100
AcDbCircle
 10
0.5340270447
 20
0.1208425903
 30
0.0
 40
0.0014199999999996
  0
CIRCLE
  5
276
330
1F
100
AcDbEntity
  8
0
  6
CONTINUOUS
 62
     7
100
AcDbCircle
 10
0.5534724812
 20
0.0738971538
 30
0.0
 40
0.00117
  0
CIRCLE
  5
277
330
1F
100
AcDbEntity
  8
0
  6
CONTINUOUS
 62
     7
100
AcDbCircle
 10
0.5534724812
 20
0.1288971538
 30
0.0
 40
0.00117
  0
CIRCLE
  5
278
330
1F
100
AcDbEntity
  8
0
  6
CONTINUOUS
 62
     7
100
AcDbCircle
 10
0.507649452
 20
0.0768971538
 30
0.0
 40
0.00117
  0
CIRCLE
  5
279
330
1F
100
AcDbEntity
  8
0
  6
CONTINUOUS
 62
     7
100
AcDbCircle
 10
0.507649452
 20
0.0538971538
 30
0.0
 40
0.0109199999999999
  0
ARC
  5
27A
330
1F
100
AcDbEntity
  8
0
  6
CONTINUOUS
 62
     7
100
AcDbCircle
 10
0.5609724812
 20
0.0263971538
 30
0.0
 40
0.001
100
AcDbArc
 50
355.4114342642
 51
274.5885657358
  0
LINE
  5
27B
330
1F
100
AcDbEntity
  8
0
  6
CONTINUOUS
 62
     7
100
AcDbLine
 10
0.5610524806
 20
0.0053640176
 30
0.0
 11
0.5610524806
 21
0.0254003589
 31
0.0
  0
LINE
  5
27C
330
1F
100
AcDbEntity
  8
0
  6
CONTINUOUS
 62
     7
100
AcDbLine
 10
0.5600056182
 20
0.0043171533
 30
0.0
 11
0.5610524806
 21
0.0053640176
 31
0.0
  0
LINE
  5
27D
330
1F
100
AcDbEntity
  8
0
  6
CONTINUOUS
 62
     7
100
AcDbLine
 10
0.546939345
 20
0.0043171533
 30
0.0
 11
0.5600056182
 21
0.0043171533
 31
0.0
  0
LINE
  5
27E
330
1F
100
AcDbEntity
  8
0
  6
CONTINUOUS
 62
     7
100
AcDbLine
 10
0.5458924825
 20
0.0053640176
 30
0.0
 11
0.546939345
 21
0.0043171533
 31
0.0
  0
LINE
  5
27F
330
1F
100
AcDbEntity
  8
0
  6
CONTINUOUS
 62
     7
100
AcDbLine
 10
0.5458924825
 20
0.0254003589
 30
0.0
 11
0.5458924825
 21
0.0053640176
 31
0.0
  0
ARC
  5
280
330
1F
100
AcDbEntity
  8
0
  6
CONTINUOUS
 62
     7
100
AcDbCircle
 10
0.5459724812
 20
0.0263971538
 30
0.0
 40
0.001
100
AcDbArc
 50
265.4114342642
 51
184.5885657358
  0
ARC
  5
281
330
1F
100
AcDbEntity
  8
0
  6
CONTINUOUS
 62
     7
100
AcDbCircle
 10
0.5309724812
 20
0.0263971538
 30
0.0
 40
0.001
100
AcDbArc
 50
355.4114342642
 51
274.5885657358
  0
LINE
  5
282
330
1F
100
AcDbEntity
  8
0
  6
CONTINUOUS
 62
     7
100
AcDbLine
 10
0.5310524794
 20
0.0053640176
 30
0.0
 11
0.5310524794
 21
0.0254003589
 31
0.0
  0
LINE
  5
283
330
1F
100
AcDbEntity
  8
0
  6
CONTINUOUS
 62
     7
100
AcDbLine
 10
0.530005617
 20
0.0043171533
 30
0.0
 11
0.5310524794
 21
0.0053640176
 31
0.0
  0
LINE
  5
284
330
1F
100
AcDbEntity
  8
0
  6
CONTINUOUS
 62
     7
100
AcDbLine
 10
0.5170524846
 20
0.0043171533
 30
0.0
 11
0.530005617
 21
0.0043171533
 31
0.0
  0
LINE
  5
285
330
1F
100
AcDbEntity
  8
0
  6
CONTINUOUS
 62
     7
100
AcDbLine
 10
0.5158924813
 20
0.0054771547
 30
0.0
 11
0.5170524846
 21
0.0043171533
 31
0.0
  0
LINE
  5
286
330
1F
100
AcDbEntity
  8
0
  6
CONTINUOUS
 62
     7
100
AcDbLine
 10
0.5158924813
 20
0.0254003589
 30
0.0
 11
0.5158924813
 21
0.0054771547
 31
0.0
  0
ARC
  5
287
330
1F
100
AcDbEntity
  8
0
  6
CONTINUOUS
 62
     7
100
AcDbCircle
 10
0.5159724812
 20
0.0263971538
 30
0.0
 40
0.001
100
AcDbArc
 50
265.4114342642
 51
180.0
  0
LINE
  5
288
330
1F
100
AcDbEntity
  8
0
  6
CONTINUOUS
 62
     7
100
AcDbLine
 10
0.505550308
 20
0.0263971538
 30
0.0
 11
0.5149724836
 21
0.0263971538
 31
0.0
  0
ARC
  5
289
330
1F
100
AcDbEntity
  8
0
  6
CONTINUOUS
 62
     7
100
AcDbCircle
 10
0.507649452
 20
0.0538971538
 30
0.0
 40
0.02758
100
AcDbArc
 50
92.563077492
 51
265.634936893
  0
ARC
  5
28A
330
1F
100
AcDbEntity
  8
0
  6
CONTINUOUS
 62
     7
100
AcDbCircle
 10
0.5059724812
 20
0.0913596386
 30
0.0
 40
0.00992
100
AcDbArc
 50
272.563077492
 51
0.0
  0
LINE
  5
28B
330
1F
100
AcDbEntity
  8
0
  6
CONTINUOUS
 62
     7
100
AcDbLine
 10
0.5158924813
 20
0.1013971568
 30
0.0
 11
0.5158924813
 21
0.0913596377
 31
0.0
  0
ARC
  5
28C
330
1F
100
AcDbEntity
  8
0
  6
CONTINUOUS
 62
     7
100
AcDbCircle
 10
0.5534724812
 20
0.1013971538
 30
0.0
 40
0.0375800000000001
100
AcDbArc
 50
0.0
 51
180.0
  0
LINE
  5
28D
330
1F
100
AcDbEntity
  8
0
  6
CONTINUOUS
 62
     7
100
AcDbLine
 10
0.5910524812
 20
0.0053640176
 30
0.0
 11
0.5910524812
 21
0.1013971568
 31
0.0
  0
LINE
  5
28E
330
1F
100
AcDbEntity
  8
0
  6
CONTINUOUS
 62
     7
100
AcDbLine
 10
0.5900056183
 20
0.0043171533
 30
0.0
 11
0.5910524812
 21
0.0053640176
 31
0.0
  0
LINE
  5
28F
330
1F
100
AcDbEntity
  8
0
  6
CONTINUOUS
 62
     7
100
AcDbLine
 10
0.5769393443
 20
0.0043171533
 30
0.0
 11
0.5900056183
 21
0.0043171533
 31
0.0
  0
LINE
  5
290
330
1F
100
AcDbEntity
  8
0
  6
CONTINUOUS
 62
     7
100
AcDbLine
 10
0.5758924809
 20
0.0053640176
 30
0.0
 11
0.5769393443
 21
0.0043171533
 31
0.0
  0
LINE
  5
291
330
1F
100
AcDbEntity
  8
0
  6
CONTINUOUS
 62
     7
100
AcDbLine
 10
0.5758924809
 20
0.0254003589
 30
0.0
 11
0.5758924809
 21
0.0053640176
 31
0.0
  0
ARC
  5
292
330
1F
100
AcDbEntity
  8
0
  6
CONTINUOUS
 62
     7
100
AcDbCircle
 10
0.5759724812
 20
0.0263971538
 30
0.0
 40
0.001
100
AcDbArc
 50
265.4114342642
 51
184.5885657358
  0
CIRCLE
  5
293
330
1F
100
AcDbEntity
  8
0
  6
CONTINUOUS
 62
     7
100
AcDbCircle
 10
0.5534724812
 20
0.1013971538
 30
0.0
 40
0.00992
  0
CIRCLE
  5
294
330
1F
100
AcDbEntity
  8
0
  6
CONTINUOUS
 62
     7
100
AcDbCircle
 10
0.523912908
 20
0.0701606097
 30
0.0
 40
0.00142
  0
CIRCLE
  5
295
330
1F
100
AcDbEntity
  8
0
  6
CONTINUOUS
 62
     7
100
AcDbCircle
 10
0.5809724812
 20
0.1013971538
 30
0.0
 40
0.00117
  0
CIRCLE
  5
296
330
1F
100
AcDbEntity
  8
0
  6
CONTINUOUS
 62
     7
100
AcDbCircle
 10
0.5259724812
 20
0.1013971538
 30
0.0
 40
0.00117
  0
CIRCLE
  5
297
330
1F
100
AcDbEntity
  8
0
  6
CONTINUOUS
 62
     7
100
AcDbCircle
 10
0.5534724812
 20
0.1143971538
 30
0.0
 40
0.00117
  0
CIRCLE
  5
298
330
1F
100
AcDbEntity
  8
0
  6
CONTINUOUS
 62
     7
100
AcDbCircle
 10
0.523912908
 20
0.0376336978
 30
0.0
 40
0.00142
  0
CIRCLE
  5
299
330
1F
100
AcDbEntity
  8
0
  6
CONTINUOUS
 62
     7
100
AcDbCircle
 10
0.5729179177
 20
0.1208425903
 30
0.0
 40
0.0014199999999999
  0
CIRCLE
  5
29A
330
1F
100
AcDbEntity
  8
0
  6
CONTINUOUS
 62
     7
100
AcDbCircle
 10
0.5340270447
 20
0.0819517173
 30
0.0
 40
0.0014200000000001
  0
CIRCLE
  5
29B
330
1F
100
AcDbEntity
  8
0
  6
CONTINUOUS
 62
     7
100
AcDbCircle
 10
0.5534724812
 20
0.0883971538
 30
0.0
 40
0.00117
  0
LINE
  5
29C
330
1F
100
AcDbEntity
  8
0
  6
CONTINUOUS
 62
     7
100
AcDbLine
 10
0.5619692764
 20
0.0263171538
 30
0.0
 11
0.574975686
 21
0.0263171538
 31
0.0
  0
LINE
  5
29D
330
1F
100
AcDbEntity
  8
0
  6
CONTINUOUS
 62
     7
100
AcDbLine
 10
0.5319692771
 20
0.0263171538
 30
0.0
 11
0.5449756848
 21
0.0263171538
 31
0.0
  0
CIRCLE
  5
29E
330
1F
100
AcDbEntity
  8
0
  6
CONTINUOUS
 62
     7
100
AcDbCircle
 10
0.1214793244
 20
0.2355685558
 30
0.0
 40
0.00175
  0
CIRCLE
  5
29F
330
1F
100
AcDbEntity
  8
0
  6
CONTINUOUS
 62
     7
100
AcDbCircle
 10
0.1474793244
 20
0.2355685558
 30
0.0
 40
0.00175
  0
CIRCLE
  5
2A0
330
1F
100
AcDbEntity
  8
0
  6
CONTINUOUS
 62
     7
100
AcDbCircle
 10
0.1344793244
 20
0.2355685558
 30
0.0
 40
0.00395
  0
CIRCLE
  5
2A1
330
1F
100
AcDbEntity
  8
0
  6
CONTINUOUS
 62
     7
100
AcDbCircle
 10
0.1344793244
 20
0.2355685558
 30
0.0
 40
0.01645
  0
CIRCLE
  5
2A2
330
1F
100
AcDbEntity
  8
0
  6
CONTINUOUS
 62
     7
100
AcDbCircle
 10
0.1344793244
 20
0.2485685558
 30
0.0
 40
0.00175
  0
CIRCLE
  5
2A3
330
1F
100
AcDbEntity
  8
0
  6
CONTINUOUS
 62
     7
100
AcDbCircle
 10
0.1344793244
 20
0.2225685558
 30
0.0
 40
0.00175
  0
CIRCLE
  5
2A4
330
1F
100
AcDbEntity
  8
0
  6
CONTINUOUS
 62
     7
100
AcDbCircle
 10
0.0228610611
 20
0.2380704534
 30
0.0
 40
0.00175
  0
CIRCLE
  5
2A5
330
1F
100
AcDbEntity
  8
0
  6
CONTINUOUS
 62
     7
100
AcDbCircle
 10
0.0488610611
 20
0.2380704534
 30
0.0
 40
0.00175
  0
CIRCLE
  5
2A6
330
1F
100
AcDbEntity
  8
0
  6
CONTINUOUS
 62
     7
100
AcDbCircle
 10
0.0358610611
 20
0.2380704534
 30
0.0
 40
0.00395
  0
CIRCLE
  5
2A7
330
1F
100
AcDbEntity
  8
0
  6
CONTINUOUS
 62
     7
100
AcDbCircle
 10
0.0358610611
 20
0.2380704534
 30
0.0
 40
0.01645
  0
CIRCLE
  5
2A8
330
1F
100
AcDbEntity
  8
0
  6
CONTINUOUS
 62
     7
100
AcDbCircle
 10
0.0358610611
 20
0.2510704534
 30
0.0
 40
0.00175
  0
CIRCLE
  5
2A9
330
1F
100
AcDbEntity
  8
0
  6
CONTINUOUS
 62
     7
100
AcDbCircle
 10
0.0358610611
 20
0.2250704534
 30
0.0
 40
0.00175
  0
CIRCLE
  5
2AA
330
1F
100
AcDbEntity
  8
0
  6
CONTINUOUS
 62
     7
100
AcDbCircle
 10
0.3315097054
 20
0.0638048154
 30
0.0
 40
0.00392
  0
CIRCLE
  5
2AB
330
1F
100
AcDbEntity
  8
0
  6
CONTINUOUS
 62
     7
100
AcDbCircle
 10
0.3315097054
 20
0.0638048154
 30
0.0
 40
0.00998
  0
CIRCLE
  5
2AC
330
1F
100
AcDbEntity
  8
0
  6
CONTINUOUS
 62
     7
100
AcDbCircle
 10
0.3323370252
 20
0.019047956
 30
0.0
 40
0.00392
  0
CIRCLE
  5
2AD
330
1F
100
AcDbEntity
  8
0
  6
CONTINUOUS
 62
     7
100
AcDbCircle
 10
0.3323370252
 20
0.019047956
 30
0.0
 40
0.00998
  0
CIRCLE
  5
2AE
330
1F
100
AcDbEntity
  8
0
  6
CONTINUOUS
 62
     7
100
AcDbCircle
 10
0.355424064
 20
0.0190075321
 30
0.0
 40
0.00392
  0
CIRCLE
  5
2AF
330
1F
100
AcDbEntity
  8
0
  6
CONTINUOUS
 62
     7
100
AcDbCircle
 10
0.355424064
 20
0.0190075321
 30
0.0
 40
0.00998
  0
CIRCLE
  5
2B0
330
1F
100
AcDbEntity
  8
0
  6
CONTINUOUS
 62
     7
100
AcDbCircle
 10
0.3320141821
 20
0.0412421915
 30
0.0
 40
0.00392
  0
CIRCLE
  5
2B1
330
1F
100
AcDbEntity
  8
0
  6
CONTINUOUS
 62
     7
100
AcDbCircle
 10
0.3320141821
 20
0.0412421915
 30
0.0
 40
0.00998
  0
CIRCLE
  5
2B2
330
1F
100
AcDbEntity
  8
0
  6
CONTINUOUS
 62
     7
100
AcDbCircle
 10
0.1848991733
 20
0.0231798873
 30
0.0
 40
0.00142
  0
CIRCLE
  5
2B3
330
1F
100
AcDbEntity
  8
0
  6
CONTINUOUS
 62
     7
100
AcDbCircle
 10
0.1456357173
 20
0.0394433433
 30
0.0
 40
0.00167
  0
CIRCLE
  5
2B4
330
1F
100
AcDbEntity
  8
0
  6
CONTINUOUS
 62
     7
100
AcDbCircle
 10
0.1686357173
 20
0.0164433433
 30
0.0
 40
0.00167
  0
ARC
  5
2B5
330
1F
100
AcDbEntity
  8
0
  6
CONTINUOUS
 62
     7
100
AcDbCircle
 10
0.1686357173
 20
0.0394433433
 30
0.0
 40
0.0185
100
AcDbArc
 50
139.5602069084
 51
40.4397930916
  0
ARC
  5
2B6
330
1F
100
AcDbEntity
  8
0
  6
CONTINUOUS
 62
     7
100
AcDbCircle
 10
0.1880476243
 20
0.0488575786
 30
0.0
 40
0.0059257107122558
100
AcDbArc
 50
25.8720959629
 51
154.1279040371
  0
ARC
  5
2B7
330
1F
100
AcDbEntity
  8
0
  6
CONTINUOUS
 62
     7
100
AcDbCircle
 10
0.1686357173
 20
0.0394433433
 30
0.0
 40
0.0275
100
AcDbArc
 50
154.1279040371
 51
25.8720959629
  0
ARC
  5
2B8
330
1F
100
AcDbEntity
  8
0
  6
CONTINUOUS
 62
     7
100
AcDbCircle
 10
0.1492238104
 20
0.0488575786
 30
0.0
 40
0.0059257107122558
100
AcDbArc
 50
25.8720959629
 51
154.1279040371
  0
CIRCLE
  5
2B9
330
1F
100
AcDbEntity
  8
0
  6
CONTINUOUS
 62
     7
100
AcDbCircle
 10
0.1523722614
 20
0.0231798873
 30
0.0
 40
0.00142
  0
CIRCLE
  5
2BA
330
1F
100
AcDbEntity
  8
0
  6
CONTINUOUS
 62
     7
100
AcDbCircle
 10
0.1916357173
 20
0.0394433433
 30
0.0
 40
0.00167
  0
CIRCLE
  5
2BB
330
1F
100
AcDbEntity
  8
0
  6
CONTINUOUS
 62
     7
100
AcDbCircle
 10
0.304671269
 20
0.0239720122
 30
0.0
 40
0.00142
  0
CIRCLE
  5
2BC
330
1F
100
AcDbEntity
  8
0
  6
CONTINUOUS
 62
     7
100
AcDbCircle
 10
0.265407813
 20
0.0402354682
 30
0.0
 40
0.00167
  0
CIRCLE
  5
2BD
330
1F
100
AcDbEntity
  8
0
  6
CONTINUOUS
 62
     7
100
AcDbCircle
 10
0.288407813
 20
0.0172354682
 30
0.0
 40
0.00167
  0
ARC
  5
2BE
330
1F
100
AcDbEntity
  8
0
  6
CONTINUOUS
 62
     7
100
AcDbCircle
 10
0.288407813
 20
0.0402354682
 30
0.0
 40
0.0185
100
AcDbArc
 50
139.5602069084
 51
40.4397930916
  0
ARC
  5
2BF
330
1F
100
AcDbEntity
  8
0
  6
CONTINUOUS
 62
     7
100
AcDbCircle
 10
0.30781972
 20
0.0496497035
 30
0.0
 40
0.0059257107122557
100
AcDbArc
 50
25.8720959629
 51
154.1279040371
  0
ARC
  5
2C0
330
1F
100
AcDbEntity
  8
0
  6
CONTINUOUS
 62
     7
100
AcDbCircle
 10
0.288407813
 20
0.0402354682
 30
0.0
 40
0.0275
100
AcDbArc
 50
154.1279040371
 51
25.8720959629
  0
ARC
  5
2C1
330
1F
100
AcDbEntity
  8
0
  6
CONTINUOUS
 62
     7
100
AcDbCircle
 10
0.2689959061
 20
0.0496497035
 30
0.0
 40
0.0059257107122557
100
AcDbArc
 50
25.8720959629
 51
154.1279040371
  0
CIRCLE
  5
2C2
330
1F
100
AcDbEntity
  8
0
  6
CONTINUOUS
 62
     7
100
AcDbCircle
 10
0.272144357
 20
0.0239720122
 30
0.0
 40
0.00142
  0
CIRCLE
  5
2C3
330
1F
100
AcDbEntity
  8
0
  6
CONTINUOUS
 62
     7
100
AcDbCircle
 10
0.311407813
 20
0.0402354682
 30
0.0
 40
0.00167
  0
CIRCLE
  5
2C4
330
1F
100
AcDbEntity
  8
0
  6
CONTINUOUS
 62
     7
100
AcDbCircle
 10
0.0640644801
 20
0.0263929547
 30
0.0
 40
0.00142
  0
CIRCLE
  5
2C5
330
1F
100
AcDbEntity
  8
0
  6
CONTINUOUS
 62
     7
100
AcDbCircle
 10
0.0248010241
 20
0.0426564106
 30
0.0
 40
0.00167
  0
CIRCLE
  5
2C6
330
1F
100
AcDbEntity
  8
0
  6
CONTINUOUS
 62
     7
100
AcDbCircle
 10
0.0478010241
 20
0.0196564106
 30
0.0
 40
0.00167
  0
ARC
  5
2C7
330
1F
100
AcDbEntity
  8
0
  6
CONTINUOUS
 62
     7
100
AcDbCircle
 10
0.0478010241
 20
0.0426564106
 30
0.0
 40
0.0185
100
AcDbArc
 50
139.5602069084
 51
40.4397930916
  0
ARC
  5
2C8
330
1F
100
AcDbEntity
  8
0
  6
CONTINUOUS
 62
     7
100
AcDbCircle
 10
0.0672129311
 20
0.052070646
 30
0.0
 40
0.0059257107122557
100
AcDbArc
 50
25.8720959629
 51
154.1279040371
  0
ARC
  5
2C9
330
1F
100
AcDbEntity
  8
0
  6
CONTINUOUS
 62
     7
100
AcDbCircle
 10
0.0478010241
 20
0.0426564106
 30
0.0
 40
0.0275
100
AcDbArc
 50
154.1279040371
 51
25.8720959629
  0
ARC
  5
2CA
330
1F
100
AcDbEntity
  8
0
  6
CONTINUOUS
 62
     7
100
AcDbCircle
 10
0.0283891172
 20
0.052070646
 30
0.0
 40
0.0059257107122557
100
AcDbArc
 50
25.8720959629
 51
154.1279040371
  0
CIRCLE
  5
2CB
330
1F
100
AcDbEntity
  8
0
  6
CONTINUOUS
 62
     7
100
AcDbCircle
 10
0.0315375681
 20
0.0263929547
 30
0.0
 40
0.00142
  0
CIRCLE
  5
2CC
330
1F
100
AcDbEntity
  8
0
  6
CONTINUOUS
 62
     7
100
AcDbCircle
 10
0.0708010241
 20
0.0426564106
 30
0.0
 40
0.00167
  0
CIRCLE
  5
2CD
330
1F
100
AcDbEntity
  8
0
  6
CONTINUOUS
 62
     7
100
AcDbCircle
 10
0.1231265694
 20
0.0237211552
 30
0.0
 40
0.00142
  0
CIRCLE
  5
2CE
330
1F
100
AcDbEntity
  8
0
  6
CONTINUOUS
 62
     7
100
AcDbCircle
 10
0.0838631135
 20
0.0399846112
 30
0.0
 40
0.00167
  0
CIRCLE
  5
2CF
330
1F
100
AcDbEntity
  8
0
  6
CONTINUOUS
 62
     7
100
AcDbCircle
 10
0.1068631135
 20
0.0169846112
 30
0.0
 40
0.00167
  0
ARC
  5
2D0
330
1F
100
AcDbEntity
  8
0
  6
CONTINUOUS
 62
     7
100
AcDbCircle
 10
0.1068631135
 20
0.0399846112
 30
0.0
 40
0.0185
100
AcDbArc
 50
139.5602069084
 51
40.4397930916
  0
ARC
  5
2D1
330
1F
100
AcDbEntity
  8
0
  6
CONTINUOUS
 62
     7
100
AcDbCircle
 10
0.1262750204
 20
0.0493988465
 30
0.0
 40
0.0059257107122557
100
AcDbArc
 50
25.8720959629
 51
154.1279040371
  0
ARC
  5
2D2
330
1F
100
AcDbEntity
  8
0
  6
CONTINUOUS
 62
     7
100
AcDbCircle
 10
0.1068631135
 20
0.0399846112
 30
0.0
 40
0.0275
100
AcDbArc
 50
154.1279040371
 51
25.8720959629
  0
ARC
  5
2D3
330
1F
100
AcDbEntity
  8
0
  6
CONTINUOUS
 62
     7
100
AcDbCircle
 10
0.0874512065
 20
0.0493988465
 30
0.0
 40
0.0059257107122558
100
AcDbArc
 50
25.8720959629
 51
154.1279040371
  0
CIRCLE
  5
2D4
330
1F
100
AcDbEntity
  8
0
  6
CONTINUOUS
 62
     7
100
AcDbCircle
 10
0.0905996575
 20
0.0237211552
 30
0.0
 40
0.00142
  0
CIRCLE
  5
2D5
330
1F
100
AcDbEntity
  8
0
  6
CONTINUOUS
 62
     7
100
AcDbCircle
 10
0.1298631135
 20
0.0399846112
 30
0.0
 40
0.00167
  0
CIRCLE
  5
2D6
330
1F
100
AcDbEntity
  8
0
  6
CONTINUOUS
 62
     7
100
AcDbCircle
 10
0.2011041236
 20
0.0698586614
 30
0.0
 40
0.00142
  0
CIRCLE
  5
2D7
330
1F
100
AcDbEntity
  8
0
  6
CONTINUOUS
 62
     7
100
AcDbCircle
 10
0.1618406676
 20
0.0861221174
 30
0.0
 40
0.00167
  0
CIRCLE
  5
2D8
330
1F
100
AcDbEntity
  8
0
  6
CONTINUOUS
 62
     7
100
AcDbCircle
 10
0.1848406676
 20
0.0631221174
 30
0.0
 40
0.00167
  0
ARC
  5
2D9
330
1F
100
AcDbEntity
  8
0
  6
CONTINUOUS
 62
     7
100
AcDbCircle
 10
0.1848406676
 20
0.0861221174
 30
0.0
 40
0.0185
100
AcDbArc
 50
139.5602069084
 51
40.4397930916
  0
ARC
  5
2DA
330
1F
100
AcDbEntity
  8
0
  6
CONTINUOUS
 62
     7
100
AcDbCircle
 10
0.2042525745
 20
0.0955363527
 30
0.0
 40
0.0059257107122558
100
AcDbArc
 50
25.8720959629
 51
154.1279040371
  0
ARC
  5
2DB
330
1F
100
AcDbEntity
  8
0
  6
CONTINUOUS
 62
     7
100
AcDbCircle
 10
0.1848406676
 20
0.0861221174
 30
0.0
 40
0.0275
100
AcDbArc
 50
154.1279040371
 51
25.8720959629
  0
ARC
  5
2DC
330
1F
100
AcDbEntity
  8
0
  6
CONTINUOUS
 62
     7
100
AcDbCircle
 10
0.1654287606
 20
0.0955363527
 30
0.0
 40
0.0059257107122558
100
AcDbArc
 50
25.8720959629
 51
154.1279040371
  0
CIRCLE
  5
2DD
330
1F
100
AcDbEntity
  8
0
  6
CONTINUOUS
 62
     7
100
AcDbCircle
 10
0.1685772116
 20
0.0698586614
 30
0.0
 40
0.00142
  0
CIRCLE
  5
2DE
330
1F
100
AcDbEntity
  8
0
  6
CONTINUOUS
 62
     7
100
AcDbCircle
 10
0.2078406676
 20
0.0861221174
 30
0.0
 40
0.00167
  0
CIRCLE
  5
2DF
330
1F
100
AcDbEntity
  8
0
  6
CONTINUOUS
 62
     7
100
AcDbCircle
 10
0.1969578291
 20
0.193738444
 30
0.0
 40
0.00142
  0
CIRCLE
  5
2E0
330
1F
100
AcDbEntity
  8
0
  6
CONTINUOUS
 62
     7
100
AcDbCircle
 10
0.1576943731
 20
0.2100018999
 30
0.0
 40
0.00167
  0
CIRCLE
  5
2E1
330
1F
100
AcDbEntity
  8
0
  6
CONTINUOUS
 62
     7
100
AcDbCircle
 10
0.1806943731
 20
0.1870018999
 30
0.0
 40
0.00167
  0
ARC
  5
2E2
330
1F
100
AcDbEntity
  8
0
  6
CONTINUOUS
 62
     7
100
AcDbCircle
 10
0.1806943731
 20
0.2100018999
 30
0.0
 40
0.0185
100
AcDbArc
 50
139.5602069084
 51
40.4397930916
  0
ARC
  5
2E3
330
1F
100
AcDbEntity
  8
0
  6
CONTINUOUS
 62
     7
100
AcDbCircle
 10
0.2001062801
 20
0.2194161353
 30
0.0
 40
0.0059257107122558
100
AcDbArc
 50
25.8720959629
 51
154.1279040371
  0
ARC
  5
2E4
330
1F
100
AcDbEntity
  8
0
  6
CONTINUOUS
 62
     7
100
AcDbCircle
 10
0.1806943731
 20
0.2100018999
 30
0.0
 40
0.0275
100
AcDbArc
 50
154.1279040371
 51
25.8720959629
  0
ARC
  5
2E5
330
1F
100
AcDbEntity
  8
0
  6
CONTINUOUS
 62
     7
100
AcDbCircle
 10
0.1612824662
 20
0.2194161353
 30
0.0
 40
0.0059257107122558
100
AcDbArc
 50
25.8720959629
 51
154.1279040371
  0
CIRCLE
  5
2E6
330
1F
100
AcDbEntity
  8
0
  6
CONTINUOUS
 62
     7
100
AcDbCircle
 10
0.1644309172
 20
0.193738444
 30
0.0
 40
0.00142
  0
CIRCLE
  5
2E7
330
1F
100
AcDbEntity
  8
0
  6
CONTINUOUS
 62
     7
100
AcDbCircle
 10
0.2036943731
 20
0.2100018999
 30
0.0
 40
0.00167
  0
CIRCLE
  5
2E8
330
1F
100
AcDbEntity
  8
0
  6
CONTINUOUS
 62
     7
100
AcDbCircle
 10
0.5079260203
 20
0.386058607
 30
0.0
 40
0.0014200000000001
  0
CIRCLE
  5
2E9
330
1F
100
AcDbEntity
  8
0
  6
CONTINUOUS
 62
     7
100
AcDbCircle
 10
0.4686625643
 20
0.402322063
 30
0.0
 40
0.00167
  0
CIRCLE
  5
2EA
330
1F
100
AcDbEntity
  8
0
  6
CONTINUOUS
 62
     7
100
AcDbCircle
 10
0.4916625643
 20
0.379322063
 30
0.0
 40
0.00167
  0
ARC
  5
2EB
330
1F
100
AcDbEntity
  8
0
  6
CONTINUOUS
 62
     7
100
AcDbCircle
 10
0.4916625643
 20
0.402322063
 30
0.0
 40
0.0185
100
AcDbArc
 50
139.5602069084
 51
40.4397930916
  0
ARC
  5
2EC
330
1F
100
AcDbEntity
  8
0
  6
CONTINUOUS
 62
     7
100
AcDbCircle
 10
0.5110744713
 20
0.4117362983
 30
0.0
 40
0.0059257107122558
100
AcDbArc
 50
25.8720959629
 51
154.1279040371
  0
ARC
  5
2ED
330
1F
100
AcDbEntity
  8
0
  6
CONTINUOUS
 62
     7
100
AcDbCircle
 10
0.4916625643
 20
0.402322063
 30
0.0
 40
0.0275
100
AcDbArc
 50
154.1279040371
 51
25.8720959629
  0
ARC
  5
2EE
330
1F
100
AcDbEntity
  8
0
  6
CONTINUOUS
 62
     7
100
AcDbCircle
 10
0.4722506574
 20
0.4117362983
 30
0.0
 40
0.0059257107122557
100
AcDbArc
 50
25.8720959629
 51
154.1279040371
  0
CIRCLE
  5
2EF
330
1F
100
AcDbEntity
  8
0
  6
CONTINUOUS
 62
     7
100
AcDbCircle
 10
0.4753991084
 20
0.386058607
 30
0.0
 40
0.00142
  0
CIRCLE
  5
2F0
330
1F
100
AcDbEntity
  8
0
  6
CONTINUOUS
 62
     7
100
AcDbCircle
 10
0.5146625643
 20
0.402322063
 30
0.0
 40
0.0016700000000001
  0
CIRCLE
  5
2F1
330
1F
100
AcDbEntity
  8
0
  6
CONTINUOUS
 62
     7
100
AcDbCircle
 10
0.1932803622
 20
0.3845508169
 30
0.0
 40
0.00142
  0
CIRCLE
  5
2F2
330
1F
100
AcDbEntity
  8
0
  6
CONTINUOUS
 62
     7
100
AcDbCircle
 10
0.1540169063
 20
0.4008142729
 30
0.0
 40
0.00167
  0
CIRCLE
  5
2F3
330
1F
100
AcDbEntity
  8
0
  6
CONTINUOUS
 62
     7
100
AcDbCircle
 10
0.1770169063
 20
0.3778142729
 30
0.0
 40
0.00167
  0
ARC
  5
2F4
330
1F
100
AcDbEntity
  8
0
  6
CONTINUOUS
 62
     7
100
AcDbCircle
 10
0.1770169063
 20
0.4008142729
 30
0.0
 40
0.0185
100
AcDbArc
 50
139.5602069084
 51
40.4397930916
  0
ARC
  5
2F5
330
1F
100
AcDbEntity
  8
0
  6
CONTINUOUS
 62
     7
100
AcDbCircle
 10
0.1964288132
 20
0.4102285082
 30
0.0
 40
0.0059257107122558
100
AcDbArc
 50
25.8720959629
 51
154.1279040371
  0
ARC
  5
2F6
330
1F
100
AcDbEntity
  8
0
  6
CONTINUOUS
 62
     7
100
AcDbCircle
 10
0.1770169063
 20
0.4008142729
 30
0.0
 40
0.0275
100
AcDbArc
 50
154.1279040371
 51
25.8720959629
  0
ARC
  5
2F7
330
1F
100
AcDbEntity
  8
0
  6
CONTINUOUS
 62
     7
100
AcDbCircle
 10
0.1576049993
 20
0.4102285082
 30
0.0
 40
0.0059257107122558
100
AcDbArc
 50
25.8720959629
 51
154.1279040371
  0
CIRCLE
  5
2F8
330
1F
100
AcDbEntity
  8
0
  6
CONTINUOUS
 62
     7
100
AcDbCircle
 10
0.1607534503
 20
0.3845508169
 30
0.0
 40
0.00142
  0
CIRCLE
  5
2F9
330
1F
100
AcDbEntity
  8
0
  6
CONTINUOUS
 62
     7
100
AcDbCircle
 10
0.2000169063
 20
0.4008142729
 30
0.0
 40
0.00167
  0
CIRCLE
  5
2FA
330
1F
100
AcDbEntity
  8
0
  6
CONTINUOUS
 62
     7
100
AcDbCircle
 10
0.1962622885
 20
0.2352596559
 30
0.0
 40
0.00142
  0
CIRCLE
  5
2FB
330
1F
100
AcDbEntity
  8
0
  6
CONTINUOUS
 62
     7
100
AcDbCircle
 10
0.1569988325
 20
0.2515231118
 30
0.0
 40
0.00167
  0
CIRCLE
  5
2FC
330
1F
100
AcDbEntity
  8
0
  6
CONTINUOUS
 62
     7
100
AcDbCircle
 10
0.1799988325
 20
0.2285231118
 30
0.0
 40
0.00167
  0
ARC
  5
2FD
330
1F
100
AcDbEntity
  8
0
  6
CONTINUOUS
 62
     7
100
AcDbCircle
 10
0.1799988325
 20
0.2515231118
 30
0.0
 40
0.0185
100
AcDbArc
 50
139.5602069084
 51
40.4397930916
  0
ARC
  5
2FE
330
1F
100
AcDbEntity
  8
0
  6
CONTINUOUS
 62
     7
100
AcDbCircle
 10
0.1994107395
 20
0.2609373472
 30
0.0
 40
0.0059257107122558
100
AcDbArc
 50
25.8720959629
 51
154.1279040371
  0
ARC
  5
2FF
330
1F
100
AcDbEntity
  8
0
  6
CONTINUOUS
 62
     7
100
AcDbCircle
 10
0.1799988325
 20
0.2515231118
 30
0.0
 40
0.0275
100
AcDbArc
 50
154.1279040371
 51
25.8720959629
  0
ARC
  5
300
330
1F
100
AcDbEntity
  8
0
  6
CONTINUOUS
 62
     7
100
AcDbCircle
 10
0.1605869256
 20
0.2609373472
 30
0.0
 40
0.0059257107122558
100
AcDbArc
 50
25.8720959629
 51
154.1279040371
  0
CIRCLE
  5
301
330
1F
100
AcDbEntity
  8
0
  6
CONTINUOUS
 62
     7
100
AcDbCircle
 10
0.1637353766
 20
0.2352596559
 30
0.0
 40
0.00142
  0
CIRCLE
  5
302
330
1F
100
AcDbEntity
  8
0
  6
CONTINUOUS
 62
     7
100
AcDbCircle
 10
0.2029988325
 20
0.2515231118
 30
0.0
 40
0.00167
  0
CIRCLE
  5
303
330
1F
100
AcDbEntity
  8
0
  6
CONTINUOUS
 62
     7
100
AcDbCircle
 10
0.506610753
 20
0.2491235206
 30
0.0
 40
0.0014200000000001
  0
CIRCLE
  5
304
330
1F
100
AcDbEntity
  8
0
  6
CONTINUOUS
 62
     7
100
AcDbCircle
 10
0.4673472971
 20
0.2653869766
 30
0.0
 40
0.00167
  0
CIRCLE
  5
305
330
1F
100
AcDbEntity
  8
0
  6
CONTINUOUS
 62
     7
100
AcDbCircle
 10
0.4903472971
 20
0.2423869766
 30
0.0
 40
0.00167
  0
ARC
  5
306
330
1F
100
AcDbEntity
  8
0
  6
CONTINUOUS
 62
     7
100
AcDbCircle
 10
0.4903472971
 20
0.2653869766
 30
0.0
 40
0.0185
100
AcDbArc
 50
139.5602069084
 51
40.4397930916
  0
ARC
  5
307
330
1F
100
AcDbEntity
  8
0
  6
CONTINUOUS
 62
     7
100
AcDbCircle
 10
0.509759204
 20
0.2748012119
 30
0.0
 40
0.0059257107122558
100
AcDbArc
 50
25.8720959629
 51
154.1279040371
  0
ARC
  5
308
330
1F
100
AcDbEntity
  8
0
  6
CONTINUOUS
 62
     7
100
AcDbCircle
 10
0.4903472971
 20
0.2653869766
 30
0.0
 40
0.0275
100
AcDbArc
 50
154.1279040371
 51
25.8720959629
  0
ARC
  5
309
330
1F
100
AcDbEntity
  8
0
  6
CONTINUOUS
 62
     7
100
AcDbCircle
 10
0.4709353901
 20
0.2748012119
 30
0.0
 40
0.0059257107122557
100
AcDbArc
 50
25.8720959629
 51
154.1279040371
  0
CIRCLE
  5
30A
330
1F
100
AcDbEntity
  8
0
  6
CONTINUOUS
 62
     7
100
AcDbCircle
 10
0.4740838411
 20
0.2491235206
 30
0.0
 40
0.00142
  0
CIRCLE
  5
30B
330
1F
100
AcDbEntity
  8
0
  6
CONTINUOUS
 62
     7
100
AcDbCircle
 10
0.5133472971
 20
0.2653869766
 30
0.0
 40
0.0016700000000001
  0
CIRCLE
  5
30C
330
1F
100
AcDbEntity
  8
0
  6
CONTINUOUS
 62
     7
100
AcDbCircle
 10
0.2440649138
 20
0.0228392496
 30
0.0
 40
0.00142
  0
CIRCLE
  5
30D
330
1F
100
AcDbEntity
  8
0
  6
CONTINUOUS
 62
     7
100
AcDbCircle
 10
0.2048014578
 20
0.0391027056
 30
0.0
 40
0.00167
  0
CIRCLE
  5
30E
330
1F
100
AcDbEntity
  8
0
  6
CONTINUOUS
 62
     7
100
AcDbCircle
 10
0.2278014578
 20
0.0161027056
 30
0.0
 40
0.00167
  0
ARC
  5
30F
330
1F
100
AcDbEntity
  8
0
  6
CONTINUOUS
 62
     7
100
AcDbCircle
 10
0.2278014578
 20
0.0391027056
 30
0.0
 40
0.0185
100
AcDbArc
 50
139.5602069084
 51
40.4397930916
  0
ARC
  5
310
330
1F
100
AcDbEntity
  8
0
  6
CONTINUOUS
 62
     7
100
AcDbCircle
 10
0.2472133648
 20
0.0485169409
 30
0.0
 40
0.0059257107122558
100
AcDbArc
 50
25.8720959629
 51
154.1279040371
  0
ARC
  5
311
330
1F
100
AcDbEntity
  8
0
  6
CONTINUOUS
 62
     7
100
AcDbCircle
 10
0.2278014578
 20
0.0391027056
 30
0.0
 40
0.0275
100
AcDbArc
 50
154.1279040371
 51
25.8720959629
  0
ARC
  5
312
330
1F
100
AcDbEntity
  8
0
  6
CONTINUOUS
 62
     7
100
AcDbCircle
 10
0.2083895509
 20
0.0485169409
 30
0.0
 40
0.0059257107122558
100
AcDbArc
 50
25.8720959629
 51
154.1279040371
  0
CIRCLE
  5
313
330
1F
100
AcDbEntity
  8
0
  6
CONTINUOUS
 62
     7
100
AcDbCircle
 10
0.2115380019
 20
0.0228392496
 30
0.0
 40
0.00142
  0
CIRCLE
  5
314
330
1F
100
AcDbEntity
  8
0
  6
CONTINUOUS
 62
     7
100
AcDbCircle
 10
0.2508014578
 20
0.0391027056
 30
0.0
 40
0.00167
  0
CIRCLE
  5
315
330
1F
100
AcDbEntity
  8
0
  6
CONTINUOUS
 62
     7
100
AcDbCircle
 10
0.5036229357
 20
0.1119294457
 30
0.0
 40
0.00142
  0
CIRCLE
  5
316
330
1F
100
AcDbEntity
  8
0
  6
CONTINUOUS
 62
     7
100
AcDbCircle
 10
0.4643594798
 20
0.1281929016
 30
0.0
 40
0.00167
  0
CIRCLE
  5
317
330
1F
100
AcDbEntity
  8
0
  6
CONTINUOUS
 62
     7
100
AcDbCircle
 10
0.4873594798
 20
0.1051929016
 30
0.0
 40
0.00167
  0
ARC
  5
318
330
1F
100
AcDbEntity
  8
0
  6
CONTINUOUS
 62
     7
100
AcDbCircle
 10
0.4873594798
 20
0.1281929016
 30
0.0
 40
0.0185
100
AcDbArc
 50
139.5602069084
 51
40.4397930916
  0
ARC
  5
319
330
1F
100
AcDbEntity
  8
0
  6
CONTINUOUS
 62
     7
100
AcDbCircle
 10
0.5067713867
 20
0.137607137
 30
0.0
 40
0.0059257107122558
100
AcDbArc
 50
25.8720959629
 51
154.1279040371
  0
ARC
  5
31A
330
1F
100
AcDbEntity
  8
0
  6
CONTINUOUS
 62
     7
100
AcDbCircle
 10
0.4873594798
 20
0.1281929016
 30
0.0
 40
0.0275
100
AcDbArc
 50
154.1279040371
 51
25.8720959629
  0
ARC
  5
31B
330
1F
100
AcDbEntity
  8
0
  6
CONTINUOUS
 62
     7
100
AcDbCircle
 10
0.4679475728
 20
0.137607137
 30
0.0
 40
0.0059257107122557
100
AcDbArc
 50
25.8720959629
 51
154.1279040371
  0
CIRCLE
  5
31C
330
1F
100
AcDbEntity
  8
0
  6
CONTINUOUS
 62
     7
100
AcDbCircle
 10
0.4710960238
 20
0.1119294457
 30
0.0
 40
0.00142
  0
CIRCLE
  5
31D
330
1F
100
AcDbEntity
  8
0
  6
CONTINUOUS
 62
     7
100
AcDbCircle
 10
0.5103594798
 20
0.1281929016
 30
0.0
 40
0.0016700000000001
  0
CIRCLE
  5
31E
330
1F
100
AcDbEntity
  8
0
  6
CONTINUOUS
 62
     7
100
AcDbCircle
 10
0.3501557687
 20
0.39351172
 30
0.0
 40
0.00172
  0
CIRCLE
  5
31F
330
1F
100
AcDbEntity
  8
0
  6
CONTINUOUS
 62
     7
100
AcDbCircle
 10
0.3596820481
 20
0.37701172
 30
0.0
 40
0.00172
  0
CIRCLE
  5
320
330
1F
100
AcDbEntity
  8
0
  6
CONTINUOUS
 62
     7
100
AcDbCircle
 10
0.3692083276
 20
0.39351172
 30
0.0
 40
0.00172
  0
CIRCLE
  5
321
330
1F
100
AcDbEntity
  8
0
  6
CONTINUOUS
 62
     7
100
AcDbCircle
 10
0.3366820481
 20
0.38801172
 30
0.0
 40
0.00172
  0
CIRCLE
  5
322
330
1F
100
AcDbEntity
  8
0
  6
CONTINUOUS
 62
     7
100
AcDbCircle
 10
0.3596820481
 20
0.36501172
 30
0.0
 40
0.00172
  0
CIRCLE
  5
323
330
1F
100
AcDbEntity
  8
0
  6
CONTINUOUS
 62
     7
100
AcDbCircle
 10
0.3596820481
 20
0.41101172
 30
0.0
 40
0.00172
  0
CIRCLE
  5
324
330
1F
100
AcDbEntity
  8
0
  6
CONTINUOUS
 62
     7
100
AcDbCircle
 10
0.3596820481
 20
0.38801172
 30
0.0
 40
0.02758
  0
CIRCLE
  5
325
330
1F
100
AcDbEntity
  8
0
  6
CONTINUOUS
 62
     7
100
AcDbCircle
 10
0.3596820481
 20
0.38801172
 30
0.0
 40
0.00792
  0
CIRCLE
  5
326
330
1F
100
AcDbEntity
  8
0
  6
CONTINUOUS
 62
     7
100
AcDbCircle
 10
0.3596820481
 20
0.39901172
 30
0.0
 40
0.00172
  0
CIRCLE
  5
327
330
1F
100
AcDbEntity
  8
0
  6
CONTINUOUS
 62
     7
100
AcDbCircle
 10
0.3434185922
 20
0.371748264
 30
0.0
 40
0.00142
  0
CIRCLE
  5
328
330
1F
100
AcDbEntity
  8
0
  6
CONTINUOUS
 62
     7
100
AcDbCircle
 10
0.3434185922
 20
0.404275176
 30
0.0
 40
0.00142
  0
CIRCLE
  5
329
330
1F
100
AcDbEntity
  8
0
  6
CONTINUOUS
 62
     7
100
AcDbCircle
 10
0.3692083276
 20
0.38251172
 30
0.0
 40
0.00172
  0
CIRCLE
  5
32A
330
1F
100
AcDbEntity
  8
0
  6
CONTINUOUS
 62
     7
100
AcDbCircle
 10
0.3501557687
 20
0.38251172
 30
0.0
 40
0.00172
  0
CIRCLE
  5
32B
330
1F
100
AcDbEntity
  8
0
  6
CONTINUOUS
 62
     7
100
AcDbCircle
 10
0.3465166944
 20
0.2600085137
 30
0.0
 40
0.00172
  0
CIRCLE
  5
32C
330
1F
100
AcDbEntity
  8
0
  6
CONTINUOUS
 62
     7
100
AcDbCircle
 10
0.3560429739
 20
0.2435085137
 30
0.0
 40
0.00172
  0
CIRCLE
  5
32D
330
1F
100
AcDbEntity
  8
0
  6
CONTINUOUS
 62
     7
100
AcDbCircle
 10
0.3655692533
 20
0.2600085137
 30
0.0
 40
0.00172
  0
CIRCLE
  5
32E
330
1F
100
AcDbEntity
  8
0
  6
CONTINUOUS
 62
     7
100
AcDbCircle
 10
0.3330429739
 20
0.2545085137
 30
0.0
 40
0.00172
  0
CIRCLE
  5
32F
330
1F
100
AcDbEntity
  8
0
  6
CONTINUOUS
 62
     7
100
AcDbCircle
 10
0.3560429739
 20
0.2315085137
 30
0.0
 40
0.00172
  0
CIRCLE
  5
330
330
1F
100
AcDbEntity
  8
0
  6
CONTINUOUS
 62
     7
100
AcDbCircle
 10
0.3560429739
 20
0.2775085137
 30
0.0
 40
0.00172
  0
CIRCLE
  5
331
330
1F
100
AcDbEntity
  8
0
  6
CONTINUOUS
 62
     7
100
AcDbCircle
 10
0.3560429739
 20
0.2545085137
 30
0.0
 40
0.02758
  0
CIRCLE
  5
332
330
1F
100
AcDbEntity
  8
0
  6
CONTINUOUS
 62
     7
100
AcDbCircle
 10
0.3560429739
 20
0.2545085137
 30
0.0
 40
0.00792
  0
CIRCLE
  5
333
330
1F
100
AcDbEntity
  8
0
  6
CONTINUOUS
 62
     7
100
AcDbCircle
 10
0.3560429739
 20
0.2655085137
 30
0.0
 40
0.00172
  0
CIRCLE
  5
334
330
1F
100
AcDbEntity
  8
0
  6
CONTINUOUS
 62
     7
100
AcDbCircle
 10
0.3397795179
 20
0.2382450578
 30
0.0
 40
0.00142
  0
CIRCLE
  5
335
330
1F
100
AcDbEntity
  8
0
  6
CONTINUOUS
 62
     7
100
AcDbCircle
 10
0.3397795179
 20
0.2707719697
 30
0.0
 40
0.00142
  0
CIRCLE
  5
336
330
1F
100
AcDbEntity
  8
0
  6
CONTINUOUS
 62
     7
100
AcDbCircle
 10
0.3655692533
 20
0.2490085137
 30
0.0
 40
0.00172
  0
CIRCLE
  5
337
330
1F
100
AcDbEntity
  8
0
  6
CONTINUOUS
 62
     7
100
AcDbCircle
 10
0.3465166944
 20
0.2490085137
 30
0.0
 40
0.00172
  0
MTEXT
  5
339
330
1F
100
AcDbEntity
  8
0
  6
CONTINUOUS
 62
     7
100
AcDbMText
 10
0.0
 20
0.0202653662
 30
0.0
 40
0.007266
 41
0.0
 71
     1
 72
     1
  1
SolidWorks Student Edition.
  7
SLDTEXTSTYLE0
  0
MTEXT
  5
33A
330
1F
100
AcDbEntity
  8
0
  6
CONTINUOUS
 62
     7
100
AcDbMText
 10
0.0
 20
0.0093663662
 30
0.0
 40
0.007266
 41
0.0
 71
     1
 72
     1
  1
For Academic Use Only.
  7
SLDTEXTSTYLE0
  0
ENDSEC
  0
SECTION
  2
OBJECTS
  0
DICTIONARY
  5
C
330
0
100
AcDbDictionary
  3
ACAD_GROUP
350
D
  3
ACAD_MLINESTYLE
350
17
1001
ACAD
1000
TREAT_AS_HARD
1070
     0
  0
DICTIONARY
  5
D
102
{ACAD_REACTORS
330
C
102
}
330
C
100
AcDbDictionary
1001
ACAD
1000
TREAT_AS_HARD
1070
     0
  0
DICTIONARY
  5
17
102
{ACAD_REACTORS
330
C
102
}
330
C
100
AcDbDictionary
  3
STANDARD
350
18
1001
ACAD
1000
TREAT_AS_HARD
1070
     0
  0
MLINESTYLE
  5
18
102
{ACAD_REACTORS
330
17
102
}
330
17
100
AcDbMlineStyle
  2
Standard
 70
     0
  3

 62
   256
 51
90.0
 52
90.0
 71
     2
 49
0.5
 62
   256
  6
BYLAYER
 49
-0.5
 62
   256
  6
BYLAYER
  0
ENDSEC
  0
EOF
