  0
SECTION
  2
HEADER
  9
$ACADVER
  1
AC1012
  9
$DWGCODEPAGE
  3
ansi_1252
  9
$INSBASE
 10
0.0
 20
0.0
 30
0.0
  9
$EXTMIN
 10
0.0
 20
0.0
 30
0.0
  9
$EXTMAX
 10
0.297
 20
0.21
 30
0.0
  9
$LIMMIN
 10
0.0
 20
0.0
  9
$LIMMAX
 10
0.297
 20
0.21
  9
$ORTHOMODE
 70
     0
  9
$REGENMODE
 70
     1
  9
$FILLMODE
 70
     1
  9
$QTEXTMODE
 70
     0
  9
$MIRRTEXT
 70
     1
  9
$DRAGMODE
 70
     2
  9
$LTSCALE
 40
1.0
  9
$OSMODE
 70
    37
  9
$ATTMODE
 70
     1
  9
$TEXTSIZE
 40
0.003175
  9
$TRACEWID
 40
1.0
  9
$TEXTSTYLE
  7
STANDARD
  9
$CLAYER
  8
0
  9
$CELTYPE
  6
BYLAYER
  9
$CECOLOR
 62
   256
  9
$CELTSCALE
 40
1.0
  9
$DELOBJ
 70
     1
  9
$DISPSILH
 70
     0
  9
$DIMSCALE
 40
1.0
  9
$DIMASZ
 40
0.003302
  9
$DIMEXO
 40
0.00127
  9
$DIMDLI
 40
3.75
  9
$DIMRND
 40
0.0
  9
$DIMDLE
 40
0.0
  9
$DIMEXE
 40
0.003175
  9
$DIMTP
 40
0.0
  9
$DIMTM
 40
0.0
  9
$DIMTXT
 40
0.003175
  9
$DIMCEN
 40
2.5
  9
$DIMTSZ
 40
0.0
  9
$DIMTOL
 70
     0
  9
$DIMLIM
 70
     0
  9
$DIMTIH
 70
     1
  9
$DIMTOH
 70
     1
  9
$DIMSE1
 70
     0
  9
$DIMSE2
 70
     0
  9
$DIMTAD
 70
     0
  9
$DIMZIN
 70
     0
  9
$DIMBLK
  1

  9
$DIMASO
 70
     1
  9
$DIMSHO
 70
     1
  9
$DIMPOST
  1

  9
$DIMAPOST
  1

  9
$DIMALT
 70
     0
  9
$DIMALTD
 70
     3
  9
$DIMALTF
 40
39.3700787402
  9
$DIMLFAC
 40
1.0
  9
$DIMTOFL
 70
     1
  9
$DIMTVP
 40
0.0
  9
$DIMTIX
 70
     0
  9
$DIMSOXD
 70
     0
  9
$DIMSAH
 70
     0
  9
$DIMBLK1
  1

  9
$DIMBLK2
  1

  9
$DIMSTYLE
  2
ISO-25
  9
$DIMCLRD
 70
     0
  9
$DIMCLRE
 70
     0
  9
$DIMCLRT
 70
     0
  9
$DIMTFAC
 40
1.0
  9
$DIMGAP
 40
0.001524
  9
$DIMJUST
 70
     0
  9
$DIMSD1
 70
     0
  9
$DIMSD2
 70
     0
  9
$DIMTOLJ
 70
     0
  9
$DIMTZIN
 70
     0
  9
$DIMALTZ
 70
     0
  9
$DIMALTTZ
 70
     0
  9
$DIMFIT
 70
     3
  9
$DIMUPT
 70
     0
  9
$DIMUNIT
 70
     2
  9
$DIMDEC
 70
     3
  9
$DIMTDEC
 70
     3
  9
$DIMALTU
 70
     2
  9
$DIMALTTD
 70
     3
  9
$DIMTXSTY
  7
STANDARD
  9
$DIMAUNIT
 70
     0
  9
$LUNITS
 70
     2
  9
$LUPREC
 70
     2
  9
$SKETCHINC
 40
1.0
  9
$FILLETRAD
 40
10.0
  9
$AUNITS
 70
     0
  9
$AUPREC
 70
     2
  9
$MENU
  1
.
  9
$ELEVATION
 40
0.0
  9
$PELEVATION
 40
0.0
  9
$THICKNESS
 40
0.0
  9
$LIMCHECK
 70
     0
  9
$CHAMFERA
 40
10.0
  9
$CHAMFERB
 40
10.0
  9
$CHAMFERC
 40
20.0
  9
$CHAMFERD
 40
0.0
  9
$SKPOLY
 70
     0
  9
$TDCREATE
 40
2457028.575129676
  9
$TDUPDATE
 40
2457028.575130092
  9
$TDINDWG
 40
0.0000000116
  9
$TDUSRTIMER
 40
0.0000000116
  9
$USRTIMER
 70
     1
  9
$ANGBASE
 50
0.0
  9
$ANGDIR
 70
     0
  9
$PDMODE
 70
     0
  9
$PDSIZE
 40
-1.0
  9
$PLINEWID
 40
0.0
  9
$COORDS
 70
     1
  9
$SPLFRAME
 70
     0
  9
$SPLINETYPE
 70
     6
  9
$SPLINESEGS
 70
     8
  9
$ATTDIA
 70
     0
  9
$ATTREQ
 70
     1
  9
$HANDLING
 70
     1
  9
$HANDSEED
  5
131
  9
$SURFTAB1
 70
     6
  9
$SURFTAB2
 70
     6
  9
$SURFTYPE
 70
     6
  9
$SURFU
 70
     6
  9
$SURFV
 70
     6
  9
$UCSNAME
  2

  9
$UCSORG
 10
0.0
 20
0.0
 30
0.0
  9
$UCSXDIR
 10
1.0
 20
0.0
 30
0.0
  9
$UCSYDIR
 10
0.0
 20
1.0
 30
0.0
  9
$PUCSNAME
  2

  9
$PUCSORG
 10
0.0
 20
0.0
 30
0.0
  9
$PUCSXDIR
 10
1.0
 20
0.0
 30
0.0
  9
$PUCSYDIR
 10
0.0
 20
1.0
 30
0.0
  9
$USERI1
 70
     0
  9
$USERI2
 70
     0
  9
$USERI3
 70
     0
  9
$USERI4
 70
     0
  9
$USERI5
 70
     0
  9
$USERR1
 40
0.0
  9
$USERR2
 40
0.0
  9
$USERR3
 40
0.0
  9
$USERR4
 40
0.0
  9
$USERR5
 40
0.0
  9
$WORLDVIEW
 70
     1
  9
$SHADEDGE
 70
     3
  9
$SHADEDIF
 70
    70
  9
$TILEMODE
 70
     1
  9
$MAXACTVP
 70
    64
  9
$PINSBASE
 10
0.0
 20
0.0
 30
0.0
  9
$PLIMCHECK
 70
     0
  9
$PEXTMIN
 10
1.0000000000E+20
 20
1.0000000000E+20
 30
1.0000000000E+20
  9
$PEXTMAX
 10
-1.0000000000E+20
 20
-1.0000000000E+20
 30
-1.0000000000E+20
  9
$PLIMMIN
 10
0.0
 20
0.0
  9
$PLIMMAX
 10
420.0
 20
297.0
  9
$UNITMODE
 70
     0
  9
$VISRETAIN
 70
     1
  9
$PLINEGEN
 70
     0
  9
$PSLTSCALE
 70
     1
  9
$TREEDEPTH
 70
  3020
  9
$PICKSTYLE
 70
     1
  9
$CMLSTYLE
  2
STANDARD
  9
$CMLJUST
 70
     0
  9
$CMLSCALE
 40
20.0
  9
$SAVEIMAGES
 70
     1
  0
ENDSEC
  0
SECTION
  2
CLASSES
  0
CLASS
  1
ACDBDICTIONARYWDFLT
  2
AcDbDictionaryWithDefault
  3
ObjectDBX Classes
 90
    32768
280
     0
281
     0
  0
CLASS
  1
VISUALSTYLE
  2
AcDbVisualStyle
  3
ObjectDBX Classes
 90
     4095
280
     0
281
     0
  0
CLASS
  1
MATERIAL
  2
AcDbMaterial
  3
ObjectDBX Classes
 90
     1153
280
     0
281
     0
  0
CLASS
  1
XRECORD
  2
AcDbXrecord
  3
AutoCAD 2000
 90
    32768
280
     0
281
     0
  0
ENDSEC
  0
SECTION
  2
TABLES
  0
TABLE
  2
VPORT
  5
8
330
0
100
AcDbSymbolTable
 70
     1
  0
VPORT
  5
29
330
8
100
AcDbSymbolTableRecord
100
AcDbViewportTableRecord
  2
*ACTIVE
 70
     0
 10
0.0
 20
0.0
 11
1.0
 21
1.0
 12
0.1485
 22
0.105
 13
0.0
 23
0.0
 14
10.0
 24
10.0
 15
10.0
 25
10.0
 16
0.0
 26
0.0
 36
1.0
 17
0.0
 27
0.0
 37
0.0
 40
0.21
 41
1.4142857143
 42
50.0
 43
0.0
 44
0.0
 50
0.0
 51
0.0
 71
     0
 72
  2000
 73
     1
 74
     3
 75
     0
 76
     0
 77
     0
 78
     0
  0
ENDTAB
  0
TABLE
  2
LTYPE
  5
5
330
0
100
AcDbSymbolTable
 70
     6
  0
LTYPE
  5
14
330
5
100
AcDbSymbolTableRecord
100
AcDbLinetypeTableRecord
  2
BYBLOCK
 70
     0
  3

 72
    65
 73
     0
 40
0.0
  0
LTYPE
  5
15
330
5
100
AcDbSymbolTableRecord
100
AcDbLinetypeTableRecord
  2
BYLAYER
 70
     0
  3

 72
    65
 73
     0
 40
0.0
  0
LTYPE
  5
16
330
5
100
AcDbSymbolTableRecord
100
AcDbLinetypeTableRecord
  2
CONTINUOUS
 70
     0
  3
Solid line
 72
    65
 73
     0
 40
0.0
  0
LTYPE
  5
3F
330
5
100
AcDbSymbolTableRecord
100
AcDbLinetypeTableRecord
  2
HIDDEN
 70
     0
  3
Hidden __ __ __ __ __ __ __ __ __ __ __ __ __ __
 72
    65
 73
     2
 40
0.001905
 49
0.00127
 74
     0
 49
-0.000635
 74
     0
  0
LTYPE
  5
40
330
5
100
AcDbSymbolTableRecord
100
AcDbLinetypeTableRecord
  2
PHANTOM
 70
     0
  3
Phantom ______  __  __  ______  __  __  ______
 72
    65
 73
     6
 40
0.0127
 49
0.00635
 74
     0
 49
-0.00127
 74
     0
 49
0.00127
 74
     0
 49
-0.00127
 74
     0
 49
0.00127
 74
     0
 49
-0.00127
 74
     0
  0
LTYPE
  5
41
330
5
100
AcDbSymbolTableRecord
100
AcDbLinetypeTableRecord
  2
CENTER
 70
     0
  3
Center ____ _ ____ _ ____ _ ____ _ ____ _ ____
 72
    65
 73
     4
 40
0.01016
 49
0.00635
 74
     0
 49
-0.00127
 74
     0
 49
0.00127
 74
     0
 49
-0.00127
 74
     0
  0
LTYPE
  5
42
330
5
100
AcDbSymbolTableRecord
100
AcDbLinetypeTableRecord
  2
CENTERX2
 70
     0
  3
Center (2x) ________  __  ________  __  _____
 72
    65
 73
     4
 40
0.02032
 49
0.0127
 74
     0
 49
-0.00254
 74
     0
 49
0.00254
 74
     0
 49
-0.00254
 74
     0
  0
LTYPE
  5
43
330
5
100
AcDbSymbolTableRecord
100
AcDbLinetypeTableRecord
  2
DOT2
 70
     0
  3
Dot (.5x) ........................................
 72
    65
 73
     2
 40
0.000635
 49
0.0
 74
     0
 49
-0.000635
 74
     0
  0
ENDTAB
  0
TABLE
  2
LAYER
  5
2
330
0
100
AcDbSymbolTable
 70
     2
  0
LAYER
  5
10
330
2
100
AcDbSymbolTableRecord
100
AcDbLayerTableRecord
  2
0
 70
     0
 62
     7
  6
CONTINUOUS
  0
LAYER
  5
44
330
2
100
AcDbSymbolTableRecord
100
AcDbLayerTableRecord
  2
FORMAT
 70
     0
 62
     7
  6
CONTINUOUS
  0
ENDTAB
  0
TABLE
  2
STYLE
  5
3
330
0
100
AcDbSymbolTable
 70
     2
  0
STYLE
  5
11
330
3
100
AcDbSymbolTableRecord
100
AcDbTextStyleTableRecord
  2
STANDARD
 70
     0
 40
0.0
 41
1.0
 50
0.0
 71
     0
 42
0.003175
  3
txt
  4

  0
STYLE
  5
12E
330
3
100
AcDbSymbolTableRecord
100
AcDbTextStyleTableRecord
  2
SLDTEXTSTYLE0
 70
     0
 40
0.0
 41
0.7
 50
0.0
 71
     0
 42
0.2
  3
TXT
  4

  0
ENDTAB
  0
TABLE
  2
VIEW
  5
6
330
0
100
AcDbSymbolTable
 70
     0
  0
ENDTAB
  0
TABLE
  2
UCS
  5
7
330
0
100
AcDbSymbolTable
 70
     0
  0
ENDTAB
  0
TABLE
  2
APPID
  5
9
330
0
100
AcDbSymbolTable
 70
     1
  0
APPID
  5
12
330
9
100
AcDbSymbolTableRecord
100
AcDbRegAppTableRecord
  2
ACAD
 70
     0
  0
ENDTAB
  0
TABLE
  2
DIMSTYLE
  5
A
330
0
100
AcDbSymbolTable
 70
     1
  0
DIMSTYLE
105
27
330
A
100
AcDbSymbolTableRecord
100
AcDbDimStyleTableRecord
  2
ISO-25
 70
     0
  3

  4

  5

  6

  7

 40
1.0
 41
2.5
 42
0.625
 43
3.75
 44
1.25
 45
0.0
 46
0.0
 47
0.0
 48
0.0
140
2.5
141
2.5
142
0.0
143
0.0393700787
144
1.0
145
0.0
146
1.0
147
0.625
 71
     0
 72
     0
 73
     0
 74
     0
 75
     0
 76
     0
 77
     1
 78
     8
170
     0
171
     3
172
     1
173
     0
174
     0
175
     0
176
     0
177
     0
178
     0
270
     2
271
     2
272
     2
273
     2
274
     3
340
11
275
     0
280
     0
281
     0
282
     0
283
     0
284
     8
285
     0
286
     0
287
     3
288
     0
  0
ENDTAB
  0
TABLE
  2
BLOCK_RECORD
  5
1
330
0
100
AcDbSymbolTable
 70
     1
  0
BLOCK_RECORD
  5
1F
330
1
100
AcDbSymbolTableRecord
100
AcDbBlockTableRecord
  2
*MODEL_SPACE
  0
BLOCK_RECORD
  5
1B
330
1
100
AcDbSymbolTableRecord
100
AcDbBlockTableRecord
  2
*PAPER_SPACE
  0
BLOCK_RECORD
  5
23
330
1
100
AcDbSymbolTableRecord
100
AcDbBlockTableRecord
  2
*PAPER_SPACE0
  0
ENDTAB
  0
ENDSEC
  0
SECTION
  2
BLOCKS
  0
BLOCK
  5
20
330
1F
100
AcDbEntity
  8
0
100
AcDbBlockBegin
  2
*MODEL_SPACE
 70
     0
 10
0.0
 20
0.0
 30
0.0
  3
*MODEL_SPACE
  1

  0
ENDBLK
  5
21
330
1F
100
AcDbEntity
  8
0
100
AcDbBlockEnd
  0
BLOCK
  5
1C
330
1B
100
AcDbEntity
 67
     1
  8
0
100
AcDbBlockBegin
  2
*PAPER_SPACE
 70
     0
 10
0.0
 20
0.0
 30
0.0
  3
*PAPER_SPACE
  1

  0
ENDBLK
  5
1D
330
1B
100
AcDbEntity
 67
     1
  8
0
100
AcDbBlockEnd
  0
BLOCK
  5
24
330
23
100
AcDbEntity
  8
0
100
AcDbBlockBegin
  2
*PAPER_SPACE0
 70
     0
 10
0.0
 20
0.0
 30
0.0
  3
*PAPER_SPACE0
  1

  0
ENDBLK
  5
25
330
23
100
AcDbEntity
  8
0
100
AcDbBlockEnd
  0
ENDSEC
  0
SECTION
  2
ENTITIES
  0
CIRCLE
  5
45
330
1F
100
AcDbEntity
  8
0
  6
CONTINUOUS
 62
     7
100
AcDbCircle
 10
0.0357267819
 20
0.1965925812
 30
0.0
 40
0.00142
  0
CIRCLE
  5
46
330
1F
100
AcDbEntity
  8
0
  6
CONTINUOUS
 62
     7
100
AcDbCircle
 10
0.0145135785
 20
0.1965925812
 30
0.0
 40
0.00142
  0
CIRCLE
  5
47
330
1F
100
AcDbEntity
  8
0
  6
CONTINUOUS
 62
     7
100
AcDbCircle
 10
0.0145135785
 20
0.1753793777
 30
0.0
 40
0.00142
  0
CIRCLE
  5
48
330
1F
100
AcDbEntity
  8
0
  6
CONTINUOUS
 62
     7
100
AcDbCircle
 10
0.0357267819
 20
0.1753793777
 30
0.0
 40
0.00142
  0
CIRCLE
  5
49
330
1F
100
AcDbEntity
  8
0
  6
CONTINUOUS
 62
     7
100
AcDbCircle
 10
0.2407267819
 20
0.1965925812
 30
0.0
 40
0.0014200000000001
  0
CIRCLE
  5
4A
330
1F
100
AcDbEntity
  8
0
  6
CONTINUOUS
 62
     7
100
AcDbCircle
 10
0.2407267819
 20
0.1753793777
 30
0.0
 40
0.00142
  0
CIRCLE
  5
4B
330
1F
100
AcDbEntity
  8
0
  6
CONTINUOUS
 62
     7
100
AcDbCircle
 10
0.0251201802
 20
0.1859859795
 30
0.0
 40
0.00392
  0
LINE
  5
4C
330
1F
100
AcDbEntity
  8
0
  6
CONTINUOUS
 62
     7
100
AcDbLine
 10
0.0251201802
 20
0.1659059793
 30
0.0
 11
0.2301201784
 21
0.1659059793
 31
0.0
  0
ARC
  5
4D
330
1F
100
AcDbEntity
  8
0
  6
CONTINUOUS
 62
     7
100
AcDbCircle
 10
0.0251201802
 20
0.1859859795
 30
0.0
 40
0.02008
100
AcDbArc
 50
90.0
 51
270.0
  0
LINE
  5
4E
330
1F
100
AcDbEntity
  8
0
  6
CONTINUOUS
 62
     7
100
AcDbLine
 10
0.2301201784
 20
0.2060659796
 30
0.0
 11
0.0251201802
 21
0.2060659796
 31
0.0
  0
ARC
  5
4F
330
1F
100
AcDbEntity
  8
0
  6
CONTINUOUS
 62
     7
100
AcDbCircle
 10
0.2301201802
 20
0.1859859795
 30
0.0
 40
0.02008
100
AcDbArc
 50
270.0
 51
90.0
  0
CIRCLE
  5
50
330
1F
100
AcDbEntity
  8
0
  6
CONTINUOUS
 62
     7
100
AcDbCircle
 10
0.2301201802
 20
0.1709859795
 30
0.0
 40
0.00167
  0
CIRCLE
  5
51
330
1F
100
AcDbEntity
  8
0
  6
CONTINUOUS
 62
     7
100
AcDbCircle
 10
0.2301201802
 20
0.2009859795
 30
0.0
 40
0.0016700000000001
  0
CIRCLE
  5
52
330
1F
100
AcDbEntity
  8
0
  6
CONTINUOUS
 62
     7
100
AcDbCircle
 10
0.0251201802
 20
0.1709859795
 30
0.0
 40
0.00167
  0
CIRCLE
  5
53
330
1F
100
AcDbEntity
  8
0
  6
CONTINUOUS
 62
     7
100
AcDbCircle
 10
0.0101201802
 20
0.1859859795
 30
0.0
 40
0.00167
  0
CIRCLE
  5
54
330
1F
100
AcDbEntity
  8
0
  6
CONTINUOUS
 62
     7
100
AcDbCircle
 10
0.0251201802
 20
0.2009859795
 30
0.0
 40
0.00167
  0
CIRCLE
  5
55
330
1F
100
AcDbEntity
  8
0
  6
CONTINUOUS
 62
     7
100
AcDbCircle
 10
0.0401201802
 20
0.1859859795
 30
0.0
 40
0.00167
  0
ARC
  5
56
330
1F
100
AcDbEntity
  8
0
  6
CONTINUOUS
 62
     7
100
AcDbCircle
 10
0.0739876937
 20
0.1979859795
 30
0.0
 40
0.00192
100
AcDbArc
 50
330.0
 51
90.0
  0
LINE
  5
57
330
1F
100
AcDbEntity
  8
0
  6
CONTINUOUS
 62
     7
100
AcDbLine
 10
0.0739876927
 20
0.1999059793
 30
0.0
 11
0.0485842825
 21
0.1999059793
 31
0.0
  0
ARC
  5
58
330
1F
100
AcDbEntity
  8
0
  6
CONTINUOUS
 62
     7
100
AcDbCircle
 10
0.0485842818
 20
0.1979859795
 30
0.0
 40
0.00192
100
AcDbArc
 50
90.0
 51
210.0
  0
LINE
  5
59
330
1F
100
AcDbEntity
  8
0
  6
CONTINUOUS
 62
     7
100
AcDbLine
 10
0.0469215122
 20
0.1970259797
 30
0.0
 11
0.0596232192
 21
0.1750259798
 31
0.0
  0
ARC
  5
5A
330
1F
100
AcDbEntity
  8
0
  6
CONTINUOUS
 62
     7
100
AcDbCircle
 10
0.0612859878
 20
0.1759859795
 30
0.0
 40
0.00192
100
AcDbArc
 50
210.0
 51
330.0
  0
LINE
  5
5B
330
1F
100
AcDbEntity
  8
0
  6
CONTINUOUS
 62
     7
100
AcDbLine
 10
0.062948756
 20
0.1750259798
 30
0.0
 11
0.0756504611
 21
0.1970259797
 31
0.0
  0
ARC
  5
5C
330
1F
100
AcDbEntity
  8
0
  6
CONTINUOUS
 62
     7
100
AcDbCircle
 10
0.0843799985
 20
0.1959859795
 30
0.0
 40
0.00192
100
AcDbArc
 50
30.0
 51
150.0
  0
LINE
  5
5D
330
1F
100
AcDbEntity
  8
0
  6
CONTINUOUS
 62
     7
100
AcDbLine
 10
0.0827172288
 20
0.1969459791
 30
0.0
 11
0.0700155237
 21
0.1749459792
 31
0.0
  0
ARC
  5
5E
330
1F
100
AcDbEntity
  8
0
  6
CONTINUOUS
 62
     7
100
AcDbCircle
 10
0.0716782926
 20
0.1739859795
 30
0.0
 40
0.00192
100
AcDbArc
 50
150.0
 51
270.0
  0
LINE
  5
5F
330
1F
100
AcDbEntity
  8
0
  6
CONTINUOUS
 62
     7
100
AcDbLine
 10
0.0716782921
 20
0.1720659796
 30
0.0
 11
0.0970817023
 21
0.1720659796
 31
0.0
  0
ARC
  5
60
330
1F
100
AcDbEntity
  8
0
  6
CONTINUOUS
 62
     7
100
AcDbCircle
 10
0.0970817045
 20
0.1739859795
 30
0.0
 40
0.00192
100
AcDbArc
 50
270.0
 51
30.0
  0
LINE
  5
61
330
1F
100
AcDbEntity
  8
0
  6
CONTINUOUS
 62
     7
100
AcDbLine
 10
0.0987444708
 20
0.1749459792
 30
0.0
 11
0.0860427657
 21
0.1969459791
 31
0.0
  0
ARC
  5
62
330
1F
100
AcDbEntity
  8
0
  6
CONTINUOUS
 62
     7
100
AcDbCircle
 10
0.1074740093
 20
0.1759859795
 30
0.0
 40
0.00192
100
AcDbArc
 50
210.0
 51
330.0
  0
LINE
  5
63
330
1F
100
AcDbEntity
  8
0
  6
CONTINUOUS
 62
     7
100
AcDbLine
 10
0.109136779
 20
0.1750259798
 30
0.0
 11
0.1218384841
 21
0.1970259797
 31
0.0
  0
ARC
  5
64
330
1F
100
AcDbEntity
  8
0
  6
CONTINUOUS
 62
     7
100
AcDbCircle
 10
0.1201757152
 20
0.1979859795
 30
0.0
 40
0.00192
100
AcDbArc
 50
330.0
 51
90.0
  0
LINE
  5
65
330
1F
100
AcDbEntity
  8
0
  6
CONTINUOUS
 62
     7
100
AcDbLine
 10
0.1201757157
 20
0.1999059793
 30
0.0
 11
0.0947723055
 21
0.1999059793
 31
0.0
  0
ARC
  5
66
330
1F
100
AcDbEntity
  8
0
  6
CONTINUOUS
 62
     7
100
AcDbCircle
 10
0.0947723034
 20
0.1979859795
 30
0.0
 40
0.00192
100
AcDbArc
 50
90.0
 51
210.0
  0
LINE
  5
67
330
1F
100
AcDbEntity
  8
0
  6
CONTINUOUS
 62
     7
100
AcDbLine
 10
0.093109537
 20
0.1970259797
 30
0.0
 11
0.1058112421
 21
0.1750259798
 31
0.0
  0
ARC
  5
68
330
1F
100
AcDbEntity
  8
0
  6
CONTINUOUS
 62
     7
100
AcDbCircle
 10
0.1305680201
 20
0.1959859795
 30
0.0
 40
0.00192
100
AcDbArc
 50
30.0
 51
150.0
  0
LINE
  5
69
330
1F
100
AcDbEntity
  8
0
  6
CONTINUOUS
 62
     7
100
AcDbLine
 10
0.128905248
 20
0.1969459791
 30
0.0
 11
0.1162035429
 21
0.1749459792
 31
0.0
  0
ARC
  5
6A
330
1F
100
AcDbEntity
  8
0
  6
CONTINUOUS
 62
     7
100
AcDbCircle
 10
0.1178663141
 20
0.1739859795
 30
0.0
 40
0.00192
100
AcDbArc
 50
150.0
 51
270.0
  0
LINE
  5
6B
330
1F
100
AcDbEntity
  8
0
  6
CONTINUOUS
 62
     7
100
AcDbLine
 10
0.1178663113
 20
0.1720659796
 30
0.0
 11
0.143269729
 21
0.1720659796
 31
0.0
  0
ARC
  5
6C
330
1F
100
AcDbEntity
  8
0
  6
CONTINUOUS
 62
     7
100
AcDbCircle
 10
0.143269726
 20
0.1739859795
 30
0.0
 40
0.00192
100
AcDbArc
 50
270.0
 51
30.0
  0
LINE
  5
6D
330
1F
100
AcDbEntity
  8
0
  6
CONTINUOUS
 62
     7
100
AcDbLine
 10
0.1449324974
 20
0.1749459792
 30
0.0
 11
0.1322307923
 21
0.1969459791
 31
0.0
  0
ARC
  5
6E
330
1F
100
AcDbEntity
  8
0
  6
CONTINUOUS
 62
     7
100
AcDbCircle
 10
0.1536620308
 20
0.1759859795
 30
0.0
 40
0.00192
100
AcDbArc
 50
210.0
 51
330.0
  0
LINE
  5
6F
330
1F
100
AcDbEntity
  8
0
  6
CONTINUOUS
 62
     7
100
AcDbLine
 10
0.1553247982
 20
0.1750259798
 30
0.0
 11
0.1680265033
 21
0.1970259797
 31
0.0
  0
ARC
  5
70
330
1F
100
AcDbEntity
  8
0
  6
CONTINUOUS
 62
     7
100
AcDbCircle
 10
0.1663637368
 20
0.1979859795
 30
0.0
 40
0.00192
100
AcDbArc
 50
330.0
 51
90.0
  0
LINE
  5
71
330
1F
100
AcDbEntity
  8
0
  6
CONTINUOUS
 62
     7
100
AcDbLine
 10
0.1663637423
 20
0.1999059793
 30
0.0
 11
0.1409603247
 21
0.1999059793
 31
0.0
  0
ARC
  5
72
330
1F
100
AcDbEntity
  8
0
  6
CONTINUOUS
 62
     7
100
AcDbCircle
 10
0.1409603249
 20
0.1979859795
 30
0.0
 40
0.00192
100
AcDbArc
 50
90.0
 51
210.0
  0
LINE
  5
73
330
1F
100
AcDbEntity
  8
0
  6
CONTINUOUS
 62
     7
100
AcDbLine
 10
0.1392975563
 20
0.1970259797
 30
0.0
 11
0.1519992614
 21
0.1750259798
 31
0.0
  0
ARC
  5
74
330
1F
100
AcDbEntity
  8
0
  6
CONTINUOUS
 62
     7
100
AcDbCircle
 10
0.0471201802
 20
0.1739859795
 30
0.0
 40
0.00192
100
AcDbArc
 50
180.0
 51
270.0
  0
LINE
  5
75
330
1F
100
AcDbEntity
  8
0
  6
CONTINUOUS
 62
     7
100
AcDbLine
 10
0.0471201801
 20
0.1720659796
 30
0.0
 11
0.0508936831
 21
0.1720659796
 31
0.0
  0
ARC
  5
76
330
1F
100
AcDbEntity
  8
0
  6
CONTINUOUS
 62
     7
100
AcDbCircle
 10
0.0508936829
 20
0.1739859795
 30
0.0
 40
0.00192
100
AcDbArc
 50
270.0
 51
30.0
  0
LINE
  5
77
330
1F
100
AcDbEntity
  8
0
  6
CONTINUOUS
 62
     7
100
AcDbLine
 10
0.0525564515
 20
0.1749459792
 30
0.0
 11
0.0487829485
 21
0.1814818776
 31
0.0
  0
ARC
  5
78
330
1F
100
AcDbEntity
  8
0
  6
CONTINUOUS
 62
     7
100
AcDbCircle
 10
0.0471201802
 20
0.1805218778
 30
0.0
 40
0.00192
100
AcDbArc
 50
30.0
 51
180.0
  0
LINE
  5
79
330
1F
100
AcDbEntity
  8
0
  6
CONTINUOUS
 62
     7
100
AcDbLine
 10
0.0452001804
 20
0.1805218778
 30
0.0
 11
0.0452001804
 21
0.1739859794
 31
0.0
  0
ARC
  5
7A
330
1F
100
AcDbEntity
  8
0
  6
CONTINUOUS
 62
     7
100
AcDbCircle
 10
0.1767560416
 20
0.1959859795
 30
0.0
 40
0.00192
100
AcDbArc
 50
30.0
 51
150.0
  0
LINE
  5
7B
330
1F
100
AcDbEntity
  8
0
  6
CONTINUOUS
 62
     7
100
AcDbLine
 10
0.1750932747
 20
0.1969459791
 30
0.0
 11
0.1623915696
 21
0.1749459792
 31
0.0
  0
ARC
  5
7C
330
1F
100
AcDbEntity
  8
0
  6
CONTINUOUS
 62
     7
100
AcDbCircle
 10
0.1640543357
 20
0.1739859795
 30
0.0
 40
0.00192
100
AcDbArc
 50
150.0
 51
270.0
  0
LINE
  5
7D
330
1F
100
AcDbEntity
  8
0
  6
CONTINUOUS
 62
     7
100
AcDbLine
 10
0.1640543306
 20
0.1720659796
 30
0.0
 11
0.1894577408
 21
0.1720659796
 31
0.0
  0
ARC
  5
7E
330
1F
100
AcDbEntity
  8
0
  6
CONTINUOUS
 62
     7
100
AcDbCircle
 10
0.1894577475
 20
0.1739859795
 30
0.0
 40
0.00192
100
AcDbArc
 50
270.0
 51
30.0
  0
LINE
  5
7F
330
1F
100
AcDbEntity
  8
0
  6
CONTINUOUS
 62
     7
100
AcDbLine
 10
0.1911205166
 20
0.1749459792
 30
0.0
 11
0.1784188115
 21
0.1969459791
 31
0.0
  0
ARC
  5
80
330
1F
100
AcDbEntity
  8
0
  6
CONTINUOUS
 62
     7
100
AcDbCircle
 10
0.1871483464
 20
0.1979859795
 30
0.0
 40
0.00192
100
AcDbArc
 50
90.0
 51
210.0
  0
LINE
  5
81
330
1F
100
AcDbEntity
  8
0
  6
CONTINUOUS
 62
     7
100
AcDbLine
 10
0.1854855829
 20
0.1970259797
 30
0.0
 11
0.198187288
 21
0.1750259798
 31
0.0
  0
ARC
  5
82
330
1F
100
AcDbEntity
  8
0
  6
CONTINUOUS
 62
     7
100
AcDbCircle
 10
0.1998500524
 20
0.1759859795
 30
0.0
 40
0.00192
100
AcDbArc
 50
210.0
 51
330.0
  0
LINE
  5
83
330
1F
100
AcDbEntity
  8
0
  6
CONTINUOUS
 62
     7
100
AcDbLine
 10
0.2015128249
 20
0.1750259798
 30
0.0
 11
0.21421453
 21
0.1970259797
 31
0.0
  0
ARC
  5
84
330
1F
100
AcDbEntity
  8
0
  6
CONTINUOUS
 62
     7
100
AcDbCircle
 10
0.2125517583
 20
0.1979859795
 30
0.0
 40
0.00192
100
AcDbArc
 50
330.0
 51
90.0
  0
LINE
  5
85
330
1F
100
AcDbEntity
  8
0
  6
CONTINUOUS
 62
     7
100
AcDbLine
 10
0.2125517541
 20
0.1999059793
 30
0.0
 11
0.1871483439
 21
0.1999059793
 31
0.0
  0
ARC
  5
86
330
1F
100
AcDbEntity
  8
0
  6
CONTINUOUS
 62
     7
100
AcDbCircle
 10
0.2209440631
 20
0.1925218778
 30
0.0
 40
0.00192
100
AcDbArc
 50
0.0
 51
150.0
  0
LINE
  5
87
330
1F
100
AcDbEntity
  8
0
  6
CONTINUOUS
 62
     7
100
AcDbLine
 10
0.2192812973
 20
0.1934818777
 30
0.0
 11
0.2085795814
 21
0.1749459792
 31
0.0
  0
ARC
  5
88
330
1F
100
AcDbEntity
  8
0
  6
CONTINUOUS
 62
     7
100
AcDbCircle
 10
0.2102423572
 20
0.1739859795
 30
0.0
 40
0.00192
100
AcDbArc
 50
150.0
 51
270.0
  0
LINE
  5
89
330
1F
100
AcDbEntity
  8
0
  6
CONTINUOUS
 62
     7
100
AcDbLine
 10
0.2102423572
 20
0.1720659796
 30
0.0
 11
0.2209440583
 21
0.1720659796
 31
0.0
  0
ARC
  5
8A
330
1F
100
AcDbEntity
  8
0
  6
CONTINUOUS
 62
     7
100
AcDbCircle
 10
0.2209440631
 20
0.1739859795
 30
0.0
 40
0.00192
100
AcDbArc
 50
270.0
 51
0.0
  0
LINE
  5
8B
330
1F
100
AcDbEntity
  8
0
  6
CONTINUOUS
 62
     7
100
AcDbLine
 10
0.222864058
 20
0.1739859794
 30
0.0
 11
0.222864058
 21
0.1925218779
 31
0.0
  0
CIRCLE
  5
8C
330
1F
100
AcDbEntity
  8
0
  6
CONTINUOUS
 62
     7
100
AcDbCircle
 10
0.0359400251
 20
0.153616911
 30
0.0
 40
0.00142
  0
CIRCLE
  5
8D
330
1F
100
AcDbEntity
  8
0
  6
CONTINUOUS
 62
     7
100
AcDbCircle
 10
0.0147268217
 20
0.153616911
 30
0.0
 40
0.00142
  0
CIRCLE
  5
8E
330
1F
100
AcDbEntity
  8
0
  6
CONTINUOUS
 62
     7
100
AcDbCircle
 10
0.0147268217
 20
0.1324037076
 30
0.0
 40
0.00142
  0
CIRCLE
  5
8F
330
1F
100
AcDbEntity
  8
0
  6
CONTINUOUS
 62
     7
100
AcDbCircle
 10
0.0359400251
 20
0.1324037076
 30
0.0
 40
0.00142
  0
CIRCLE
  5
90
330
1F
100
AcDbEntity
  8
0
  6
CONTINUOUS
 62
     7
100
AcDbCircle
 10
0.2409400251
 20
0.153616911
 30
0.0
 40
0.00142
  0
CIRCLE
  5
91
330
1F
100
AcDbEntity
  8
0
  6
CONTINUOUS
 62
     7
100
AcDbCircle
 10
0.2409400251
 20
0.1324037076
 30
0.0
 40
0.00142
  0
CIRCLE
  5
92
330
1F
100
AcDbEntity
  8
0
  6
CONTINUOUS
 62
     7
100
AcDbCircle
 10
0.0253334234
 20
0.1430103093
 30
0.0
 40
0.00392
  0
LINE
  5
93
330
1F
100
AcDbEntity
  8
0
  6
CONTINUOUS
 62
     7
100
AcDbLine
 10
0.2303334216
 20
0.1630903095
 30
0.0
 11
0.0253334234
 21
0.1630903095
 31
0.0
  0
ARC
  5
94
330
1F
100
AcDbEntity
  8
0
  6
CONTINUOUS
 62
     7
100
AcDbCircle
 10
0.2303334234
 20
0.1430103093
 30
0.0
 40
0.02008
100
AcDbArc
 50
270.0
 51
90.0
  0
LINE
  5
95
330
1F
100
AcDbEntity
  8
0
  6
CONTINUOUS
 62
     7
100
AcDbLine
 10
0.0253334234
 20
0.1229303092
 30
0.0
 11
0.2303334216
 21
0.1229303092
 31
0.0
  0
ARC
  5
96
330
1F
100
AcDbEntity
  8
0
  6
CONTINUOUS
 62
     7
100
AcDbCircle
 10
0.0253334234
 20
0.1430103093
 30
0.0
 40
0.02008
100
AcDbArc
 50
90.0
 51
270.0
  0
CIRCLE
  5
97
330
1F
100
AcDbEntity
  8
0
  6
CONTINUOUS
 62
     7
100
AcDbCircle
 10
0.2303334234
 20
0.1280103093
 30
0.0
 40
0.00167
  0
CIRCLE
  5
98
330
1F
100
AcDbEntity
  8
0
  6
CONTINUOUS
 62
     7
100
AcDbCircle
 10
0.2303334234
 20
0.1580103093
 30
0.0
 40
0.00167
  0
CIRCLE
  5
99
330
1F
100
AcDbEntity
  8
0
  6
CONTINUOUS
 62
     7
100
AcDbCircle
 10
0.0253334234
 20
0.1280103093
 30
0.0
 40
0.00172
  0
CIRCLE
  5
9A
330
1F
100
AcDbEntity
  8
0
  6
CONTINUOUS
 62
     7
100
AcDbCircle
 10
0.0103334234
 20
0.1430103093
 30
0.0
 40
0.00172
  0
CIRCLE
  5
9B
330
1F
100
AcDbEntity
  8
0
  6
CONTINUOUS
 62
     7
100
AcDbCircle
 10
0.0253334234
 20
0.1580103093
 30
0.0
 40
0.00172
  0
CIRCLE
  5
9C
330
1F
100
AcDbEntity
  8
0
  6
CONTINUOUS
 62
     7
100
AcDbCircle
 10
0.0403334234
 20
0.1430103093
 30
0.0
 40
0.00172
  0
ARC
  5
9D
330
1F
100
AcDbEntity
  8
0
  6
CONTINUOUS
 62
     7
100
AcDbCircle
 10
0.061499231
 20
0.1330103093
 30
0.0
 40
0.00192
100
AcDbArc
 50
210.0
 51
330.0
  0
LINE
  5
9E
330
1F
100
AcDbEntity
  8
0
  6
CONTINUOUS
 62
     7
100
AcDbLine
 10
0.0631619992
 20
0.1320503097
 30
0.0
 11
0.0758637043
 21
0.1540503096
 31
0.0
  0
ARC
  5
9F
330
1F
100
AcDbEntity
  8
0
  6
CONTINUOUS
 62
     7
100
AcDbCircle
 10
0.0742009369
 20
0.1550103093
 30
0.0
 40
0.00192
100
AcDbArc
 50
330.0
 51
90.0
  0
LINE
  5
A0
330
1F
100
AcDbEntity
  8
0
  6
CONTINUOUS
 62
     7
100
AcDbLine
 10
0.0742009359
 20
0.1569303092
 30
0.0
 11
0.0487975257
 21
0.1569303092
 31
0.0
  0
ARC
  5
A1
330
1F
100
AcDbEntity
  8
0
  6
CONTINUOUS
 62
     7
100
AcDbCircle
 10
0.048797525
 20
0.1550103093
 30
0.0
 40
0.00192
100
AcDbArc
 50
90.0
 51
210.0
  0
LINE
  5
A2
330
1F
100
AcDbEntity
  8
0
  6
CONTINUOUS
 62
     7
100
AcDbLine
 10
0.0471347554
 20
0.1540503096
 30
0.0
 11
0.0598364624
 21
0.1320503097
 31
0.0
  0
ARC
  5
A3
330
1F
100
AcDbEntity
  8
0
  6
CONTINUOUS
 62
     7
100
AcDbCircle
 10
0.0972949477
 20
0.1310103093
 30
0.0
 40
0.00192
100
AcDbArc
 50
270.0
 51
30.0
  0
LINE
  5
A4
330
1F
100
AcDbEntity
  8
0
  6
CONTINUOUS
 62
     7
100
AcDbLine
 10
0.098957714
 20
0.1319703091
 30
0.0
 11
0.0862560089
 21
0.153970309
 31
0.0
  0
ARC
  5
A5
330
1F
100
AcDbEntity
  8
0
  6
CONTINUOUS
 62
     7
100
AcDbCircle
 10
0.0845932417
 20
0.1530103093
 30
0.0
 40
0.00192
100
AcDbArc
 50
30.0
 51
150.0
  0
LINE
  5
A6
330
1F
100
AcDbEntity
  8
0
  6
CONTINUOUS
 62
     7
100
AcDbLine
 10
0.082930472
 20
0.153970309
 30
0.0
 11
0.0702287669
 21
0.1319703091
 31
0.0
  0
ARC
  5
A7
330
1F
100
AcDbEntity
  8
0
  6
CONTINUOUS
 62
     7
100
AcDbCircle
 10
0.0718915358
 20
0.1310103093
 30
0.0
 40
0.00192
100
AcDbArc
 50
150.0
 51
270.0
  0
LINE
  5
A8
330
1F
100
AcDbEntity
  8
0
  6
CONTINUOUS
 62
     7
100
AcDbLine
 10
0.0718915353
 20
0.1290903095
 30
0.0
 11
0.0972949455
 21
0.1290903095
 31
0.0
  0
ARC
  5
A9
330
1F
100
AcDbEntity
  8
0
  6
CONTINUOUS
 62
     7
100
AcDbCircle
 10
0.0949855466
 20
0.1550103093
 30
0.0
 40
0.00192
100
AcDbArc
 50
90.0
 51
210.0
  0
LINE
  5
AA
330
1F
100
AcDbEntity
  8
0
  6
CONTINUOUS
 62
     7
100
AcDbLine
 10
0.0933227802
 20
0.1540503096
 30
0.0
 11
0.1060244853
 21
0.1320503097
 31
0.0
  0
ARC
  5
AB
330
1F
100
AcDbEntity
  8
0
  6
CONTINUOUS
 62
     7
100
AcDbCircle
 10
0.1076872525
 20
0.1330103093
 30
0.0
 40
0.00192
100
AcDbArc
 50
210.0
 51
330.0
  0
LINE
  5
AC
330
1F
100
AcDbEntity
  8
0
  6
CONTINUOUS
 62
     7
100
AcDbLine
 10
0.1093500222
 20
0.1320503097
 30
0.0
 11
0.1220517273
 21
0.1540503096
 31
0.0
  0
ARC
  5
AD
330
1F
100
AcDbEntity
  8
0
  6
CONTINUOUS
 62
     7
100
AcDbCircle
 10
0.1203889584
 20
0.1550103093
 30
0.0
 40
0.00192
100
AcDbArc
 50
330.0
 51
90.0
  0
LINE
  5
AE
330
1F
100
AcDbEntity
  8
0
  6
CONTINUOUS
 62
     7
100
AcDbLine
 10
0.1203889589
 20
0.1569303092
 30
0.0
 11
0.0949855487
 21
0.1569303092
 31
0.0
  0
ARC
  5
AF
330
1F
100
AcDbEntity
  8
0
  6
CONTINUOUS
 62
     7
100
AcDbCircle
 10
0.1434829692
 20
0.1310103093
 30
0.0
 40
0.00192
100
AcDbArc
 50
270.0
 51
30.0
  0
LINE
  5
B0
330
1F
100
AcDbEntity
  8
0
  6
CONTINUOUS
 62
     7
100
AcDbLine
 10
0.1451457406
 20
0.1319703091
 30
0.0
 11
0.1324440355
 21
0.153970309
 31
0.0
  0
ARC
  5
B1
330
1F
100
AcDbEntity
  8
0
  6
CONTINUOUS
 62
     7
100
AcDbCircle
 10
0.1307812633
 20
0.1530103093
 30
0.0
 40
0.00192
100
AcDbArc
 50
30.0
 51
150.0
  0
LINE
  5
B2
330
1F
100
AcDbEntity
  8
0
  6
CONTINUOUS
 62
     7
100
AcDbLine
 10
0.1291184912
 20
0.153970309
 30
0.0
 11
0.1164167861
 21
0.1319703091
 31
0.0
  0
ARC
  5
B3
330
1F
100
AcDbEntity
  8
0
  6
CONTINUOUS
 62
     7
100
AcDbCircle
 10
0.1180795573
 20
0.1310103093
 30
0.0
 40
0.00192
100
AcDbArc
 50
150.0
 51
270.0
  0
LINE
  5
B4
330
1F
100
AcDbEntity
  8
0
  6
CONTINUOUS
 62
     7
100
AcDbLine
 10
0.1180795546
 20
0.1290903095
 30
0.0
 11
0.1434829722
 21
0.1290903095
 31
0.0
  0
ARC
  5
B5
330
1F
100
AcDbEntity
  8
0
  6
CONTINUOUS
 62
     7
100
AcDbCircle
 10
0.1411735681
 20
0.1550103093
 30
0.0
 40
0.00192
100
AcDbArc
 50
90.0
 51
210.0
  0
LINE
  5
B6
330
1F
100
AcDbEntity
  8
0
  6
CONTINUOUS
 62
     7
100
AcDbLine
 10
0.1395107995
 20
0.1540503096
 30
0.0
 11
0.1522125046
 21
0.1320503097
 31
0.0
  0
ARC
  5
B7
330
1F
100
AcDbEntity
  8
0
  6
CONTINUOUS
 62
     7
100
AcDbCircle
 10
0.153875274
 20
0.1330103093
 30
0.0
 40
0.00192
100
AcDbArc
 50
210.0
 51
330.0
  0
LINE
  5
B8
330
1F
100
AcDbEntity
  8
0
  6
CONTINUOUS
 62
     7
100
AcDbLine
 10
0.1555380414
 20
0.1320503097
 30
0.0
 11
0.1682397465
 21
0.1540503096
 31
0.0
  0
ARC
  5
B9
330
1F
100
AcDbEntity
  8
0
  6
CONTINUOUS
 62
     7
100
AcDbCircle
 10
0.16657698
 20
0.1550103093
 30
0.0
 40
0.00192
100
AcDbArc
 50
330.0
 51
90.0
  0
LINE
  5
BA
330
1F
100
AcDbEntity
  8
0
  6
CONTINUOUS
 62
     7
100
AcDbLine
 10
0.1665769855
 20
0.1569303092
 30
0.0
 11
0.1411735679
 21
0.1569303092
 31
0.0
  0
ARC
  5
BB
330
1F
100
AcDbEntity
  8
0
  6
CONTINUOUS
 62
     7
100
AcDbCircle
 10
0.0473334234
 20
0.1375462077
 30
0.0
 40
0.00192
100
AcDbArc
 50
30.0
 51
180.0
  0
LINE
  5
BC
330
1F
100
AcDbEntity
  8
0
  6
CONTINUOUS
 62
     7
100
AcDbLine
 10
0.0454134236
 20
0.1375462077
 30
0.0
 11
0.0454134236
 21
0.1310103092
 31
0.0
  0
ARC
  5
BD
330
1F
100
AcDbEntity
  8
0
  6
CONTINUOUS
 62
     7
100
AcDbCircle
 10
0.0473334234
 20
0.1310103093
 30
0.0
 40
0.00192
100
AcDbArc
 50
180.0
 51
270.0
  0
LINE
  5
BE
330
1F
100
AcDbEntity
  8
0
  6
CONTINUOUS
 62
     7
100
AcDbLine
 10
0.0473334233
 20
0.1290903095
 30
0.0
 11
0.0511069263
 21
0.1290903095
 31
0.0
  0
ARC
  5
BF
330
1F
100
AcDbEntity
  8
0
  6
CONTINUOUS
 62
     7
100
AcDbCircle
 10
0.0511069261
 20
0.1310103093
 30
0.0
 40
0.00192
100
AcDbArc
 50
270.0
 51
30.0
  0
LINE
  5
C0
330
1F
100
AcDbEntity
  8
0
  6
CONTINUOUS
 62
     7
100
AcDbLine
 10
0.0527696947
 20
0.1319703091
 30
0.0
 11
0.0489961917
 21
0.1385062075
 31
0.0
  0
ARC
  5
C1
330
1F
100
AcDbEntity
  8
0
  6
CONTINUOUS
 62
     7
100
AcDbCircle
 10
0.1896709907
 20
0.1310103093
 30
0.0
 40
0.00192
100
AcDbArc
 50
270.0
 51
30.0
  0
LINE
  5
C2
330
1F
100
AcDbEntity
  8
0
  6
CONTINUOUS
 62
     7
100
AcDbLine
 10
0.1913337598
 20
0.1319703091
 30
0.0
 11
0.1786320547
 21
0.153970309
 31
0.0
  0
ARC
  5
C3
330
1F
100
AcDbEntity
  8
0
  6
CONTINUOUS
 62
     7
100
AcDbCircle
 10
0.1769692848
 20
0.1530103093
 30
0.0
 40
0.00192
100
AcDbArc
 50
30.0
 51
150.0
  0
LINE
  5
C4
330
1F
100
AcDbEntity
  8
0
  6
CONTINUOUS
 62
     7
100
AcDbLine
 10
0.1753065179
 20
0.153970309
 30
0.0
 11
0.1626048128
 21
0.1319703091
 31
0.0
  0
ARC
  5
C5
330
1F
100
AcDbEntity
  8
0
  6
CONTINUOUS
 62
     7
100
AcDbCircle
 10
0.1642675789
 20
0.1310103093
 30
0.0
 40
0.00192
100
AcDbArc
 50
150.0
 51
270.0
  0
LINE
  5
C6
330
1F
100
AcDbEntity
  8
0
  6
CONTINUOUS
 62
     7
100
AcDbLine
 10
0.1642675738
 20
0.1290903095
 30
0.0
 11
0.189670984
 21
0.1290903095
 31
0.0
  0
ARC
  5
C7
330
1F
100
AcDbEntity
  8
0
  6
CONTINUOUS
 62
     7
100
AcDbCircle
 10
0.2127650015
 20
0.1550103093
 30
0.0
 40
0.00192
100
AcDbArc
 50
330.0
 51
90.0
  0
LINE
  5
C8
330
1F
100
AcDbEntity
  8
0
  6
CONTINUOUS
 62
     7
100
AcDbLine
 10
0.2127649973
 20
0.1569303092
 30
0.0
 11
0.1873615871
 21
0.1569303092
 31
0.0
  0
ARC
  5
C9
330
1F
100
AcDbEntity
  8
0
  6
CONTINUOUS
 62
     7
100
AcDbCircle
 10
0.1873615897
 20
0.1550103093
 30
0.0
 40
0.00192
100
AcDbArc
 50
90.0
 51
210.0
  0
LINE
  5
CA
330
1F
100
AcDbEntity
  8
0
  6
CONTINUOUS
 62
     7
100
AcDbLine
 10
0.1856988261
 20
0.1540503096
 30
0.0
 11
0.1984005312
 21
0.1320503097
 31
0.0
  0
ARC
  5
CB
330
1F
100
AcDbEntity
  8
0
  6
CONTINUOUS
 62
     7
100
AcDbCircle
 10
0.2000632956
 20
0.1330103093
 30
0.0
 40
0.00192
100
AcDbArc
 50
210.0
 51
330.0
  0
LINE
  5
CC
330
1F
100
AcDbEntity
  8
0
  6
CONTINUOUS
 62
     7
100
AcDbLine
 10
0.2017260681
 20
0.1320503097
 30
0.0
 11
0.2144277732
 21
0.1540503096
 31
0.0
  0
ARC
  5
CD
330
1F
100
AcDbEntity
  8
0
  6
CONTINUOUS
 62
     7
100
AcDbCircle
 10
0.2211573063
 20
0.1310103093
 30
0.0
 40
0.00192
100
AcDbArc
 50
270.0
 51
0.0
  0
LINE
  5
CE
330
1F
100
AcDbEntity
  8
0
  6
CONTINUOUS
 62
     7
100
AcDbLine
 10
0.2230773012
 20
0.1310103092
 30
0.0
 11
0.2230773012
 21
0.1495462078
 31
0.0
  0
ARC
  5
CF
330
1F
100
AcDbEntity
  8
0
  6
CONTINUOUS
 62
     7
100
AcDbCircle
 10
0.2211573063
 20
0.1495462077
 30
0.0
 40
0.00192
100
AcDbArc
 50
0.0
 51
150.0
  0
LINE
  5
D0
330
1F
100
AcDbEntity
  8
0
  6
CONTINUOUS
 62
     7
100
AcDbLine
 10
0.2194945405
 20
0.1505062076
 30
0.0
 11
0.2087928246
 21
0.1319703091
 31
0.0
  0
ARC
  5
D1
330
1F
100
AcDbEntity
  8
0
  6
CONTINUOUS
 62
     7
100
AcDbCircle
 10
0.2104556004
 20
0.1310103093
 30
0.0
 40
0.00192
100
AcDbArc
 50
150.0
 51
270.0
  0
LINE
  5
D2
330
1F
100
AcDbEntity
  8
0
  6
CONTINUOUS
 62
     7
100
AcDbLine
 10
0.2104556004
 20
0.1290903095
 30
0.0
 11
0.2211573015
 21
0.1290903095
 31
0.0
  0
CIRCLE
  5
D3
330
1F
100
AcDbEntity
  8
0
  6
CONTINUOUS
 62
     7
100
AcDbCircle
 10
0.0350867299
 20
0.1101543354
 30
0.0
 40
0.00142
  0
CIRCLE
  5
D4
330
1F
100
AcDbEntity
  8
0
  6
CONTINUOUS
 62
     7
100
AcDbCircle
 10
0.0138735265
 20
0.1101543354
 30
0.0
 40
0.00142
  0
CIRCLE
  5
D5
330
1F
100
AcDbEntity
  8
0
  6
CONTINUOUS
 62
     7
100
AcDbCircle
 10
0.0138735265
 20
0.088941132
 30
0.0
 40
0.00142
  0
CIRCLE
  5
D6
330
1F
100
AcDbEntity
  8
0
  6
CONTINUOUS
 62
     7
100
AcDbCircle
 10
0.0350867299
 20
0.088941132
 30
0.0
 40
0.00142
  0
CIRCLE
  5
D7
330
1F
100
AcDbEntity
  8
0
  6
CONTINUOUS
 62
     7
100
AcDbCircle
 10
0.2400867299
 20
0.1101543354
 30
0.0
 40
0.00142
  0
CIRCLE
  5
D8
330
1F
100
AcDbEntity
  8
0
  6
CONTINUOUS
 62
     7
100
AcDbCircle
 10
0.2400867299
 20
0.088941132
 30
0.0
 40
0.00142
  0
CIRCLE
  5
D9
330
1F
100
AcDbEntity
  8
0
  6
CONTINUOUS
 62
     7
100
AcDbCircle
 10
0.0244801282
 20
0.0995477337
 30
0.0
 40
0.00392
  0
LINE
  5
DA
330
1F
100
AcDbEntity
  8
0
  6
CONTINUOUS
 62
     7
100
AcDbLine
 10
0.2294801264
 20
0.1196277339
 30
0.0
 11
0.0244801282
 21
0.1196277339
 31
0.0
  0
ARC
  5
DB
330
1F
100
AcDbEntity
  8
0
  6
CONTINUOUS
 62
     7
100
AcDbCircle
 10
0.2294801282
 20
0.0995477337
 30
0.0
 40
0.02008
100
AcDbArc
 50
270.0
 51
90.0
  0
LINE
  5
DC
330
1F
100
AcDbEntity
  8
0
  6
CONTINUOUS
 62
     7
100
AcDbLine
 10
0.0244801282
 20
0.0794677335
 30
0.0
 11
0.2294801264
 21
0.0794677335
 31
0.0
  0
ARC
  5
DD
330
1F
100
AcDbEntity
  8
0
  6
CONTINUOUS
 62
     7
100
AcDbCircle
 10
0.0244801282
 20
0.0995477337
 30
0.0
 40
0.02008
100
AcDbArc
 50
90.0
 51
270.0
  0
CIRCLE
  5
DE
330
1F
100
AcDbEntity
  8
0
  6
CONTINUOUS
 62
     7
100
AcDbCircle
 10
0.2294801282
 20
0.0845477337
 30
0.0
 40
0.00117
  0
CIRCLE
  5
DF
330
1F
100
AcDbEntity
  8
0
  6
CONTINUOUS
 62
     7
100
AcDbCircle
 10
0.2294801282
 20
0.1145477337
 30
0.0
 40
0.00117
  0
CIRCLE
  5
E0
330
1F
100
AcDbEntity
  8
0
  6
CONTINUOUS
 62
     7
100
AcDbCircle
 10
0.0244801282
 20
0.0845477337
 30
0.0
 40
0.00172
  0
CIRCLE
  5
E1
330
1F
100
AcDbEntity
  8
0
  6
CONTINUOUS
 62
     7
100
AcDbCircle
 10
0.0094801282
 20
0.0995477337
 30
0.0
 40
0.00172
  0
CIRCLE
  5
E2
330
1F
100
AcDbEntity
  8
0
  6
CONTINUOUS
 62
     7
100
AcDbCircle
 10
0.0244801282
 20
0.1145477337
 30
0.0
 40
0.00172
  0
CIRCLE
  5
E3
330
1F
100
AcDbEntity
  8
0
  6
CONTINUOUS
 62
     7
100
AcDbCircle
 10
0.0394801282
 20
0.0995477337
 30
0.0
 40
0.00172
  0
ARC
  5
E4
330
1F
100
AcDbEntity
  8
0
  6
CONTINUOUS
 62
     7
100
AcDbCircle
 10
0.0606459358
 20
0.0895477337
 30
0.0
 40
0.00192
100
AcDbArc
 50
210.0
 51
330.0
  0
LINE
  5
E5
330
1F
100
AcDbEntity
  8
0
  6
CONTINUOUS
 62
     7
100
AcDbLine
 10
0.0623087041
 20
0.0885877341
 30
0.0
 11
0.0750104091
 21
0.1105877339
 31
0.0
  0
ARC
  5
E6
330
1F
100
AcDbEntity
  8
0
  6
CONTINUOUS
 62
     7
100
AcDbCircle
 10
0.0733476417
 20
0.1115477337
 30
0.0
 40
0.00192
100
AcDbArc
 50
330.0
 51
90.0
  0
LINE
  5
E7
330
1F
100
AcDbEntity
  8
0
  6
CONTINUOUS
 62
     7
100
AcDbLine
 10
0.0733476407
 20
0.1134677335
 30
0.0
 11
0.0479442305
 21
0.1134677335
 31
0.0
  0
ARC
  5
E8
330
1F
100
AcDbEntity
  8
0
  6
CONTINUOUS
 62
     7
100
AcDbCircle
 10
0.0479442298
 20
0.1115477337
 30
0.0
 40
0.00192
100
AcDbArc
 50
90.0
 51
210.0
  0
LINE
  5
E9
330
1F
100
AcDbEntity
  8
0
  6
CONTINUOUS
 62
     7
100
AcDbLine
 10
0.0462814602
 20
0.1105877339
 30
0.0
 11
0.0589831672
 21
0.0885877341
 31
0.0
  0
ARC
  5
EA
330
1F
100
AcDbEntity
  8
0
  6
CONTINUOUS
 62
     7
100
AcDbCircle
 10
0.0964416525
 20
0.0875477337
 30
0.0
 40
0.00192
100
AcDbArc
 50
270.0
 51
30.0
  0
LINE
  5
EB
330
1F
100
AcDbEntity
  8
0
  6
CONTINUOUS
 62
     7
100
AcDbLine
 10
0.0981044188
 20
0.0885077334
 30
0.0
 11
0.0854027137
 21
0.1105077333
 31
0.0
  0
ARC
  5
EC
330
1F
100
AcDbEntity
  8
0
  6
CONTINUOUS
 62
     7
100
AcDbCircle
 10
0.0837399465
 20
0.1095477337
 30
0.0
 40
0.00192
100
AcDbArc
 50
30.0
 51
150.0
  0
LINE
  5
ED
330
1F
100
AcDbEntity
  8
0
  6
CONTINUOUS
 62
     7
100
AcDbLine
 10
0.0820771768
 20
0.1105077333
 30
0.0
 11
0.0693754717
 21
0.0885077334
 31
0.0
  0
ARC
  5
EE
330
1F
100
AcDbEntity
  8
0
  6
CONTINUOUS
 62
     7
100
AcDbCircle
 10
0.0710382406
 20
0.0875477337
 30
0.0
 40
0.00192
100
AcDbArc
 50
150.0
 51
270.0
  0
LINE
  5
EF
330
1F
100
AcDbEntity
  8
0
  6
CONTINUOUS
 62
     7
100
AcDbLine
 10
0.0710382401
 20
0.0856277339
 30
0.0
 11
0.0964416503
 21
0.0856277339
 31
0.0
  0
ARC
  5
F0
330
1F
100
AcDbEntity
  8
0
  6
CONTINUOUS
 62
     7
100
AcDbCircle
 10
0.0941322514
 20
0.1115477337
 30
0.0
 40
0.00192
100
AcDbArc
 50
90.0
 51
210.0
  0
LINE
  5
F1
330
1F
100
AcDbEntity
  8
0
  6
CONTINUOUS
 62
     7
100
AcDbLine
 10
0.092469485
 20
0.1105877339
 30
0.0
 11
0.1051711901
 21
0.0885877341
 31
0.0
  0
ARC
  5
F2
330
1F
100
AcDbEntity
  8
0
  6
CONTINUOUS
 62
     7
100
AcDbCircle
 10
0.1068339573
 20
0.0895477337
 30
0.0
 40
0.00192
100
AcDbArc
 50
210.0
 51
330.0
  0
LINE
  5
F3
330
1F
100
AcDbEntity
  8
0
  6
CONTINUOUS
 62
     7
100
AcDbLine
 10
0.108496727
 20
0.0885877341
 30
0.0
 11
0.1211984321
 21
0.1105877339
 31
0.0
  0
ARC
  5
F4
330
1F
100
AcDbEntity
  8
0
  6
CONTINUOUS
 62
     7
100
AcDbCircle
 10
0.1195356632
 20
0.1115477337
 30
0.0
 40
0.00192
100
AcDbArc
 50
330.0
 51
90.0
  0
LINE
  5
F5
330
1F
100
AcDbEntity
  8
0
  6
CONTINUOUS
 62
     7
100
AcDbLine
 10
0.1195356637
 20
0.1134677335
 30
0.0
 11
0.0941322535
 21
0.1134677335
 31
0.0
  0
ARC
  5
F6
330
1F
100
AcDbEntity
  8
0
  6
CONTINUOUS
 62
     7
100
AcDbCircle
 10
0.142629674
 20
0.0875477337
 30
0.0
 40
0.00192
100
AcDbArc
 50
270.0
 51
30.0
  0
LINE
  5
F7
330
1F
100
AcDbEntity
  8
0
  6
CONTINUOUS
 62
     7
100
AcDbLine
 10
0.1442924454
 20
0.0885077334
 30
0.0
 11
0.1315907403
 21
0.1105077333
 31
0.0
  0
ARC
  5
F8
330
1F
100
AcDbEntity
  8
0
  6
CONTINUOUS
 62
     7
100
AcDbCircle
 10
0.1299279681
 20
0.1095477337
 30
0.0
 40
0.00192
100
AcDbArc
 50
30.0
 51
150.0
  0
LINE
  5
F9
330
1F
100
AcDbEntity
  8
0
  6
CONTINUOUS
 62
     7
100
AcDbLine
 10
0.128265196
 20
0.1105077333
 30
0.0
 11
0.1155634909
 21
0.0885077334
 31
0.0
  0
ARC
  5
FA
330
1F
100
AcDbEntity
  8
0
  6
CONTINUOUS
 62
     7
100
AcDbCircle
 10
0.1172262621
 20
0.0875477337
 30
0.0
 40
0.00192
100
AcDbArc
 50
150.0
 51
270.0
  0
LINE
  5
FB
330
1F
100
AcDbEntity
  8
0
  6
CONTINUOUS
 62
     7
100
AcDbLine
 10
0.1172262594
 20
0.0856277339
 30
0.0
 11
0.142629677
 21
0.0856277339
 31
0.0
  0
ARC
  5
FC
330
1F
100
AcDbEntity
  8
0
  6
CONTINUOUS
 62
     7
100
AcDbCircle
 10
0.1403202729
 20
0.1115477337
 30
0.0
 40
0.00192
100
AcDbArc
 50
90.0
 51
210.0
  0
LINE
  5
FD
330
1F
100
AcDbEntity
  8
0
  6
CONTINUOUS
 62
     7
100
AcDbLine
 10
0.1386575043
 20
0.1105877339
 30
0.0
 11
0.1513592094
 21
0.0885877341
 31
0.0
  0
ARC
  5
FE
330
1F
100
AcDbEntity
  8
0
  6
CONTINUOUS
 62
     7
100
AcDbCircle
 10
0.1530219788
 20
0.0895477337
 30
0.0
 40
0.00192
100
AcDbArc
 50
210.0
 51
330.0
  0
LINE
  5
FF
330
1F
100
AcDbEntity
  8
0
  6
CONTINUOUS
 62
     7
100
AcDbLine
 10
0.1546847462
 20
0.0885877341
 30
0.0
 11
0.1673864513
 21
0.1105877339
 31
0.0
  0
ARC
  5
100
330
1F
100
AcDbEntity
  8
0
  6
CONTINUOUS
 62
     7
100
AcDbCircle
 10
0.1657236848
 20
0.1115477337
 30
0.0
 40
0.00192
100
AcDbArc
 50
330.0
 51
90.0
  0
LINE
  5
101
330
1F
100
AcDbEntity
  8
0
  6
CONTINUOUS
 62
     7
100
AcDbLine
 10
0.1657236903
 20
0.1134677335
 30
0.0
 11
0.1403202727
 21
0.1134677335
 31
0.0
  0
ARC
  5
102
330
1F
100
AcDbEntity
  8
0
  6
CONTINUOUS
 62
     7
100
AcDbCircle
 10
0.0464801282
 20
0.0940836321
 30
0.0
 40
0.00192
100
AcDbArc
 50
30.0
 51
180.0
  0
LINE
  5
103
330
1F
100
AcDbEntity
  8
0
  6
CONTINUOUS
 62
     7
100
AcDbLine
 10
0.0445601284
 20
0.094083632
 30
0.0
 11
0.0445601284
 21
0.0875477336
 31
0.0
  0
ARC
  5
104
330
1F
100
AcDbEntity
  8
0
  6
CONTINUOUS
 62
     7
100
AcDbCircle
 10
0.0464801282
 20
0.0875477337
 30
0.0
 40
0.00192
100
AcDbArc
 50
180.0
 51
270.0
  0
LINE
  5
105
330
1F
100
AcDbEntity
  8
0
  6
CONTINUOUS
 62
     7
100
AcDbLine
 10
0.0464801281
 20
0.0856277339
 30
0.0
 11
0.0502536311
 21
0.0856277339
 31
0.0
  0
ARC
  5
106
330
1F
100
AcDbEntity
  8
0
  6
CONTINUOUS
 62
     7
100
AcDbCircle
 10
0.0502536309
 20
0.0875477337
 30
0.0
 40
0.00192
100
AcDbArc
 50
270.0
 51
30.0
  0
LINE
  5
107
330
1F
100
AcDbEntity
  8
0
  6
CONTINUOUS
 62
     7
100
AcDbLine
 10
0.0519163995
 20
0.0885077334
 30
0.0
 11
0.0481428965
 21
0.0950436319
 31
0.0
  0
ARC
  5
108
330
1F
100
AcDbEntity
  8
0
  6
CONTINUOUS
 62
     7
100
AcDbCircle
 10
0.1888176955
 20
0.0875477337
 30
0.0
 40
0.00192
100
AcDbArc
 50
270.0
 51
30.0
  0
LINE
  5
109
330
1F
100
AcDbEntity
  8
0
  6
CONTINUOUS
 62
     7
100
AcDbLine
 10
0.1904804646
 20
0.0885077334
 30
0.0
 11
0.1777787595
 21
0.1105077333
 31
0.0
  0
ARC
  5
10A
330
1F
100
AcDbEntity
  8
0
  6
CONTINUOUS
 62
     7
100
AcDbCircle
 10
0.1761159896
 20
0.1095477337
 30
0.0
 40
0.00192
100
AcDbArc
 50
30.0
 51
150.0
  0
LINE
  5
10B
330
1F
100
AcDbEntity
  8
0
  6
CONTINUOUS
 62
     7
100
AcDbLine
 10
0.1744532227
 20
0.1105077333
 30
0.0
 11
0.1617515176
 21
0.0885077334
 31
0.0
  0
ARC
  5
10C
330
1F
100
AcDbEntity
  8
0
  6
CONTINUOUS
 62
     7
100
AcDbCircle
 10
0.1634142837
 20
0.0875477337
 30
0.0
 40
0.00192
100
AcDbArc
 50
150.0
 51
270.0
  0
LINE
  5
10D
330
1F
100
AcDbEntity
  8
0
  6
CONTINUOUS
 62
     7
100
AcDbLine
 10
0.1634142786
 20
0.0856277339
 30
0.0
 11
0.1888176888
 21
0.0856277339
 31
0.0
  0
ARC
  5
10E
330
1F
100
AcDbEntity
  8
0
  6
CONTINUOUS
 62
     7
100
AcDbCircle
 10
0.2119117063
 20
0.1115477337
 30
0.0
 40
0.00192
100
AcDbArc
 50
330.0
 51
90.0
  0
LINE
  5
10F
330
1F
100
AcDbEntity
  8
0
  6
CONTINUOUS
 62
     7
100
AcDbLine
 10
0.2119117021
 20
0.1134677335
 30
0.0
 11
0.1865082919
 21
0.1134677335
 31
0.0
  0
ARC
  5
110
330
1F
100
AcDbEntity
  8
0
  6
CONTINUOUS
 62
     7
100
AcDbCircle
 10
0.1865082945
 20
0.1115477337
 30
0.0
 40
0.00192
100
AcDbArc
 50
90.0
 51
210.0
  0
LINE
  5
111
330
1F
100
AcDbEntity
  8
0
  6
CONTINUOUS
 62
     7
100
AcDbLine
 10
0.1848455309
 20
0.1105877339
 30
0.0
 11
0.197547236
 21
0.0885877341
 31
0.0
  0
ARC
  5
112
330
1F
100
AcDbEntity
  8
0
  6
CONTINUOUS
 62
     7
100
AcDbCircle
 10
0.1992100004
 20
0.0895477337
 30
0.0
 40
0.00192
100
AcDbArc
 50
210.0
 51
330.0
  0
LINE
  5
113
330
1F
100
AcDbEntity
  8
0
  6
CONTINUOUS
 62
     7
100
AcDbLine
 10
0.2008727729
 20
0.0885877341
 30
0.0
 11
0.213574478
 21
0.1105877339
 31
0.0
  0
ARC
  5
114
330
1F
100
AcDbEntity
  8
0
  6
CONTINUOUS
 62
     7
100
AcDbCircle
 10
0.2203040111
 20
0.0875477337
 30
0.0
 40
0.00192
100
AcDbArc
 50
270.0
 51
0.0
  0
LINE
  5
115
330
1F
100
AcDbEntity
  8
0
  6
CONTINUOUS
 62
     7
100
AcDbLine
 10
0.222224006
 20
0.0875477336
 30
0.0
 11
0.222224006
 21
0.1060836321
 31
0.0
  0
ARC
  5
116
330
1F
100
AcDbEntity
  8
0
  6
CONTINUOUS
 62
     7
100
AcDbCircle
 10
0.2203040111
 20
0.1060836321
 30
0.0
 40
0.00192
100
AcDbArc
 50
0.0
 51
150.0
  0
LINE
  5
117
330
1F
100
AcDbEntity
  8
0
  6
CONTINUOUS
 62
     7
100
AcDbLine
 10
0.2186412453
 20
0.107043632
 30
0.0
 11
0.2079395294
 21
0.0885077334
 31
0.0
  0
ARC
  5
118
330
1F
100
AcDbEntity
  8
0
  6
CONTINUOUS
 62
     7
100
AcDbCircle
 10
0.2096023052
 20
0.0875477337
 30
0.0
 40
0.00192
100
AcDbArc
 50
150.0
 51
270.0
  0
LINE
  5
119
330
1F
100
AcDbEntity
  8
0
  6
CONTINUOUS
 62
     7
100
AcDbLine
 10
0.2096023052
 20
0.0856277339
 30
0.0
 11
0.2203040063
 21
0.0856277339
 31
0.0
  0
CIRCLE
  5
11A
330
1F
100
AcDbEntity
  8
0
  6
CONTINUOUS
 62
     7
100
AcDbCircle
 10
0.0143714957
 20
0.0669822623
 30
0.0
 40
0.00142
  0
CIRCLE
  5
11B
330
1F
100
AcDbEntity
  8
0
  6
CONTINUOUS
 62
     7
100
AcDbCircle
 10
0.0143714957
 20
0.0457690588
 30
0.0
 40
0.00142
  0
CIRCLE
  5
11C
330
1F
100
AcDbEntity
  8
0
  6
CONTINUOUS
 62
     7
100
AcDbCircle
 10
0.0355846991
 20
0.0457690588
 30
0.0
 40
0.00142
  0
CIRCLE
  5
11D
330
1F
100
AcDbEntity
  8
0
  6
CONTINUOUS
 62
     7
100
AcDbCircle
 10
0.0355846991
 20
0.0669822623
 30
0.0
 40
0.00142
  0
CIRCLE
  5
11E
330
1F
100
AcDbEntity
  8
0
  6
CONTINUOUS
 62
     7
100
AcDbCircle
 10
0.0249780974
 20
0.0563756605
 30
0.0
 40
0.00392
  0
CIRCLE
  5
11F
330
1F
100
AcDbEntity
  8
0
  6
CONTINUOUS
 62
     7
100
AcDbCircle
 10
0.0249780974
 20
0.0563756605
 30
0.0
 40
0.02
  0
CIRCLE
  5
120
330
1F
100
AcDbEntity
  8
0
  6
CONTINUOUS
 62
     7
100
AcDbCircle
 10
0.0249780974
 20
0.0713756605
 30
0.0
 40
0.00167
  0
CIRCLE
  5
121
330
1F
100
AcDbEntity
  8
0
  6
CONTINUOUS
 62
     7
100
AcDbCircle
 10
0.0399780974
 20
0.0563756605
 30
0.0
 40
0.00167
  0
CIRCLE
  5
122
330
1F
100
AcDbEntity
  8
0
  6
CONTINUOUS
 62
     7
100
AcDbCircle
 10
0.0249780974
 20
0.0413756605
 30
0.0
 40
0.00167
  0
CIRCLE
  5
123
330
1F
100
AcDbEntity
  8
0
  6
CONTINUOUS
 62
     7
100
AcDbCircle
 10
0.0099780974
 20
0.0563756605
 30
0.0
 40
0.00167
  0
CIRCLE
  5
124
330
1F
100
AcDbEntity
  8
0
  6
CONTINUOUS
 62
     7
100
AcDbCircle
 10
0.0601328003
 20
0.0656967557
 30
0.0
 40
0.00142
  0
CIRCLE
  5
125
330
1F
100
AcDbEntity
  8
0
  6
CONTINUOUS
 62
     7
100
AcDbCircle
 10
0.0601328003
 20
0.0444835523
 30
0.0
 40
0.00142
  0
CIRCLE
  5
126
330
1F
100
AcDbEntity
  8
0
  6
CONTINUOUS
 62
     7
100
AcDbCircle
 10
0.0813460038
 20
0.0444835523
 30
0.0
 40
0.00142
  0
CIRCLE
  5
127
330
1F
100
AcDbEntity
  8
0
  6
CONTINUOUS
 62
     7
100
AcDbCircle
 10
0.0813460038
 20
0.0656967557
 30
0.0
 40
0.00142
  0
CIRCLE
  5
128
330
1F
100
AcDbEntity
  8
0
  6
CONTINUOUS
 62
     7
100
AcDbCircle
 10
0.070739402
 20
0.055090154
 30
0.0
 40
0.00392
  0
CIRCLE
  5
129
330
1F
100
AcDbEntity
  8
0
  6
CONTINUOUS
 62
     7
100
AcDbCircle
 10
0.070739402
 20
0.055090154
 30
0.0
 40
0.0225
  0
CIRCLE
  5
12A
330
1F
100
AcDbEntity
  8
0
  6
CONTINUOUS
 62
     7
100
AcDbCircle
 10
0.070739402
 20
0.070090154
 30
0.0
 40
0.00117
  0
CIRCLE
  5
12B
330
1F
100
AcDbEntity
  8
0
  6
CONTINUOUS
 62
     7
100
AcDbCircle
 10
0.085739402
 20
0.055090154
 30
0.0
 40
0.00117
  0
CIRCLE
  5
12C
330
1F
100
AcDbEntity
  8
0
  6
CONTINUOUS
 62
     7
100
AcDbCircle
 10
0.070739402
 20
0.040090154
 30
0.0
 40
0.00117
  0
CIRCLE
  5
12D
330
1F
100
AcDbEntity
  8
0
  6
CONTINUOUS
 62
     7
100
AcDbCircle
 10
0.055739402
 20
0.055090154
 30
0.0
 40
0.00117
  0
MTEXT
  5
12F
330
1F
100
AcDbEntity
  8
0
  6
CONTINUOUS
 62
     7
100
AcDbMText
 10
0.0
 20
0.0101326831
 30
0.0
 40
0.003633
 41
0.0
 71
     1
 72
     1
  1
SolidWorks Student Edition.
  7
SLDTEXTSTYLE0
  0
MTEXT
  5
130
330
1F
100
AcDbEntity
  8
0
  6
CONTINUOUS
 62
     7
100
AcDbMText
 10
0.0
 20
0.0046831831
 30
0.0
 40
0.003633
 41
0.0
 71
     1
 72
     1
  1
For Academic Use Only.
  7
SLDTEXTSTYLE0
  0
ENDSEC
  0
SECTION
  2
OBJECTS
  0
DICTIONARY
  5
C
330
0
100
AcDbDictionary
  3
ACAD_GROUP
350
D
  3
ACAD_MLINESTYLE
350
17
1001
ACAD
1000
TREAT_AS_HARD
1070
     0
  0
DICTIONARY
  5
D
102
{ACAD_REACTORS
330
C
102
}
330
C
100
AcDbDictionary
1001
ACAD
1000
TREAT_AS_HARD
1070
     0
  0
DICTIONARY
  5
17
102
{ACAD_REACTORS
330
C
102
}
330
C
100
AcDbDictionary
  3
STANDARD
350
18
1001
ACAD
1000
TREAT_AS_HARD
1070
     0
  0
MLINESTYLE
  5
18
102
{ACAD_REACTORS
330
17
102
}
330
17
100
AcDbMlineStyle
  2
Standard
 70
     0
  3

 62
   256
 51
90.0
 52
90.0
 71
     2
 49
0.5
 62
   256
  6
BYLAYER
 49
-0.5
 62
   256
  6
BYLAYER
  0
ENDSEC
  0
EOF
